G04 #@! TF.GenerationSoftware,KiCad,Pcbnew,5.1.7-a382d34a8~87~ubuntu20.04.1*
G04 #@! TF.CreationDate,2021-01-14T17:18:01+09:00*
G04 #@! TF.ProjectId,AKBONE2020LGT8F,414b424f-4e45-4323-9032-304c47543846,rev?*
G04 #@! TF.SameCoordinates,Original*
G04 #@! TF.FileFunction,Soldermask,Top*
G04 #@! TF.FilePolarity,Negative*
%FSLAX46Y46*%
G04 Gerber Fmt 4.6, Leading zero omitted, Abs format (unit mm)*
G04 Created by KiCad (PCBNEW 5.1.7-a382d34a8~87~ubuntu20.04.1) date 2021-01-14 17:18:01*
%MOMM*%
%LPD*%
G01*
G04 APERTURE LIST*
%ADD10C,3.600000*%
%ADD11C,2.000000*%
%ADD12O,2.600000X2.600000*%
%ADD13O,2.100000X2.100000*%
%ADD14C,3.900000*%
%ADD15C,1.924000*%
%ADD16C,1.900000*%
%ADD17O,2.000000X3.400000*%
%ADD18O,3.400000X2.000000*%
%ADD19C,6.100000*%
%ADD20O,2.000000X2.000000*%
%ADD21C,0.100000*%
G04 APERTURE END LIST*
D10*
X167500000Y-89500000D03*
X167500000Y-124500000D03*
X232500000Y-124500000D03*
X232500000Y-89500000D03*
G36*
G01*
X171290000Y-126730000D02*
X171290000Y-124730000D01*
G75*
G02*
X171490000Y-124530000I200000J0D01*
G01*
X176490000Y-124530000D01*
G75*
G02*
X176690000Y-124730000I0J-200000D01*
G01*
X176690000Y-126730000D01*
G75*
G02*
X176490000Y-126930000I-200000J0D01*
G01*
X171490000Y-126930000D01*
G75*
G02*
X171290000Y-126730000I0J200000D01*
G01*
G37*
G36*
G01*
X177640000Y-126730000D02*
X177640000Y-124730000D01*
G75*
G02*
X177840000Y-124530000I200000J0D01*
G01*
X182840000Y-124530000D01*
G75*
G02*
X183040000Y-124730000I0J-200000D01*
G01*
X183040000Y-126730000D01*
G75*
G02*
X182840000Y-126930000I-200000J0D01*
G01*
X177840000Y-126930000D01*
G75*
G02*
X177640000Y-126730000I0J200000D01*
G01*
G37*
G36*
G01*
X223790000Y-123990000D02*
X223790000Y-122390000D01*
G75*
G02*
X223990000Y-122190000I200000J0D01*
G01*
X225590000Y-122190000D01*
G75*
G02*
X225790000Y-122390000I0J-200000D01*
G01*
X225790000Y-123990000D01*
G75*
G02*
X225590000Y-124190000I-200000J0D01*
G01*
X223990000Y-124190000D01*
G75*
G02*
X223790000Y-123990000I0J200000D01*
G01*
G37*
D11*
X226790000Y-123190000D03*
G36*
G01*
X182850000Y-91270000D02*
X182850000Y-89070000D01*
G75*
G02*
X183050000Y-88870000I200000J0D01*
G01*
X185250000Y-88870000D01*
G75*
G02*
X185450000Y-89070000I0J-200000D01*
G01*
X185450000Y-91270000D01*
G75*
G02*
X185250000Y-91470000I-200000J0D01*
G01*
X183050000Y-91470000D01*
G75*
G02*
X182850000Y-91270000I0J200000D01*
G01*
G37*
D12*
X194310000Y-90170000D03*
G36*
G01*
X173770000Y-114720000D02*
X173770000Y-116420000D01*
G75*
G02*
X173570000Y-116620000I-200000J0D01*
G01*
X171870000Y-116620000D01*
G75*
G02*
X171670000Y-116420000I0J200000D01*
G01*
X171670000Y-114720000D01*
G75*
G02*
X171870000Y-114520000I200000J0D01*
G01*
X173570000Y-114520000D01*
G75*
G02*
X173770000Y-114720000I0J-200000D01*
G01*
G37*
D13*
X172720000Y-113030000D03*
X172720000Y-110490000D03*
X172720000Y-107950000D03*
X172720000Y-105410000D03*
G36*
G01*
X217590000Y-122140000D02*
X219290000Y-122140000D01*
G75*
G02*
X219490000Y-122340000I0J-200000D01*
G01*
X219490000Y-124040000D01*
G75*
G02*
X219290000Y-124240000I-200000J0D01*
G01*
X217590000Y-124240000D01*
G75*
G02*
X217390000Y-124040000I0J200000D01*
G01*
X217390000Y-122340000D01*
G75*
G02*
X217590000Y-122140000I200000J0D01*
G01*
G37*
X215900000Y-123190000D03*
X213360000Y-123190000D03*
X210820000Y-123190000D03*
X208280000Y-123190000D03*
X205740000Y-123190000D03*
X203200000Y-123190000D03*
X200660000Y-123190000D03*
X198120000Y-123190000D03*
X195580000Y-123190000D03*
X193040000Y-123190000D03*
X190500000Y-123190000D03*
X187960000Y-123190000D03*
D14*
X221500000Y-104000000D03*
X221500000Y-117140000D03*
G36*
G01*
X224972000Y-115032000D02*
X223448000Y-115032000D01*
G75*
G02*
X223248000Y-114832000I0J200000D01*
G01*
X223248000Y-113308000D01*
G75*
G02*
X223448000Y-113108000I200000J0D01*
G01*
X224972000Y-113108000D01*
G75*
G02*
X225172000Y-113308000I0J-200000D01*
G01*
X225172000Y-114832000D01*
G75*
G02*
X224972000Y-115032000I-200000J0D01*
G01*
G37*
D15*
X224210000Y-111570000D03*
X224210000Y-109570000D03*
X224210000Y-107070000D03*
G36*
G01*
X220560000Y-100110000D02*
X218860000Y-100110000D01*
G75*
G02*
X218660000Y-99910000I0J200000D01*
G01*
X218660000Y-98210000D01*
G75*
G02*
X218860000Y-98010000I200000J0D01*
G01*
X220560000Y-98010000D01*
G75*
G02*
X220760000Y-98210000I0J-200000D01*
G01*
X220760000Y-99910000D01*
G75*
G02*
X220560000Y-100110000I-200000J0D01*
G01*
G37*
D13*
X222250000Y-99060000D03*
X224790000Y-99060000D03*
X224790000Y-96520000D03*
X222250000Y-96520000D03*
G36*
G01*
X220560000Y-97570000D02*
X218860000Y-97570000D01*
G75*
G02*
X218660000Y-97370000I0J200000D01*
G01*
X218660000Y-95670000D01*
G75*
G02*
X218860000Y-95470000I200000J0D01*
G01*
X220560000Y-95470000D01*
G75*
G02*
X220760000Y-95670000I0J-200000D01*
G01*
X220760000Y-97370000D01*
G75*
G02*
X220560000Y-97570000I-200000J0D01*
G01*
G37*
D16*
X197660000Y-92710000D03*
X199660000Y-92710000D03*
X201660000Y-92710000D03*
X203660000Y-92710000D03*
D17*
X182880000Y-118110000D03*
X185420000Y-118110000D03*
X187960000Y-118110000D03*
X190500000Y-118110000D03*
X193040000Y-118110000D03*
X195580000Y-118110000D03*
X198120000Y-118110000D03*
X200660000Y-118110000D03*
X203200000Y-118110000D03*
X205740000Y-118110000D03*
D18*
X208280000Y-115570000D03*
X208280000Y-113030000D03*
X208280000Y-110490000D03*
X208280000Y-107950000D03*
X208280000Y-105410000D03*
D17*
X205740000Y-102870000D03*
X203200000Y-102870000D03*
X200660000Y-102870000D03*
X198120000Y-102870000D03*
X195580000Y-102870000D03*
X193040000Y-102870000D03*
X190500000Y-102870000D03*
X187960000Y-102870000D03*
X185420000Y-102870000D03*
X182880000Y-102870000D03*
D18*
X180340000Y-105410000D03*
X180340000Y-107950000D03*
X180340000Y-110490000D03*
X180340000Y-113030000D03*
X180340000Y-115570000D03*
G36*
G01*
X232050000Y-116350000D02*
X232050000Y-118050000D01*
G75*
G02*
X231850000Y-118250000I-200000J0D01*
G01*
X230150000Y-118250000D01*
G75*
G02*
X229950000Y-118050000I0J200000D01*
G01*
X229950000Y-116350000D01*
G75*
G02*
X230150000Y-116150000I200000J0D01*
G01*
X231850000Y-116150000D01*
G75*
G02*
X232050000Y-116350000I0J-200000D01*
G01*
G37*
D13*
X233540000Y-117200000D03*
X231000000Y-114660000D03*
X233540000Y-114660000D03*
X231000000Y-112120000D03*
X233540000Y-112120000D03*
X231000000Y-109580000D03*
X233540000Y-109580000D03*
X231000000Y-107040000D03*
X233540000Y-107040000D03*
X231000000Y-104500000D03*
X233540000Y-104500000D03*
G36*
G01*
X171720000Y-96050000D02*
X171720000Y-94450000D01*
G75*
G02*
X171920000Y-94250000I200000J0D01*
G01*
X173520000Y-94250000D01*
G75*
G02*
X173720000Y-94450000I0J-200000D01*
G01*
X173720000Y-96050000D01*
G75*
G02*
X173520000Y-96250000I-200000J0D01*
G01*
X171920000Y-96250000D01*
G75*
G02*
X171720000Y-96050000I0J200000D01*
G01*
G37*
D11*
X179220000Y-95250000D03*
D19*
X173990000Y-123190000D03*
X180340000Y-123190000D03*
G36*
G01*
X220560000Y-95030000D02*
X218860000Y-95030000D01*
G75*
G02*
X218660000Y-94830000I0J200000D01*
G01*
X218660000Y-93130000D01*
G75*
G02*
X218860000Y-92930000I200000J0D01*
G01*
X220560000Y-92930000D01*
G75*
G02*
X220760000Y-93130000I0J-200000D01*
G01*
X220760000Y-94830000D01*
G75*
G02*
X220560000Y-95030000I-200000J0D01*
G01*
G37*
D13*
X222250000Y-93980000D03*
X224790000Y-93980000D03*
X224790000Y-91440000D03*
X222250000Y-91440000D03*
G36*
G01*
X220560000Y-92490000D02*
X218860000Y-92490000D01*
G75*
G02*
X218660000Y-92290000I0J200000D01*
G01*
X218660000Y-90590000D01*
G75*
G02*
X218860000Y-90390000I200000J0D01*
G01*
X220560000Y-90390000D01*
G75*
G02*
X220760000Y-90590000I0J-200000D01*
G01*
X220760000Y-92290000D01*
G75*
G02*
X220560000Y-92490000I-200000J0D01*
G01*
G37*
D16*
X208788000Y-92710000D03*
X210788000Y-92710000D03*
X212788000Y-92710000D03*
X214788000Y-92710000D03*
D20*
X176530000Y-115570000D03*
D11*
X176530000Y-105410000D03*
X205740000Y-97790000D03*
D20*
X215900000Y-97790000D03*
X203200000Y-97790000D03*
D11*
X193040000Y-97790000D03*
X184150000Y-93980000D03*
D20*
X194310000Y-93980000D03*
D21*
G36*
X225791990Y-122484141D02*
G01*
X225794372Y-122508328D01*
X225801372Y-122531403D01*
X225812737Y-122552667D01*
X225828032Y-122571304D01*
X225846669Y-122586599D01*
X225867933Y-122597964D01*
X225891008Y-122604964D01*
X225914999Y-122607327D01*
X225938990Y-122604964D01*
X225962065Y-122597964D01*
X225983329Y-122586599D01*
X226001966Y-122571304D01*
X226013494Y-122557256D01*
X226015366Y-122556552D01*
X226016912Y-122557820D01*
X226016703Y-122559636D01*
X225909852Y-122719550D01*
X225834984Y-122900297D01*
X225796815Y-123092182D01*
X225796815Y-123287818D01*
X225834984Y-123479703D01*
X225909852Y-123660450D01*
X226016704Y-123820365D01*
X226016835Y-123822361D01*
X226015172Y-123823472D01*
X226013495Y-123822745D01*
X226001964Y-123808695D01*
X225983327Y-123793400D01*
X225962063Y-123782035D01*
X225938988Y-123775035D01*
X225914997Y-123772673D01*
X225891006Y-123775036D01*
X225867931Y-123782037D01*
X225846668Y-123793402D01*
X225828031Y-123808698D01*
X225812736Y-123827335D01*
X225801371Y-123848599D01*
X225794371Y-123871674D01*
X225791990Y-123895859D01*
X225790825Y-123897485D01*
X225788835Y-123897289D01*
X225788000Y-123895663D01*
X225788000Y-122484337D01*
X225789000Y-122482605D01*
X225791000Y-122482605D01*
X225791990Y-122484141D01*
G37*
G36*
X224570543Y-110455823D02*
G01*
X224571308Y-110457671D01*
X224570268Y-110459174D01*
X224554245Y-110467738D01*
X224535608Y-110483033D01*
X224520312Y-110501670D01*
X224508947Y-110522933D01*
X224501947Y-110546008D01*
X224499584Y-110569999D01*
X224501947Y-110593990D01*
X224508947Y-110617065D01*
X224520312Y-110638329D01*
X224535607Y-110656966D01*
X224554244Y-110672262D01*
X224570267Y-110680825D01*
X224571323Y-110682523D01*
X224570380Y-110684287D01*
X224568559Y-110684437D01*
X224488672Y-110651347D01*
X224304093Y-110614632D01*
X224115907Y-110614632D01*
X223931328Y-110651347D01*
X223851440Y-110684438D01*
X223849457Y-110684177D01*
X223848692Y-110682329D01*
X223849732Y-110680826D01*
X223865755Y-110672262D01*
X223884392Y-110656967D01*
X223899688Y-110638330D01*
X223911053Y-110617067D01*
X223918053Y-110593992D01*
X223920416Y-110570001D01*
X223918053Y-110546010D01*
X223911053Y-110522935D01*
X223899688Y-110501671D01*
X223884393Y-110483034D01*
X223865756Y-110467738D01*
X223849733Y-110459175D01*
X223848677Y-110457477D01*
X223849620Y-110455713D01*
X223851441Y-110455563D01*
X223931328Y-110488653D01*
X224115907Y-110525368D01*
X224304093Y-110525368D01*
X224488672Y-110488653D01*
X224568560Y-110455562D01*
X224570543Y-110455823D01*
G37*
G36*
X209902288Y-92380827D02*
G01*
X209902438Y-92382648D01*
X209880831Y-92434812D01*
X209844575Y-92617083D01*
X209844575Y-92802917D01*
X209880831Y-92985188D01*
X209902438Y-93037352D01*
X209902177Y-93039335D01*
X209900329Y-93040100D01*
X209898826Y-93039060D01*
X209890262Y-93023037D01*
X209874966Y-93004400D01*
X209856330Y-92989105D01*
X209835066Y-92977740D01*
X209811991Y-92970740D01*
X209788000Y-92968377D01*
X209764009Y-92970740D01*
X209740934Y-92977740D01*
X209719670Y-92989105D01*
X209701033Y-93004401D01*
X209685738Y-93023037D01*
X209677174Y-93039060D01*
X209675475Y-93040116D01*
X209673712Y-93039173D01*
X209673562Y-93037352D01*
X209695169Y-92985188D01*
X209731425Y-92802917D01*
X209731425Y-92617083D01*
X209695169Y-92434812D01*
X209673562Y-92382648D01*
X209673823Y-92380665D01*
X209675671Y-92379900D01*
X209677174Y-92380940D01*
X209685738Y-92396963D01*
X209701034Y-92415600D01*
X209719670Y-92430895D01*
X209740934Y-92442260D01*
X209764009Y-92449260D01*
X209788000Y-92451623D01*
X209811991Y-92449260D01*
X209835066Y-92442260D01*
X209856330Y-92430895D01*
X209874967Y-92415599D01*
X209890262Y-92396963D01*
X209898826Y-92380940D01*
X209900525Y-92379884D01*
X209902288Y-92380827D01*
G37*
G36*
X198774288Y-92380827D02*
G01*
X198774438Y-92382648D01*
X198752831Y-92434812D01*
X198716575Y-92617083D01*
X198716575Y-92802917D01*
X198752831Y-92985188D01*
X198774438Y-93037352D01*
X198774177Y-93039335D01*
X198772329Y-93040100D01*
X198770826Y-93039060D01*
X198762262Y-93023037D01*
X198746966Y-93004400D01*
X198728330Y-92989105D01*
X198707066Y-92977740D01*
X198683991Y-92970740D01*
X198660000Y-92968377D01*
X198636009Y-92970740D01*
X198612934Y-92977740D01*
X198591670Y-92989105D01*
X198573033Y-93004401D01*
X198557738Y-93023037D01*
X198549174Y-93039060D01*
X198547475Y-93040116D01*
X198545712Y-93039173D01*
X198545562Y-93037352D01*
X198567169Y-92985188D01*
X198603425Y-92802917D01*
X198603425Y-92617083D01*
X198567169Y-92434812D01*
X198545562Y-92382648D01*
X198545823Y-92380665D01*
X198547671Y-92379900D01*
X198549174Y-92380940D01*
X198557738Y-92396963D01*
X198573034Y-92415600D01*
X198591670Y-92430895D01*
X198612934Y-92442260D01*
X198636009Y-92449260D01*
X198660000Y-92451623D01*
X198683991Y-92449260D01*
X198707066Y-92442260D01*
X198728330Y-92430895D01*
X198746967Y-92415599D01*
X198762262Y-92396963D01*
X198770826Y-92380940D01*
X198772525Y-92379884D01*
X198774288Y-92380827D01*
G37*
G36*
X200774288Y-92380827D02*
G01*
X200774438Y-92382648D01*
X200752831Y-92434812D01*
X200716575Y-92617083D01*
X200716575Y-92802917D01*
X200752831Y-92985188D01*
X200774438Y-93037352D01*
X200774177Y-93039335D01*
X200772329Y-93040100D01*
X200770826Y-93039060D01*
X200762262Y-93023037D01*
X200746966Y-93004400D01*
X200728330Y-92989105D01*
X200707066Y-92977740D01*
X200683991Y-92970740D01*
X200660000Y-92968377D01*
X200636009Y-92970740D01*
X200612934Y-92977740D01*
X200591670Y-92989105D01*
X200573033Y-93004401D01*
X200557738Y-93023037D01*
X200549174Y-93039060D01*
X200547475Y-93040116D01*
X200545712Y-93039173D01*
X200545562Y-93037352D01*
X200567169Y-92985188D01*
X200603425Y-92802917D01*
X200603425Y-92617083D01*
X200567169Y-92434812D01*
X200545562Y-92382648D01*
X200545823Y-92380665D01*
X200547671Y-92379900D01*
X200549174Y-92380940D01*
X200557738Y-92396963D01*
X200573034Y-92415600D01*
X200591670Y-92430895D01*
X200612934Y-92442260D01*
X200636009Y-92449260D01*
X200660000Y-92451623D01*
X200683991Y-92449260D01*
X200707066Y-92442260D01*
X200728330Y-92430895D01*
X200746967Y-92415599D01*
X200762262Y-92396963D01*
X200770826Y-92380940D01*
X200772525Y-92379884D01*
X200774288Y-92380827D01*
G37*
G36*
X211902288Y-92380827D02*
G01*
X211902438Y-92382648D01*
X211880831Y-92434812D01*
X211844575Y-92617083D01*
X211844575Y-92802917D01*
X211880831Y-92985188D01*
X211902438Y-93037352D01*
X211902177Y-93039335D01*
X211900329Y-93040100D01*
X211898826Y-93039060D01*
X211890262Y-93023037D01*
X211874966Y-93004400D01*
X211856330Y-92989105D01*
X211835066Y-92977740D01*
X211811991Y-92970740D01*
X211788000Y-92968377D01*
X211764009Y-92970740D01*
X211740934Y-92977740D01*
X211719670Y-92989105D01*
X211701033Y-93004401D01*
X211685738Y-93023037D01*
X211677174Y-93039060D01*
X211675475Y-93040116D01*
X211673712Y-93039173D01*
X211673562Y-93037352D01*
X211695169Y-92985188D01*
X211731425Y-92802917D01*
X211731425Y-92617083D01*
X211695169Y-92434812D01*
X211673562Y-92382648D01*
X211673823Y-92380665D01*
X211675671Y-92379900D01*
X211677174Y-92380940D01*
X211685738Y-92396963D01*
X211701034Y-92415600D01*
X211719670Y-92430895D01*
X211740934Y-92442260D01*
X211764009Y-92449260D01*
X211788000Y-92451623D01*
X211811991Y-92449260D01*
X211835066Y-92442260D01*
X211856330Y-92430895D01*
X211874967Y-92415599D01*
X211890262Y-92396963D01*
X211898826Y-92380940D01*
X211900525Y-92379884D01*
X211902288Y-92380827D01*
G37*
G36*
X202774288Y-92380827D02*
G01*
X202774438Y-92382648D01*
X202752831Y-92434812D01*
X202716575Y-92617083D01*
X202716575Y-92802917D01*
X202752831Y-92985188D01*
X202774438Y-93037352D01*
X202774177Y-93039335D01*
X202772329Y-93040100D01*
X202770826Y-93039060D01*
X202762262Y-93023037D01*
X202746966Y-93004400D01*
X202728330Y-92989105D01*
X202707066Y-92977740D01*
X202683991Y-92970740D01*
X202660000Y-92968377D01*
X202636009Y-92970740D01*
X202612934Y-92977740D01*
X202591670Y-92989105D01*
X202573033Y-93004401D01*
X202557738Y-93023037D01*
X202549174Y-93039060D01*
X202547475Y-93040116D01*
X202545712Y-93039173D01*
X202545562Y-93037352D01*
X202567169Y-92985188D01*
X202603425Y-92802917D01*
X202603425Y-92617083D01*
X202567169Y-92434812D01*
X202545562Y-92382648D01*
X202545823Y-92380665D01*
X202547671Y-92379900D01*
X202549174Y-92380940D01*
X202557738Y-92396963D01*
X202573034Y-92415600D01*
X202591670Y-92430895D01*
X202612934Y-92442260D01*
X202636009Y-92449260D01*
X202660000Y-92451623D01*
X202683991Y-92449260D01*
X202707066Y-92442260D01*
X202728330Y-92430895D01*
X202746967Y-92415599D01*
X202762262Y-92396963D01*
X202770826Y-92380940D01*
X202772525Y-92379884D01*
X202774288Y-92380827D01*
G37*
G36*
X213902288Y-92380827D02*
G01*
X213902438Y-92382648D01*
X213880831Y-92434812D01*
X213844575Y-92617083D01*
X213844575Y-92802917D01*
X213880831Y-92985188D01*
X213902438Y-93037352D01*
X213902177Y-93039335D01*
X213900329Y-93040100D01*
X213898826Y-93039060D01*
X213890262Y-93023037D01*
X213874966Y-93004400D01*
X213856330Y-92989105D01*
X213835066Y-92977740D01*
X213811991Y-92970740D01*
X213788000Y-92968377D01*
X213764009Y-92970740D01*
X213740934Y-92977740D01*
X213719670Y-92989105D01*
X213701033Y-93004401D01*
X213685738Y-93023037D01*
X213677174Y-93039060D01*
X213675475Y-93040116D01*
X213673712Y-93039173D01*
X213673562Y-93037352D01*
X213695169Y-92985188D01*
X213731425Y-92802917D01*
X213731425Y-92617083D01*
X213695169Y-92434812D01*
X213673562Y-92382648D01*
X213673823Y-92380665D01*
X213675671Y-92379900D01*
X213677174Y-92380940D01*
X213685738Y-92396963D01*
X213701034Y-92415600D01*
X213719670Y-92430895D01*
X213740934Y-92442260D01*
X213764009Y-92449260D01*
X213788000Y-92451623D01*
X213811991Y-92449260D01*
X213835066Y-92442260D01*
X213856330Y-92430895D01*
X213874967Y-92415599D01*
X213890262Y-92396963D01*
X213898826Y-92380940D01*
X213900525Y-92379884D01*
X213902288Y-92380827D01*
G37*
M02*
