G04 #@! TF.GenerationSoftware,KiCad,Pcbnew,5.1.7-a382d34a8~87~ubuntu20.04.1*
G04 #@! TF.CreationDate,2021-01-14T17:18:01+09:00*
G04 #@! TF.ProjectId,AKBONE2020LGT8F,414b424f-4e45-4323-9032-304c47543846,rev?*
G04 #@! TF.SameCoordinates,Original*
G04 #@! TF.FileFunction,Legend,Bot*
G04 #@! TF.FilePolarity,Positive*
%FSLAX46Y46*%
G04 Gerber Fmt 4.6, Leading zero omitted, Abs format (unit mm)*
G04 Created by KiCad (PCBNEW 5.1.7-a382d34a8~87~ubuntu20.04.1) date 2021-01-14 17:18:01*
%MOMM*%
%LPD*%
G01*
G04 APERTURE LIST*
%ADD10C,0.175000*%
%ADD11C,0.200000*%
%ADD12C,0.250000*%
%ADD13C,0.500000*%
%ADD14C,0.170000*%
%ADD15C,0.150000*%
%ADD16C,0.125000*%
%ADD17C,0.002540*%
%ADD18C,0.120000*%
G04 APERTURE END LIST*
D10*
X212283420Y-94409240D02*
X212235800Y-94342573D01*
X212235800Y-94242573D01*
X212283420Y-94142573D01*
X212378658Y-94075906D01*
X212473896Y-94042573D01*
X212664372Y-94009240D01*
X212807229Y-94009240D01*
X212997705Y-94042573D01*
X213092943Y-94075906D01*
X213188181Y-94142573D01*
X213235800Y-94242573D01*
X213235800Y-94309240D01*
X213188181Y-94409240D01*
X213140562Y-94442573D01*
X212807229Y-94442573D01*
X212807229Y-94309240D01*
X212331039Y-94709240D02*
X212283420Y-94742573D01*
X212235800Y-94809240D01*
X212235800Y-94975906D01*
X212283420Y-95042573D01*
X212331039Y-95075906D01*
X212426277Y-95109240D01*
X212521515Y-95109240D01*
X212664372Y-95075906D01*
X213235800Y-94675906D01*
X213235800Y-95109240D01*
X213235800Y-95742573D02*
X213235800Y-95409240D01*
X212235800Y-95409240D01*
X212711991Y-96742573D02*
X212759610Y-96842573D01*
X212807229Y-96875906D01*
X212902467Y-96909240D01*
X213045324Y-96909240D01*
X213140562Y-96875906D01*
X213188181Y-96842573D01*
X213235800Y-96775906D01*
X213235800Y-96509240D01*
X212235800Y-96509240D01*
X212235800Y-96742573D01*
X212283420Y-96809240D01*
X212331039Y-96842573D01*
X212426277Y-96875906D01*
X212521515Y-96875906D01*
X212616753Y-96842573D01*
X212664372Y-96809240D01*
X212711991Y-96742573D01*
X212711991Y-96509240D01*
X213616753Y-97409240D02*
X213569134Y-97375906D01*
X213426277Y-97309240D01*
X213331039Y-97275906D01*
X213188181Y-97242573D01*
X212950086Y-97209240D01*
X212759610Y-97209240D01*
X212521515Y-97242573D01*
X212378658Y-97275906D01*
X212283420Y-97309240D01*
X212140562Y-97375906D01*
X212092943Y-97409240D01*
X212235800Y-98009240D02*
X212235800Y-97675906D01*
X212711991Y-97642573D01*
X212664372Y-97675906D01*
X212616753Y-97742573D01*
X212616753Y-97909240D01*
X212664372Y-97975906D01*
X212711991Y-98009240D01*
X212807229Y-98042573D01*
X213045324Y-98042573D01*
X213140562Y-98009240D01*
X213188181Y-97975906D01*
X213235800Y-97909240D01*
X213235800Y-97742573D01*
X213188181Y-97675906D01*
X213140562Y-97642573D01*
X212235800Y-98242573D02*
X213235800Y-98475906D01*
X212235800Y-98709240D01*
X212188181Y-99442573D02*
X213473896Y-98842573D01*
X212235800Y-99609240D02*
X212235800Y-100042573D01*
X212616753Y-99809240D01*
X212616753Y-99909240D01*
X212664372Y-99975906D01*
X212711991Y-100009240D01*
X212807229Y-100042573D01*
X213045324Y-100042573D01*
X213140562Y-100009240D01*
X213188181Y-99975906D01*
X213235800Y-99909240D01*
X213235800Y-99709240D01*
X213188181Y-99642573D01*
X213140562Y-99609240D01*
X213140562Y-100342573D02*
X213188181Y-100375906D01*
X213235800Y-100342573D01*
X213188181Y-100309240D01*
X213140562Y-100342573D01*
X213235800Y-100342573D01*
X212235800Y-100609240D02*
X212235800Y-101042573D01*
X212616753Y-100809240D01*
X212616753Y-100909240D01*
X212664372Y-100975906D01*
X212711991Y-101009240D01*
X212807229Y-101042573D01*
X213045324Y-101042573D01*
X213140562Y-101009240D01*
X213188181Y-100975906D01*
X213235800Y-100909240D01*
X213235800Y-100709240D01*
X213188181Y-100642573D01*
X213140562Y-100609240D01*
X212235800Y-101242573D02*
X213235800Y-101475906D01*
X212235800Y-101709240D01*
X213616753Y-101875906D02*
X213569134Y-101909240D01*
X213426277Y-101975906D01*
X213331039Y-102009240D01*
X213188181Y-102042573D01*
X212950086Y-102075906D01*
X212759610Y-102075906D01*
X212521515Y-102042573D01*
X212378658Y-102009240D01*
X212283420Y-101975906D01*
X212140562Y-101909240D01*
X212092943Y-101875906D01*
D11*
X209189580Y-94596793D02*
X209189580Y-94025364D01*
X209189580Y-94311079D02*
X208189580Y-94311079D01*
X208332438Y-94215840D01*
X208427676Y-94120602D01*
X208475295Y-94025364D01*
X208189580Y-95215840D02*
X208189580Y-95311079D01*
X208237200Y-95406317D01*
X208284819Y-95453936D01*
X208380057Y-95501555D01*
X208570533Y-95549174D01*
X208808628Y-95549174D01*
X208999104Y-95501555D01*
X209094342Y-95453936D01*
X209141961Y-95406317D01*
X209189580Y-95311079D01*
X209189580Y-95215840D01*
X209141961Y-95120602D01*
X209094342Y-95072983D01*
X208999104Y-95025364D01*
X208808628Y-94977745D01*
X208570533Y-94977745D01*
X208380057Y-95025364D01*
X208284819Y-95072983D01*
X208237200Y-95120602D01*
X208189580Y-95215840D01*
X208141961Y-96692031D02*
X209427676Y-95834888D01*
X209189580Y-97549174D02*
X209189580Y-96977745D01*
X209189580Y-97263460D02*
X208189580Y-97263460D01*
X208332438Y-97168221D01*
X208427676Y-97072983D01*
X208475295Y-96977745D01*
X209189580Y-98501555D02*
X209189580Y-97930126D01*
X209189580Y-98215840D02*
X208189580Y-98215840D01*
X208332438Y-98120602D01*
X208427676Y-98025364D01*
X208475295Y-97930126D01*
X214251920Y-94513495D02*
X214204300Y-94418257D01*
X214204300Y-94275400D01*
X214251920Y-94132542D01*
X214347158Y-94037304D01*
X214442396Y-93989685D01*
X214632872Y-93942066D01*
X214775729Y-93942066D01*
X214966205Y-93989685D01*
X215061443Y-94037304D01*
X215156681Y-94132542D01*
X215204300Y-94275400D01*
X215204300Y-94370638D01*
X215156681Y-94513495D01*
X215109062Y-94561114D01*
X214775729Y-94561114D01*
X214775729Y-94370638D01*
X215204300Y-94989685D02*
X214204300Y-94989685D01*
X215204300Y-95561114D01*
X214204300Y-95561114D01*
X215204300Y-96037304D02*
X214204300Y-96037304D01*
X214204300Y-96275400D01*
X214251920Y-96418257D01*
X214347158Y-96513495D01*
X214442396Y-96561114D01*
X214632872Y-96608733D01*
X214775729Y-96608733D01*
X214966205Y-96561114D01*
X215061443Y-96513495D01*
X215156681Y-96418257D01*
X215204300Y-96275400D01*
X215204300Y-96037304D01*
X210622212Y-94241121D02*
X210574593Y-94145883D01*
X210526974Y-94098264D01*
X210431736Y-94050645D01*
X210384117Y-94050645D01*
X210288879Y-94098264D01*
X210241260Y-94145883D01*
X210193640Y-94241121D01*
X210193640Y-94431598D01*
X210241260Y-94526836D01*
X210288879Y-94574455D01*
X210384117Y-94622074D01*
X210431736Y-94622074D01*
X210526974Y-94574455D01*
X210574593Y-94526836D01*
X210622212Y-94431598D01*
X210622212Y-94241121D01*
X210669831Y-94145883D01*
X210717450Y-94098264D01*
X210812688Y-94050645D01*
X211003164Y-94050645D01*
X211098402Y-94098264D01*
X211146021Y-94145883D01*
X211193640Y-94241121D01*
X211193640Y-94431598D01*
X211146021Y-94526836D01*
X211098402Y-94574455D01*
X211003164Y-94622074D01*
X210812688Y-94622074D01*
X210717450Y-94574455D01*
X210669831Y-94526836D01*
X210622212Y-94431598D01*
X210146021Y-95764931D02*
X211431736Y-94907788D01*
X211193640Y-96145883D02*
X211193640Y-96336360D01*
X211146021Y-96431598D01*
X211098402Y-96479217D01*
X210955545Y-96574455D01*
X210765069Y-96622074D01*
X210384117Y-96622074D01*
X210288879Y-96574455D01*
X210241260Y-96526836D01*
X210193640Y-96431598D01*
X210193640Y-96241121D01*
X210241260Y-96145883D01*
X210288879Y-96098264D01*
X210384117Y-96050645D01*
X210622212Y-96050645D01*
X210717450Y-96098264D01*
X210765069Y-96145883D01*
X210812688Y-96241121D01*
X210812688Y-96431598D01*
X210765069Y-96526836D01*
X210717450Y-96574455D01*
X210622212Y-96622074D01*
X203167360Y-94643035D02*
X203119740Y-94547797D01*
X203119740Y-94404940D01*
X203167360Y-94262082D01*
X203262598Y-94166844D01*
X203357836Y-94119225D01*
X203548312Y-94071606D01*
X203691169Y-94071606D01*
X203881645Y-94119225D01*
X203976883Y-94166844D01*
X204072121Y-94262082D01*
X204119740Y-94404940D01*
X204119740Y-94500178D01*
X204072121Y-94643035D01*
X204024502Y-94690654D01*
X203691169Y-94690654D01*
X203691169Y-94500178D01*
X204119740Y-95119225D02*
X203119740Y-95119225D01*
X204119740Y-95690654D01*
X203119740Y-95690654D01*
X204119740Y-96166844D02*
X203119740Y-96166844D01*
X203119740Y-96404940D01*
X203167360Y-96547797D01*
X203262598Y-96643035D01*
X203357836Y-96690654D01*
X203548312Y-96738273D01*
X203691169Y-96738273D01*
X203881645Y-96690654D01*
X203976883Y-96643035D01*
X204072121Y-96547797D01*
X204119740Y-96404940D01*
X204119740Y-96166844D01*
X201143620Y-94114786D02*
X202143620Y-94448120D01*
X201143620Y-94781453D01*
X202048382Y-95686215D02*
X202096001Y-95638596D01*
X202143620Y-95495739D01*
X202143620Y-95400500D01*
X202096001Y-95257643D01*
X202000763Y-95162405D01*
X201905525Y-95114786D01*
X201715049Y-95067167D01*
X201572192Y-95067167D01*
X201381716Y-95114786D01*
X201286478Y-95162405D01*
X201191240Y-95257643D01*
X201143620Y-95400500D01*
X201143620Y-95495739D01*
X201191240Y-95638596D01*
X201238859Y-95686215D01*
X202048382Y-96686215D02*
X202096001Y-96638596D01*
X202143620Y-96495739D01*
X202143620Y-96400500D01*
X202096001Y-96257643D01*
X202000763Y-96162405D01*
X201905525Y-96114786D01*
X201715049Y-96067167D01*
X201572192Y-96067167D01*
X201381716Y-96114786D01*
X201286478Y-96162405D01*
X201191240Y-96257643D01*
X201143620Y-96400500D01*
X201143620Y-96495739D01*
X201191240Y-96638596D01*
X201238859Y-96686215D01*
X198105020Y-94773952D02*
X198105020Y-94202523D01*
X198105020Y-94488238D02*
X197105020Y-94488238D01*
X197247878Y-94393000D01*
X197343116Y-94297761D01*
X197390735Y-94202523D01*
X198105020Y-95250142D02*
X198105020Y-95440619D01*
X198057401Y-95535857D01*
X198009782Y-95583476D01*
X197866925Y-95678714D01*
X197676449Y-95726333D01*
X197295497Y-95726333D01*
X197200259Y-95678714D01*
X197152640Y-95631095D01*
X197105020Y-95535857D01*
X197105020Y-95345380D01*
X197152640Y-95250142D01*
X197200259Y-95202523D01*
X197295497Y-95154904D01*
X197533592Y-95154904D01*
X197628830Y-95202523D01*
X197676449Y-95250142D01*
X197724068Y-95345380D01*
X197724068Y-95535857D01*
X197676449Y-95631095D01*
X197628830Y-95678714D01*
X197533592Y-95726333D01*
X197057401Y-96869190D02*
X198343116Y-96012047D01*
X197819306Y-97154904D02*
X197819306Y-97631095D01*
X198105020Y-97059666D02*
X197105020Y-97393000D01*
X198105020Y-97726333D01*
X197105020Y-98535857D02*
X197105020Y-98059666D01*
X197581211Y-98012047D01*
X197533592Y-98059666D01*
X197485973Y-98154904D01*
X197485973Y-98393000D01*
X197533592Y-98488238D01*
X197581211Y-98535857D01*
X197676449Y-98583476D01*
X197914544Y-98583476D01*
X198009782Y-98535857D01*
X198057401Y-98488238D01*
X198105020Y-98393000D01*
X198105020Y-98154904D01*
X198057401Y-98059666D01*
X198009782Y-98012047D01*
X200037960Y-94773952D02*
X200037960Y-94202523D01*
X200037960Y-94488238D02*
X199037960Y-94488238D01*
X199180818Y-94393000D01*
X199276056Y-94297761D01*
X199323675Y-94202523D01*
X199466532Y-95345380D02*
X199418913Y-95250142D01*
X199371294Y-95202523D01*
X199276056Y-95154904D01*
X199228437Y-95154904D01*
X199133199Y-95202523D01*
X199085580Y-95250142D01*
X199037960Y-95345380D01*
X199037960Y-95535857D01*
X199085580Y-95631095D01*
X199133199Y-95678714D01*
X199228437Y-95726333D01*
X199276056Y-95726333D01*
X199371294Y-95678714D01*
X199418913Y-95631095D01*
X199466532Y-95535857D01*
X199466532Y-95345380D01*
X199514151Y-95250142D01*
X199561770Y-95202523D01*
X199657008Y-95154904D01*
X199847484Y-95154904D01*
X199942722Y-95202523D01*
X199990341Y-95250142D01*
X200037960Y-95345380D01*
X200037960Y-95535857D01*
X199990341Y-95631095D01*
X199942722Y-95678714D01*
X199847484Y-95726333D01*
X199657008Y-95726333D01*
X199561770Y-95678714D01*
X199514151Y-95631095D01*
X199466532Y-95535857D01*
X198990341Y-96869190D02*
X200276056Y-96012047D01*
X199752246Y-97154904D02*
X199752246Y-97631095D01*
X200037960Y-97059666D02*
X199037960Y-97393000D01*
X200037960Y-97726333D01*
X199371294Y-98488238D02*
X200037960Y-98488238D01*
X198990341Y-98250142D02*
X199704627Y-98012047D01*
X199704627Y-98631095D01*
X220715711Y-89220825D02*
X220106187Y-89220825D01*
X220410949Y-89563682D02*
X220410949Y-88877968D01*
X219344282Y-88663682D02*
X219725235Y-88663682D01*
X219763330Y-89092254D01*
X219725235Y-89049397D01*
X219649044Y-89006540D01*
X219458568Y-89006540D01*
X219382378Y-89049397D01*
X219344282Y-89092254D01*
X219306187Y-89177968D01*
X219306187Y-89392254D01*
X219344282Y-89477968D01*
X219382378Y-89520825D01*
X219458568Y-89563682D01*
X219649044Y-89563682D01*
X219725235Y-89520825D01*
X219763330Y-89477968D01*
X219077616Y-88663682D02*
X218810949Y-89563682D01*
X218544282Y-88663682D01*
D10*
X228457047Y-95557500D02*
X228552285Y-95524166D01*
X228695142Y-95524166D01*
X228838000Y-95557500D01*
X228933238Y-95624166D01*
X228980857Y-95690833D01*
X229028476Y-95824166D01*
X229028476Y-95924166D01*
X228980857Y-96057500D01*
X228933238Y-96124166D01*
X228838000Y-96190833D01*
X228695142Y-96224166D01*
X228599904Y-96224166D01*
X228457047Y-96190833D01*
X228409428Y-96157500D01*
X228409428Y-95924166D01*
X228599904Y-95924166D01*
X228028476Y-95590833D02*
X227980857Y-95557500D01*
X227885619Y-95524166D01*
X227647523Y-95524166D01*
X227552285Y-95557500D01*
X227504666Y-95590833D01*
X227457047Y-95657500D01*
X227457047Y-95724166D01*
X227504666Y-95824166D01*
X228076095Y-96224166D01*
X227457047Y-96224166D01*
X226552285Y-96224166D02*
X227028476Y-96224166D01*
X227028476Y-95524166D01*
X227838000Y-97115833D02*
X227838000Y-97449166D01*
X228171333Y-96749166D02*
X227838000Y-97115833D01*
X227504666Y-96749166D01*
X228457047Y-93017500D02*
X228552285Y-92984166D01*
X228695142Y-92984166D01*
X228838000Y-93017500D01*
X228933238Y-93084166D01*
X228980857Y-93150833D01*
X229028476Y-93284166D01*
X229028476Y-93384166D01*
X228980857Y-93517500D01*
X228933238Y-93584166D01*
X228838000Y-93650833D01*
X228695142Y-93684166D01*
X228599904Y-93684166D01*
X228457047Y-93650833D01*
X228409428Y-93617500D01*
X228409428Y-93384166D01*
X228599904Y-93384166D01*
X228028476Y-93050833D02*
X227980857Y-93017500D01*
X227885619Y-92984166D01*
X227647523Y-92984166D01*
X227552285Y-93017500D01*
X227504666Y-93050833D01*
X227457047Y-93117500D01*
X227457047Y-93184166D01*
X227504666Y-93284166D01*
X228076095Y-93684166D01*
X227457047Y-93684166D01*
X226552285Y-93684166D02*
X227028476Y-93684166D01*
X227028476Y-92984166D01*
X228266571Y-94209166D02*
X228028476Y-94909166D01*
X227838000Y-94409166D01*
X227647523Y-94909166D01*
X227409428Y-94209166D01*
X228457047Y-90477500D02*
X228552285Y-90444166D01*
X228695142Y-90444166D01*
X228838000Y-90477500D01*
X228933238Y-90544166D01*
X228980857Y-90610833D01*
X229028476Y-90744166D01*
X229028476Y-90844166D01*
X228980857Y-90977500D01*
X228933238Y-91044166D01*
X228838000Y-91110833D01*
X228695142Y-91144166D01*
X228599904Y-91144166D01*
X228457047Y-91110833D01*
X228409428Y-91077500D01*
X228409428Y-90844166D01*
X228599904Y-90844166D01*
X228028476Y-90510833D02*
X227980857Y-90477500D01*
X227885619Y-90444166D01*
X227647523Y-90444166D01*
X227552285Y-90477500D01*
X227504666Y-90510833D01*
X227457047Y-90577500D01*
X227457047Y-90644166D01*
X227504666Y-90744166D01*
X228076095Y-91144166D01*
X227457047Y-91144166D01*
X226552285Y-91144166D02*
X227028476Y-91144166D01*
X227028476Y-90444166D01*
X227528476Y-92369166D02*
X227861809Y-92035833D01*
X228099904Y-92369166D02*
X228099904Y-91669166D01*
X227718952Y-91669166D01*
X227623714Y-91702500D01*
X227576095Y-91735833D01*
X227528476Y-91802500D01*
X227528476Y-91902500D01*
X227576095Y-91969166D01*
X227623714Y-92002500D01*
X227718952Y-92035833D01*
X228099904Y-92035833D01*
D12*
X195380952Y-108672380D02*
X195047619Y-109672380D01*
X194714285Y-108672380D01*
X194000000Y-109624761D02*
X194095238Y-109672380D01*
X194285714Y-109672380D01*
X194380952Y-109624761D01*
X194428571Y-109529523D01*
X194428571Y-109148571D01*
X194380952Y-109053333D01*
X194285714Y-109005714D01*
X194095238Y-109005714D01*
X194000000Y-109053333D01*
X193952380Y-109148571D01*
X193952380Y-109243809D01*
X194428571Y-109339047D01*
X193523809Y-109672380D02*
X193523809Y-109005714D01*
X193523809Y-109196190D02*
X193476190Y-109100952D01*
X193428571Y-109053333D01*
X193333333Y-109005714D01*
X193238095Y-109005714D01*
X192952380Y-108767619D02*
X192904761Y-108720000D01*
X192809523Y-108672380D01*
X192571428Y-108672380D01*
X192476190Y-108720000D01*
X192428571Y-108767619D01*
X192380952Y-108862857D01*
X192380952Y-108958095D01*
X192428571Y-109100952D01*
X193000000Y-109672380D01*
X192380952Y-109672380D01*
X191761904Y-108672380D02*
X191666666Y-108672380D01*
X191571428Y-108720000D01*
X191523809Y-108767619D01*
X191476190Y-108862857D01*
X191428571Y-109053333D01*
X191428571Y-109291428D01*
X191476190Y-109481904D01*
X191523809Y-109577142D01*
X191571428Y-109624761D01*
X191666666Y-109672380D01*
X191761904Y-109672380D01*
X191857142Y-109624761D01*
X191904761Y-109577142D01*
X191952380Y-109481904D01*
X192000000Y-109291428D01*
X192000000Y-109053333D01*
X191952380Y-108862857D01*
X191904761Y-108767619D01*
X191857142Y-108720000D01*
X191761904Y-108672380D01*
X191047619Y-108767619D02*
X191000000Y-108720000D01*
X190904761Y-108672380D01*
X190666666Y-108672380D01*
X190571428Y-108720000D01*
X190523809Y-108767619D01*
X190476190Y-108862857D01*
X190476190Y-108958095D01*
X190523809Y-109100952D01*
X191095238Y-109672380D01*
X190476190Y-109672380D01*
X189523809Y-109672380D02*
X190095238Y-109672380D01*
X189809523Y-109672380D02*
X189809523Y-108672380D01*
X189904761Y-108815238D01*
X190000000Y-108910476D01*
X190095238Y-108958095D01*
X188904761Y-108672380D02*
X188809523Y-108672380D01*
X188714285Y-108720000D01*
X188666666Y-108767619D01*
X188619047Y-108862857D01*
X188571428Y-109053333D01*
X188571428Y-109291428D01*
X188619047Y-109481904D01*
X188666666Y-109577142D01*
X188714285Y-109624761D01*
X188809523Y-109672380D01*
X188904761Y-109672380D01*
X189000000Y-109624761D01*
X189047619Y-109577142D01*
X189095238Y-109481904D01*
X189142857Y-109291428D01*
X189142857Y-109053333D01*
X189095238Y-108862857D01*
X189047619Y-108767619D01*
X189000000Y-108720000D01*
X188904761Y-108672380D01*
X187619047Y-109672380D02*
X188190476Y-109672380D01*
X187904761Y-109672380D02*
X187904761Y-108672380D01*
X188000000Y-108815238D01*
X188095238Y-108910476D01*
X188190476Y-108958095D01*
X186666666Y-109672380D02*
X187238095Y-109672380D01*
X186952380Y-109672380D02*
X186952380Y-108672380D01*
X187047619Y-108815238D01*
X187142857Y-108910476D01*
X187238095Y-108958095D01*
X185809523Y-109005714D02*
X185809523Y-109672380D01*
X186047619Y-108624761D02*
X186285714Y-109339047D01*
X185666666Y-109339047D01*
D13*
X203595714Y-107013333D02*
X202643333Y-107013333D01*
X203786190Y-107584761D02*
X203119523Y-105584761D01*
X202452857Y-107584761D01*
X201786190Y-107584761D02*
X201786190Y-105584761D01*
X200643333Y-107584761D02*
X201500476Y-106441904D01*
X200643333Y-105584761D02*
X201786190Y-106727619D01*
X199119523Y-106537142D02*
X198833809Y-106632380D01*
X198738571Y-106727619D01*
X198643333Y-106918095D01*
X198643333Y-107203809D01*
X198738571Y-107394285D01*
X198833809Y-107489523D01*
X199024285Y-107584761D01*
X199786190Y-107584761D01*
X199786190Y-105584761D01*
X199119523Y-105584761D01*
X198929047Y-105680000D01*
X198833809Y-105775238D01*
X198738571Y-105965714D01*
X198738571Y-106156190D01*
X198833809Y-106346666D01*
X198929047Y-106441904D01*
X199119523Y-106537142D01*
X199786190Y-106537142D01*
X197405238Y-105584761D02*
X197024285Y-105584761D01*
X196833809Y-105680000D01*
X196643333Y-105870476D01*
X196548095Y-106251428D01*
X196548095Y-106918095D01*
X196643333Y-107299047D01*
X196833809Y-107489523D01*
X197024285Y-107584761D01*
X197405238Y-107584761D01*
X197595714Y-107489523D01*
X197786190Y-107299047D01*
X197881428Y-106918095D01*
X197881428Y-106251428D01*
X197786190Y-105870476D01*
X197595714Y-105680000D01*
X197405238Y-105584761D01*
X195690952Y-107584761D02*
X195690952Y-105584761D01*
X194548095Y-107584761D01*
X194548095Y-105584761D01*
X193595714Y-106537142D02*
X192929047Y-106537142D01*
X192643333Y-107584761D02*
X193595714Y-107584761D01*
X193595714Y-105584761D01*
X192643333Y-105584761D01*
X191881428Y-105775238D02*
X191786190Y-105680000D01*
X191595714Y-105584761D01*
X191119523Y-105584761D01*
X190929047Y-105680000D01*
X190833809Y-105775238D01*
X190738571Y-105965714D01*
X190738571Y-106156190D01*
X190833809Y-106441904D01*
X191976666Y-107584761D01*
X190738571Y-107584761D01*
X189500476Y-105584761D02*
X189310000Y-105584761D01*
X189119523Y-105680000D01*
X189024285Y-105775238D01*
X188929047Y-105965714D01*
X188833809Y-106346666D01*
X188833809Y-106822857D01*
X188929047Y-107203809D01*
X189024285Y-107394285D01*
X189119523Y-107489523D01*
X189310000Y-107584761D01*
X189500476Y-107584761D01*
X189690952Y-107489523D01*
X189786190Y-107394285D01*
X189881428Y-107203809D01*
X189976666Y-106822857D01*
X189976666Y-106346666D01*
X189881428Y-105965714D01*
X189786190Y-105775238D01*
X189690952Y-105680000D01*
X189500476Y-105584761D01*
X188071904Y-105775238D02*
X187976666Y-105680000D01*
X187786190Y-105584761D01*
X187310000Y-105584761D01*
X187119523Y-105680000D01*
X187024285Y-105775238D01*
X186929047Y-105965714D01*
X186929047Y-106156190D01*
X187024285Y-106441904D01*
X188167142Y-107584761D01*
X186929047Y-107584761D01*
X185690952Y-105584761D02*
X185500476Y-105584761D01*
X185310000Y-105680000D01*
X185214761Y-105775238D01*
X185119523Y-105965714D01*
X185024285Y-106346666D01*
X185024285Y-106822857D01*
X185119523Y-107203809D01*
X185214761Y-107394285D01*
X185310000Y-107489523D01*
X185500476Y-107584761D01*
X185690952Y-107584761D01*
X185881428Y-107489523D01*
X185976666Y-107394285D01*
X186071904Y-107203809D01*
X186167142Y-106822857D01*
X186167142Y-106346666D01*
X186071904Y-105965714D01*
X185976666Y-105775238D01*
X185881428Y-105680000D01*
X185690952Y-105584761D01*
D14*
X227445714Y-116932857D02*
X227445714Y-117832857D01*
X227636190Y-117832857D01*
X227750476Y-117790000D01*
X227826666Y-117704285D01*
X227864761Y-117618571D01*
X227902857Y-117447142D01*
X227902857Y-117318571D01*
X227864761Y-117147142D01*
X227826666Y-117061428D01*
X227750476Y-116975714D01*
X227636190Y-116932857D01*
X227445714Y-116932857D01*
X228131428Y-117832857D02*
X228588571Y-117832857D01*
X228360000Y-116932857D02*
X228360000Y-117832857D01*
X229312380Y-116932857D02*
X229045714Y-117361428D01*
X228855238Y-116932857D02*
X228855238Y-117832857D01*
X229160000Y-117832857D01*
X229236190Y-117790000D01*
X229274285Y-117747142D01*
X229312380Y-117661428D01*
X229312380Y-117532857D01*
X229274285Y-117447142D01*
X229236190Y-117404285D01*
X229160000Y-117361428D01*
X228855238Y-117361428D01*
X227826666Y-114392857D02*
X227560000Y-114821428D01*
X227369523Y-114392857D02*
X227369523Y-115292857D01*
X227674285Y-115292857D01*
X227750476Y-115250000D01*
X227788571Y-115207142D01*
X227826666Y-115121428D01*
X227826666Y-114992857D01*
X227788571Y-114907142D01*
X227750476Y-114864285D01*
X227674285Y-114821428D01*
X227369523Y-114821428D01*
X228093333Y-115292857D02*
X228626666Y-114392857D01*
X228626666Y-115292857D02*
X228093333Y-114392857D01*
X228931428Y-114392857D02*
X228931428Y-115292857D01*
X229121904Y-115292857D01*
X229236190Y-115250000D01*
X229312380Y-115164285D01*
X229350476Y-115078571D01*
X229388571Y-114907142D01*
X229388571Y-114778571D01*
X229350476Y-114607142D01*
X229312380Y-114521428D01*
X229236190Y-114435714D01*
X229121904Y-114392857D01*
X228931428Y-114392857D01*
X227331428Y-109655714D02*
X227940952Y-109655714D01*
X227636190Y-109312857D02*
X227636190Y-109998571D01*
X228702857Y-110212857D02*
X228321904Y-110212857D01*
X228283809Y-109784285D01*
X228321904Y-109827142D01*
X228398095Y-109870000D01*
X228588571Y-109870000D01*
X228664761Y-109827142D01*
X228702857Y-109784285D01*
X228740952Y-109698571D01*
X228740952Y-109484285D01*
X228702857Y-109398571D01*
X228664761Y-109355714D01*
X228588571Y-109312857D01*
X228398095Y-109312857D01*
X228321904Y-109355714D01*
X228283809Y-109398571D01*
X228969523Y-110212857D02*
X229236190Y-109312857D01*
X229502857Y-110212857D01*
X227350476Y-112752857D02*
X227807619Y-112752857D01*
X227579047Y-111852857D02*
X227579047Y-112752857D01*
X227998095Y-112752857D02*
X228531428Y-111852857D01*
X228531428Y-112752857D02*
X227998095Y-111852857D01*
X228836190Y-111852857D02*
X228836190Y-112752857D01*
X229026666Y-112752857D01*
X229140952Y-112710000D01*
X229217142Y-112624285D01*
X229255238Y-112538571D01*
X229293333Y-112367142D01*
X229293333Y-112238571D01*
X229255238Y-112067142D01*
X229217142Y-111981428D01*
X229140952Y-111895714D01*
X229026666Y-111852857D01*
X228836190Y-111852857D01*
X227750476Y-107630000D02*
X227674285Y-107672857D01*
X227560000Y-107672857D01*
X227445714Y-107630000D01*
X227369523Y-107544285D01*
X227331428Y-107458571D01*
X227293333Y-107287142D01*
X227293333Y-107158571D01*
X227331428Y-106987142D01*
X227369523Y-106901428D01*
X227445714Y-106815714D01*
X227560000Y-106772857D01*
X227636190Y-106772857D01*
X227750476Y-106815714D01*
X227788571Y-106858571D01*
X227788571Y-107158571D01*
X227636190Y-107158571D01*
X228131428Y-106772857D02*
X228131428Y-107672857D01*
X228588571Y-106772857D01*
X228588571Y-107672857D01*
X228969523Y-106772857D02*
X228969523Y-107672857D01*
X229160000Y-107672857D01*
X229274285Y-107630000D01*
X229350476Y-107544285D01*
X229388571Y-107458571D01*
X229426666Y-107287142D01*
X229426666Y-107158571D01*
X229388571Y-106987142D01*
X229350476Y-106901428D01*
X229274285Y-106815714D01*
X229160000Y-106772857D01*
X228969523Y-106772857D01*
X227369523Y-105132857D02*
X227864761Y-105132857D01*
X227598095Y-104790000D01*
X227712380Y-104790000D01*
X227788571Y-104747142D01*
X227826666Y-104704285D01*
X227864761Y-104618571D01*
X227864761Y-104404285D01*
X227826666Y-104318571D01*
X227788571Y-104275714D01*
X227712380Y-104232857D01*
X227483809Y-104232857D01*
X227407619Y-104275714D01*
X227369523Y-104318571D01*
X228093333Y-105132857D02*
X228360000Y-104232857D01*
X228626666Y-105132857D01*
X228817142Y-105132857D02*
X229312380Y-105132857D01*
X229045714Y-104790000D01*
X229160000Y-104790000D01*
X229236190Y-104747142D01*
X229274285Y-104704285D01*
X229312380Y-104618571D01*
X229312380Y-104404285D01*
X229274285Y-104318571D01*
X229236190Y-104275714D01*
X229160000Y-104232857D01*
X228931428Y-104232857D01*
X228855238Y-104275714D01*
X228817142Y-104318571D01*
D11*
X222440476Y-90947142D02*
X222916666Y-90947142D01*
X222964285Y-91375714D01*
X222916666Y-91332857D01*
X222821428Y-91290000D01*
X222583333Y-91290000D01*
X222488095Y-91332857D01*
X222440476Y-91375714D01*
X222392857Y-91461428D01*
X222392857Y-91675714D01*
X222440476Y-91761428D01*
X222488095Y-91804285D01*
X222583333Y-91847142D01*
X222821428Y-91847142D01*
X222916666Y-91804285D01*
X222964285Y-91761428D01*
X222107142Y-90947142D02*
X221773809Y-91847142D01*
X221440476Y-90947142D01*
X226224952Y-88661142D02*
X225729714Y-88661142D01*
X225996380Y-89004000D01*
X225882095Y-89004000D01*
X225805904Y-89046857D01*
X225767809Y-89089714D01*
X225729714Y-89175428D01*
X225729714Y-89389714D01*
X225767809Y-89475428D01*
X225805904Y-89518285D01*
X225882095Y-89561142D01*
X226110666Y-89561142D01*
X226186857Y-89518285D01*
X226224952Y-89475428D01*
X225386857Y-89475428D02*
X225348761Y-89518285D01*
X225386857Y-89561142D01*
X225424952Y-89518285D01*
X225386857Y-89475428D01*
X225386857Y-89561142D01*
X225082095Y-88661142D02*
X224586857Y-88661142D01*
X224853523Y-89004000D01*
X224739238Y-89004000D01*
X224663047Y-89046857D01*
X224624952Y-89089714D01*
X224586857Y-89175428D01*
X224586857Y-89389714D01*
X224624952Y-89475428D01*
X224663047Y-89518285D01*
X224739238Y-89561142D01*
X224967809Y-89561142D01*
X225044000Y-89518285D01*
X225082095Y-89475428D01*
X224358285Y-88661142D02*
X224091619Y-89561142D01*
X223824952Y-88661142D01*
X229171333Y-98766380D02*
X228838000Y-99766380D01*
X228504666Y-98766380D01*
X227599904Y-99671142D02*
X227647523Y-99718761D01*
X227790380Y-99766380D01*
X227885619Y-99766380D01*
X228028476Y-99718761D01*
X228123714Y-99623523D01*
X228171333Y-99528285D01*
X228218952Y-99337809D01*
X228218952Y-99194952D01*
X228171333Y-99004476D01*
X228123714Y-98909238D01*
X228028476Y-98814000D01*
X227885619Y-98766380D01*
X227790380Y-98766380D01*
X227647523Y-98814000D01*
X227599904Y-98861619D01*
X226599904Y-99671142D02*
X226647523Y-99718761D01*
X226790380Y-99766380D01*
X226885619Y-99766380D01*
X227028476Y-99718761D01*
X227123714Y-99623523D01*
X227171333Y-99528285D01*
X227218952Y-99337809D01*
X227218952Y-99194952D01*
X227171333Y-99004476D01*
X227123714Y-98909238D01*
X227028476Y-98814000D01*
X226885619Y-98766380D01*
X226790380Y-98766380D01*
X226647523Y-98814000D01*
X226599904Y-98861619D01*
D10*
X217223333Y-88000000D02*
X217290000Y-87952380D01*
X217390000Y-87952380D01*
X217490000Y-88000000D01*
X217556666Y-88095238D01*
X217590000Y-88190476D01*
X217623333Y-88380952D01*
X217623333Y-88523809D01*
X217590000Y-88714285D01*
X217556666Y-88809523D01*
X217490000Y-88904761D01*
X217390000Y-88952380D01*
X217323333Y-88952380D01*
X217223333Y-88904761D01*
X217190000Y-88857142D01*
X217190000Y-88523809D01*
X217323333Y-88523809D01*
X216490000Y-88952380D02*
X216723333Y-88476190D01*
X216890000Y-88952380D02*
X216890000Y-87952380D01*
X216623333Y-87952380D01*
X216556666Y-88000000D01*
X216523333Y-88047619D01*
X216490000Y-88142857D01*
X216490000Y-88285714D01*
X216523333Y-88380952D01*
X216556666Y-88428571D01*
X216623333Y-88476190D01*
X216890000Y-88476190D01*
X216056666Y-87952380D02*
X215923333Y-87952380D01*
X215856666Y-88000000D01*
X215790000Y-88095238D01*
X215756666Y-88285714D01*
X215756666Y-88619047D01*
X215790000Y-88809523D01*
X215856666Y-88904761D01*
X215923333Y-88952380D01*
X216056666Y-88952380D01*
X216123333Y-88904761D01*
X216190000Y-88809523D01*
X216223333Y-88619047D01*
X216223333Y-88285714D01*
X216190000Y-88095238D01*
X216123333Y-88000000D01*
X216056666Y-87952380D01*
X215556666Y-87952380D02*
X215323333Y-88952380D01*
X215090000Y-87952380D01*
X214856666Y-88428571D02*
X214623333Y-88428571D01*
X214523333Y-88952380D02*
X214856666Y-88952380D01*
X214856666Y-87952380D01*
X214523333Y-87952380D01*
X214256666Y-88047619D02*
X214223333Y-88000000D01*
X214156666Y-87952380D01*
X213990000Y-87952380D01*
X213923333Y-88000000D01*
X213890000Y-88047619D01*
X213856666Y-88142857D01*
X213856666Y-88238095D01*
X213890000Y-88380952D01*
X214290000Y-88952380D01*
X213856666Y-88952380D01*
X213123333Y-88285714D02*
X212856666Y-88285714D01*
X213023333Y-88952380D02*
X213023333Y-88095238D01*
X212990000Y-88000000D01*
X212923333Y-87952380D01*
X212856666Y-87952380D01*
X212523333Y-88952380D02*
X212590000Y-88904761D01*
X212623333Y-88857142D01*
X212656666Y-88761904D01*
X212656666Y-88476190D01*
X212623333Y-88380952D01*
X212590000Y-88333333D01*
X212523333Y-88285714D01*
X212423333Y-88285714D01*
X212356666Y-88333333D01*
X212323333Y-88380952D01*
X212290000Y-88476190D01*
X212290000Y-88761904D01*
X212323333Y-88857142D01*
X212356666Y-88904761D01*
X212423333Y-88952380D01*
X212523333Y-88952380D01*
X211990000Y-88952380D02*
X211990000Y-88285714D01*
X211990000Y-88476190D02*
X211956666Y-88380952D01*
X211923333Y-88333333D01*
X211856666Y-88285714D01*
X211790000Y-88285714D01*
X210690000Y-88952380D02*
X211023333Y-88952380D01*
X211023333Y-87952380D01*
X210456666Y-88428571D02*
X210223333Y-88428571D01*
X210123333Y-88952380D02*
X210456666Y-88952380D01*
X210456666Y-87952380D01*
X210123333Y-87952380D01*
X209823333Y-88952380D02*
X209823333Y-87952380D01*
X209656666Y-87952380D01*
X209556666Y-88000000D01*
X209490000Y-88095238D01*
X209456666Y-88190476D01*
X209423333Y-88380952D01*
X209423333Y-88523809D01*
X209456666Y-88714285D01*
X209490000Y-88809523D01*
X209556666Y-88904761D01*
X209656666Y-88952380D01*
X209823333Y-88952380D01*
X208923333Y-89333333D02*
X208956666Y-89285714D01*
X209023333Y-89142857D01*
X209056666Y-89047619D01*
X209090000Y-88904761D01*
X209123333Y-88666666D01*
X209123333Y-88476190D01*
X209090000Y-88238095D01*
X209056666Y-88095238D01*
X209023333Y-88000000D01*
X208956666Y-87857142D01*
X208923333Y-87809523D01*
X208290000Y-88000000D02*
X208356666Y-87952380D01*
X208456666Y-87952380D01*
X208556666Y-88000000D01*
X208623333Y-88095238D01*
X208656666Y-88190476D01*
X208690000Y-88380952D01*
X208690000Y-88523809D01*
X208656666Y-88714285D01*
X208623333Y-88809523D01*
X208556666Y-88904761D01*
X208456666Y-88952380D01*
X208390000Y-88952380D01*
X208290000Y-88904761D01*
X208256666Y-88857142D01*
X208256666Y-88523809D01*
X208390000Y-88523809D01*
X207990000Y-88047619D02*
X207956666Y-88000000D01*
X207890000Y-87952380D01*
X207723333Y-87952380D01*
X207656666Y-88000000D01*
X207623333Y-88047619D01*
X207590000Y-88142857D01*
X207590000Y-88238095D01*
X207623333Y-88380952D01*
X208023333Y-88952380D01*
X207590000Y-88952380D01*
X206956666Y-88952380D02*
X207290000Y-88952380D01*
X207290000Y-87952380D01*
X206790000Y-89333333D02*
X206756666Y-89285714D01*
X206690000Y-89142857D01*
X206656666Y-89047619D01*
X206623333Y-88904761D01*
X206590000Y-88666666D01*
X206590000Y-88476190D01*
X206623333Y-88238095D01*
X206656666Y-88095238D01*
X206690000Y-88000000D01*
X206756666Y-87857142D01*
X206790000Y-87809523D01*
D11*
X202779047Y-88000000D02*
X202874285Y-87952380D01*
X203017142Y-87952380D01*
X203160000Y-88000000D01*
X203255238Y-88095238D01*
X203302857Y-88190476D01*
X203350476Y-88380952D01*
X203350476Y-88523809D01*
X203302857Y-88714285D01*
X203255238Y-88809523D01*
X203160000Y-88904761D01*
X203017142Y-88952380D01*
X202921904Y-88952380D01*
X202779047Y-88904761D01*
X202731428Y-88857142D01*
X202731428Y-88523809D01*
X202921904Y-88523809D01*
X201731428Y-88952380D02*
X202064761Y-88476190D01*
X202302857Y-88952380D02*
X202302857Y-87952380D01*
X201921904Y-87952380D01*
X201826666Y-88000000D01*
X201779047Y-88047619D01*
X201731428Y-88142857D01*
X201731428Y-88285714D01*
X201779047Y-88380952D01*
X201826666Y-88428571D01*
X201921904Y-88476190D01*
X202302857Y-88476190D01*
X201112380Y-87952380D02*
X200921904Y-87952380D01*
X200826666Y-88000000D01*
X200731428Y-88095238D01*
X200683809Y-88285714D01*
X200683809Y-88619047D01*
X200731428Y-88809523D01*
X200826666Y-88904761D01*
X200921904Y-88952380D01*
X201112380Y-88952380D01*
X201207619Y-88904761D01*
X201302857Y-88809523D01*
X201350476Y-88619047D01*
X201350476Y-88285714D01*
X201302857Y-88095238D01*
X201207619Y-88000000D01*
X201112380Y-87952380D01*
X200398095Y-87952380D02*
X200064761Y-88952380D01*
X199731428Y-87952380D01*
X199398095Y-88428571D02*
X199064761Y-88428571D01*
X198921904Y-88952380D02*
X199398095Y-88952380D01*
X199398095Y-87952380D01*
X198921904Y-87952380D01*
X197969523Y-88952380D02*
X198540952Y-88952380D01*
X198255238Y-88952380D02*
X198255238Y-87952380D01*
X198350476Y-88095238D01*
X198445714Y-88190476D01*
X198540952Y-88238095D01*
D15*
X205682857Y-126413333D02*
X205625714Y-126446666D01*
X205597142Y-126480000D01*
X205568571Y-126546666D01*
X205568571Y-126580000D01*
X205597142Y-126646666D01*
X205625714Y-126680000D01*
X205682857Y-126713333D01*
X205797142Y-126713333D01*
X205854285Y-126680000D01*
X205882857Y-126646666D01*
X205911428Y-126580000D01*
X205911428Y-126546666D01*
X205882857Y-126480000D01*
X205854285Y-126446666D01*
X205797142Y-126413333D01*
X205682857Y-126413333D01*
X205625714Y-126380000D01*
X205597142Y-126346666D01*
X205568571Y-126280000D01*
X205568571Y-126146666D01*
X205597142Y-126080000D01*
X205625714Y-126046666D01*
X205682857Y-126013333D01*
X205797142Y-126013333D01*
X205854285Y-126046666D01*
X205882857Y-126080000D01*
X205911428Y-126146666D01*
X205911428Y-126280000D01*
X205882857Y-126346666D01*
X205854285Y-126380000D01*
X205797142Y-126413333D01*
X204640000Y-124813333D02*
X204754285Y-124813333D01*
X204811428Y-124846666D01*
X204840000Y-124880000D01*
X204897142Y-124980000D01*
X204925714Y-125113333D01*
X204925714Y-125380000D01*
X204897142Y-125446666D01*
X204868571Y-125480000D01*
X204811428Y-125513333D01*
X204697142Y-125513333D01*
X204640000Y-125480000D01*
X204611428Y-125446666D01*
X204582857Y-125380000D01*
X204582857Y-125213333D01*
X204611428Y-125146666D01*
X204640000Y-125113333D01*
X204697142Y-125080000D01*
X204811428Y-125080000D01*
X204868571Y-125113333D01*
X204897142Y-125146666D01*
X204925714Y-125213333D01*
X205182857Y-124813333D02*
X205182857Y-125513333D01*
X205411428Y-125513333D01*
X205468571Y-125480000D01*
X205497142Y-125446666D01*
X205525714Y-125380000D01*
X205525714Y-125280000D01*
X205497142Y-125213333D01*
X205468571Y-125180000D01*
X205411428Y-125146666D01*
X205182857Y-125146666D01*
X205725714Y-125513333D02*
X205868571Y-124813333D01*
X205982857Y-125313333D01*
X206097142Y-124813333D01*
X206240000Y-125513333D01*
X206468571Y-124813333D02*
X206468571Y-125513333D01*
X206668571Y-125013333D01*
X206868571Y-125513333D01*
X206868571Y-124813333D01*
X190071428Y-126213333D02*
X190357142Y-126213333D01*
X190014285Y-126013333D02*
X190214285Y-126713333D01*
X190414285Y-126013333D01*
X190871428Y-126480000D02*
X190871428Y-126013333D01*
X190728571Y-126746666D02*
X190585714Y-126246666D01*
X190957142Y-126246666D01*
X189771428Y-124846666D02*
X189857142Y-124813333D01*
X190000000Y-124813333D01*
X190057142Y-124846666D01*
X190085714Y-124880000D01*
X190114285Y-124946666D01*
X190114285Y-125013333D01*
X190085714Y-125080000D01*
X190057142Y-125113333D01*
X190000000Y-125146666D01*
X189885714Y-125180000D01*
X189828571Y-125213333D01*
X189800000Y-125246666D01*
X189771428Y-125313333D01*
X189771428Y-125380000D01*
X189800000Y-125446666D01*
X189828571Y-125480000D01*
X189885714Y-125513333D01*
X190028571Y-125513333D01*
X190114285Y-125480000D01*
X190371428Y-124813333D02*
X190371428Y-125513333D01*
X190514285Y-125513333D01*
X190600000Y-125480000D01*
X190657142Y-125413333D01*
X190685714Y-125346666D01*
X190714285Y-125213333D01*
X190714285Y-125113333D01*
X190685714Y-124980000D01*
X190657142Y-124913333D01*
X190600000Y-124846666D01*
X190514285Y-124813333D01*
X190371428Y-124813333D01*
X190942857Y-125013333D02*
X191228571Y-125013333D01*
X190885714Y-124813333D02*
X191085714Y-125513333D01*
X191285714Y-124813333D01*
X187531428Y-126213333D02*
X187817142Y-126213333D01*
X187474285Y-126013333D02*
X187674285Y-126713333D01*
X187874285Y-126013333D01*
X188360000Y-126713333D02*
X188074285Y-126713333D01*
X188045714Y-126380000D01*
X188074285Y-126413333D01*
X188131428Y-126446666D01*
X188274285Y-126446666D01*
X188331428Y-126413333D01*
X188360000Y-126380000D01*
X188388571Y-126313333D01*
X188388571Y-126146666D01*
X188360000Y-126080000D01*
X188331428Y-126046666D01*
X188274285Y-126013333D01*
X188131428Y-126013333D01*
X188074285Y-126046666D01*
X188045714Y-126080000D01*
X187245714Y-124846666D02*
X187331428Y-124813333D01*
X187474285Y-124813333D01*
X187531428Y-124846666D01*
X187560000Y-124880000D01*
X187588571Y-124946666D01*
X187588571Y-125013333D01*
X187560000Y-125080000D01*
X187531428Y-125113333D01*
X187474285Y-125146666D01*
X187360000Y-125180000D01*
X187302857Y-125213333D01*
X187274285Y-125246666D01*
X187245714Y-125313333D01*
X187245714Y-125380000D01*
X187274285Y-125446666D01*
X187302857Y-125480000D01*
X187360000Y-125513333D01*
X187502857Y-125513333D01*
X187588571Y-125480000D01*
X187845714Y-124813333D02*
X187845714Y-125513333D01*
X187988571Y-125513333D01*
X188074285Y-125480000D01*
X188131428Y-125413333D01*
X188160000Y-125346666D01*
X188188571Y-125213333D01*
X188188571Y-125113333D01*
X188160000Y-124980000D01*
X188131428Y-124913333D01*
X188074285Y-124846666D01*
X187988571Y-124813333D01*
X187845714Y-124813333D01*
X188731428Y-124813333D02*
X188445714Y-124813333D01*
X188445714Y-125513333D01*
D14*
X195008571Y-125580000D02*
X195389523Y-125580000D01*
X194932380Y-125322857D02*
X195199047Y-126222857D01*
X195465714Y-125322857D01*
X195884761Y-126222857D02*
X195960952Y-126222857D01*
X196037142Y-126180000D01*
X196075238Y-126137142D01*
X196113333Y-126051428D01*
X196151428Y-125880000D01*
X196151428Y-125665714D01*
X196113333Y-125494285D01*
X196075238Y-125408571D01*
X196037142Y-125365714D01*
X195960952Y-125322857D01*
X195884761Y-125322857D01*
X195808571Y-125365714D01*
X195770476Y-125408571D01*
X195732380Y-125494285D01*
X195694285Y-125665714D01*
X195694285Y-125880000D01*
X195732380Y-126051428D01*
X195770476Y-126137142D01*
X195808571Y-126180000D01*
X195884761Y-126222857D01*
X197967619Y-125322857D02*
X197510476Y-125322857D01*
X197739047Y-125322857D02*
X197739047Y-126222857D01*
X197662857Y-126094285D01*
X197586666Y-126008571D01*
X197510476Y-125965714D01*
X198234285Y-126222857D02*
X198729523Y-126222857D01*
X198462857Y-125880000D01*
X198577142Y-125880000D01*
X198653333Y-125837142D01*
X198691428Y-125794285D01*
X198729523Y-125708571D01*
X198729523Y-125494285D01*
X198691428Y-125408571D01*
X198653333Y-125365714D01*
X198577142Y-125322857D01*
X198348571Y-125322857D01*
X198272380Y-125365714D01*
X198234285Y-125408571D01*
X217373333Y-126222857D02*
X217640000Y-125322857D01*
X217906666Y-126222857D01*
X218630476Y-125408571D02*
X218592380Y-125365714D01*
X218478095Y-125322857D01*
X218401904Y-125322857D01*
X218287619Y-125365714D01*
X218211428Y-125451428D01*
X218173333Y-125537142D01*
X218135238Y-125708571D01*
X218135238Y-125837142D01*
X218173333Y-126008571D01*
X218211428Y-126094285D01*
X218287619Y-126180000D01*
X218401904Y-126222857D01*
X218478095Y-126222857D01*
X218592380Y-126180000D01*
X218630476Y-126137142D01*
X219430476Y-125408571D02*
X219392380Y-125365714D01*
X219278095Y-125322857D01*
X219201904Y-125322857D01*
X219087619Y-125365714D01*
X219011428Y-125451428D01*
X218973333Y-125537142D01*
X218935238Y-125708571D01*
X218935238Y-125837142D01*
X218973333Y-126008571D01*
X219011428Y-126094285D01*
X219087619Y-126180000D01*
X219201904Y-126222857D01*
X219278095Y-126222857D01*
X219392380Y-126180000D01*
X219430476Y-126137142D01*
X192468571Y-125580000D02*
X192849523Y-125580000D01*
X192392380Y-125322857D02*
X192659047Y-126222857D01*
X192925714Y-125322857D01*
X193611428Y-125322857D02*
X193154285Y-125322857D01*
X193382857Y-125322857D02*
X193382857Y-126222857D01*
X193306666Y-126094285D01*
X193230476Y-126008571D01*
X193154285Y-125965714D01*
D16*
X202283333Y-126000833D02*
X201997619Y-126000833D01*
X202140476Y-126000833D02*
X202140476Y-126700833D01*
X202092857Y-126600833D01*
X202045238Y-126534166D01*
X201997619Y-126500833D01*
X202592857Y-126700833D02*
X202640476Y-126700833D01*
X202688095Y-126667500D01*
X202711904Y-126634166D01*
X202735714Y-126567500D01*
X202759523Y-126434166D01*
X202759523Y-126267500D01*
X202735714Y-126134166D01*
X202711904Y-126067500D01*
X202688095Y-126034166D01*
X202640476Y-126000833D01*
X202592857Y-126000833D01*
X202545238Y-126034166D01*
X202521428Y-126067500D01*
X202497619Y-126134166D01*
X202473809Y-126267500D01*
X202473809Y-126434166D01*
X202497619Y-126567500D01*
X202521428Y-126634166D01*
X202545238Y-126667500D01*
X202592857Y-126700833D01*
X202973809Y-126000833D02*
X202973809Y-126700833D01*
X203164285Y-126700833D01*
X203211904Y-126667500D01*
X203235714Y-126634166D01*
X203259523Y-126567500D01*
X203259523Y-126467500D01*
X203235714Y-126400833D01*
X203211904Y-126367500D01*
X203164285Y-126334166D01*
X202973809Y-126334166D01*
X203426190Y-126700833D02*
X203545238Y-126000833D01*
X203640476Y-126500833D01*
X203735714Y-126000833D01*
X203854761Y-126700833D01*
X204045238Y-126000833D02*
X204045238Y-126700833D01*
X204211904Y-126200833D01*
X204378571Y-126700833D01*
X204378571Y-126000833D01*
X202283333Y-124825833D02*
X201997619Y-124825833D01*
X202140476Y-124825833D02*
X202140476Y-125525833D01*
X202092857Y-125425833D01*
X202045238Y-125359166D01*
X201997619Y-125325833D01*
X202759523Y-124825833D02*
X202473809Y-124825833D01*
X202616666Y-124825833D02*
X202616666Y-125525833D01*
X202569047Y-125425833D01*
X202521428Y-125359166D01*
X202473809Y-125325833D01*
X202973809Y-124825833D02*
X202973809Y-125525833D01*
X203164285Y-125525833D01*
X203211904Y-125492500D01*
X203235714Y-125459166D01*
X203259523Y-125392500D01*
X203259523Y-125292500D01*
X203235714Y-125225833D01*
X203211904Y-125192500D01*
X203164285Y-125159166D01*
X202973809Y-125159166D01*
X203426190Y-125525833D02*
X203545238Y-124825833D01*
X203640476Y-125325833D01*
X203735714Y-124825833D01*
X203854761Y-125525833D01*
X204045238Y-124825833D02*
X204045238Y-125525833D01*
X204211904Y-125025833D01*
X204378571Y-125525833D01*
X204378571Y-124825833D01*
D14*
X208013333Y-126222857D02*
X208546666Y-126222857D01*
X208203809Y-125322857D01*
X200507619Y-125322857D02*
X200050476Y-125322857D01*
X200279047Y-125322857D02*
X200279047Y-126222857D01*
X200202857Y-126094285D01*
X200126666Y-126008571D01*
X200050476Y-125965714D01*
X200812380Y-126137142D02*
X200850476Y-126180000D01*
X200926666Y-126222857D01*
X201117142Y-126222857D01*
X201193333Y-126180000D01*
X201231428Y-126137142D01*
X201269523Y-126051428D01*
X201269523Y-125965714D01*
X201231428Y-125837142D01*
X200774285Y-125322857D01*
X201269523Y-125322857D01*
X213131428Y-126137142D02*
X213169523Y-126180000D01*
X213245714Y-126222857D01*
X213436190Y-126222857D01*
X213512380Y-126180000D01*
X213550476Y-126137142D01*
X213588571Y-126051428D01*
X213588571Y-125965714D01*
X213550476Y-125837142D01*
X213093333Y-125322857D01*
X213588571Y-125322857D01*
D15*
X209634285Y-126113333D02*
X210005714Y-126113333D01*
X209805714Y-125846666D01*
X209891428Y-125846666D01*
X209948571Y-125813333D01*
X209977142Y-125780000D01*
X210005714Y-125713333D01*
X210005714Y-125546666D01*
X209977142Y-125480000D01*
X209948571Y-125446666D01*
X209891428Y-125413333D01*
X209720000Y-125413333D01*
X209662857Y-125446666D01*
X209634285Y-125480000D01*
X210262857Y-125413333D02*
X210262857Y-126113333D01*
X210491428Y-126113333D01*
X210548571Y-126080000D01*
X210577142Y-126046666D01*
X210605714Y-125980000D01*
X210605714Y-125880000D01*
X210577142Y-125813333D01*
X210548571Y-125780000D01*
X210491428Y-125746666D01*
X210262857Y-125746666D01*
X210805714Y-126113333D02*
X210948571Y-125413333D01*
X211062857Y-125913333D01*
X211177142Y-125413333D01*
X211320000Y-126113333D01*
X211548571Y-125413333D02*
X211548571Y-126113333D01*
X211748571Y-125613333D01*
X211948571Y-126113333D01*
X211948571Y-125413333D01*
D14*
X215290476Y-126180000D02*
X215214285Y-126222857D01*
X215100000Y-126222857D01*
X214985714Y-126180000D01*
X214909523Y-126094285D01*
X214871428Y-126008571D01*
X214833333Y-125837142D01*
X214833333Y-125708571D01*
X214871428Y-125537142D01*
X214909523Y-125451428D01*
X214985714Y-125365714D01*
X215100000Y-125322857D01*
X215176190Y-125322857D01*
X215290476Y-125365714D01*
X215328571Y-125408571D01*
X215328571Y-125708571D01*
X215176190Y-125708571D01*
X215671428Y-125322857D02*
X215671428Y-126222857D01*
X216128571Y-125322857D01*
X216128571Y-126222857D01*
X216509523Y-125322857D02*
X216509523Y-126222857D01*
X216700000Y-126222857D01*
X216814285Y-126180000D01*
X216890476Y-126094285D01*
X216928571Y-126008571D01*
X216966666Y-125837142D01*
X216966666Y-125708571D01*
X216928571Y-125537142D01*
X216890476Y-125451428D01*
X216814285Y-125365714D01*
X216700000Y-125322857D01*
X216509523Y-125322857D01*
D17*
G36*
X201076560Y-114259360D02*
G01*
X201046080Y-114244120D01*
X200982580Y-114203480D01*
X200888600Y-114142520D01*
X200779380Y-114068860D01*
X200667620Y-113992660D01*
X200578720Y-113931700D01*
X200515220Y-113891060D01*
X200487280Y-113878360D01*
X200474580Y-113883440D01*
X200421240Y-113908840D01*
X200345040Y-113946940D01*
X200301860Y-113969800D01*
X200230740Y-114000280D01*
X200197720Y-114005360D01*
X200190100Y-113997740D01*
X200164700Y-113944400D01*
X200126600Y-113852960D01*
X200073260Y-113731040D01*
X200012300Y-113591340D01*
X199948800Y-113438940D01*
X199882760Y-113284000D01*
X199821800Y-113134140D01*
X199768460Y-113002060D01*
X199725280Y-112892840D01*
X199694800Y-112819180D01*
X199684640Y-112786160D01*
X199687180Y-112778540D01*
X199722740Y-112745520D01*
X199783700Y-112699800D01*
X199915780Y-112593120D01*
X200045320Y-112430560D01*
X200124060Y-112245140D01*
X200152000Y-112041940D01*
X200129140Y-111851440D01*
X200052940Y-111668560D01*
X199925940Y-111506000D01*
X199773540Y-111384080D01*
X199593200Y-111305340D01*
X199390000Y-111282480D01*
X199196960Y-111302800D01*
X199011540Y-111376460D01*
X198846440Y-111500920D01*
X198777860Y-111582200D01*
X198681340Y-111747300D01*
X198628000Y-111925100D01*
X198620380Y-111970820D01*
X198630540Y-112166400D01*
X198686420Y-112351820D01*
X198790560Y-112519460D01*
X198932800Y-112656620D01*
X198950580Y-112671860D01*
X199019160Y-112720120D01*
X199062340Y-112755680D01*
X199097900Y-112783620D01*
X198848980Y-113383060D01*
X198808340Y-113477040D01*
X198739760Y-113642140D01*
X198681340Y-113781840D01*
X198633080Y-113893600D01*
X198600060Y-113969800D01*
X198584820Y-114000280D01*
X198582280Y-114000280D01*
X198561960Y-114005360D01*
X198516240Y-113987580D01*
X198432420Y-113946940D01*
X198376540Y-113919000D01*
X198313040Y-113888520D01*
X198285100Y-113878360D01*
X198259700Y-113891060D01*
X198198740Y-113929160D01*
X198109840Y-113990120D01*
X198003160Y-114063780D01*
X197901560Y-114132360D01*
X197807580Y-114193320D01*
X197739000Y-114236500D01*
X197705980Y-114254280D01*
X197700900Y-114254280D01*
X197670420Y-114239040D01*
X197617080Y-114193320D01*
X197535800Y-114117120D01*
X197418960Y-114002820D01*
X197401180Y-113985040D01*
X197307200Y-113888520D01*
X197231000Y-113807240D01*
X197177660Y-113751360D01*
X197159880Y-113723420D01*
X197177660Y-113690400D01*
X197220840Y-113624360D01*
X197281800Y-113527840D01*
X197358000Y-113416080D01*
X197556120Y-113129060D01*
X197446900Y-112857280D01*
X197413880Y-112773460D01*
X197370700Y-112671860D01*
X197340220Y-112600740D01*
X197324980Y-112567720D01*
X197294500Y-112557560D01*
X197220840Y-112539780D01*
X197111620Y-112516920D01*
X196982080Y-112494060D01*
X196860160Y-112471200D01*
X196750940Y-112450880D01*
X196669660Y-112435640D01*
X196634100Y-112428020D01*
X196623940Y-112422940D01*
X196618860Y-112405160D01*
X196613780Y-112367060D01*
X196611240Y-112301020D01*
X196608700Y-112194340D01*
X196608700Y-112041940D01*
X196608700Y-112024160D01*
X196611240Y-111876840D01*
X196613780Y-111762540D01*
X196616320Y-111686340D01*
X196621400Y-111655860D01*
X196656960Y-111648240D01*
X196735700Y-111630460D01*
X196844920Y-111610140D01*
X196977000Y-111584740D01*
X196987160Y-111582200D01*
X197116700Y-111556800D01*
X197228460Y-111533940D01*
X197304660Y-111516160D01*
X197337680Y-111506000D01*
X197345300Y-111495840D01*
X197370700Y-111445040D01*
X197408800Y-111363760D01*
X197451980Y-111264700D01*
X197495160Y-111160560D01*
X197533260Y-111069120D01*
X197558660Y-110998000D01*
X197566280Y-110967520D01*
X197563740Y-110967520D01*
X197545960Y-110934500D01*
X197500240Y-110865920D01*
X197436740Y-110771940D01*
X197358000Y-110660180D01*
X197352920Y-110652560D01*
X197276720Y-110540800D01*
X197215760Y-110446820D01*
X197175120Y-110378240D01*
X197159880Y-110347760D01*
X197185280Y-110314740D01*
X197241160Y-110251240D01*
X197322440Y-110164880D01*
X197421500Y-110068360D01*
X197451980Y-110037880D01*
X197558660Y-109931200D01*
X197634860Y-109862620D01*
X197680580Y-109824520D01*
X197703440Y-109816900D01*
X197705980Y-109816900D01*
X197739000Y-109837220D01*
X197807580Y-109882940D01*
X197904100Y-109948980D01*
X198015860Y-110025180D01*
X198023480Y-110030260D01*
X198135240Y-110106460D01*
X198229220Y-110169960D01*
X198295260Y-110213140D01*
X198323200Y-110230920D01*
X198328280Y-110230920D01*
X198374000Y-110215680D01*
X198452740Y-110187740D01*
X198549260Y-110152180D01*
X198653400Y-110109000D01*
X198744840Y-110070900D01*
X198815960Y-110037880D01*
X198848980Y-110020100D01*
X198848980Y-110017560D01*
X198861680Y-109979460D01*
X198882000Y-109895640D01*
X198904860Y-109781340D01*
X198930260Y-109644180D01*
X198935340Y-109621320D01*
X198960740Y-109489240D01*
X198981060Y-109380020D01*
X198996300Y-109303820D01*
X199003920Y-109273340D01*
X199024240Y-109268260D01*
X199087740Y-109263180D01*
X199186800Y-109260640D01*
X199306180Y-109260640D01*
X199430640Y-109260640D01*
X199555100Y-109263180D01*
X199659240Y-109268260D01*
X199735440Y-109273340D01*
X199765920Y-109278420D01*
X199765920Y-109280960D01*
X199778620Y-109321600D01*
X199796400Y-109405420D01*
X199819260Y-109519720D01*
X199847200Y-109656880D01*
X199852280Y-109682280D01*
X199875140Y-109814360D01*
X199898000Y-109921040D01*
X199913240Y-109997240D01*
X199923400Y-110025180D01*
X199933560Y-110032800D01*
X199989440Y-110055660D01*
X200078340Y-110093760D01*
X200187560Y-110136940D01*
X200441560Y-110241080D01*
X200753980Y-110025180D01*
X200784460Y-110007400D01*
X200896220Y-109931200D01*
X200987660Y-109867700D01*
X201051160Y-109827060D01*
X201079100Y-109811820D01*
X201081640Y-109814360D01*
X201112120Y-109839760D01*
X201173080Y-109898180D01*
X201259440Y-109982000D01*
X201355960Y-110078520D01*
X201429620Y-110152180D01*
X201515980Y-110238540D01*
X201569320Y-110296960D01*
X201599800Y-110335060D01*
X201609960Y-110357920D01*
X201607420Y-110373160D01*
X201587100Y-110406180D01*
X201541380Y-110474760D01*
X201477880Y-110568740D01*
X201401680Y-110680500D01*
X201338180Y-110771940D01*
X201272140Y-110876080D01*
X201226420Y-110952280D01*
X201211180Y-110987840D01*
X201216260Y-111003080D01*
X201236580Y-111064040D01*
X201274680Y-111158020D01*
X201320400Y-111267240D01*
X201429620Y-111513620D01*
X201592180Y-111546640D01*
X201691240Y-111564420D01*
X201828400Y-111589820D01*
X201957940Y-111615220D01*
X202163680Y-111655860D01*
X202171300Y-112407700D01*
X202140820Y-112422940D01*
X202110340Y-112430560D01*
X202034140Y-112448340D01*
X201924920Y-112468660D01*
X201797920Y-112494060D01*
X201688700Y-112514380D01*
X201576940Y-112534700D01*
X201498200Y-112549940D01*
X201462640Y-112557560D01*
X201455020Y-112567720D01*
X201427080Y-112621060D01*
X201388980Y-112707420D01*
X201345800Y-112809020D01*
X201300080Y-112913160D01*
X201261980Y-113012220D01*
X201234040Y-113085880D01*
X201223880Y-113123980D01*
X201239120Y-113151920D01*
X201282300Y-113217960D01*
X201343260Y-113309400D01*
X201416920Y-113418620D01*
X201490580Y-113527840D01*
X201554080Y-113621820D01*
X201597260Y-113687860D01*
X201617580Y-113718340D01*
X201607420Y-113741200D01*
X201564240Y-113792000D01*
X201480420Y-113878360D01*
X201358500Y-114000280D01*
X201338180Y-114018060D01*
X201241660Y-114112040D01*
X201157840Y-114188240D01*
X201101960Y-114239040D01*
X201076560Y-114259360D01*
G37*
X201076560Y-114259360D02*
X201046080Y-114244120D01*
X200982580Y-114203480D01*
X200888600Y-114142520D01*
X200779380Y-114068860D01*
X200667620Y-113992660D01*
X200578720Y-113931700D01*
X200515220Y-113891060D01*
X200487280Y-113878360D01*
X200474580Y-113883440D01*
X200421240Y-113908840D01*
X200345040Y-113946940D01*
X200301860Y-113969800D01*
X200230740Y-114000280D01*
X200197720Y-114005360D01*
X200190100Y-113997740D01*
X200164700Y-113944400D01*
X200126600Y-113852960D01*
X200073260Y-113731040D01*
X200012300Y-113591340D01*
X199948800Y-113438940D01*
X199882760Y-113284000D01*
X199821800Y-113134140D01*
X199768460Y-113002060D01*
X199725280Y-112892840D01*
X199694800Y-112819180D01*
X199684640Y-112786160D01*
X199687180Y-112778540D01*
X199722740Y-112745520D01*
X199783700Y-112699800D01*
X199915780Y-112593120D01*
X200045320Y-112430560D01*
X200124060Y-112245140D01*
X200152000Y-112041940D01*
X200129140Y-111851440D01*
X200052940Y-111668560D01*
X199925940Y-111506000D01*
X199773540Y-111384080D01*
X199593200Y-111305340D01*
X199390000Y-111282480D01*
X199196960Y-111302800D01*
X199011540Y-111376460D01*
X198846440Y-111500920D01*
X198777860Y-111582200D01*
X198681340Y-111747300D01*
X198628000Y-111925100D01*
X198620380Y-111970820D01*
X198630540Y-112166400D01*
X198686420Y-112351820D01*
X198790560Y-112519460D01*
X198932800Y-112656620D01*
X198950580Y-112671860D01*
X199019160Y-112720120D01*
X199062340Y-112755680D01*
X199097900Y-112783620D01*
X198848980Y-113383060D01*
X198808340Y-113477040D01*
X198739760Y-113642140D01*
X198681340Y-113781840D01*
X198633080Y-113893600D01*
X198600060Y-113969800D01*
X198584820Y-114000280D01*
X198582280Y-114000280D01*
X198561960Y-114005360D01*
X198516240Y-113987580D01*
X198432420Y-113946940D01*
X198376540Y-113919000D01*
X198313040Y-113888520D01*
X198285100Y-113878360D01*
X198259700Y-113891060D01*
X198198740Y-113929160D01*
X198109840Y-113990120D01*
X198003160Y-114063780D01*
X197901560Y-114132360D01*
X197807580Y-114193320D01*
X197739000Y-114236500D01*
X197705980Y-114254280D01*
X197700900Y-114254280D01*
X197670420Y-114239040D01*
X197617080Y-114193320D01*
X197535800Y-114117120D01*
X197418960Y-114002820D01*
X197401180Y-113985040D01*
X197307200Y-113888520D01*
X197231000Y-113807240D01*
X197177660Y-113751360D01*
X197159880Y-113723420D01*
X197177660Y-113690400D01*
X197220840Y-113624360D01*
X197281800Y-113527840D01*
X197358000Y-113416080D01*
X197556120Y-113129060D01*
X197446900Y-112857280D01*
X197413880Y-112773460D01*
X197370700Y-112671860D01*
X197340220Y-112600740D01*
X197324980Y-112567720D01*
X197294500Y-112557560D01*
X197220840Y-112539780D01*
X197111620Y-112516920D01*
X196982080Y-112494060D01*
X196860160Y-112471200D01*
X196750940Y-112450880D01*
X196669660Y-112435640D01*
X196634100Y-112428020D01*
X196623940Y-112422940D01*
X196618860Y-112405160D01*
X196613780Y-112367060D01*
X196611240Y-112301020D01*
X196608700Y-112194340D01*
X196608700Y-112041940D01*
X196608700Y-112024160D01*
X196611240Y-111876840D01*
X196613780Y-111762540D01*
X196616320Y-111686340D01*
X196621400Y-111655860D01*
X196656960Y-111648240D01*
X196735700Y-111630460D01*
X196844920Y-111610140D01*
X196977000Y-111584740D01*
X196987160Y-111582200D01*
X197116700Y-111556800D01*
X197228460Y-111533940D01*
X197304660Y-111516160D01*
X197337680Y-111506000D01*
X197345300Y-111495840D01*
X197370700Y-111445040D01*
X197408800Y-111363760D01*
X197451980Y-111264700D01*
X197495160Y-111160560D01*
X197533260Y-111069120D01*
X197558660Y-110998000D01*
X197566280Y-110967520D01*
X197563740Y-110967520D01*
X197545960Y-110934500D01*
X197500240Y-110865920D01*
X197436740Y-110771940D01*
X197358000Y-110660180D01*
X197352920Y-110652560D01*
X197276720Y-110540800D01*
X197215760Y-110446820D01*
X197175120Y-110378240D01*
X197159880Y-110347760D01*
X197185280Y-110314740D01*
X197241160Y-110251240D01*
X197322440Y-110164880D01*
X197421500Y-110068360D01*
X197451980Y-110037880D01*
X197558660Y-109931200D01*
X197634860Y-109862620D01*
X197680580Y-109824520D01*
X197703440Y-109816900D01*
X197705980Y-109816900D01*
X197739000Y-109837220D01*
X197807580Y-109882940D01*
X197904100Y-109948980D01*
X198015860Y-110025180D01*
X198023480Y-110030260D01*
X198135240Y-110106460D01*
X198229220Y-110169960D01*
X198295260Y-110213140D01*
X198323200Y-110230920D01*
X198328280Y-110230920D01*
X198374000Y-110215680D01*
X198452740Y-110187740D01*
X198549260Y-110152180D01*
X198653400Y-110109000D01*
X198744840Y-110070900D01*
X198815960Y-110037880D01*
X198848980Y-110020100D01*
X198848980Y-110017560D01*
X198861680Y-109979460D01*
X198882000Y-109895640D01*
X198904860Y-109781340D01*
X198930260Y-109644180D01*
X198935340Y-109621320D01*
X198960740Y-109489240D01*
X198981060Y-109380020D01*
X198996300Y-109303820D01*
X199003920Y-109273340D01*
X199024240Y-109268260D01*
X199087740Y-109263180D01*
X199186800Y-109260640D01*
X199306180Y-109260640D01*
X199430640Y-109260640D01*
X199555100Y-109263180D01*
X199659240Y-109268260D01*
X199735440Y-109273340D01*
X199765920Y-109278420D01*
X199765920Y-109280960D01*
X199778620Y-109321600D01*
X199796400Y-109405420D01*
X199819260Y-109519720D01*
X199847200Y-109656880D01*
X199852280Y-109682280D01*
X199875140Y-109814360D01*
X199898000Y-109921040D01*
X199913240Y-109997240D01*
X199923400Y-110025180D01*
X199933560Y-110032800D01*
X199989440Y-110055660D01*
X200078340Y-110093760D01*
X200187560Y-110136940D01*
X200441560Y-110241080D01*
X200753980Y-110025180D01*
X200784460Y-110007400D01*
X200896220Y-109931200D01*
X200987660Y-109867700D01*
X201051160Y-109827060D01*
X201079100Y-109811820D01*
X201081640Y-109814360D01*
X201112120Y-109839760D01*
X201173080Y-109898180D01*
X201259440Y-109982000D01*
X201355960Y-110078520D01*
X201429620Y-110152180D01*
X201515980Y-110238540D01*
X201569320Y-110296960D01*
X201599800Y-110335060D01*
X201609960Y-110357920D01*
X201607420Y-110373160D01*
X201587100Y-110406180D01*
X201541380Y-110474760D01*
X201477880Y-110568740D01*
X201401680Y-110680500D01*
X201338180Y-110771940D01*
X201272140Y-110876080D01*
X201226420Y-110952280D01*
X201211180Y-110987840D01*
X201216260Y-111003080D01*
X201236580Y-111064040D01*
X201274680Y-111158020D01*
X201320400Y-111267240D01*
X201429620Y-111513620D01*
X201592180Y-111546640D01*
X201691240Y-111564420D01*
X201828400Y-111589820D01*
X201957940Y-111615220D01*
X202163680Y-111655860D01*
X202171300Y-112407700D01*
X202140820Y-112422940D01*
X202110340Y-112430560D01*
X202034140Y-112448340D01*
X201924920Y-112468660D01*
X201797920Y-112494060D01*
X201688700Y-112514380D01*
X201576940Y-112534700D01*
X201498200Y-112549940D01*
X201462640Y-112557560D01*
X201455020Y-112567720D01*
X201427080Y-112621060D01*
X201388980Y-112707420D01*
X201345800Y-112809020D01*
X201300080Y-112913160D01*
X201261980Y-113012220D01*
X201234040Y-113085880D01*
X201223880Y-113123980D01*
X201239120Y-113151920D01*
X201282300Y-113217960D01*
X201343260Y-113309400D01*
X201416920Y-113418620D01*
X201490580Y-113527840D01*
X201554080Y-113621820D01*
X201597260Y-113687860D01*
X201617580Y-113718340D01*
X201607420Y-113741200D01*
X201564240Y-113792000D01*
X201480420Y-113878360D01*
X201358500Y-114000280D01*
X201338180Y-114018060D01*
X201241660Y-114112040D01*
X201157840Y-114188240D01*
X201101960Y-114239040D01*
X201076560Y-114259360D01*
D18*
X219650000Y-117930000D02*
X211110000Y-117930000D01*
X211110000Y-117930000D02*
X211110000Y-103210000D01*
X219650000Y-103210000D02*
X211110000Y-103210000D01*
X225330000Y-117930000D02*
X225330000Y-103210000D01*
X225330000Y-117930000D02*
X223350000Y-117930000D01*
X223350000Y-103210000D02*
X225330000Y-103210000D01*
X226210000Y-114570000D02*
X225710000Y-114070000D01*
X225710000Y-114070000D02*
X226210000Y-113570000D01*
X226210000Y-113570000D02*
X226210000Y-114570000D01*
D15*
X227107619Y-116353333D02*
X226393333Y-116353333D01*
X226250476Y-116400952D01*
X226155238Y-116496190D01*
X226107619Y-116639047D01*
X226107619Y-116734285D01*
X226774285Y-115448571D02*
X226107619Y-115448571D01*
X227155238Y-115686666D02*
X226440952Y-115924761D01*
X226440952Y-115305714D01*
M02*
