G04 #@! TF.GenerationSoftware,KiCad,Pcbnew,5.1.9-73d0e3b20d~88~ubuntu20.04.1*
G04 #@! TF.CreationDate,2021-11-29T19:04:58+09:00*
G04 #@! TF.ProjectId,AKBONE2020LGT8F,414b424f-4e45-4323-9032-304c47543846,rev?*
G04 #@! TF.SameCoordinates,Original*
G04 #@! TF.FileFunction,Copper,L2,Bot*
G04 #@! TF.FilePolarity,Positive*
%FSLAX46Y46*%
G04 Gerber Fmt 4.6, Leading zero omitted, Abs format (unit mm)*
G04 Created by KiCad (PCBNEW 5.1.9-73d0e3b20d~88~ubuntu20.04.1) date 2021-11-29 19:04:58*
%MOMM*%
%LPD*%
G01*
G04 APERTURE LIST*
G04 #@! TA.AperFunction,ComponentPad*
%ADD10R,1.600000X1.600000*%
G04 #@! TD*
G04 #@! TA.AperFunction,ComponentPad*
%ADD11C,1.600000*%
G04 #@! TD*
G04 #@! TA.AperFunction,ComponentPad*
%ADD12R,2.200000X2.200000*%
G04 #@! TD*
G04 #@! TA.AperFunction,ComponentPad*
%ADD13O,2.200000X2.200000*%
G04 #@! TD*
G04 #@! TA.AperFunction,ComponentPad*
%ADD14R,1.700000X1.700000*%
G04 #@! TD*
G04 #@! TA.AperFunction,ComponentPad*
%ADD15O,1.700000X1.700000*%
G04 #@! TD*
G04 #@! TA.AperFunction,ComponentPad*
%ADD16C,3.500000*%
G04 #@! TD*
G04 #@! TA.AperFunction,ComponentPad*
%ADD17R,1.524000X1.524000*%
G04 #@! TD*
G04 #@! TA.AperFunction,ComponentPad*
%ADD18C,1.524000*%
G04 #@! TD*
G04 #@! TA.AperFunction,ComponentPad*
%ADD19C,1.500000*%
G04 #@! TD*
G04 #@! TA.AperFunction,ComponentPad*
%ADD20O,1.600000X3.000000*%
G04 #@! TD*
G04 #@! TA.AperFunction,ComponentPad*
%ADD21O,3.000000X1.600000*%
G04 #@! TD*
G04 #@! TA.AperFunction,ComponentPad*
%ADD22C,5.700000*%
G04 #@! TD*
G04 #@! TA.AperFunction,ComponentPad*
%ADD23O,1.600000X1.600000*%
G04 #@! TD*
G04 #@! TA.AperFunction,ViaPad*
%ADD24C,1.399540*%
G04 #@! TD*
G04 #@! TA.AperFunction,Conductor*
%ADD25C,0.381000*%
G04 #@! TD*
G04 #@! TA.AperFunction,Conductor*
%ADD26C,0.508000*%
G04 #@! TD*
G04 APERTURE END LIST*
D10*
X224790000Y-123190000D03*
D11*
X226790000Y-123190000D03*
D12*
X184150000Y-90170000D03*
D13*
X194310000Y-90170000D03*
D14*
X172720000Y-115570000D03*
D15*
X172720000Y-113030000D03*
X172720000Y-110490000D03*
X172720000Y-107950000D03*
X172720000Y-105410000D03*
D14*
X218440000Y-123190000D03*
D15*
X215900000Y-123190000D03*
X213360000Y-123190000D03*
X210820000Y-123190000D03*
X208280000Y-123190000D03*
X205740000Y-123190000D03*
X203200000Y-123190000D03*
X200660000Y-123190000D03*
X198120000Y-123190000D03*
X195580000Y-123190000D03*
X193040000Y-123190000D03*
X190500000Y-123190000D03*
X187960000Y-123190000D03*
D16*
X221500000Y-104000000D03*
X221500000Y-117140000D03*
D17*
X224210000Y-114070000D03*
D18*
X224210000Y-111570000D03*
X224210000Y-109570000D03*
X224210000Y-107070000D03*
D14*
X219710000Y-99060000D03*
D15*
X222250000Y-99060000D03*
X224790000Y-99060000D03*
X224790000Y-96520000D03*
X222250000Y-96520000D03*
D14*
X219710000Y-96520000D03*
D19*
X197660000Y-92710000D03*
X199660000Y-92710000D03*
X201660000Y-92710000D03*
X203660000Y-92710000D03*
D20*
X182880000Y-118110000D03*
X185420000Y-118110000D03*
X187960000Y-118110000D03*
X190500000Y-118110000D03*
X193040000Y-118110000D03*
X195580000Y-118110000D03*
X198120000Y-118110000D03*
X200660000Y-118110000D03*
X203200000Y-118110000D03*
X205740000Y-118110000D03*
D21*
X208280000Y-115570000D03*
X208280000Y-113030000D03*
X208280000Y-110490000D03*
X208280000Y-107950000D03*
X208280000Y-105410000D03*
D20*
X205740000Y-102870000D03*
X203200000Y-102870000D03*
X200660000Y-102870000D03*
X198120000Y-102870000D03*
X195580000Y-102870000D03*
X193040000Y-102870000D03*
X190500000Y-102870000D03*
X187960000Y-102870000D03*
X185420000Y-102870000D03*
X182880000Y-102870000D03*
D21*
X180340000Y-105410000D03*
X180340000Y-107950000D03*
X180340000Y-110490000D03*
X180340000Y-113030000D03*
X180340000Y-115570000D03*
D14*
X231000000Y-117200000D03*
D15*
X233540000Y-117200000D03*
X231000000Y-114660000D03*
X233540000Y-114660000D03*
X231000000Y-112120000D03*
X233540000Y-112120000D03*
X231000000Y-109580000D03*
X233540000Y-109580000D03*
X231000000Y-107040000D03*
X233540000Y-107040000D03*
X231000000Y-104500000D03*
X233540000Y-104500000D03*
D10*
X172720000Y-95250000D03*
D11*
X179220000Y-95250000D03*
D22*
X173990000Y-123190000D03*
X180340000Y-123190000D03*
D14*
X219710000Y-93980000D03*
D15*
X222250000Y-93980000D03*
X224790000Y-93980000D03*
X224790000Y-91440000D03*
X222250000Y-91440000D03*
D14*
X219710000Y-91440000D03*
D19*
X208788000Y-92710000D03*
X210788000Y-92710000D03*
X212788000Y-92710000D03*
X214788000Y-92710000D03*
D23*
X167900000Y-115560000D03*
D11*
X167900000Y-105400000D03*
X205740000Y-97790000D03*
D23*
X215900000Y-97790000D03*
X203200000Y-97790000D03*
D11*
X193040000Y-97790000D03*
X184150000Y-93980000D03*
D23*
X194310000Y-93980000D03*
D11*
X176600000Y-115560000D03*
D23*
X176600000Y-105400000D03*
D24*
X212090000Y-119380000D03*
X190500000Y-113030000D03*
X213360000Y-107950000D03*
X219500000Y-110000000D03*
D25*
X219562401Y-124380501D02*
X224620000Y-119322902D01*
X217090501Y-124380501D02*
X219562401Y-124380501D01*
X215900000Y-123190000D02*
X217090501Y-124380501D01*
X205740000Y-115570000D02*
X208280000Y-115570000D01*
X203200000Y-118110000D02*
X205740000Y-115570000D01*
X203200000Y-118110000D02*
X203200000Y-120650000D01*
X195580000Y-120650000D02*
X193040000Y-118110000D01*
X203200000Y-120650000D02*
X195580000Y-120650000D01*
X183189999Y-120340001D02*
X180340000Y-123190000D01*
X190809999Y-120340001D02*
X183189999Y-120340001D01*
X193040000Y-118110000D02*
X190809999Y-120340001D01*
X214630000Y-91916365D02*
X214630000Y-92710000D01*
X212583134Y-89869499D02*
X214630000Y-91916365D01*
X206500501Y-89869499D02*
X212583134Y-89869499D01*
X203660000Y-92710000D02*
X206500501Y-89869499D01*
D26*
X203367922Y-92710000D02*
X203660000Y-92710000D01*
X200827922Y-90170000D02*
X203367922Y-92710000D01*
X194310000Y-90170000D02*
X200827922Y-90170000D01*
X233540000Y-107040000D02*
X231000000Y-107040000D01*
X224240000Y-107040000D02*
X224210000Y-107070000D01*
X231000000Y-107040000D02*
X224240000Y-107040000D01*
X224210000Y-106710000D02*
X221500000Y-104000000D01*
X224210000Y-107070000D02*
X224210000Y-106710000D01*
X221500000Y-109780000D02*
X221500000Y-117140000D01*
X224210000Y-107070000D02*
X221500000Y-109780000D01*
X224620000Y-119888630D02*
X224620000Y-119322902D01*
X226790000Y-122058630D02*
X224620000Y-119888630D01*
X226790000Y-123190000D02*
X226790000Y-122058630D01*
X223682902Y-119322902D02*
X221500000Y-117140000D01*
X224620000Y-119322902D02*
X223682902Y-119322902D01*
X176590000Y-105410000D02*
X176600000Y-105400000D01*
X172720000Y-105410000D02*
X176590000Y-105410000D01*
X180330000Y-105400000D02*
X180340000Y-105410000D01*
X176600000Y-105400000D02*
X180330000Y-105400000D01*
X224790000Y-91440000D02*
X226060000Y-91440000D01*
X226060000Y-91440000D02*
X227330000Y-92710000D01*
X227330000Y-96520000D02*
X224790000Y-99060000D01*
X227330000Y-92710000D02*
X227330000Y-96520000D01*
X230230000Y-104500000D02*
X231000000Y-104500000D01*
X224790000Y-99060000D02*
X230230000Y-104500000D01*
X233540000Y-104500000D02*
X231000000Y-104500000D01*
X172720000Y-115570000D02*
X172720000Y-116320000D01*
X172720000Y-116320000D02*
X174600000Y-118200000D01*
X177710000Y-118200000D02*
X180340000Y-115570000D01*
X174600000Y-118200000D02*
X177710000Y-118200000D01*
X176600000Y-113100000D02*
X176670000Y-113030000D01*
X176600000Y-115560000D02*
X176600000Y-113100000D01*
X176670000Y-113030000D02*
X180340000Y-113030000D01*
X172720000Y-113030000D02*
X176670000Y-113030000D01*
X233540000Y-109580000D02*
X231000000Y-109580000D01*
X228700000Y-109580000D02*
X224210000Y-114070000D01*
X231000000Y-109580000D02*
X228700000Y-109580000D01*
X227367921Y-124394001D02*
X228500000Y-123261922D01*
X225994001Y-124394001D02*
X227367921Y-124394001D01*
X224790000Y-123190000D02*
X225994001Y-124394001D01*
X228500000Y-118360000D02*
X224210000Y-114070000D01*
X228500000Y-123261922D02*
X228500000Y-118360000D01*
X222250000Y-93980000D02*
X220995999Y-92725999D01*
X220995999Y-92725999D02*
X217407999Y-92725999D01*
X215611986Y-94522012D02*
X196630012Y-94522012D01*
X217407999Y-92725999D02*
X215611986Y-94522012D01*
X194883999Y-92775999D02*
X193228001Y-92775999D01*
X196630012Y-94522012D02*
X194883999Y-92775999D01*
X193228001Y-92775999D02*
X192278000Y-93726000D01*
X192278000Y-93726000D02*
X192278000Y-94488000D01*
X198120000Y-100330000D02*
X198120000Y-102870000D01*
X192278000Y-94488000D02*
X198120000Y-100330000D01*
D25*
X218440000Y-123190000D02*
X214630000Y-119380000D01*
X214630000Y-119380000D02*
X212090000Y-119380000D01*
X206921000Y-102870000D02*
X205740000Y-102870000D01*
X190500000Y-118110000D02*
X205740000Y-102870000D01*
X190500000Y-118110000D02*
X191540272Y-117069728D01*
X191540272Y-117069728D02*
X191540272Y-112530668D01*
X191540272Y-112530668D02*
X186959604Y-107950000D01*
X182221000Y-107950000D02*
X180340000Y-107950000D01*
X186959604Y-107950000D02*
X182221000Y-107950000D01*
D26*
X222137202Y-99060000D02*
X222250000Y-99060000D01*
X218327202Y-102870000D02*
X222137202Y-99060000D01*
X205740000Y-102870000D02*
X218327202Y-102870000D01*
X220964001Y-97805999D02*
X218170001Y-97805999D01*
X222250000Y-96520000D02*
X220964001Y-97805999D01*
X202564010Y-100965990D02*
X200660000Y-102870000D01*
X215010010Y-100965990D02*
X202564010Y-100965990D01*
X218170001Y-97805999D02*
X215010010Y-100965990D01*
D25*
X173990000Y-123190000D02*
X175032924Y-123190000D01*
X175032924Y-123190000D02*
X185192924Y-113030000D01*
X185192924Y-113030000D02*
X190500000Y-113030000D01*
D26*
X203200000Y-97790000D02*
X199324010Y-101665990D01*
X199324010Y-101665990D02*
X199324010Y-104068717D01*
X199324010Y-104068717D02*
X198618717Y-104774010D01*
X189864010Y-104774010D02*
X187960000Y-102870000D01*
X198618717Y-104774010D02*
X189864010Y-104774010D01*
X233540000Y-117200000D02*
X231000000Y-117200000D01*
D25*
X213360000Y-107950000D02*
X208280000Y-107950000D01*
X198120000Y-118110000D02*
X198120000Y-116229000D01*
X198120000Y-116229000D02*
X206399000Y-107950000D01*
X206399000Y-107950000D02*
X208280000Y-107950000D01*
D26*
X233540000Y-114660000D02*
X231000000Y-114660000D01*
D25*
X205967076Y-110490000D02*
X208280000Y-110490000D01*
X199519490Y-116937586D02*
X205967076Y-110490000D01*
X199519490Y-119023434D02*
X199519490Y-116937586D01*
X198592414Y-119950510D02*
X199519490Y-119023434D01*
X197420510Y-119950510D02*
X198592414Y-119950510D01*
X195580000Y-118110000D02*
X197420510Y-119950510D01*
D26*
X233540000Y-112120000D02*
X231000000Y-112120000D01*
X208770000Y-110000000D02*
X208280000Y-110490000D01*
X219500000Y-110000000D02*
X208770000Y-110000000D01*
X177800000Y-90170000D02*
X184150000Y-90170000D01*
X172720000Y-95250000D02*
X177800000Y-90170000D01*
X185420000Y-90170000D02*
X193040000Y-97790000D01*
X184150000Y-90170000D02*
X185420000Y-90170000D01*
X207691966Y-95838034D02*
X205740000Y-97790000D01*
X216983137Y-95265999D02*
X216411102Y-95838034D01*
X223535999Y-95265999D02*
X216983137Y-95265999D01*
X216411102Y-95838034D02*
X207691966Y-95838034D01*
X224790000Y-96520000D02*
X223535999Y-95265999D01*
X217170000Y-96520000D02*
X215900000Y-97790000D01*
X219710000Y-96520000D02*
X217170000Y-96520000D01*
X217338568Y-93980000D02*
X219710000Y-93980000D01*
X216138545Y-95180023D02*
X217338568Y-93980000D01*
X195510023Y-95180023D02*
X216138545Y-95180023D01*
X194310000Y-93980000D02*
X195510023Y-95180023D01*
X215373441Y-93829989D02*
X218455999Y-90747433D01*
X218536799Y-90185999D02*
X223027999Y-90185999D01*
X215085431Y-93864001D02*
X215119443Y-93829989D01*
X215119443Y-93829989D02*
X215373441Y-93829989D01*
X223027999Y-90185999D02*
X223535999Y-90693999D01*
X223535999Y-90693999D02*
X223535999Y-92725999D01*
X211942001Y-93864001D02*
X215085431Y-93864001D01*
X210788000Y-92710000D02*
X211942001Y-93864001D01*
X218455999Y-90747433D02*
X218455999Y-90266799D01*
X218455999Y-90266799D02*
X218536799Y-90185999D01*
X223535999Y-92725999D02*
X224790000Y-93980000D01*
M02*
