M48
; DRILL file {KiCad 5.1.9-73d0e3b20d~88~ubuntu20.04.1} date Mon Nov 29 19:05:03 2021
; FORMAT={-:-/ absolute / inch / decimal}
; #@! TF.CreationDate,2021-11-29T19:05:03+09:00
; #@! TF.GenerationSoftware,Kicad,Pcbnew,5.1.9-73d0e3b20d~88~ubuntu20.04.1
; #@! TF.FileFunction,Plated,1,2,PTH
FMAT,2
INCH
T1C0.0300
T2C0.0315
T3C0.0339
T4C0.0362
T5C0.0394
T6C0.0394
T7C0.0433
T8C0.0906
T9C0.1260
%
G90
G05
T1
X7.7819Y-3.65
X7.8606Y-3.65
X7.9394Y-3.65
X8.0181Y-3.65
X8.22Y-3.65
X8.2987Y-3.65
X8.3775Y-3.65
X8.4562Y-3.65
T2
X6.6102Y-4.1496
X6.6102Y-4.5496
X6.9528Y-4.1496
X6.9528Y-4.5496
X7.25Y-3.7
X7.6Y-3.85
X7.65Y-3.7
X8.0Y-3.85
X8.1Y-3.85
X8.5Y-3.85
X8.85Y-4.85
X8.9287Y-4.85
T3
X7.1Y-4.15
X7.1Y-4.25
X7.1Y-4.35
X7.1Y-4.45
X7.1Y-4.55
X7.2Y-4.05
X7.2Y-4.65
X7.3Y-4.05
X7.3Y-4.65
X7.4Y-4.05
X7.4Y-4.65
X7.5Y-4.05
X7.5Y-4.65
X7.6Y-4.05
X7.6Y-4.65
X7.7Y-4.05
X7.7Y-4.65
X7.8Y-4.05
X7.8Y-4.65
X7.9Y-4.05
X7.9Y-4.65
X8.0Y-4.05
X8.0Y-4.65
X8.1Y-4.05
X8.1Y-4.65
X8.2Y-4.15
X8.2Y-4.25
X8.2Y-4.35
X8.2Y-4.45
X8.2Y-4.55
T4
X8.8272Y-4.2154
X8.8272Y-4.3138
X8.8272Y-4.3925
X8.8272Y-4.4909
T5
X6.8Y-3.75
X6.8Y-4.15
X6.8Y-4.25
X6.8Y-4.35
X6.8Y-4.45
X6.8Y-4.55
X7.0559Y-3.75
X7.4Y-4.85
X7.5Y-4.85
X7.6Y-4.85
X7.7Y-4.85
X7.8Y-4.85
X7.9Y-4.85
X8.0Y-4.85
X8.1Y-4.85
X8.2Y-4.85
X8.3Y-4.85
X8.4Y-4.85
X8.5Y-4.85
X8.6Y-4.85
X8.65Y-3.6
X8.65Y-3.7
X8.65Y-3.8
X8.65Y-3.9
X8.75Y-3.6
X8.75Y-3.7
X8.75Y-3.8
X8.75Y-3.9
X8.85Y-3.6
X8.85Y-3.7
X8.85Y-3.8
X8.85Y-3.9
X9.0945Y-4.1142
X9.0945Y-4.2142
X9.0945Y-4.3142
X9.0945Y-4.4142
X9.0945Y-4.5142
X9.0945Y-4.6142
X9.1945Y-4.1142
X9.1945Y-4.2142
X9.1945Y-4.3142
X9.1945Y-4.4142
X9.1945Y-4.5142
X9.1945Y-4.6142
T6
X7.5Y-4.45
X8.35Y-4.7
X8.4Y-4.25
X8.6417Y-4.3307
T7
X7.25Y-3.55
X7.65Y-3.55
T8
X8.7205Y-4.0945
X8.7205Y-4.6118
T9
X6.85Y-4.85
X7.1Y-4.85
T0
M30
