G04 #@! TF.GenerationSoftware,KiCad,Pcbnew,5.1.7-a382d34a8~87~ubuntu20.04.1*
G04 #@! TF.CreationDate,2020-11-07T19:00:24+09:00*
G04 #@! TF.ProjectId,AKBONE2020LGT8F,414b424f-4e45-4323-9032-304c47543846,rev?*
G04 #@! TF.SameCoordinates,Original*
G04 #@! TF.FileFunction,Legend,Top*
G04 #@! TF.FilePolarity,Positive*
%FSLAX46Y46*%
G04 Gerber Fmt 4.6, Leading zero omitted, Abs format (unit mm)*
G04 Created by KiCad (PCBNEW 5.1.7-a382d34a8~87~ubuntu20.04.1) date 2020-11-07 19:00:24*
%MOMM*%
%LPD*%
G01*
G04 APERTURE LIST*
%ADD10C,0.170000*%
%ADD11C,0.150000*%
%ADD12C,0.125000*%
%ADD13C,0.200000*%
%ADD14C,0.120000*%
%ADD15C,0.100000*%
G04 APERTURE END LIST*
D10*
X215163333Y-113892857D02*
X215430000Y-114321428D01*
X215620476Y-113892857D02*
X215620476Y-114792857D01*
X215315714Y-114792857D01*
X215239523Y-114750000D01*
X215201428Y-114707142D01*
X215163333Y-114621428D01*
X215163333Y-114492857D01*
X215201428Y-114407142D01*
X215239523Y-114364285D01*
X215315714Y-114321428D01*
X215620476Y-114321428D01*
X214896666Y-114792857D02*
X214363333Y-113892857D01*
X214363333Y-114792857D02*
X214896666Y-113892857D01*
X214058571Y-113892857D02*
X214058571Y-114792857D01*
X213868095Y-114792857D01*
X213753809Y-114750000D01*
X213677619Y-114664285D01*
X213639523Y-114578571D01*
X213601428Y-114407142D01*
X213601428Y-114278571D01*
X213639523Y-114107142D01*
X213677619Y-114021428D01*
X213753809Y-113935714D01*
X213868095Y-113892857D01*
X214058571Y-113892857D01*
X215639523Y-112252857D02*
X215182380Y-112252857D01*
X215410952Y-111352857D02*
X215410952Y-112252857D01*
X214991904Y-112252857D02*
X214458571Y-111352857D01*
X214458571Y-112252857D02*
X214991904Y-111352857D01*
X214153809Y-111352857D02*
X214153809Y-112252857D01*
X213963333Y-112252857D01*
X213849047Y-112210000D01*
X213772857Y-112124285D01*
X213734761Y-112038571D01*
X213696666Y-111867142D01*
X213696666Y-111738571D01*
X213734761Y-111567142D01*
X213772857Y-111481428D01*
X213849047Y-111395714D01*
X213963333Y-111352857D01*
X214153809Y-111352857D01*
X215620476Y-104632857D02*
X215125238Y-104632857D01*
X215391904Y-104290000D01*
X215277619Y-104290000D01*
X215201428Y-104247142D01*
X215163333Y-104204285D01*
X215125238Y-104118571D01*
X215125238Y-103904285D01*
X215163333Y-103818571D01*
X215201428Y-103775714D01*
X215277619Y-103732857D01*
X215506190Y-103732857D01*
X215582380Y-103775714D01*
X215620476Y-103818571D01*
X214896666Y-104632857D02*
X214630000Y-103732857D01*
X214363333Y-104632857D01*
X214172857Y-104632857D02*
X213677619Y-104632857D01*
X213944285Y-104290000D01*
X213830000Y-104290000D01*
X213753809Y-104247142D01*
X213715714Y-104204285D01*
X213677619Y-104118571D01*
X213677619Y-103904285D01*
X213715714Y-103818571D01*
X213753809Y-103775714D01*
X213830000Y-103732857D01*
X214058571Y-103732857D01*
X214134761Y-103775714D01*
X214172857Y-103818571D01*
X215239523Y-107130000D02*
X215315714Y-107172857D01*
X215430000Y-107172857D01*
X215544285Y-107130000D01*
X215620476Y-107044285D01*
X215658571Y-106958571D01*
X215696666Y-106787142D01*
X215696666Y-106658571D01*
X215658571Y-106487142D01*
X215620476Y-106401428D01*
X215544285Y-106315714D01*
X215430000Y-106272857D01*
X215353809Y-106272857D01*
X215239523Y-106315714D01*
X215201428Y-106358571D01*
X215201428Y-106658571D01*
X215353809Y-106658571D01*
X214858571Y-106272857D02*
X214858571Y-107172857D01*
X214401428Y-106272857D01*
X214401428Y-107172857D01*
X214020476Y-106272857D02*
X214020476Y-107172857D01*
X213830000Y-107172857D01*
X213715714Y-107130000D01*
X213639523Y-107044285D01*
X213601428Y-106958571D01*
X213563333Y-106787142D01*
X213563333Y-106658571D01*
X213601428Y-106487142D01*
X213639523Y-106401428D01*
X213715714Y-106315714D01*
X213830000Y-106272857D01*
X214020476Y-106272857D01*
X215658571Y-109155714D02*
X215049047Y-109155714D01*
X215353809Y-108812857D02*
X215353809Y-109498571D01*
X214287142Y-109712857D02*
X214668095Y-109712857D01*
X214706190Y-109284285D01*
X214668095Y-109327142D01*
X214591904Y-109370000D01*
X214401428Y-109370000D01*
X214325238Y-109327142D01*
X214287142Y-109284285D01*
X214249047Y-109198571D01*
X214249047Y-108984285D01*
X214287142Y-108898571D01*
X214325238Y-108855714D01*
X214401428Y-108812857D01*
X214591904Y-108812857D01*
X214668095Y-108855714D01*
X214706190Y-108898571D01*
X214020476Y-109712857D02*
X213753809Y-108812857D01*
X213487142Y-109712857D01*
X215544285Y-116432857D02*
X215544285Y-117332857D01*
X215353809Y-117332857D01*
X215239523Y-117290000D01*
X215163333Y-117204285D01*
X215125238Y-117118571D01*
X215087142Y-116947142D01*
X215087142Y-116818571D01*
X215125238Y-116647142D01*
X215163333Y-116561428D01*
X215239523Y-116475714D01*
X215353809Y-116432857D01*
X215544285Y-116432857D01*
X214858571Y-117332857D02*
X214401428Y-117332857D01*
X214630000Y-116432857D02*
X214630000Y-117332857D01*
X213677619Y-116432857D02*
X213944285Y-116861428D01*
X214134761Y-116432857D02*
X214134761Y-117332857D01*
X213830000Y-117332857D01*
X213753809Y-117290000D01*
X213715714Y-117247142D01*
X213677619Y-117161428D01*
X213677619Y-117032857D01*
X213715714Y-116947142D01*
X213753809Y-116904285D01*
X213830000Y-116861428D01*
X214134761Y-116861428D01*
D11*
X187531428Y-125246666D02*
X187817142Y-125246666D01*
X187474285Y-125446666D02*
X187674285Y-124746666D01*
X187874285Y-125446666D01*
X188360000Y-124746666D02*
X188074285Y-124746666D01*
X188045714Y-125080000D01*
X188074285Y-125046666D01*
X188131428Y-125013333D01*
X188274285Y-125013333D01*
X188331428Y-125046666D01*
X188360000Y-125080000D01*
X188388571Y-125146666D01*
X188388571Y-125313333D01*
X188360000Y-125380000D01*
X188331428Y-125413333D01*
X188274285Y-125446666D01*
X188131428Y-125446666D01*
X188074285Y-125413333D01*
X188045714Y-125380000D01*
X187245714Y-126613333D02*
X187331428Y-126646666D01*
X187474285Y-126646666D01*
X187531428Y-126613333D01*
X187560000Y-126580000D01*
X187588571Y-126513333D01*
X187588571Y-126446666D01*
X187560000Y-126380000D01*
X187531428Y-126346666D01*
X187474285Y-126313333D01*
X187360000Y-126280000D01*
X187302857Y-126246666D01*
X187274285Y-126213333D01*
X187245714Y-126146666D01*
X187245714Y-126080000D01*
X187274285Y-126013333D01*
X187302857Y-125980000D01*
X187360000Y-125946666D01*
X187502857Y-125946666D01*
X187588571Y-125980000D01*
X187845714Y-126646666D02*
X187845714Y-125946666D01*
X187988571Y-125946666D01*
X188074285Y-125980000D01*
X188131428Y-126046666D01*
X188160000Y-126113333D01*
X188188571Y-126246666D01*
X188188571Y-126346666D01*
X188160000Y-126480000D01*
X188131428Y-126546666D01*
X188074285Y-126613333D01*
X187988571Y-126646666D01*
X187845714Y-126646666D01*
X188731428Y-126646666D02*
X188445714Y-126646666D01*
X188445714Y-125946666D01*
D10*
X192468571Y-125880000D02*
X192849523Y-125880000D01*
X192392380Y-126137142D02*
X192659047Y-125237142D01*
X192925714Y-126137142D01*
X193611428Y-126137142D02*
X193154285Y-126137142D01*
X193382857Y-126137142D02*
X193382857Y-125237142D01*
X193306666Y-125365714D01*
X193230476Y-125451428D01*
X193154285Y-125494285D01*
D11*
X190071428Y-125246666D02*
X190357142Y-125246666D01*
X190014285Y-125446666D02*
X190214285Y-124746666D01*
X190414285Y-125446666D01*
X190871428Y-124980000D02*
X190871428Y-125446666D01*
X190728571Y-124713333D02*
X190585714Y-125213333D01*
X190957142Y-125213333D01*
X189771428Y-126613333D02*
X189857142Y-126646666D01*
X190000000Y-126646666D01*
X190057142Y-126613333D01*
X190085714Y-126580000D01*
X190114285Y-126513333D01*
X190114285Y-126446666D01*
X190085714Y-126380000D01*
X190057142Y-126346666D01*
X190000000Y-126313333D01*
X189885714Y-126280000D01*
X189828571Y-126246666D01*
X189800000Y-126213333D01*
X189771428Y-126146666D01*
X189771428Y-126080000D01*
X189800000Y-126013333D01*
X189828571Y-125980000D01*
X189885714Y-125946666D01*
X190028571Y-125946666D01*
X190114285Y-125980000D01*
X190371428Y-126646666D02*
X190371428Y-125946666D01*
X190514285Y-125946666D01*
X190600000Y-125980000D01*
X190657142Y-126046666D01*
X190685714Y-126113333D01*
X190714285Y-126246666D01*
X190714285Y-126346666D01*
X190685714Y-126480000D01*
X190657142Y-126546666D01*
X190600000Y-126613333D01*
X190514285Y-126646666D01*
X190371428Y-126646666D01*
X190942857Y-126446666D02*
X191228571Y-126446666D01*
X190885714Y-126646666D02*
X191085714Y-125946666D01*
X191285714Y-126646666D01*
D10*
X200507619Y-126137142D02*
X200050476Y-126137142D01*
X200279047Y-126137142D02*
X200279047Y-125237142D01*
X200202857Y-125365714D01*
X200126666Y-125451428D01*
X200050476Y-125494285D01*
X200812380Y-125322857D02*
X200850476Y-125280000D01*
X200926666Y-125237142D01*
X201117142Y-125237142D01*
X201193333Y-125280000D01*
X201231428Y-125322857D01*
X201269523Y-125408571D01*
X201269523Y-125494285D01*
X201231428Y-125622857D01*
X200774285Y-126137142D01*
X201269523Y-126137142D01*
X195008571Y-125880000D02*
X195389523Y-125880000D01*
X194932380Y-126137142D02*
X195199047Y-125237142D01*
X195465714Y-126137142D01*
X195884761Y-125237142D02*
X195960952Y-125237142D01*
X196037142Y-125280000D01*
X196075238Y-125322857D01*
X196113333Y-125408571D01*
X196151428Y-125580000D01*
X196151428Y-125794285D01*
X196113333Y-125965714D01*
X196075238Y-126051428D01*
X196037142Y-126094285D01*
X195960952Y-126137142D01*
X195884761Y-126137142D01*
X195808571Y-126094285D01*
X195770476Y-126051428D01*
X195732380Y-125965714D01*
X195694285Y-125794285D01*
X195694285Y-125580000D01*
X195732380Y-125408571D01*
X195770476Y-125322857D01*
X195808571Y-125280000D01*
X195884761Y-125237142D01*
X197967619Y-126137142D02*
X197510476Y-126137142D01*
X197739047Y-126137142D02*
X197739047Y-125237142D01*
X197662857Y-125365714D01*
X197586666Y-125451428D01*
X197510476Y-125494285D01*
X198234285Y-125237142D02*
X198729523Y-125237142D01*
X198462857Y-125580000D01*
X198577142Y-125580000D01*
X198653333Y-125622857D01*
X198691428Y-125665714D01*
X198729523Y-125751428D01*
X198729523Y-125965714D01*
X198691428Y-126051428D01*
X198653333Y-126094285D01*
X198577142Y-126137142D01*
X198348571Y-126137142D01*
X198272380Y-126094285D01*
X198234285Y-126051428D01*
D12*
X202283333Y-125459166D02*
X201997619Y-125459166D01*
X202140476Y-125459166D02*
X202140476Y-124759166D01*
X202092857Y-124859166D01*
X202045238Y-124925833D01*
X201997619Y-124959166D01*
X202592857Y-124759166D02*
X202640476Y-124759166D01*
X202688095Y-124792500D01*
X202711904Y-124825833D01*
X202735714Y-124892500D01*
X202759523Y-125025833D01*
X202759523Y-125192500D01*
X202735714Y-125325833D01*
X202711904Y-125392500D01*
X202688095Y-125425833D01*
X202640476Y-125459166D01*
X202592857Y-125459166D01*
X202545238Y-125425833D01*
X202521428Y-125392500D01*
X202497619Y-125325833D01*
X202473809Y-125192500D01*
X202473809Y-125025833D01*
X202497619Y-124892500D01*
X202521428Y-124825833D01*
X202545238Y-124792500D01*
X202592857Y-124759166D01*
X202973809Y-125459166D02*
X202973809Y-124759166D01*
X203164285Y-124759166D01*
X203211904Y-124792500D01*
X203235714Y-124825833D01*
X203259523Y-124892500D01*
X203259523Y-124992500D01*
X203235714Y-125059166D01*
X203211904Y-125092500D01*
X203164285Y-125125833D01*
X202973809Y-125125833D01*
X203426190Y-124759166D02*
X203545238Y-125459166D01*
X203640476Y-124959166D01*
X203735714Y-125459166D01*
X203854761Y-124759166D01*
X204045238Y-125459166D02*
X204045238Y-124759166D01*
X204211904Y-125259166D01*
X204378571Y-124759166D01*
X204378571Y-125459166D01*
X202283333Y-126634166D02*
X201997619Y-126634166D01*
X202140476Y-126634166D02*
X202140476Y-125934166D01*
X202092857Y-126034166D01*
X202045238Y-126100833D01*
X201997619Y-126134166D01*
X202759523Y-126634166D02*
X202473809Y-126634166D01*
X202616666Y-126634166D02*
X202616666Y-125934166D01*
X202569047Y-126034166D01*
X202521428Y-126100833D01*
X202473809Y-126134166D01*
X202973809Y-126634166D02*
X202973809Y-125934166D01*
X203164285Y-125934166D01*
X203211904Y-125967500D01*
X203235714Y-126000833D01*
X203259523Y-126067500D01*
X203259523Y-126167500D01*
X203235714Y-126234166D01*
X203211904Y-126267500D01*
X203164285Y-126300833D01*
X202973809Y-126300833D01*
X203426190Y-125934166D02*
X203545238Y-126634166D01*
X203640476Y-126134166D01*
X203735714Y-126634166D01*
X203854761Y-125934166D01*
X204045238Y-126634166D02*
X204045238Y-125934166D01*
X204211904Y-126434166D01*
X204378571Y-125934166D01*
X204378571Y-126634166D01*
D10*
X208013333Y-125237142D02*
X208546666Y-125237142D01*
X208203809Y-126137142D01*
D11*
X205682857Y-125046666D02*
X205625714Y-125013333D01*
X205597142Y-124980000D01*
X205568571Y-124913333D01*
X205568571Y-124880000D01*
X205597142Y-124813333D01*
X205625714Y-124780000D01*
X205682857Y-124746666D01*
X205797142Y-124746666D01*
X205854285Y-124780000D01*
X205882857Y-124813333D01*
X205911428Y-124880000D01*
X205911428Y-124913333D01*
X205882857Y-124980000D01*
X205854285Y-125013333D01*
X205797142Y-125046666D01*
X205682857Y-125046666D01*
X205625714Y-125080000D01*
X205597142Y-125113333D01*
X205568571Y-125180000D01*
X205568571Y-125313333D01*
X205597142Y-125380000D01*
X205625714Y-125413333D01*
X205682857Y-125446666D01*
X205797142Y-125446666D01*
X205854285Y-125413333D01*
X205882857Y-125380000D01*
X205911428Y-125313333D01*
X205911428Y-125180000D01*
X205882857Y-125113333D01*
X205854285Y-125080000D01*
X205797142Y-125046666D01*
X204640000Y-126646666D02*
X204754285Y-126646666D01*
X204811428Y-126613333D01*
X204840000Y-126580000D01*
X204897142Y-126480000D01*
X204925714Y-126346666D01*
X204925714Y-126080000D01*
X204897142Y-126013333D01*
X204868571Y-125980000D01*
X204811428Y-125946666D01*
X204697142Y-125946666D01*
X204640000Y-125980000D01*
X204611428Y-126013333D01*
X204582857Y-126080000D01*
X204582857Y-126246666D01*
X204611428Y-126313333D01*
X204640000Y-126346666D01*
X204697142Y-126380000D01*
X204811428Y-126380000D01*
X204868571Y-126346666D01*
X204897142Y-126313333D01*
X204925714Y-126246666D01*
X205182857Y-126646666D02*
X205182857Y-125946666D01*
X205411428Y-125946666D01*
X205468571Y-125980000D01*
X205497142Y-126013333D01*
X205525714Y-126080000D01*
X205525714Y-126180000D01*
X205497142Y-126246666D01*
X205468571Y-126280000D01*
X205411428Y-126313333D01*
X205182857Y-126313333D01*
X205725714Y-125946666D02*
X205868571Y-126646666D01*
X205982857Y-126146666D01*
X206097142Y-126646666D01*
X206240000Y-125946666D01*
X206468571Y-126646666D02*
X206468571Y-125946666D01*
X206668571Y-126446666D01*
X206868571Y-125946666D01*
X206868571Y-126646666D01*
D10*
X213131428Y-125322857D02*
X213169523Y-125280000D01*
X213245714Y-125237142D01*
X213436190Y-125237142D01*
X213512380Y-125280000D01*
X213550476Y-125322857D01*
X213588571Y-125408571D01*
X213588571Y-125494285D01*
X213550476Y-125622857D01*
X213093333Y-126137142D01*
X213588571Y-126137142D01*
D11*
X209634285Y-125346666D02*
X210005714Y-125346666D01*
X209805714Y-125613333D01*
X209891428Y-125613333D01*
X209948571Y-125646666D01*
X209977142Y-125680000D01*
X210005714Y-125746666D01*
X210005714Y-125913333D01*
X209977142Y-125980000D01*
X209948571Y-126013333D01*
X209891428Y-126046666D01*
X209720000Y-126046666D01*
X209662857Y-126013333D01*
X209634285Y-125980000D01*
X210262857Y-126046666D02*
X210262857Y-125346666D01*
X210491428Y-125346666D01*
X210548571Y-125380000D01*
X210577142Y-125413333D01*
X210605714Y-125480000D01*
X210605714Y-125580000D01*
X210577142Y-125646666D01*
X210548571Y-125680000D01*
X210491428Y-125713333D01*
X210262857Y-125713333D01*
X210805714Y-125346666D02*
X210948571Y-126046666D01*
X211062857Y-125546666D01*
X211177142Y-126046666D01*
X211320000Y-125346666D01*
X211548571Y-126046666D02*
X211548571Y-125346666D01*
X211748571Y-125846666D01*
X211948571Y-125346666D01*
X211948571Y-126046666D01*
D10*
X215290476Y-125280000D02*
X215214285Y-125237142D01*
X215100000Y-125237142D01*
X214985714Y-125280000D01*
X214909523Y-125365714D01*
X214871428Y-125451428D01*
X214833333Y-125622857D01*
X214833333Y-125751428D01*
X214871428Y-125922857D01*
X214909523Y-126008571D01*
X214985714Y-126094285D01*
X215100000Y-126137142D01*
X215176190Y-126137142D01*
X215290476Y-126094285D01*
X215328571Y-126051428D01*
X215328571Y-125751428D01*
X215176190Y-125751428D01*
X215671428Y-126137142D02*
X215671428Y-125237142D01*
X216128571Y-126137142D01*
X216128571Y-125237142D01*
X216509523Y-126137142D02*
X216509523Y-125237142D01*
X216700000Y-125237142D01*
X216814285Y-125280000D01*
X216890476Y-125365714D01*
X216928571Y-125451428D01*
X216966666Y-125622857D01*
X216966666Y-125751428D01*
X216928571Y-125922857D01*
X216890476Y-126008571D01*
X216814285Y-126094285D01*
X216700000Y-126137142D01*
X216509523Y-126137142D01*
X217373333Y-125237142D02*
X217640000Y-126137142D01*
X217906666Y-125237142D01*
X218630476Y-126051428D02*
X218592380Y-126094285D01*
X218478095Y-126137142D01*
X218401904Y-126137142D01*
X218287619Y-126094285D01*
X218211428Y-126008571D01*
X218173333Y-125922857D01*
X218135238Y-125751428D01*
X218135238Y-125622857D01*
X218173333Y-125451428D01*
X218211428Y-125365714D01*
X218287619Y-125280000D01*
X218401904Y-125237142D01*
X218478095Y-125237142D01*
X218592380Y-125280000D01*
X218630476Y-125322857D01*
X219430476Y-126051428D02*
X219392380Y-126094285D01*
X219278095Y-126137142D01*
X219201904Y-126137142D01*
X219087619Y-126094285D01*
X219011428Y-126008571D01*
X218973333Y-125922857D01*
X218935238Y-125751428D01*
X218935238Y-125622857D01*
X218973333Y-125451428D01*
X219011428Y-125365714D01*
X219087619Y-125280000D01*
X219201904Y-125237142D01*
X219278095Y-125237142D01*
X219392380Y-125280000D01*
X219430476Y-125322857D01*
D13*
X202302857Y-88130000D02*
X202398095Y-88177619D01*
X202540952Y-88177619D01*
X202683809Y-88130000D01*
X202779047Y-88034761D01*
X202826666Y-87939523D01*
X202874285Y-87749047D01*
X202874285Y-87606190D01*
X202826666Y-87415714D01*
X202779047Y-87320476D01*
X202683809Y-87225238D01*
X202540952Y-87177619D01*
X202445714Y-87177619D01*
X202302857Y-87225238D01*
X202255238Y-87272857D01*
X202255238Y-87606190D01*
X202445714Y-87606190D01*
X201255238Y-87177619D02*
X201588571Y-87653809D01*
X201826666Y-87177619D02*
X201826666Y-88177619D01*
X201445714Y-88177619D01*
X201350476Y-88130000D01*
X201302857Y-88082380D01*
X201255238Y-87987142D01*
X201255238Y-87844285D01*
X201302857Y-87749047D01*
X201350476Y-87701428D01*
X201445714Y-87653809D01*
X201826666Y-87653809D01*
X200636190Y-88177619D02*
X200445714Y-88177619D01*
X200350476Y-88130000D01*
X200255238Y-88034761D01*
X200207619Y-87844285D01*
X200207619Y-87510952D01*
X200255238Y-87320476D01*
X200350476Y-87225238D01*
X200445714Y-87177619D01*
X200636190Y-87177619D01*
X200731428Y-87225238D01*
X200826666Y-87320476D01*
X200874285Y-87510952D01*
X200874285Y-87844285D01*
X200826666Y-88034761D01*
X200731428Y-88130000D01*
X200636190Y-88177619D01*
X199921904Y-88177619D02*
X199588571Y-87177619D01*
X199255238Y-88177619D01*
X198921904Y-87701428D02*
X198588571Y-87701428D01*
X198445714Y-87177619D02*
X198921904Y-87177619D01*
X198921904Y-88177619D01*
X198445714Y-88177619D01*
X228510952Y-91932857D02*
X228015714Y-91932857D01*
X228282380Y-91590000D01*
X228168095Y-91590000D01*
X228091904Y-91547142D01*
X228053809Y-91504285D01*
X228015714Y-91418571D01*
X228015714Y-91204285D01*
X228053809Y-91118571D01*
X228091904Y-91075714D01*
X228168095Y-91032857D01*
X228396666Y-91032857D01*
X228472857Y-91075714D01*
X228510952Y-91118571D01*
X227672857Y-91118571D02*
X227634761Y-91075714D01*
X227672857Y-91032857D01*
X227710952Y-91075714D01*
X227672857Y-91118571D01*
X227672857Y-91032857D01*
X227368095Y-91932857D02*
X226872857Y-91932857D01*
X227139523Y-91590000D01*
X227025238Y-91590000D01*
X226949047Y-91547142D01*
X226910952Y-91504285D01*
X226872857Y-91418571D01*
X226872857Y-91204285D01*
X226910952Y-91118571D01*
X226949047Y-91075714D01*
X227025238Y-91032857D01*
X227253809Y-91032857D01*
X227330000Y-91075714D01*
X227368095Y-91118571D01*
X226644285Y-91932857D02*
X226377619Y-91032857D01*
X226110952Y-91932857D01*
X222440476Y-91932857D02*
X222916666Y-91932857D01*
X222964285Y-91504285D01*
X222916666Y-91547142D01*
X222821428Y-91590000D01*
X222583333Y-91590000D01*
X222488095Y-91547142D01*
X222440476Y-91504285D01*
X222392857Y-91418571D01*
X222392857Y-91204285D01*
X222440476Y-91118571D01*
X222488095Y-91075714D01*
X222583333Y-91032857D01*
X222821428Y-91032857D01*
X222916666Y-91075714D01*
X222964285Y-91118571D01*
X222107142Y-91932857D02*
X221773809Y-91032857D01*
X221440476Y-91932857D01*
X226123333Y-90717619D02*
X225790000Y-89717619D01*
X225456666Y-90717619D01*
X224551904Y-89812857D02*
X224599523Y-89765238D01*
X224742380Y-89717619D01*
X224837619Y-89717619D01*
X224980476Y-89765238D01*
X225075714Y-89860476D01*
X225123333Y-89955714D01*
X225170952Y-90146190D01*
X225170952Y-90289047D01*
X225123333Y-90479523D01*
X225075714Y-90574761D01*
X224980476Y-90670000D01*
X224837619Y-90717619D01*
X224742380Y-90717619D01*
X224599523Y-90670000D01*
X224551904Y-90622380D01*
X223551904Y-89812857D02*
X223599523Y-89765238D01*
X223742380Y-89717619D01*
X223837619Y-89717619D01*
X223980476Y-89765238D01*
X224075714Y-89860476D01*
X224123333Y-89955714D01*
X224170952Y-90146190D01*
X224170952Y-90289047D01*
X224123333Y-90479523D01*
X224075714Y-90574761D01*
X223980476Y-90670000D01*
X223837619Y-90717619D01*
X223742380Y-90717619D01*
X223599523Y-90670000D01*
X223551904Y-90622380D01*
X215090000Y-87177619D02*
X215090000Y-88177619D01*
X214518571Y-87177619D01*
X214518571Y-88177619D01*
X213661428Y-87225238D02*
X213756666Y-87177619D01*
X213947142Y-87177619D01*
X214042380Y-87225238D01*
X214090000Y-87320476D01*
X214090000Y-87701428D01*
X214042380Y-87796666D01*
X213947142Y-87844285D01*
X213756666Y-87844285D01*
X213661428Y-87796666D01*
X213613809Y-87701428D01*
X213613809Y-87606190D01*
X214090000Y-87510952D01*
X213042380Y-87177619D02*
X213137619Y-87225238D01*
X213185238Y-87272857D01*
X213232857Y-87368095D01*
X213232857Y-87653809D01*
X213185238Y-87749047D01*
X213137619Y-87796666D01*
X213042380Y-87844285D01*
X212899523Y-87844285D01*
X212804285Y-87796666D01*
X212756666Y-87749047D01*
X212709047Y-87653809D01*
X212709047Y-87368095D01*
X212756666Y-87272857D01*
X212804285Y-87225238D01*
X212899523Y-87177619D01*
X213042380Y-87177619D01*
X212280476Y-87177619D02*
X212280476Y-88177619D01*
X211899523Y-88177619D01*
X211804285Y-88130000D01*
X211756666Y-88082380D01*
X211709047Y-87987142D01*
X211709047Y-87844285D01*
X211756666Y-87749047D01*
X211804285Y-87701428D01*
X211899523Y-87653809D01*
X212280476Y-87653809D01*
X211280476Y-87177619D02*
X211280476Y-87844285D01*
X211280476Y-88177619D02*
X211328095Y-88130000D01*
X211280476Y-88082380D01*
X211232857Y-88130000D01*
X211280476Y-88177619D01*
X211280476Y-88082380D01*
X210899523Y-87177619D02*
X210375714Y-87844285D01*
X210899523Y-87844285D02*
X210375714Y-87177619D01*
X209613809Y-87225238D02*
X209709047Y-87177619D01*
X209899523Y-87177619D01*
X209994761Y-87225238D01*
X210042380Y-87320476D01*
X210042380Y-87701428D01*
X209994761Y-87796666D01*
X209899523Y-87844285D01*
X209709047Y-87844285D01*
X209613809Y-87796666D01*
X209566190Y-87701428D01*
X209566190Y-87606190D01*
X210042380Y-87510952D01*
X208994761Y-87177619D02*
X209090000Y-87225238D01*
X209137619Y-87320476D01*
X209137619Y-88177619D01*
X215239523Y-89350000D02*
X215315714Y-89392857D01*
X215430000Y-89392857D01*
X215544285Y-89350000D01*
X215620476Y-89264285D01*
X215658571Y-89178571D01*
X215696666Y-89007142D01*
X215696666Y-88878571D01*
X215658571Y-88707142D01*
X215620476Y-88621428D01*
X215544285Y-88535714D01*
X215430000Y-88492857D01*
X215353809Y-88492857D01*
X215239523Y-88535714D01*
X215201428Y-88578571D01*
X215201428Y-88878571D01*
X215353809Y-88878571D01*
X214858571Y-88492857D02*
X214858571Y-89392857D01*
X214401428Y-88492857D01*
X214401428Y-89392857D01*
X214020476Y-88492857D02*
X214020476Y-89392857D01*
X213830000Y-89392857D01*
X213715714Y-89350000D01*
X213639523Y-89264285D01*
X213601428Y-89178571D01*
X213563333Y-89007142D01*
X213563333Y-88878571D01*
X213601428Y-88707142D01*
X213639523Y-88621428D01*
X213715714Y-88535714D01*
X213830000Y-88492857D01*
X214020476Y-88492857D01*
X212299523Y-88492857D02*
X212299523Y-89392857D01*
X212109047Y-89392857D01*
X211994761Y-89350000D01*
X211918571Y-89264285D01*
X211880476Y-89178571D01*
X211842380Y-89007142D01*
X211842380Y-88878571D01*
X211880476Y-88707142D01*
X211918571Y-88621428D01*
X211994761Y-88535714D01*
X212109047Y-88492857D01*
X212299523Y-88492857D01*
X210578571Y-88835714D02*
X209969047Y-88835714D01*
X210273809Y-88492857D02*
X210273809Y-89178571D01*
X209207142Y-89392857D02*
X209588095Y-89392857D01*
X209626190Y-88964285D01*
X209588095Y-89007142D01*
X209511904Y-89050000D01*
X209321428Y-89050000D01*
X209245238Y-89007142D01*
X209207142Y-88964285D01*
X209169047Y-88878571D01*
X209169047Y-88664285D01*
X209207142Y-88578571D01*
X209245238Y-88535714D01*
X209321428Y-88492857D01*
X209511904Y-88492857D01*
X209588095Y-88535714D01*
X209626190Y-88578571D01*
X208940476Y-89392857D02*
X208673809Y-88492857D01*
X208407142Y-89392857D01*
D14*
X228410000Y-123190000D02*
G75*
G03*
X228410000Y-123190000I-2620000J0D01*
G01*
X225790000Y-124230000D02*
X225790000Y-125770000D01*
X225790000Y-120610000D02*
X225790000Y-122150000D01*
X225830000Y-124230000D02*
X225830000Y-125770000D01*
X225830000Y-120610000D02*
X225830000Y-122150000D01*
X225870000Y-120611000D02*
X225870000Y-122150000D01*
X225870000Y-124230000D02*
X225870000Y-125769000D01*
X225910000Y-120612000D02*
X225910000Y-122150000D01*
X225910000Y-124230000D02*
X225910000Y-125768000D01*
X225950000Y-120614000D02*
X225950000Y-122150000D01*
X225950000Y-124230000D02*
X225950000Y-125766000D01*
X225990000Y-120617000D02*
X225990000Y-122150000D01*
X225990000Y-124230000D02*
X225990000Y-125763000D01*
X226030000Y-120621000D02*
X226030000Y-122150000D01*
X226030000Y-124230000D02*
X226030000Y-125759000D01*
X226070000Y-120625000D02*
X226070000Y-122150000D01*
X226070000Y-124230000D02*
X226070000Y-125755000D01*
X226110000Y-120629000D02*
X226110000Y-122150000D01*
X226110000Y-124230000D02*
X226110000Y-125751000D01*
X226150000Y-120634000D02*
X226150000Y-122150000D01*
X226150000Y-124230000D02*
X226150000Y-125746000D01*
X226190000Y-120640000D02*
X226190000Y-122150000D01*
X226190000Y-124230000D02*
X226190000Y-125740000D01*
X226230000Y-120647000D02*
X226230000Y-122150000D01*
X226230000Y-124230000D02*
X226230000Y-125733000D01*
X226270000Y-120654000D02*
X226270000Y-122150000D01*
X226270000Y-124230000D02*
X226270000Y-125726000D01*
X226310000Y-120662000D02*
X226310000Y-122150000D01*
X226310000Y-124230000D02*
X226310000Y-125718000D01*
X226350000Y-120670000D02*
X226350000Y-122150000D01*
X226350000Y-124230000D02*
X226350000Y-125710000D01*
X226390000Y-120679000D02*
X226390000Y-122150000D01*
X226390000Y-124230000D02*
X226390000Y-125701000D01*
X226430000Y-120689000D02*
X226430000Y-122150000D01*
X226430000Y-124230000D02*
X226430000Y-125691000D01*
X226470000Y-120699000D02*
X226470000Y-122150000D01*
X226470000Y-124230000D02*
X226470000Y-125681000D01*
X226511000Y-120710000D02*
X226511000Y-122150000D01*
X226511000Y-124230000D02*
X226511000Y-125670000D01*
X226551000Y-120722000D02*
X226551000Y-122150000D01*
X226551000Y-124230000D02*
X226551000Y-125658000D01*
X226591000Y-120735000D02*
X226591000Y-122150000D01*
X226591000Y-124230000D02*
X226591000Y-125645000D01*
X226631000Y-120748000D02*
X226631000Y-122150000D01*
X226631000Y-124230000D02*
X226631000Y-125632000D01*
X226671000Y-120762000D02*
X226671000Y-122150000D01*
X226671000Y-124230000D02*
X226671000Y-125618000D01*
X226711000Y-120776000D02*
X226711000Y-122150000D01*
X226711000Y-124230000D02*
X226711000Y-125604000D01*
X226751000Y-120792000D02*
X226751000Y-122150000D01*
X226751000Y-124230000D02*
X226751000Y-125588000D01*
X226791000Y-120808000D02*
X226791000Y-122150000D01*
X226791000Y-124230000D02*
X226791000Y-125572000D01*
X226831000Y-120825000D02*
X226831000Y-122150000D01*
X226831000Y-124230000D02*
X226831000Y-125555000D01*
X226871000Y-120842000D02*
X226871000Y-122150000D01*
X226871000Y-124230000D02*
X226871000Y-125538000D01*
X226911000Y-120861000D02*
X226911000Y-122150000D01*
X226911000Y-124230000D02*
X226911000Y-125519000D01*
X226951000Y-120880000D02*
X226951000Y-122150000D01*
X226951000Y-124230000D02*
X226951000Y-125500000D01*
X226991000Y-120900000D02*
X226991000Y-122150000D01*
X226991000Y-124230000D02*
X226991000Y-125480000D01*
X227031000Y-120922000D02*
X227031000Y-122150000D01*
X227031000Y-124230000D02*
X227031000Y-125458000D01*
X227071000Y-120943000D02*
X227071000Y-122150000D01*
X227071000Y-124230000D02*
X227071000Y-125437000D01*
X227111000Y-120966000D02*
X227111000Y-122150000D01*
X227111000Y-124230000D02*
X227111000Y-125414000D01*
X227151000Y-120990000D02*
X227151000Y-122150000D01*
X227151000Y-124230000D02*
X227151000Y-125390000D01*
X227191000Y-121015000D02*
X227191000Y-122150000D01*
X227191000Y-124230000D02*
X227191000Y-125365000D01*
X227231000Y-121041000D02*
X227231000Y-122150000D01*
X227231000Y-124230000D02*
X227231000Y-125339000D01*
X227271000Y-121068000D02*
X227271000Y-122150000D01*
X227271000Y-124230000D02*
X227271000Y-125312000D01*
X227311000Y-121095000D02*
X227311000Y-122150000D01*
X227311000Y-124230000D02*
X227311000Y-125285000D01*
X227351000Y-121125000D02*
X227351000Y-122150000D01*
X227351000Y-124230000D02*
X227351000Y-125255000D01*
X227391000Y-121155000D02*
X227391000Y-122150000D01*
X227391000Y-124230000D02*
X227391000Y-125225000D01*
X227431000Y-121186000D02*
X227431000Y-122150000D01*
X227431000Y-124230000D02*
X227431000Y-125194000D01*
X227471000Y-121219000D02*
X227471000Y-122150000D01*
X227471000Y-124230000D02*
X227471000Y-125161000D01*
X227511000Y-121253000D02*
X227511000Y-122150000D01*
X227511000Y-124230000D02*
X227511000Y-125127000D01*
X227551000Y-121289000D02*
X227551000Y-122150000D01*
X227551000Y-124230000D02*
X227551000Y-125091000D01*
X227591000Y-121326000D02*
X227591000Y-122150000D01*
X227591000Y-124230000D02*
X227591000Y-125054000D01*
X227631000Y-121364000D02*
X227631000Y-122150000D01*
X227631000Y-124230000D02*
X227631000Y-125016000D01*
X227671000Y-121405000D02*
X227671000Y-122150000D01*
X227671000Y-124230000D02*
X227671000Y-124975000D01*
X227711000Y-121447000D02*
X227711000Y-122150000D01*
X227711000Y-124230000D02*
X227711000Y-124933000D01*
X227751000Y-121491000D02*
X227751000Y-122150000D01*
X227751000Y-124230000D02*
X227751000Y-124889000D01*
X227791000Y-121537000D02*
X227791000Y-122150000D01*
X227791000Y-124230000D02*
X227791000Y-124843000D01*
X227831000Y-121585000D02*
X227831000Y-124795000D01*
X227871000Y-121636000D02*
X227871000Y-124744000D01*
X227911000Y-121690000D02*
X227911000Y-124690000D01*
X227951000Y-121747000D02*
X227951000Y-124633000D01*
X227991000Y-121807000D02*
X227991000Y-124573000D01*
X228031000Y-121871000D02*
X228031000Y-124509000D01*
X228071000Y-121939000D02*
X228071000Y-124441000D01*
X228111000Y-122012000D02*
X228111000Y-124368000D01*
X228151000Y-122092000D02*
X228151000Y-124288000D01*
X228191000Y-122179000D02*
X228191000Y-124201000D01*
X228231000Y-122275000D02*
X228231000Y-124105000D01*
X228271000Y-122385000D02*
X228271000Y-123995000D01*
X228311000Y-122513000D02*
X228311000Y-123867000D01*
X228351000Y-122672000D02*
X228351000Y-123708000D01*
X228391000Y-122906000D02*
X228391000Y-123474000D01*
X222985225Y-121715000D02*
X223485225Y-121715000D01*
X223235225Y-121465000D02*
X223235225Y-121965000D01*
X186510000Y-91240000D02*
X186510000Y-94180000D01*
X186510000Y-94180000D02*
X191950000Y-94180000D01*
X191950000Y-94180000D02*
X191950000Y-91240000D01*
X191950000Y-91240000D02*
X186510000Y-91240000D01*
X185490000Y-92710000D02*
X186510000Y-92710000D01*
X192970000Y-92710000D02*
X191950000Y-92710000D01*
X187410000Y-91240000D02*
X187410000Y-94180000D01*
X187530000Y-91240000D02*
X187530000Y-94180000D01*
X187290000Y-91240000D02*
X187290000Y-94180000D01*
X174050000Y-104080000D02*
X171390000Y-104080000D01*
X174050000Y-114300000D02*
X174050000Y-104080000D01*
X171390000Y-114300000D02*
X171390000Y-104080000D01*
X174050000Y-114300000D02*
X171390000Y-114300000D01*
X174050000Y-115570000D02*
X174050000Y-116900000D01*
X174050000Y-116900000D02*
X172720000Y-116900000D01*
X186630000Y-121860000D02*
X186630000Y-124520000D01*
X217170000Y-121860000D02*
X186630000Y-121860000D01*
X217170000Y-124520000D02*
X186630000Y-124520000D01*
X217170000Y-121860000D02*
X217170000Y-124520000D01*
X218440000Y-121860000D02*
X219770000Y-121860000D01*
X219770000Y-121860000D02*
X219770000Y-123190000D01*
X215960000Y-94040000D02*
X215960000Y-91380000D01*
X210820000Y-94040000D02*
X215960000Y-94040000D01*
X210820000Y-91380000D02*
X215960000Y-91380000D01*
X210820000Y-94040000D02*
X210820000Y-91380000D01*
X209550000Y-94040000D02*
X208220000Y-94040000D01*
X208220000Y-94040000D02*
X208220000Y-92710000D01*
X223520000Y-97850000D02*
X223520000Y-95190000D01*
X223520000Y-97850000D02*
X228660000Y-97850000D01*
X228660000Y-97850000D02*
X228660000Y-95190000D01*
X223520000Y-95190000D02*
X228660000Y-95190000D01*
X220920000Y-95190000D02*
X222250000Y-95190000D01*
X220920000Y-96520000D02*
X220920000Y-95190000D01*
X220920000Y-93980000D02*
X220920000Y-92650000D01*
X220920000Y-92650000D02*
X222250000Y-92650000D01*
X223520000Y-92650000D02*
X228660000Y-92650000D01*
X228660000Y-95310000D02*
X228660000Y-92650000D01*
X223520000Y-95310000D02*
X228660000Y-95310000D01*
X223520000Y-95310000D02*
X223520000Y-92650000D01*
X178250000Y-105870000D02*
X174810000Y-105870000D01*
X174810000Y-105870000D02*
X174810000Y-115110000D01*
X174810000Y-115110000D02*
X178250000Y-115110000D01*
X178250000Y-115110000D02*
X178250000Y-105870000D01*
X176530000Y-105180000D02*
X176530000Y-105870000D01*
X176530000Y-115800000D02*
X176530000Y-115110000D01*
X217400000Y-97790000D02*
X216710000Y-97790000D01*
X206780000Y-97790000D02*
X207470000Y-97790000D01*
X216710000Y-96070000D02*
X207470000Y-96070000D01*
X216710000Y-99510000D02*
X216710000Y-96070000D01*
X207470000Y-99510000D02*
X216710000Y-99510000D01*
X207470000Y-96070000D02*
X207470000Y-99510000D01*
X205660000Y-90710000D02*
X205660000Y-95710000D01*
X195660000Y-90710000D02*
X205660000Y-90710000D01*
X195660000Y-95710000D02*
X195660000Y-90710000D01*
D11*
X203660000Y-95710000D02*
X203660000Y-94210000D01*
X205660000Y-95710000D02*
X203660000Y-95710000D01*
X197660000Y-94210000D02*
X203660000Y-94210000D01*
X197660000Y-95710000D02*
X197660000Y-94210000D01*
X195660000Y-95710000D02*
X197660000Y-95710000D01*
D14*
X179070000Y-119380000D02*
X209550000Y-119380000D01*
X209550000Y-119380000D02*
X209550000Y-101600000D01*
X209550000Y-101600000D02*
X179070000Y-101600000D01*
X179070000Y-101600000D02*
X179070000Y-119380000D01*
X217170000Y-118170000D02*
X216060000Y-118170000D01*
X216060000Y-118170000D02*
X216060000Y-116840000D01*
X229800000Y-118170000D02*
X229800000Y-102810000D01*
X229800000Y-102810000D02*
X221170000Y-102810000D01*
X221170000Y-118170000D02*
X221170000Y-102810000D01*
X229800000Y-118170000D02*
X221170000Y-118170000D01*
X229800000Y-105410000D02*
X221170000Y-105410000D01*
X229800000Y-107950000D02*
X221170000Y-107950000D01*
X229800000Y-110490000D02*
X221170000Y-110490000D01*
X229800000Y-113030000D02*
X221170000Y-113030000D01*
X229800000Y-115570000D02*
X221170000Y-115570000D01*
X218660000Y-103780000D02*
X218220000Y-103780000D01*
X221170000Y-103780000D02*
X220760000Y-103780000D01*
X218660000Y-104500000D02*
X218220000Y-104500000D01*
X221170000Y-104500000D02*
X220760000Y-104500000D01*
X218660000Y-106320000D02*
X218220000Y-106320000D01*
X221170000Y-106320000D02*
X220760000Y-106320000D01*
X218660000Y-107040000D02*
X218220000Y-107040000D01*
X221170000Y-107040000D02*
X220760000Y-107040000D01*
X218660000Y-108860000D02*
X218220000Y-108860000D01*
X221170000Y-108860000D02*
X220760000Y-108860000D01*
X218660000Y-109580000D02*
X218220000Y-109580000D01*
X221170000Y-109580000D02*
X220760000Y-109580000D01*
X218660000Y-111400000D02*
X218220000Y-111400000D01*
X221170000Y-111400000D02*
X220760000Y-111400000D01*
X218660000Y-112120000D02*
X218220000Y-112120000D01*
X221170000Y-112120000D02*
X220760000Y-112120000D01*
X218660000Y-113940000D02*
X218220000Y-113940000D01*
X221170000Y-113940000D02*
X220760000Y-113940000D01*
X218660000Y-114660000D02*
X218220000Y-114660000D01*
X221170000Y-114660000D02*
X220760000Y-114660000D01*
X218660000Y-116480000D02*
X218280000Y-116480000D01*
X221170000Y-116480000D02*
X220760000Y-116480000D01*
X218660000Y-117200000D02*
X218280000Y-117200000D01*
X221170000Y-117200000D02*
X220760000Y-117200000D01*
X229800000Y-115688100D02*
X221170000Y-115688100D01*
X229800000Y-115806195D02*
X221170000Y-115806195D01*
X229800000Y-115924290D02*
X221170000Y-115924290D01*
X229800000Y-116042385D02*
X221170000Y-116042385D01*
X229800000Y-116160480D02*
X221170000Y-116160480D01*
X229800000Y-116278575D02*
X221170000Y-116278575D01*
X229800000Y-116396670D02*
X221170000Y-116396670D01*
X229800000Y-116514765D02*
X221170000Y-116514765D01*
X229800000Y-116632860D02*
X221170000Y-116632860D01*
X229800000Y-116750955D02*
X221170000Y-116750955D01*
X229800000Y-116869050D02*
X221170000Y-116869050D01*
X229800000Y-116987145D02*
X221170000Y-116987145D01*
X229800000Y-117105240D02*
X221170000Y-117105240D01*
X229800000Y-117223335D02*
X221170000Y-117223335D01*
X229800000Y-117341430D02*
X221170000Y-117341430D01*
X229800000Y-117459525D02*
X221170000Y-117459525D01*
X229800000Y-117577620D02*
X221170000Y-117577620D01*
X229800000Y-117695715D02*
X221170000Y-117695715D01*
X229800000Y-117813810D02*
X221170000Y-117813810D01*
X229800000Y-117931905D02*
X221170000Y-117931905D01*
X229800000Y-118050000D02*
X221170000Y-118050000D01*
X186460000Y-97790000D02*
X187150000Y-97790000D01*
X197080000Y-97790000D02*
X196390000Y-97790000D01*
X187150000Y-99510000D02*
X196390000Y-99510000D01*
X187150000Y-96070000D02*
X187150000Y-99510000D01*
X196390000Y-96070000D02*
X187150000Y-96070000D01*
X196390000Y-99510000D02*
X196390000Y-96070000D01*
X182070000Y-95250000D02*
G75*
G03*
X182070000Y-95250000I-6100000J0D01*
G01*
D11*
X173656666Y-121332380D02*
X173656666Y-122046666D01*
X173609047Y-122189523D01*
X173513809Y-122284761D01*
X173370952Y-122332380D01*
X173275714Y-122332380D01*
X174561428Y-121332380D02*
X174370952Y-121332380D01*
X174275714Y-121380000D01*
X174228095Y-121427619D01*
X174132857Y-121570476D01*
X174085238Y-121760952D01*
X174085238Y-122141904D01*
X174132857Y-122237142D01*
X174180476Y-122284761D01*
X174275714Y-122332380D01*
X174466190Y-122332380D01*
X174561428Y-122284761D01*
X174609047Y-122237142D01*
X174656666Y-122141904D01*
X174656666Y-121903809D01*
X174609047Y-121808571D01*
X174561428Y-121760952D01*
X174466190Y-121713333D01*
X174275714Y-121713333D01*
X174180476Y-121760952D01*
X174132857Y-121808571D01*
X174085238Y-121903809D01*
X180006666Y-121332380D02*
X180006666Y-122046666D01*
X179959047Y-122189523D01*
X179863809Y-122284761D01*
X179720952Y-122332380D01*
X179625714Y-122332380D01*
X180387619Y-121332380D02*
X181054285Y-121332380D01*
X180625714Y-122332380D01*
X225623333Y-119797142D02*
X225575714Y-119844761D01*
X225432857Y-119892380D01*
X225337619Y-119892380D01*
X225194761Y-119844761D01*
X225099523Y-119749523D01*
X225051904Y-119654285D01*
X225004285Y-119463809D01*
X225004285Y-119320952D01*
X225051904Y-119130476D01*
X225099523Y-119035238D01*
X225194761Y-118940000D01*
X225337619Y-118892380D01*
X225432857Y-118892380D01*
X225575714Y-118940000D01*
X225623333Y-118987619D01*
X226575714Y-119892380D02*
X226004285Y-119892380D01*
X226290000Y-119892380D02*
X226290000Y-118892380D01*
X226194761Y-119035238D01*
X226099523Y-119130476D01*
X226004285Y-119178095D01*
X188491904Y-90692380D02*
X188491904Y-89692380D01*
X188730000Y-89692380D01*
X188872857Y-89740000D01*
X188968095Y-89835238D01*
X189015714Y-89930476D01*
X189063333Y-90120952D01*
X189063333Y-90263809D01*
X189015714Y-90454285D01*
X188968095Y-90549523D01*
X188872857Y-90644761D01*
X188730000Y-90692380D01*
X188491904Y-90692380D01*
X190015714Y-90692380D02*
X189444285Y-90692380D01*
X189730000Y-90692380D02*
X189730000Y-89692380D01*
X189634761Y-89835238D01*
X189539523Y-89930476D01*
X189444285Y-89978095D01*
X183888095Y-91062380D02*
X183888095Y-90062380D01*
X184459523Y-91062380D02*
X184030952Y-90490952D01*
X184459523Y-90062380D02*
X183888095Y-90633809D01*
X172386666Y-117352380D02*
X172386666Y-118066666D01*
X172339047Y-118209523D01*
X172243809Y-118304761D01*
X172100952Y-118352380D01*
X172005714Y-118352380D01*
X173386666Y-118352380D02*
X172815238Y-118352380D01*
X173100952Y-118352380D02*
X173100952Y-117352380D01*
X173005714Y-117495238D01*
X172910476Y-117590476D01*
X172815238Y-117638095D01*
X171743809Y-103532380D02*
X171743809Y-102532380D01*
X172172380Y-103484761D02*
X172315238Y-103532380D01*
X172553333Y-103532380D01*
X172648571Y-103484761D01*
X172696190Y-103437142D01*
X172743809Y-103341904D01*
X172743809Y-103246666D01*
X172696190Y-103151428D01*
X172648571Y-103103809D01*
X172553333Y-103056190D01*
X172362857Y-103008571D01*
X172267619Y-102960952D01*
X172220000Y-102913333D01*
X172172380Y-102818095D01*
X172172380Y-102722857D01*
X172220000Y-102627619D01*
X172267619Y-102580000D01*
X172362857Y-102532380D01*
X172600952Y-102532380D01*
X172743809Y-102580000D01*
X173172380Y-103532380D02*
X173172380Y-102532380D01*
X173553333Y-102532380D01*
X173648571Y-102580000D01*
X173696190Y-102627619D01*
X173743809Y-102722857D01*
X173743809Y-102865714D01*
X173696190Y-102960952D01*
X173648571Y-103008571D01*
X173553333Y-103056190D01*
X173172380Y-103056190D01*
X220222380Y-123523333D02*
X220936666Y-123523333D01*
X221079523Y-123570952D01*
X221174761Y-123666190D01*
X221222380Y-123809047D01*
X221222380Y-123904285D01*
X220317619Y-123094761D02*
X220270000Y-123047142D01*
X220222380Y-122951904D01*
X220222380Y-122713809D01*
X220270000Y-122618571D01*
X220317619Y-122570952D01*
X220412857Y-122523333D01*
X220508095Y-122523333D01*
X220650952Y-122570952D01*
X221222380Y-123142380D01*
X221222380Y-122523333D01*
X206672380Y-93043333D02*
X207386666Y-93043333D01*
X207529523Y-93090952D01*
X207624761Y-93186190D01*
X207672380Y-93329047D01*
X207672380Y-93424285D01*
X206672380Y-92662380D02*
X206672380Y-92043333D01*
X207053333Y-92376666D01*
X207053333Y-92233809D01*
X207100952Y-92138571D01*
X207148571Y-92090952D01*
X207243809Y-92043333D01*
X207481904Y-92043333D01*
X207577142Y-92090952D01*
X207624761Y-92138571D01*
X207672380Y-92233809D01*
X207672380Y-92519523D01*
X207624761Y-92614761D01*
X207577142Y-92662380D01*
X218932380Y-97353333D02*
X219646666Y-97353333D01*
X219789523Y-97400952D01*
X219884761Y-97496190D01*
X219932380Y-97639047D01*
X219932380Y-97734285D01*
X219932380Y-96877142D02*
X218932380Y-96877142D01*
X218932380Y-96496190D01*
X218980000Y-96400952D01*
X219027619Y-96353333D01*
X219122857Y-96305714D01*
X219265714Y-96305714D01*
X219360952Y-96353333D01*
X219408571Y-96400952D01*
X219456190Y-96496190D01*
X219456190Y-96877142D01*
X219932380Y-95353333D02*
X219932380Y-95924761D01*
X219932380Y-95639047D02*
X218932380Y-95639047D01*
X219075238Y-95734285D01*
X219170476Y-95829523D01*
X219218095Y-95924761D01*
X218932380Y-94813333D02*
X219646666Y-94813333D01*
X219789523Y-94860952D01*
X219884761Y-94956190D01*
X219932380Y-95099047D01*
X219932380Y-95194285D01*
X219932380Y-94337142D02*
X218932380Y-94337142D01*
X218932380Y-93956190D01*
X218980000Y-93860952D01*
X219027619Y-93813333D01*
X219122857Y-93765714D01*
X219265714Y-93765714D01*
X219360952Y-93813333D01*
X219408571Y-93860952D01*
X219456190Y-93956190D01*
X219456190Y-94337142D01*
X219027619Y-93384761D02*
X218980000Y-93337142D01*
X218932380Y-93241904D01*
X218932380Y-93003809D01*
X218980000Y-92908571D01*
X219027619Y-92860952D01*
X219122857Y-92813333D01*
X219218095Y-92813333D01*
X219360952Y-92860952D01*
X219932380Y-93432380D01*
X219932380Y-92813333D01*
X176982380Y-108116666D02*
X176506190Y-108450000D01*
X176982380Y-108688095D02*
X175982380Y-108688095D01*
X175982380Y-108307142D01*
X176030000Y-108211904D01*
X176077619Y-108164285D01*
X176172857Y-108116666D01*
X176315714Y-108116666D01*
X176410952Y-108164285D01*
X176458571Y-108211904D01*
X176506190Y-108307142D01*
X176506190Y-108688095D01*
X176982380Y-107164285D02*
X176982380Y-107735714D01*
X176982380Y-107450000D02*
X175982380Y-107450000D01*
X176125238Y-107545238D01*
X176220476Y-107640476D01*
X176268095Y-107735714D01*
X176982380Y-113625238D02*
X176982380Y-114196666D01*
X176982380Y-113910952D02*
X175982380Y-113910952D01*
X176125238Y-114006190D01*
X176220476Y-114101428D01*
X176268095Y-114196666D01*
X175982380Y-113006190D02*
X175982380Y-112910952D01*
X176030000Y-112815714D01*
X176077619Y-112768095D01*
X176172857Y-112720476D01*
X176363333Y-112672857D01*
X176601428Y-112672857D01*
X176791904Y-112720476D01*
X176887142Y-112768095D01*
X176934761Y-112815714D01*
X176982380Y-112910952D01*
X176982380Y-113006190D01*
X176934761Y-113101428D01*
X176887142Y-113149047D01*
X176791904Y-113196666D01*
X176601428Y-113244285D01*
X176363333Y-113244285D01*
X176172857Y-113196666D01*
X176077619Y-113149047D01*
X176030000Y-113101428D01*
X175982380Y-113006190D01*
X176982380Y-112244285D02*
X175982380Y-112244285D01*
X176601428Y-112149047D02*
X176982380Y-111863333D01*
X176315714Y-111863333D02*
X176696666Y-112244285D01*
X211923333Y-95522380D02*
X211590000Y-95046190D01*
X211351904Y-95522380D02*
X211351904Y-94522380D01*
X211732857Y-94522380D01*
X211828095Y-94570000D01*
X211875714Y-94617619D01*
X211923333Y-94712857D01*
X211923333Y-94855714D01*
X211875714Y-94950952D01*
X211828095Y-94998571D01*
X211732857Y-95046190D01*
X211351904Y-95046190D01*
X212304285Y-94617619D02*
X212351904Y-94570000D01*
X212447142Y-94522380D01*
X212685238Y-94522380D01*
X212780476Y-94570000D01*
X212828095Y-94617619D01*
X212875714Y-94712857D01*
X212875714Y-94808095D01*
X212828095Y-94950952D01*
X212256666Y-95522380D01*
X212875714Y-95522380D01*
X197660000Y-89733809D02*
X197660000Y-89257619D01*
X197993333Y-90257619D02*
X197660000Y-89733809D01*
X197326666Y-90257619D01*
X200088571Y-90257619D02*
X199850476Y-89257619D01*
X199660000Y-89971904D01*
X199469523Y-89257619D01*
X199231428Y-90257619D01*
X201350476Y-89257619D02*
X201683809Y-89733809D01*
X201921904Y-89257619D02*
X201921904Y-90257619D01*
X201540952Y-90257619D01*
X201445714Y-90210000D01*
X201398095Y-90162380D01*
X201350476Y-90067142D01*
X201350476Y-89924285D01*
X201398095Y-89829047D01*
X201445714Y-89781428D01*
X201540952Y-89733809D01*
X201921904Y-89733809D01*
X203588571Y-89781428D02*
X203445714Y-89733809D01*
X203398095Y-89686190D01*
X203350476Y-89590952D01*
X203350476Y-89448095D01*
X203398095Y-89352857D01*
X203445714Y-89305238D01*
X203540952Y-89257619D01*
X203921904Y-89257619D01*
X203921904Y-90257619D01*
X203588571Y-90257619D01*
X203493333Y-90210000D01*
X203445714Y-90162380D01*
X203398095Y-90067142D01*
X203398095Y-89971904D01*
X203445714Y-89876666D01*
X203493333Y-89829047D01*
X203588571Y-89781428D01*
X203921904Y-89781428D01*
X193548095Y-106132380D02*
X193548095Y-106941904D01*
X193595714Y-107037142D01*
X193643333Y-107084761D01*
X193738571Y-107132380D01*
X193929047Y-107132380D01*
X194024285Y-107084761D01*
X194071904Y-107037142D01*
X194119523Y-106941904D01*
X194119523Y-106132380D01*
X194548095Y-106227619D02*
X194595714Y-106180000D01*
X194690952Y-106132380D01*
X194929047Y-106132380D01*
X195024285Y-106180000D01*
X195071904Y-106227619D01*
X195119523Y-106322857D01*
X195119523Y-106418095D01*
X195071904Y-106560952D01*
X194500476Y-107132380D01*
X195119523Y-107132380D01*
X184333809Y-113482380D02*
X183857619Y-113482380D01*
X183857619Y-112482380D01*
X185190952Y-112530000D02*
X185095714Y-112482380D01*
X184952857Y-112482380D01*
X184810000Y-112530000D01*
X184714761Y-112625238D01*
X184667142Y-112720476D01*
X184619523Y-112910952D01*
X184619523Y-113053809D01*
X184667142Y-113244285D01*
X184714761Y-113339523D01*
X184810000Y-113434761D01*
X184952857Y-113482380D01*
X185048095Y-113482380D01*
X185190952Y-113434761D01*
X185238571Y-113387142D01*
X185238571Y-113053809D01*
X185048095Y-113053809D01*
X185524285Y-112482380D02*
X186095714Y-112482380D01*
X185810000Y-113482380D02*
X185810000Y-112482380D01*
X186571904Y-112910952D02*
X186476666Y-112863333D01*
X186429047Y-112815714D01*
X186381428Y-112720476D01*
X186381428Y-112672857D01*
X186429047Y-112577619D01*
X186476666Y-112530000D01*
X186571904Y-112482380D01*
X186762380Y-112482380D01*
X186857619Y-112530000D01*
X186905238Y-112577619D01*
X186952857Y-112672857D01*
X186952857Y-112720476D01*
X186905238Y-112815714D01*
X186857619Y-112863333D01*
X186762380Y-112910952D01*
X186571904Y-112910952D01*
X186476666Y-112958571D01*
X186429047Y-113006190D01*
X186381428Y-113101428D01*
X186381428Y-113291904D01*
X186429047Y-113387142D01*
X186476666Y-113434761D01*
X186571904Y-113482380D01*
X186762380Y-113482380D01*
X186857619Y-113434761D01*
X186905238Y-113387142D01*
X186952857Y-113291904D01*
X186952857Y-113101428D01*
X186905238Y-113006190D01*
X186857619Y-112958571D01*
X186762380Y-112910952D01*
X187714761Y-112958571D02*
X187381428Y-112958571D01*
X187381428Y-113482380D02*
X187381428Y-112482380D01*
X187857619Y-112482380D01*
X188143333Y-112482380D02*
X188762380Y-112482380D01*
X188429047Y-112863333D01*
X188571904Y-112863333D01*
X188667142Y-112910952D01*
X188714761Y-112958571D01*
X188762380Y-113053809D01*
X188762380Y-113291904D01*
X188714761Y-113387142D01*
X188667142Y-113434761D01*
X188571904Y-113482380D01*
X188286190Y-113482380D01*
X188190952Y-113434761D01*
X188143333Y-113387142D01*
X189143333Y-112577619D02*
X189190952Y-112530000D01*
X189286190Y-112482380D01*
X189524285Y-112482380D01*
X189619523Y-112530000D01*
X189667142Y-112577619D01*
X189714761Y-112672857D01*
X189714761Y-112768095D01*
X189667142Y-112910952D01*
X189095714Y-113482380D01*
X189714761Y-113482380D01*
X190286190Y-112910952D02*
X190190952Y-112863333D01*
X190143333Y-112815714D01*
X190095714Y-112720476D01*
X190095714Y-112672857D01*
X190143333Y-112577619D01*
X190190952Y-112530000D01*
X190286190Y-112482380D01*
X190476666Y-112482380D01*
X190571904Y-112530000D01*
X190619523Y-112577619D01*
X190667142Y-112672857D01*
X190667142Y-112720476D01*
X190619523Y-112815714D01*
X190571904Y-112863333D01*
X190476666Y-112910952D01*
X190286190Y-112910952D01*
X190190952Y-112958571D01*
X190143333Y-113006190D01*
X190095714Y-113101428D01*
X190095714Y-113291904D01*
X190143333Y-113387142D01*
X190190952Y-113434761D01*
X190286190Y-113482380D01*
X190476666Y-113482380D01*
X190571904Y-113434761D01*
X190619523Y-113387142D01*
X190667142Y-113291904D01*
X190667142Y-113101428D01*
X190619523Y-113006190D01*
X190571904Y-112958571D01*
X190476666Y-112910952D01*
X191095714Y-113482380D02*
X191095714Y-112482380D01*
X191476666Y-112482380D01*
X191571904Y-112530000D01*
X191619523Y-112577619D01*
X191667142Y-112672857D01*
X191667142Y-112815714D01*
X191619523Y-112910952D01*
X191571904Y-112958571D01*
X191476666Y-113006190D01*
X191095714Y-113006190D01*
X191857619Y-113577619D02*
X192619523Y-113577619D01*
X192810000Y-113434761D02*
X192952857Y-113482380D01*
X193190952Y-113482380D01*
X193286190Y-113434761D01*
X193333809Y-113387142D01*
X193381428Y-113291904D01*
X193381428Y-113196666D01*
X193333809Y-113101428D01*
X193286190Y-113053809D01*
X193190952Y-113006190D01*
X193000476Y-112958571D01*
X192905238Y-112910952D01*
X192857619Y-112863333D01*
X192810000Y-112768095D01*
X192810000Y-112672857D01*
X192857619Y-112577619D01*
X192905238Y-112530000D01*
X193000476Y-112482380D01*
X193238571Y-112482380D01*
X193381428Y-112530000D01*
X193762380Y-113434761D02*
X193905238Y-113482380D01*
X194143333Y-113482380D01*
X194238571Y-113434761D01*
X194286190Y-113387142D01*
X194333809Y-113291904D01*
X194333809Y-113196666D01*
X194286190Y-113101428D01*
X194238571Y-113053809D01*
X194143333Y-113006190D01*
X193952857Y-112958571D01*
X193857619Y-112910952D01*
X193810000Y-112863333D01*
X193762380Y-112768095D01*
X193762380Y-112672857D01*
X193810000Y-112577619D01*
X193857619Y-112530000D01*
X193952857Y-112482380D01*
X194190952Y-112482380D01*
X194333809Y-112530000D01*
X194952857Y-112482380D02*
X195143333Y-112482380D01*
X195238571Y-112530000D01*
X195333809Y-112625238D01*
X195381428Y-112815714D01*
X195381428Y-113149047D01*
X195333809Y-113339523D01*
X195238571Y-113434761D01*
X195143333Y-113482380D01*
X194952857Y-113482380D01*
X194857619Y-113434761D01*
X194762380Y-113339523D01*
X194714761Y-113149047D01*
X194714761Y-112815714D01*
X194762380Y-112625238D01*
X194857619Y-112530000D01*
X194952857Y-112482380D01*
X195810000Y-113482380D02*
X195810000Y-112482380D01*
X196190952Y-112482380D01*
X196286190Y-112530000D01*
X196333809Y-112577619D01*
X196381428Y-112672857D01*
X196381428Y-112815714D01*
X196333809Y-112910952D01*
X196286190Y-112958571D01*
X196190952Y-113006190D01*
X195810000Y-113006190D01*
X196762380Y-112577619D02*
X196810000Y-112530000D01*
X196905238Y-112482380D01*
X197143333Y-112482380D01*
X197238571Y-112530000D01*
X197286190Y-112577619D01*
X197333809Y-112672857D01*
X197333809Y-112768095D01*
X197286190Y-112910952D01*
X196714761Y-113482380D01*
X197333809Y-113482380D01*
X197952857Y-112482380D02*
X198048095Y-112482380D01*
X198143333Y-112530000D01*
X198190952Y-112577619D01*
X198238571Y-112672857D01*
X198286190Y-112863333D01*
X198286190Y-113101428D01*
X198238571Y-113291904D01*
X198190952Y-113387142D01*
X198143333Y-113434761D01*
X198048095Y-113482380D01*
X197952857Y-113482380D01*
X197857619Y-113434761D01*
X197810000Y-113387142D01*
X197762380Y-113291904D01*
X197714761Y-113101428D01*
X197714761Y-112863333D01*
X197762380Y-112672857D01*
X197810000Y-112577619D01*
X197857619Y-112530000D01*
X197952857Y-112482380D01*
X198476666Y-113577619D02*
X199238571Y-113577619D01*
X199476666Y-113482380D02*
X199476666Y-112482380D01*
X199810000Y-113196666D01*
X200143333Y-112482380D01*
X200143333Y-113482380D01*
X200619523Y-113482380D02*
X200619523Y-112815714D01*
X200619523Y-112482380D02*
X200571904Y-112530000D01*
X200619523Y-112577619D01*
X200667142Y-112530000D01*
X200619523Y-112482380D01*
X200619523Y-112577619D01*
X201095714Y-112815714D02*
X201095714Y-113482380D01*
X201095714Y-112910952D02*
X201143333Y-112863333D01*
X201238571Y-112815714D01*
X201381428Y-112815714D01*
X201476666Y-112863333D01*
X201524285Y-112958571D01*
X201524285Y-113482380D01*
X202000476Y-113482380D02*
X202000476Y-112815714D01*
X202000476Y-112482380D02*
X201952857Y-112530000D01*
X202000476Y-112577619D01*
X202048095Y-112530000D01*
X202000476Y-112482380D01*
X202000476Y-112577619D01*
X202476666Y-112958571D02*
X202810000Y-112958571D01*
X202952857Y-113482380D02*
X202476666Y-113482380D01*
X202476666Y-112482380D01*
X202952857Y-112482380D01*
X203238571Y-112482380D02*
X203571904Y-113482380D01*
X203905238Y-112482380D01*
X204571904Y-112958571D02*
X204714761Y-113006190D01*
X204762380Y-113053809D01*
X204810000Y-113149047D01*
X204810000Y-113291904D01*
X204762380Y-113387142D01*
X204714761Y-113434761D01*
X204619523Y-113482380D01*
X204238571Y-113482380D01*
X204238571Y-112482380D01*
X204571904Y-112482380D01*
X204667142Y-112530000D01*
X204714761Y-112577619D01*
X204762380Y-112672857D01*
X204762380Y-112768095D01*
X204714761Y-112863333D01*
X204667142Y-112910952D01*
X204571904Y-112958571D01*
X204238571Y-112958571D01*
X182496666Y-120966666D02*
X182263333Y-120633333D01*
X182096666Y-120966666D02*
X182096666Y-120266666D01*
X182363333Y-120266666D01*
X182430000Y-120300000D01*
X182463333Y-120333333D01*
X182496666Y-120400000D01*
X182496666Y-120500000D01*
X182463333Y-120566666D01*
X182430000Y-120600000D01*
X182363333Y-120633333D01*
X182096666Y-120633333D01*
X182763333Y-120933333D02*
X182863333Y-120966666D01*
X183030000Y-120966666D01*
X183096666Y-120933333D01*
X183130000Y-120900000D01*
X183163333Y-120833333D01*
X183163333Y-120766666D01*
X183130000Y-120700000D01*
X183096666Y-120666666D01*
X183030000Y-120633333D01*
X182896666Y-120600000D01*
X182830000Y-120566666D01*
X182796666Y-120533333D01*
X182763333Y-120466666D01*
X182763333Y-120400000D01*
X182796666Y-120333333D01*
X182830000Y-120300000D01*
X182896666Y-120266666D01*
X183063333Y-120266666D01*
X183163333Y-120300000D01*
X183363333Y-120266666D02*
X183763333Y-120266666D01*
X183563333Y-120966666D02*
X183563333Y-120266666D01*
X185220000Y-120333333D02*
X185253333Y-120300000D01*
X185320000Y-120266666D01*
X185486666Y-120266666D01*
X185553333Y-120300000D01*
X185586666Y-120333333D01*
X185620000Y-120400000D01*
X185620000Y-120466666D01*
X185586666Y-120566666D01*
X185186666Y-120966666D01*
X185620000Y-120966666D01*
X187726666Y-120266666D02*
X188160000Y-120266666D01*
X187926666Y-120533333D01*
X188026666Y-120533333D01*
X188093333Y-120566666D01*
X188126666Y-120600000D01*
X188160000Y-120666666D01*
X188160000Y-120833333D01*
X188126666Y-120900000D01*
X188093333Y-120933333D01*
X188026666Y-120966666D01*
X187826666Y-120966666D01*
X187760000Y-120933333D01*
X187726666Y-120900000D01*
X192506666Y-120300000D02*
X192440000Y-120266666D01*
X192340000Y-120266666D01*
X192240000Y-120300000D01*
X192173333Y-120366666D01*
X192140000Y-120433333D01*
X192106666Y-120566666D01*
X192106666Y-120666666D01*
X192140000Y-120800000D01*
X192173333Y-120866666D01*
X192240000Y-120933333D01*
X192340000Y-120966666D01*
X192406666Y-120966666D01*
X192506666Y-120933333D01*
X192540000Y-120900000D01*
X192540000Y-120666666D01*
X192406666Y-120666666D01*
X192840000Y-120966666D02*
X192840000Y-120266666D01*
X193240000Y-120966666D01*
X193240000Y-120266666D01*
X193573333Y-120966666D02*
X193573333Y-120266666D01*
X193740000Y-120266666D01*
X193840000Y-120300000D01*
X193906666Y-120366666D01*
X193940000Y-120433333D01*
X193973333Y-120566666D01*
X193973333Y-120666666D01*
X193940000Y-120800000D01*
X193906666Y-120866666D01*
X193840000Y-120933333D01*
X193740000Y-120966666D01*
X193573333Y-120966666D01*
D12*
X194746666Y-120966666D02*
X194580000Y-120633333D01*
X194460952Y-120966666D02*
X194460952Y-120266666D01*
X194651428Y-120266666D01*
X194699047Y-120300000D01*
X194722857Y-120333333D01*
X194746666Y-120400000D01*
X194746666Y-120500000D01*
X194722857Y-120566666D01*
X194699047Y-120600000D01*
X194651428Y-120633333D01*
X194460952Y-120633333D01*
X194913333Y-120266666D02*
X195246666Y-120966666D01*
X195246666Y-120266666D02*
X194913333Y-120966666D01*
X195437142Y-120966666D02*
X195437142Y-120266666D01*
X195556190Y-120266666D01*
X195627619Y-120300000D01*
X195675238Y-120366666D01*
X195699047Y-120433333D01*
X195722857Y-120566666D01*
X195722857Y-120666666D01*
X195699047Y-120800000D01*
X195675238Y-120866666D01*
X195627619Y-120933333D01*
X195556190Y-120966666D01*
X195437142Y-120966666D01*
X196294285Y-120233333D02*
X195865714Y-121133333D01*
X196699047Y-120266666D02*
X196460952Y-120266666D01*
X196437142Y-120600000D01*
X196460952Y-120566666D01*
X196508571Y-120533333D01*
X196627619Y-120533333D01*
X196675238Y-120566666D01*
X196699047Y-120600000D01*
X196722857Y-120666666D01*
X196722857Y-120833333D01*
X196699047Y-120900000D01*
X196675238Y-120933333D01*
X196627619Y-120966666D01*
X196508571Y-120966666D01*
X196460952Y-120933333D01*
X196437142Y-120900000D01*
X196989047Y-120266666D02*
X197274761Y-120266666D01*
X197131904Y-120966666D02*
X197131904Y-120266666D01*
X197393809Y-120266666D02*
X197727142Y-120966666D01*
X197727142Y-120266666D02*
X197393809Y-120966666D01*
X197917619Y-120966666D02*
X197917619Y-120266666D01*
X198036666Y-120266666D01*
X198108095Y-120300000D01*
X198155714Y-120366666D01*
X198179523Y-120433333D01*
X198203333Y-120566666D01*
X198203333Y-120666666D01*
X198179523Y-120800000D01*
X198155714Y-120866666D01*
X198108095Y-120933333D01*
X198036666Y-120966666D01*
X197917619Y-120966666D01*
X198774761Y-120233333D02*
X198346190Y-121133333D01*
X199155714Y-120266666D02*
X199060476Y-120266666D01*
X199012857Y-120300000D01*
X198989047Y-120333333D01*
X198941428Y-120433333D01*
X198917619Y-120566666D01*
X198917619Y-120833333D01*
X198941428Y-120900000D01*
X198965238Y-120933333D01*
X199012857Y-120966666D01*
X199108095Y-120966666D01*
X199155714Y-120933333D01*
X199179523Y-120900000D01*
X199203333Y-120833333D01*
X199203333Y-120666666D01*
X199179523Y-120600000D01*
X199155714Y-120566666D01*
X199108095Y-120533333D01*
X199012857Y-120533333D01*
X198965238Y-120566666D01*
X198941428Y-120600000D01*
X198917619Y-120666666D01*
D11*
X200426666Y-120266666D02*
X200893333Y-120266666D01*
X200593333Y-120966666D01*
X211136666Y-110773333D02*
X210803333Y-111006666D01*
X211136666Y-111173333D02*
X210436666Y-111173333D01*
X210436666Y-110906666D01*
X210470000Y-110840000D01*
X210503333Y-110806666D01*
X210570000Y-110773333D01*
X210670000Y-110773333D01*
X210736666Y-110806666D01*
X210770000Y-110840000D01*
X210803333Y-110906666D01*
X210803333Y-111173333D01*
X210436666Y-110540000D02*
X211136666Y-110073333D01*
X210436666Y-110073333D02*
X211136666Y-110540000D01*
X211136666Y-109806666D02*
X210436666Y-109806666D01*
X210470000Y-116103333D02*
X210436666Y-116170000D01*
X210436666Y-116270000D01*
X210470000Y-116370000D01*
X210536666Y-116436666D01*
X210603333Y-116470000D01*
X210736666Y-116503333D01*
X210836666Y-116503333D01*
X210970000Y-116470000D01*
X211036666Y-116436666D01*
X211103333Y-116370000D01*
X211136666Y-116270000D01*
X211136666Y-116203333D01*
X211103333Y-116103333D01*
X211070000Y-116070000D01*
X210836666Y-116070000D01*
X210836666Y-116203333D01*
X211136666Y-115770000D02*
X210436666Y-115770000D01*
X211136666Y-115370000D01*
X210436666Y-115370000D01*
X211136666Y-115036666D02*
X210436666Y-115036666D01*
X210436666Y-114870000D01*
X210470000Y-114770000D01*
X210536666Y-114703333D01*
X210603333Y-114670000D01*
X210736666Y-114636666D01*
X210836666Y-114636666D01*
X210970000Y-114670000D01*
X211036666Y-114703333D01*
X211103333Y-114770000D01*
X211136666Y-114870000D01*
X211136666Y-115036666D01*
X210436666Y-113963333D02*
X211136666Y-113730000D01*
X210436666Y-113496666D01*
X211070000Y-112863333D02*
X211103333Y-112896666D01*
X211136666Y-112996666D01*
X211136666Y-113063333D01*
X211103333Y-113163333D01*
X211036666Y-113230000D01*
X210970000Y-113263333D01*
X210836666Y-113296666D01*
X210736666Y-113296666D01*
X210603333Y-113263333D01*
X210536666Y-113230000D01*
X210470000Y-113163333D01*
X210436666Y-113063333D01*
X210436666Y-112996666D01*
X210470000Y-112896666D01*
X210503333Y-112863333D01*
X211070000Y-112163333D02*
X211103333Y-112196666D01*
X211136666Y-112296666D01*
X211136666Y-112363333D01*
X211103333Y-112463333D01*
X211036666Y-112530000D01*
X210970000Y-112563333D01*
X210836666Y-112596666D01*
X210736666Y-112596666D01*
X210603333Y-112563333D01*
X210536666Y-112530000D01*
X210470000Y-112463333D01*
X210436666Y-112363333D01*
X210436666Y-112296666D01*
X210470000Y-112196666D01*
X210503333Y-112163333D01*
X169896666Y-109540000D02*
X169863333Y-109640000D01*
X169863333Y-109806666D01*
X169896666Y-109873333D01*
X169930000Y-109906666D01*
X169996666Y-109940000D01*
X170063333Y-109940000D01*
X170130000Y-109906666D01*
X170163333Y-109873333D01*
X170196666Y-109806666D01*
X170230000Y-109673333D01*
X170263333Y-109606666D01*
X170296666Y-109573333D01*
X170363333Y-109540000D01*
X170430000Y-109540000D01*
X170496666Y-109573333D01*
X170530000Y-109606666D01*
X170563333Y-109673333D01*
X170563333Y-109840000D01*
X170530000Y-109940000D01*
X170563333Y-110173333D02*
X169863333Y-110340000D01*
X170363333Y-110473333D01*
X169863333Y-110606666D01*
X170563333Y-110773333D01*
X169863333Y-111040000D02*
X170563333Y-111040000D01*
X170563333Y-111206666D01*
X170530000Y-111306666D01*
X170463333Y-111373333D01*
X170396666Y-111406666D01*
X170263333Y-111440000D01*
X170163333Y-111440000D01*
X170030000Y-111406666D01*
X169963333Y-111373333D01*
X169896666Y-111306666D01*
X169863333Y-111206666D01*
X169863333Y-111040000D01*
X170563333Y-107016666D02*
X169863333Y-107250000D01*
X170563333Y-107483333D01*
X169930000Y-108116666D02*
X169896666Y-108083333D01*
X169863333Y-107983333D01*
X169863333Y-107916666D01*
X169896666Y-107816666D01*
X169963333Y-107750000D01*
X170030000Y-107716666D01*
X170163333Y-107683333D01*
X170263333Y-107683333D01*
X170396666Y-107716666D01*
X170463333Y-107750000D01*
X170530000Y-107816666D01*
X170563333Y-107916666D01*
X170563333Y-107983333D01*
X170530000Y-108083333D01*
X170496666Y-108116666D01*
X169930000Y-108816666D02*
X169896666Y-108783333D01*
X169863333Y-108683333D01*
X169863333Y-108616666D01*
X169896666Y-108516666D01*
X169963333Y-108450000D01*
X170030000Y-108416666D01*
X170163333Y-108383333D01*
X170263333Y-108383333D01*
X170396666Y-108416666D01*
X170463333Y-108450000D01*
X170530000Y-108516666D01*
X170563333Y-108616666D01*
X170563333Y-108683333D01*
X170530000Y-108783333D01*
X170496666Y-108816666D01*
X170530000Y-104876666D02*
X170563333Y-104810000D01*
X170563333Y-104710000D01*
X170530000Y-104610000D01*
X170463333Y-104543333D01*
X170396666Y-104510000D01*
X170263333Y-104476666D01*
X170163333Y-104476666D01*
X170030000Y-104510000D01*
X169963333Y-104543333D01*
X169896666Y-104610000D01*
X169863333Y-104710000D01*
X169863333Y-104776666D01*
X169896666Y-104876666D01*
X169930000Y-104910000D01*
X170163333Y-104910000D01*
X170163333Y-104776666D01*
X169863333Y-105210000D02*
X170563333Y-105210000D01*
X169863333Y-105610000D01*
X170563333Y-105610000D01*
X169863333Y-105943333D02*
X170563333Y-105943333D01*
X170563333Y-106110000D01*
X170530000Y-106210000D01*
X170463333Y-106276666D01*
X170396666Y-106310000D01*
X170263333Y-106343333D01*
X170163333Y-106343333D01*
X170030000Y-106310000D01*
X169963333Y-106276666D01*
X169896666Y-106210000D01*
X169863333Y-106110000D01*
X169863333Y-105943333D01*
X210436666Y-108833333D02*
X210436666Y-108433333D01*
X211136666Y-108633333D02*
X210436666Y-108633333D01*
X210436666Y-108266666D02*
X211136666Y-107800000D01*
X210436666Y-107800000D02*
X211136666Y-108266666D01*
X211136666Y-107533333D02*
X210436666Y-107533333D01*
X210436666Y-107366666D01*
X210470000Y-107266666D01*
X210536666Y-107200000D01*
X210603333Y-107166666D01*
X210736666Y-107133333D01*
X210836666Y-107133333D01*
X210970000Y-107166666D01*
X211036666Y-107200000D01*
X211103333Y-107266666D01*
X211136666Y-107366666D01*
X211136666Y-107533333D01*
X211136666Y-106210000D02*
X210436666Y-106210000D01*
X210436666Y-106043333D01*
X210470000Y-105943333D01*
X210536666Y-105876666D01*
X210603333Y-105843333D01*
X210736666Y-105810000D01*
X210836666Y-105810000D01*
X210970000Y-105843333D01*
X211036666Y-105876666D01*
X211103333Y-105943333D01*
X211136666Y-106043333D01*
X211136666Y-106210000D01*
X210436666Y-105610000D02*
X210436666Y-105210000D01*
X211136666Y-105410000D02*
X210436666Y-105410000D01*
X211136666Y-104576666D02*
X210803333Y-104810000D01*
X211136666Y-104976666D02*
X210436666Y-104976666D01*
X210436666Y-104710000D01*
X210470000Y-104643333D01*
X210503333Y-104610000D01*
X210570000Y-104576666D01*
X210670000Y-104576666D01*
X210736666Y-104610000D01*
X210770000Y-104643333D01*
X210803333Y-104710000D01*
X210803333Y-104976666D01*
X201426666Y-100413333D02*
X201493333Y-100446666D01*
X201526666Y-100480000D01*
X201560000Y-100546666D01*
X201560000Y-100580000D01*
X201526666Y-100646666D01*
X201493333Y-100680000D01*
X201426666Y-100713333D01*
X201293333Y-100713333D01*
X201226666Y-100680000D01*
X201193333Y-100646666D01*
X201160000Y-100580000D01*
X201160000Y-100546666D01*
X201193333Y-100480000D01*
X201226666Y-100446666D01*
X201293333Y-100413333D01*
X201426666Y-100413333D01*
X201493333Y-100380000D01*
X201526666Y-100346666D01*
X201560000Y-100280000D01*
X201560000Y-100146666D01*
X201526666Y-100080000D01*
X201493333Y-100046666D01*
X201426666Y-100013333D01*
X201293333Y-100013333D01*
X201226666Y-100046666D01*
X201193333Y-100080000D01*
X201160000Y-100146666D01*
X201160000Y-100280000D01*
X201193333Y-100346666D01*
X201226666Y-100380000D01*
X201293333Y-100413333D01*
X200360000Y-100746666D02*
X200960000Y-99846666D01*
X200093333Y-100013333D02*
X199960000Y-100013333D01*
X199893333Y-100046666D01*
X199860000Y-100080000D01*
X199793333Y-100180000D01*
X199760000Y-100313333D01*
X199760000Y-100580000D01*
X199793333Y-100646666D01*
X199826666Y-100680000D01*
X199893333Y-100713333D01*
X200026666Y-100713333D01*
X200093333Y-100680000D01*
X200126666Y-100646666D01*
X200160000Y-100580000D01*
X200160000Y-100413333D01*
X200126666Y-100346666D01*
X200093333Y-100313333D01*
X200026666Y-100280000D01*
X199893333Y-100280000D01*
X199826666Y-100313333D01*
X199793333Y-100346666D01*
X199760000Y-100413333D01*
X206673333Y-100713333D02*
X206440000Y-100013333D01*
X206206666Y-100713333D01*
X205573333Y-100080000D02*
X205606666Y-100046666D01*
X205706666Y-100013333D01*
X205773333Y-100013333D01*
X205873333Y-100046666D01*
X205940000Y-100113333D01*
X205973333Y-100180000D01*
X206006666Y-100313333D01*
X206006666Y-100413333D01*
X205973333Y-100546666D01*
X205940000Y-100613333D01*
X205873333Y-100680000D01*
X205773333Y-100713333D01*
X205706666Y-100713333D01*
X205606666Y-100680000D01*
X205573333Y-100646666D01*
X204873333Y-100080000D02*
X204906666Y-100046666D01*
X205006666Y-100013333D01*
X205073333Y-100013333D01*
X205173333Y-100046666D01*
X205240000Y-100113333D01*
X205273333Y-100180000D01*
X205306666Y-100313333D01*
X205306666Y-100413333D01*
X205273333Y-100546666D01*
X205240000Y-100613333D01*
X205173333Y-100680000D01*
X205073333Y-100713333D01*
X205006666Y-100713333D01*
X204906666Y-100680000D01*
X204873333Y-100646666D01*
X195713333Y-100013333D02*
X196113333Y-100013333D01*
X195913333Y-100013333D02*
X195913333Y-100713333D01*
X195980000Y-100613333D01*
X196046666Y-100546666D01*
X196113333Y-100513333D01*
X195446666Y-100646666D02*
X195413333Y-100680000D01*
X195346666Y-100713333D01*
X195180000Y-100713333D01*
X195113333Y-100680000D01*
X195080000Y-100646666D01*
X195046666Y-100580000D01*
X195046666Y-100513333D01*
X195080000Y-100413333D01*
X195480000Y-100013333D01*
X195046666Y-100013333D01*
D15*
X183927619Y-100213333D02*
X183737142Y-100213333D01*
X183965714Y-100013333D02*
X183832380Y-100713333D01*
X183699047Y-100013333D01*
X183375238Y-100713333D02*
X183565714Y-100713333D01*
X183584761Y-100380000D01*
X183565714Y-100413333D01*
X183527619Y-100446666D01*
X183432380Y-100446666D01*
X183394285Y-100413333D01*
X183375238Y-100380000D01*
X183356190Y-100313333D01*
X183356190Y-100146666D01*
X183375238Y-100080000D01*
X183394285Y-100046666D01*
X183432380Y-100013333D01*
X183527619Y-100013333D01*
X183565714Y-100046666D01*
X183584761Y-100080000D01*
X182899047Y-100746666D02*
X183241904Y-99846666D01*
X182784761Y-100046666D02*
X182727619Y-100013333D01*
X182632380Y-100013333D01*
X182594285Y-100046666D01*
X182575238Y-100080000D01*
X182556190Y-100146666D01*
X182556190Y-100213333D01*
X182575238Y-100280000D01*
X182594285Y-100313333D01*
X182632380Y-100346666D01*
X182708571Y-100380000D01*
X182746666Y-100413333D01*
X182765714Y-100446666D01*
X182784761Y-100513333D01*
X182784761Y-100580000D01*
X182765714Y-100646666D01*
X182746666Y-100680000D01*
X182708571Y-100713333D01*
X182613333Y-100713333D01*
X182556190Y-100680000D01*
X182384761Y-100013333D02*
X182384761Y-100713333D01*
X182289523Y-100713333D01*
X182232380Y-100680000D01*
X182194285Y-100613333D01*
X182175238Y-100546666D01*
X182156190Y-100413333D01*
X182156190Y-100313333D01*
X182175238Y-100180000D01*
X182194285Y-100113333D01*
X182232380Y-100046666D01*
X182289523Y-100013333D01*
X182384761Y-100013333D01*
X181794285Y-100013333D02*
X181984761Y-100013333D01*
X181984761Y-100713333D01*
D11*
X188460000Y-100213333D02*
X188126666Y-100213333D01*
X188526666Y-100013333D02*
X188293333Y-100713333D01*
X188060000Y-100013333D01*
X187460000Y-100013333D02*
X187860000Y-100013333D01*
X187660000Y-100013333D02*
X187660000Y-100713333D01*
X187726666Y-100613333D01*
X187793333Y-100546666D01*
X187860000Y-100513333D01*
X191000000Y-100213333D02*
X190666666Y-100213333D01*
X191066666Y-100013333D02*
X190833333Y-100713333D01*
X190600000Y-100013333D01*
X190233333Y-100713333D02*
X190166666Y-100713333D01*
X190100000Y-100680000D01*
X190066666Y-100646666D01*
X190033333Y-100580000D01*
X190000000Y-100446666D01*
X190000000Y-100280000D01*
X190033333Y-100146666D01*
X190066666Y-100080000D01*
X190100000Y-100046666D01*
X190166666Y-100013333D01*
X190233333Y-100013333D01*
X190300000Y-100046666D01*
X190333333Y-100080000D01*
X190366666Y-100146666D01*
X190400000Y-100280000D01*
X190400000Y-100446666D01*
X190366666Y-100580000D01*
X190333333Y-100646666D01*
X190300000Y-100680000D01*
X190233333Y-100713333D01*
D15*
X186477142Y-100213333D02*
X186286666Y-100213333D01*
X186515238Y-100013333D02*
X186381904Y-100713333D01*
X186248571Y-100013333D01*
X185943809Y-100480000D02*
X185943809Y-100013333D01*
X186039047Y-100746666D02*
X186134285Y-100246666D01*
X185886666Y-100246666D01*
X185448571Y-100746666D02*
X185791428Y-99846666D01*
X185334285Y-100046666D02*
X185277142Y-100013333D01*
X185181904Y-100013333D01*
X185143809Y-100046666D01*
X185124761Y-100080000D01*
X185105714Y-100146666D01*
X185105714Y-100213333D01*
X185124761Y-100280000D01*
X185143809Y-100313333D01*
X185181904Y-100346666D01*
X185258095Y-100380000D01*
X185296190Y-100413333D01*
X185315238Y-100446666D01*
X185334285Y-100513333D01*
X185334285Y-100580000D01*
X185315238Y-100646666D01*
X185296190Y-100680000D01*
X185258095Y-100713333D01*
X185162857Y-100713333D01*
X185105714Y-100680000D01*
X184934285Y-100013333D02*
X184934285Y-100713333D01*
X184839047Y-100713333D01*
X184781904Y-100680000D01*
X184743809Y-100613333D01*
X184724761Y-100546666D01*
X184705714Y-100413333D01*
X184705714Y-100313333D01*
X184724761Y-100180000D01*
X184743809Y-100113333D01*
X184781904Y-100046666D01*
X184839047Y-100013333D01*
X184934285Y-100013333D01*
X184553333Y-100213333D02*
X184362857Y-100213333D01*
X184591428Y-100013333D02*
X184458095Y-100713333D01*
X184324761Y-100013333D01*
D11*
X203733333Y-100680000D02*
X203800000Y-100713333D01*
X203900000Y-100713333D01*
X204000000Y-100680000D01*
X204066666Y-100613333D01*
X204100000Y-100546666D01*
X204133333Y-100413333D01*
X204133333Y-100313333D01*
X204100000Y-100180000D01*
X204066666Y-100113333D01*
X204000000Y-100046666D01*
X203900000Y-100013333D01*
X203833333Y-100013333D01*
X203733333Y-100046666D01*
X203700000Y-100080000D01*
X203700000Y-100313333D01*
X203833333Y-100313333D01*
X203400000Y-100013333D02*
X203400000Y-100713333D01*
X203000000Y-100013333D01*
X203000000Y-100713333D01*
X202666666Y-100013333D02*
X202666666Y-100713333D01*
X202500000Y-100713333D01*
X202400000Y-100680000D01*
X202333333Y-100613333D01*
X202300000Y-100546666D01*
X202266666Y-100413333D01*
X202266666Y-100313333D01*
X202300000Y-100180000D01*
X202333333Y-100113333D01*
X202400000Y-100046666D01*
X202500000Y-100013333D01*
X202666666Y-100013333D01*
D12*
X198953333Y-100013333D02*
X199239047Y-100013333D01*
X199096190Y-100013333D02*
X199096190Y-100713333D01*
X199143809Y-100613333D01*
X199191428Y-100546666D01*
X199239047Y-100513333D01*
X198477142Y-100013333D02*
X198762857Y-100013333D01*
X198620000Y-100013333D02*
X198620000Y-100713333D01*
X198667619Y-100613333D01*
X198715238Y-100546666D01*
X198762857Y-100513333D01*
X197905714Y-100746666D02*
X198334285Y-99846666D01*
X197477142Y-100013333D02*
X197762857Y-100013333D01*
X197620000Y-100013333D02*
X197620000Y-100713333D01*
X197667619Y-100613333D01*
X197715238Y-100546666D01*
X197762857Y-100513333D01*
X197167619Y-100713333D02*
X197120000Y-100713333D01*
X197072380Y-100680000D01*
X197048571Y-100646666D01*
X197024761Y-100580000D01*
X197000952Y-100446666D01*
X197000952Y-100280000D01*
X197024761Y-100146666D01*
X197048571Y-100080000D01*
X197072380Y-100046666D01*
X197120000Y-100013333D01*
X197167619Y-100013333D01*
X197215238Y-100046666D01*
X197239047Y-100080000D01*
X197262857Y-100146666D01*
X197286666Y-100280000D01*
X197286666Y-100446666D01*
X197262857Y-100580000D01*
X197239047Y-100646666D01*
X197215238Y-100680000D01*
X197167619Y-100713333D01*
D11*
X193173333Y-100013333D02*
X193573333Y-100013333D01*
X193373333Y-100013333D02*
X193373333Y-100713333D01*
X193440000Y-100613333D01*
X193506666Y-100546666D01*
X193573333Y-100513333D01*
X192940000Y-100713333D02*
X192506666Y-100713333D01*
X192740000Y-100446666D01*
X192640000Y-100446666D01*
X192573333Y-100413333D01*
X192540000Y-100380000D01*
X192506666Y-100313333D01*
X192506666Y-100146666D01*
X192540000Y-100080000D01*
X192573333Y-100046666D01*
X192640000Y-100013333D01*
X192840000Y-100013333D01*
X192906666Y-100046666D01*
X192940000Y-100080000D01*
X189566666Y-120266666D02*
X189800000Y-120966666D01*
X190033333Y-120266666D01*
X190666666Y-120900000D02*
X190633333Y-120933333D01*
X190533333Y-120966666D01*
X190466666Y-120966666D01*
X190366666Y-120933333D01*
X190300000Y-120866666D01*
X190266666Y-120800000D01*
X190233333Y-120666666D01*
X190233333Y-120566666D01*
X190266666Y-120433333D01*
X190300000Y-120366666D01*
X190366666Y-120300000D01*
X190466666Y-120266666D01*
X190533333Y-120266666D01*
X190633333Y-120300000D01*
X190666666Y-120333333D01*
X191366666Y-120900000D02*
X191333333Y-120933333D01*
X191233333Y-120966666D01*
X191166666Y-120966666D01*
X191066666Y-120933333D01*
X191000000Y-120866666D01*
X190966666Y-120800000D01*
X190933333Y-120666666D01*
X190933333Y-120566666D01*
X190966666Y-120433333D01*
X191000000Y-120366666D01*
X191066666Y-120300000D01*
X191166666Y-120266666D01*
X191233333Y-120266666D01*
X191333333Y-120300000D01*
X191366666Y-120333333D01*
X202666666Y-120300000D02*
X202600000Y-120266666D01*
X202500000Y-120266666D01*
X202400000Y-120300000D01*
X202333333Y-120366666D01*
X202300000Y-120433333D01*
X202266666Y-120566666D01*
X202266666Y-120666666D01*
X202300000Y-120800000D01*
X202333333Y-120866666D01*
X202400000Y-120933333D01*
X202500000Y-120966666D01*
X202566666Y-120966666D01*
X202666666Y-120933333D01*
X202700000Y-120900000D01*
X202700000Y-120666666D01*
X202566666Y-120666666D01*
X203000000Y-120966666D02*
X203000000Y-120266666D01*
X203400000Y-120966666D01*
X203400000Y-120266666D01*
X203733333Y-120966666D02*
X203733333Y-120266666D01*
X203900000Y-120266666D01*
X204000000Y-120300000D01*
X204066666Y-120366666D01*
X204100000Y-120433333D01*
X204133333Y-120566666D01*
X204133333Y-120666666D01*
X204100000Y-120800000D01*
X204066666Y-120866666D01*
X204000000Y-120933333D01*
X203900000Y-120966666D01*
X203733333Y-120966666D01*
X205256666Y-120966666D02*
X205023333Y-120633333D01*
X204856666Y-120966666D02*
X204856666Y-120266666D01*
X205123333Y-120266666D01*
X205190000Y-120300000D01*
X205223333Y-120333333D01*
X205256666Y-120400000D01*
X205256666Y-120500000D01*
X205223333Y-120566666D01*
X205190000Y-120600000D01*
X205123333Y-120633333D01*
X204856666Y-120633333D01*
X205523333Y-120766666D02*
X205856666Y-120766666D01*
X205456666Y-120966666D02*
X205690000Y-120266666D01*
X205923333Y-120966666D01*
X206090000Y-120266666D02*
X206256666Y-120966666D01*
X206390000Y-120466666D01*
X206523333Y-120966666D01*
X206690000Y-120266666D01*
X169863333Y-112646666D02*
X170196666Y-112413333D01*
X169863333Y-112246666D02*
X170563333Y-112246666D01*
X170563333Y-112513333D01*
X170530000Y-112580000D01*
X170496666Y-112613333D01*
X170430000Y-112646666D01*
X170330000Y-112646666D01*
X170263333Y-112613333D01*
X170230000Y-112580000D01*
X170196666Y-112513333D01*
X170196666Y-112246666D01*
X169896666Y-112913333D02*
X169863333Y-113013333D01*
X169863333Y-113180000D01*
X169896666Y-113246666D01*
X169930000Y-113280000D01*
X169996666Y-113313333D01*
X170063333Y-113313333D01*
X170130000Y-113280000D01*
X170163333Y-113246666D01*
X170196666Y-113180000D01*
X170230000Y-113046666D01*
X170263333Y-112980000D01*
X170296666Y-112946666D01*
X170363333Y-112913333D01*
X170430000Y-112913333D01*
X170496666Y-112946666D01*
X170530000Y-112980000D01*
X170563333Y-113046666D01*
X170563333Y-113213333D01*
X170530000Y-113313333D01*
X170563333Y-113513333D02*
X170563333Y-113913333D01*
X169863333Y-113713333D02*
X170563333Y-113713333D01*
X169896666Y-114620000D02*
X169863333Y-114720000D01*
X169863333Y-114886666D01*
X169896666Y-114953333D01*
X169930000Y-114986666D01*
X169996666Y-115020000D01*
X170063333Y-115020000D01*
X170130000Y-114986666D01*
X170163333Y-114953333D01*
X170196666Y-114886666D01*
X170230000Y-114753333D01*
X170263333Y-114686666D01*
X170296666Y-114653333D01*
X170363333Y-114620000D01*
X170430000Y-114620000D01*
X170496666Y-114653333D01*
X170530000Y-114686666D01*
X170563333Y-114753333D01*
X170563333Y-114920000D01*
X170530000Y-115020000D01*
X170563333Y-115253333D02*
X169863333Y-115420000D01*
X170363333Y-115553333D01*
X169863333Y-115686666D01*
X170563333Y-115853333D01*
X169930000Y-116520000D02*
X169896666Y-116486666D01*
X169863333Y-116386666D01*
X169863333Y-116320000D01*
X169896666Y-116220000D01*
X169963333Y-116153333D01*
X170030000Y-116120000D01*
X170163333Y-116086666D01*
X170263333Y-116086666D01*
X170396666Y-116120000D01*
X170463333Y-116153333D01*
X170530000Y-116220000D01*
X170563333Y-116320000D01*
X170563333Y-116386666D01*
X170530000Y-116486666D01*
X170496666Y-116520000D01*
X222486666Y-119062380D02*
X222486666Y-119776666D01*
X222439047Y-119919523D01*
X222343809Y-120014761D01*
X222200952Y-120062380D01*
X222105714Y-120062380D01*
X223439047Y-119062380D02*
X222962857Y-119062380D01*
X222915238Y-119538571D01*
X222962857Y-119490952D01*
X223058095Y-119443333D01*
X223296190Y-119443333D01*
X223391428Y-119490952D01*
X223439047Y-119538571D01*
X223486666Y-119633809D01*
X223486666Y-119871904D01*
X223439047Y-119967142D01*
X223391428Y-120014761D01*
X223296190Y-120062380D01*
X223058095Y-120062380D01*
X222962857Y-120014761D01*
X222915238Y-119967142D01*
X191603333Y-100962380D02*
X191270000Y-100486190D01*
X191031904Y-100962380D02*
X191031904Y-99962380D01*
X191412857Y-99962380D01*
X191508095Y-100010000D01*
X191555714Y-100057619D01*
X191603333Y-100152857D01*
X191603333Y-100295714D01*
X191555714Y-100390952D01*
X191508095Y-100438571D01*
X191412857Y-100486190D01*
X191031904Y-100486190D01*
X191936666Y-99962380D02*
X192555714Y-99962380D01*
X192222380Y-100343333D01*
X192365238Y-100343333D01*
X192460476Y-100390952D01*
X192508095Y-100438571D01*
X192555714Y-100533809D01*
X192555714Y-100771904D01*
X192508095Y-100867142D01*
X192460476Y-100914761D01*
X192365238Y-100962380D01*
X192079523Y-100962380D01*
X191984285Y-100914761D01*
X191936666Y-100867142D01*
X175327142Y-88702380D02*
X174850952Y-88702380D01*
X174850952Y-87702380D01*
X175612857Y-88654761D02*
X175755714Y-88702380D01*
X175993809Y-88702380D01*
X176089047Y-88654761D01*
X176136666Y-88607142D01*
X176184285Y-88511904D01*
X176184285Y-88416666D01*
X176136666Y-88321428D01*
X176089047Y-88273809D01*
X175993809Y-88226190D01*
X175803333Y-88178571D01*
X175708095Y-88130952D01*
X175660476Y-88083333D01*
X175612857Y-87988095D01*
X175612857Y-87892857D01*
X175660476Y-87797619D01*
X175708095Y-87750000D01*
X175803333Y-87702380D01*
X176041428Y-87702380D01*
X176184285Y-87750000D01*
X177136666Y-88702380D02*
X176565238Y-88702380D01*
X176850952Y-88702380D02*
X176850952Y-87702380D01*
X176755714Y-87845238D01*
X176660476Y-87940476D01*
X176565238Y-87988095D01*
X172339047Y-93521428D02*
X173100952Y-93521428D01*
X172720000Y-93902380D02*
X172720000Y-93140476D01*
X173656666Y-118792380D02*
X173656666Y-119506666D01*
X173609047Y-119649523D01*
X173513809Y-119744761D01*
X173370952Y-119792380D01*
X173275714Y-119792380D01*
X174561428Y-118792380D02*
X174370952Y-118792380D01*
X174275714Y-118840000D01*
X174228095Y-118887619D01*
X174132857Y-119030476D01*
X174085238Y-119220952D01*
X174085238Y-119601904D01*
X174132857Y-119697142D01*
X174180476Y-119744761D01*
X174275714Y-119792380D01*
X174466190Y-119792380D01*
X174561428Y-119744761D01*
X174609047Y-119697142D01*
X174656666Y-119601904D01*
X174656666Y-119363809D01*
X174609047Y-119268571D01*
X174561428Y-119220952D01*
X174466190Y-119173333D01*
X174275714Y-119173333D01*
X174180476Y-119220952D01*
X174132857Y-119268571D01*
X174085238Y-119363809D01*
X180006666Y-118792380D02*
X180006666Y-119506666D01*
X179959047Y-119649523D01*
X179863809Y-119744761D01*
X179720952Y-119792380D01*
X179625714Y-119792380D01*
X180387619Y-118792380D02*
X181054285Y-118792380D01*
X180625714Y-119792380D01*
M02*
