G04 #@! TF.GenerationSoftware,KiCad,Pcbnew,5.1.7-a382d34a8~87~ubuntu20.04.1*
G04 #@! TF.CreationDate,2020-11-07T19:00:24+09:00*
G04 #@! TF.ProjectId,AKBONE2020LGT8F,414b424f-4e45-4323-9032-304c47543846,rev?*
G04 #@! TF.SameCoordinates,Original*
G04 #@! TF.FileFunction,Copper,L2,Bot*
G04 #@! TF.FilePolarity,Positive*
%FSLAX46Y46*%
G04 Gerber Fmt 4.6, Leading zero omitted, Abs format (unit mm)*
G04 Created by KiCad (PCBNEW 5.1.7-a382d34a8~87~ubuntu20.04.1) date 2020-11-07 19:00:24*
%MOMM*%
%LPD*%
G01*
G04 APERTURE LIST*
G04 #@! TA.AperFunction,ComponentPad*
%ADD10R,1.600000X1.600000*%
G04 #@! TD*
G04 #@! TA.AperFunction,ComponentPad*
%ADD11C,1.600000*%
G04 #@! TD*
G04 #@! TA.AperFunction,ComponentPad*
%ADD12R,2.200000X2.200000*%
G04 #@! TD*
G04 #@! TA.AperFunction,ComponentPad*
%ADD13O,2.200000X2.200000*%
G04 #@! TD*
G04 #@! TA.AperFunction,ComponentPad*
%ADD14R,1.700000X1.700000*%
G04 #@! TD*
G04 #@! TA.AperFunction,ComponentPad*
%ADD15O,1.700000X1.700000*%
G04 #@! TD*
G04 #@! TA.AperFunction,ComponentPad*
%ADD16R,1.700000X5.000000*%
G04 #@! TD*
G04 #@! TA.AperFunction,ComponentPad*
%ADD17O,1.700000X5.000000*%
G04 #@! TD*
G04 #@! TA.AperFunction,ComponentPad*
%ADD18C,3.500000*%
G04 #@! TD*
G04 #@! TA.AperFunction,ComponentPad*
%ADD19R,1.524000X1.524000*%
G04 #@! TD*
G04 #@! TA.AperFunction,ComponentPad*
%ADD20C,1.524000*%
G04 #@! TD*
G04 #@! TA.AperFunction,ComponentPad*
%ADD21O,1.600000X1.600000*%
G04 #@! TD*
G04 #@! TA.AperFunction,ComponentPad*
%ADD22C,1.500000*%
G04 #@! TD*
G04 #@! TA.AperFunction,ComponentPad*
%ADD23O,1.600000X3.000000*%
G04 #@! TD*
G04 #@! TA.AperFunction,ComponentPad*
%ADD24O,3.000000X1.600000*%
G04 #@! TD*
G04 #@! TA.AperFunction,ComponentPad*
%ADD25C,5.700000*%
G04 #@! TD*
G04 #@! TA.AperFunction,ViaPad*
%ADD26C,1.399540*%
G04 #@! TD*
G04 #@! TA.AperFunction,Conductor*
%ADD27C,0.381000*%
G04 #@! TD*
G04 APERTURE END LIST*
D10*
X224790000Y-123190000D03*
D11*
X226790000Y-123190000D03*
D12*
X184150000Y-92710000D03*
D13*
X194310000Y-92710000D03*
D14*
X172720000Y-115570000D03*
D15*
X172720000Y-113030000D03*
X172720000Y-110490000D03*
X172720000Y-107950000D03*
X172720000Y-105410000D03*
D14*
X218440000Y-123190000D03*
D15*
X215900000Y-123190000D03*
X213360000Y-123190000D03*
X210820000Y-123190000D03*
X208280000Y-123190000D03*
X205740000Y-123190000D03*
X203200000Y-123190000D03*
X200660000Y-123190000D03*
X198120000Y-123190000D03*
X195580000Y-123190000D03*
X193040000Y-123190000D03*
X190500000Y-123190000D03*
X187960000Y-123190000D03*
D16*
X209550000Y-92710000D03*
D17*
X212090000Y-92710000D03*
X214630000Y-92710000D03*
D18*
X224620000Y-104230000D03*
X224620000Y-117370000D03*
D19*
X227330000Y-114300000D03*
D20*
X227330000Y-111800000D03*
X227330000Y-109800000D03*
X227330000Y-107300000D03*
D14*
X222250000Y-96520000D03*
D15*
X224790000Y-96520000D03*
X227330000Y-96520000D03*
X227330000Y-93980000D03*
X224790000Y-93980000D03*
D14*
X222250000Y-93980000D03*
D11*
X176530000Y-104140000D03*
D21*
X176530000Y-116840000D03*
X218440000Y-97790000D03*
D11*
X205740000Y-97790000D03*
D22*
X197660000Y-92710000D03*
X199660000Y-92710000D03*
X201660000Y-92710000D03*
X203660000Y-92710000D03*
D23*
X182880000Y-118110000D03*
X185420000Y-118110000D03*
X187960000Y-118110000D03*
X190500000Y-118110000D03*
X193040000Y-118110000D03*
X195580000Y-118110000D03*
X198120000Y-118110000D03*
X200660000Y-118110000D03*
X203200000Y-118110000D03*
X205740000Y-118110000D03*
D24*
X208280000Y-115570000D03*
X208280000Y-113030000D03*
X208280000Y-110490000D03*
X208280000Y-107950000D03*
X208280000Y-105410000D03*
D23*
X205740000Y-102870000D03*
X203200000Y-102870000D03*
X200660000Y-102870000D03*
X198120000Y-102870000D03*
X195580000Y-102870000D03*
X193040000Y-102870000D03*
X190500000Y-102870000D03*
X187960000Y-102870000D03*
X185420000Y-102870000D03*
X182880000Y-102870000D03*
D24*
X180340000Y-105410000D03*
X180340000Y-107950000D03*
X180340000Y-110490000D03*
X180340000Y-113030000D03*
X180340000Y-115570000D03*
D14*
X217170000Y-116840000D03*
D15*
X219710000Y-116840000D03*
X217170000Y-114300000D03*
X219710000Y-114300000D03*
X217170000Y-111760000D03*
X219710000Y-111760000D03*
X217170000Y-109220000D03*
X219710000Y-109220000D03*
X217170000Y-106680000D03*
X219710000Y-106680000D03*
X217170000Y-104140000D03*
X219710000Y-104140000D03*
D11*
X198120000Y-97790000D03*
D21*
X185420000Y-97790000D03*
D10*
X172720000Y-95250000D03*
D11*
X179220000Y-95250000D03*
D25*
X173990000Y-123190000D03*
X180340000Y-123190000D03*
D26*
X212090000Y-119380000D03*
X190500000Y-113030000D03*
X213360000Y-107950000D03*
D27*
X224620000Y-119322902D02*
X224620000Y-117370000D01*
X219562401Y-124380501D02*
X224620000Y-119322902D01*
X217090501Y-124380501D02*
X219562401Y-124380501D01*
X215900000Y-123190000D02*
X217090501Y-124380501D01*
X224620000Y-104590000D02*
X224620000Y-104230000D01*
X227330000Y-107300000D02*
X224620000Y-104590000D01*
X217170000Y-106680000D02*
X219710000Y-106680000D01*
X222170000Y-106680000D02*
X224620000Y-104230000D01*
X219710000Y-106680000D02*
X222170000Y-106680000D01*
X205740000Y-115570000D02*
X208280000Y-115570000D01*
X203200000Y-118110000D02*
X205740000Y-115570000D01*
X203200000Y-118110000D02*
X203200000Y-120650000D01*
X195580000Y-120650000D02*
X193040000Y-118110000D01*
X203200000Y-120650000D02*
X195580000Y-120650000D01*
X183189999Y-120340001D02*
X180340000Y-123190000D01*
X190809999Y-120340001D02*
X183189999Y-120340001D01*
X193040000Y-118110000D02*
X190809999Y-120340001D01*
X177929499Y-102999499D02*
X180340000Y-105410000D01*
X175130501Y-102999499D02*
X177929499Y-102999499D01*
X172720000Y-105410000D02*
X175130501Y-102999499D01*
X202569499Y-91619499D02*
X194130501Y-91619499D01*
X203660000Y-92710000D02*
X202569499Y-91619499D01*
X194310000Y-91798998D02*
X194310000Y-92710000D01*
X194130501Y-91619499D02*
X194310000Y-91798998D01*
X214630000Y-91916365D02*
X214630000Y-92710000D01*
X212583134Y-89869499D02*
X214630000Y-91916365D01*
X206500501Y-89869499D02*
X212583134Y-89869499D01*
X203660000Y-92710000D02*
X206500501Y-89869499D01*
X217170000Y-104140000D02*
X219710000Y-104140000D01*
X219710000Y-104140000D02*
X227330000Y-96520000D01*
X172720000Y-115570000D02*
X180340000Y-115570000D01*
X172720000Y-113030000D02*
X180340000Y-113030000D01*
X219710000Y-109220000D02*
X217170000Y-109220000D01*
X222250000Y-109220000D02*
X227330000Y-114300000D01*
X219710000Y-109220000D02*
X222250000Y-109220000D01*
X209550000Y-95591000D02*
X209550000Y-92710000D01*
X210479000Y-96520000D02*
X209550000Y-95591000D01*
X222250000Y-96520000D02*
X210479000Y-96520000D01*
X218440000Y-123190000D02*
X214630000Y-119380000D01*
X214630000Y-119380000D02*
X212090000Y-119380000D01*
X206921000Y-102870000D02*
X205740000Y-102870000D01*
X224790000Y-96520000D02*
X218440000Y-102870000D01*
X218440000Y-102870000D02*
X206921000Y-102870000D01*
X190500000Y-118110000D02*
X205740000Y-102870000D01*
X180340000Y-107950000D02*
X176530000Y-104140000D01*
X176530000Y-104140000D02*
X172720000Y-107950000D01*
X190500000Y-118110000D02*
X191540272Y-117069728D01*
X191540272Y-117069728D02*
X191540272Y-112530668D01*
X191540272Y-112530668D02*
X186959604Y-107950000D01*
X182221000Y-107950000D02*
X180340000Y-107950000D01*
X186959604Y-107950000D02*
X182221000Y-107950000D01*
X224790000Y-93980000D02*
X222250000Y-93980000D01*
X204599499Y-98930501D02*
X200660000Y-102870000D01*
X217299499Y-98930501D02*
X204599499Y-98930501D01*
X218440000Y-97790000D02*
X217299499Y-98930501D01*
X173990000Y-123190000D02*
X175032924Y-123190000D01*
X175032924Y-123190000D02*
X185192924Y-113030000D01*
X185192924Y-113030000D02*
X190500000Y-113030000D01*
X185420000Y-100330000D02*
X187960000Y-102870000D01*
X185420000Y-97790000D02*
X185420000Y-100330000D01*
X212090000Y-93503635D02*
X212090000Y-92710000D01*
X214136875Y-95550510D02*
X212090000Y-93503635D01*
X215123125Y-95550510D02*
X214136875Y-95550510D01*
X227330000Y-93980000D02*
X226139499Y-92789499D01*
X226139499Y-92789499D02*
X217884136Y-92789499D01*
X217884136Y-92789499D02*
X215123125Y-95550510D01*
X219710000Y-116840000D02*
X217170000Y-116840000D01*
X219710000Y-114300000D02*
X217170000Y-114300000D01*
X213360000Y-107950000D02*
X208280000Y-107950000D01*
X198120000Y-118110000D02*
X198120000Y-116229000D01*
X198120000Y-116229000D02*
X206399000Y-107950000D01*
X206399000Y-107950000D02*
X208280000Y-107950000D01*
X215900000Y-110490000D02*
X217170000Y-111760000D01*
X208280000Y-110490000D02*
X215900000Y-110490000D01*
X219710000Y-111760000D02*
X217170000Y-111760000D01*
X205967076Y-110490000D02*
X208280000Y-110490000D01*
X199519490Y-116937586D02*
X205967076Y-110490000D01*
X199519490Y-119023434D02*
X199519490Y-116937586D01*
X198592414Y-119950510D02*
X199519490Y-119023434D01*
X197420510Y-119950510D02*
X198592414Y-119950510D01*
X195580000Y-118110000D02*
X197420510Y-119950510D01*
X174079000Y-92710000D02*
X184150000Y-92710000D01*
X172720000Y-94069000D02*
X174079000Y-92710000D01*
X172720000Y-95250000D02*
X172720000Y-94069000D01*
X189230000Y-97790000D02*
X198120000Y-97790000D01*
X184150000Y-92710000D02*
X189230000Y-97790000D01*
M02*
