G04 #@! TF.GenerationSoftware,KiCad,Pcbnew,5.1.7-a382d34a8~87~ubuntu20.04.1*
G04 #@! TF.CreationDate,2020-11-07T19:00:24+09:00*
G04 #@! TF.ProjectId,AKBONE2020LGT8F,414b424f-4e45-4323-9032-304c47543846,rev?*
G04 #@! TF.SameCoordinates,Original*
G04 #@! TF.FileFunction,Soldermask,Bot*
G04 #@! TF.FilePolarity,Negative*
%FSLAX46Y46*%
G04 Gerber Fmt 4.6, Leading zero omitted, Abs format (unit mm)*
G04 Created by KiCad (PCBNEW 5.1.7-a382d34a8~87~ubuntu20.04.1) date 2020-11-07 19:00:24*
%MOMM*%
%LPD*%
G01*
G04 APERTURE LIST*
%ADD10C,2.000000*%
%ADD11O,2.600000X2.600000*%
%ADD12O,2.100000X2.100000*%
%ADD13O,2.100000X5.400000*%
%ADD14C,3.900000*%
%ADD15C,1.924000*%
%ADD16O,2.000000X2.000000*%
%ADD17C,1.900000*%
%ADD18O,2.000000X3.400000*%
%ADD19O,3.400000X2.000000*%
%ADD20C,6.100000*%
%ADD21C,0.100000*%
G04 APERTURE END LIST*
G36*
G01*
X171290000Y-126730000D02*
X171290000Y-124730000D01*
G75*
G02*
X171490000Y-124530000I200000J0D01*
G01*
X176490000Y-124530000D01*
G75*
G02*
X176690000Y-124730000I0J-200000D01*
G01*
X176690000Y-126730000D01*
G75*
G02*
X176490000Y-126930000I-200000J0D01*
G01*
X171490000Y-126930000D01*
G75*
G02*
X171290000Y-126730000I0J200000D01*
G01*
G37*
G36*
G01*
X177640000Y-126730000D02*
X177640000Y-124730000D01*
G75*
G02*
X177840000Y-124530000I200000J0D01*
G01*
X182840000Y-124530000D01*
G75*
G02*
X183040000Y-124730000I0J-200000D01*
G01*
X183040000Y-126730000D01*
G75*
G02*
X182840000Y-126930000I-200000J0D01*
G01*
X177840000Y-126930000D01*
G75*
G02*
X177640000Y-126730000I0J200000D01*
G01*
G37*
G36*
G01*
X223790000Y-123990000D02*
X223790000Y-122390000D01*
G75*
G02*
X223990000Y-122190000I200000J0D01*
G01*
X225590000Y-122190000D01*
G75*
G02*
X225790000Y-122390000I0J-200000D01*
G01*
X225790000Y-123990000D01*
G75*
G02*
X225590000Y-124190000I-200000J0D01*
G01*
X223990000Y-124190000D01*
G75*
G02*
X223790000Y-123990000I0J200000D01*
G01*
G37*
D10*
X226790000Y-123190000D03*
G36*
G01*
X182850000Y-93810000D02*
X182850000Y-91610000D01*
G75*
G02*
X183050000Y-91410000I200000J0D01*
G01*
X185250000Y-91410000D01*
G75*
G02*
X185450000Y-91610000I0J-200000D01*
G01*
X185450000Y-93810000D01*
G75*
G02*
X185250000Y-94010000I-200000J0D01*
G01*
X183050000Y-94010000D01*
G75*
G02*
X182850000Y-93810000I0J200000D01*
G01*
G37*
D11*
X194310000Y-92710000D03*
G36*
G01*
X173770000Y-114720000D02*
X173770000Y-116420000D01*
G75*
G02*
X173570000Y-116620000I-200000J0D01*
G01*
X171870000Y-116620000D01*
G75*
G02*
X171670000Y-116420000I0J200000D01*
G01*
X171670000Y-114720000D01*
G75*
G02*
X171870000Y-114520000I200000J0D01*
G01*
X173570000Y-114520000D01*
G75*
G02*
X173770000Y-114720000I0J-200000D01*
G01*
G37*
D12*
X172720000Y-113030000D03*
X172720000Y-110490000D03*
X172720000Y-107950000D03*
X172720000Y-105410000D03*
G36*
G01*
X217590000Y-122140000D02*
X219290000Y-122140000D01*
G75*
G02*
X219490000Y-122340000I0J-200000D01*
G01*
X219490000Y-124040000D01*
G75*
G02*
X219290000Y-124240000I-200000J0D01*
G01*
X217590000Y-124240000D01*
G75*
G02*
X217390000Y-124040000I0J200000D01*
G01*
X217390000Y-122340000D01*
G75*
G02*
X217590000Y-122140000I200000J0D01*
G01*
G37*
X215900000Y-123190000D03*
X213360000Y-123190000D03*
X210820000Y-123190000D03*
X208280000Y-123190000D03*
X205740000Y-123190000D03*
X203200000Y-123190000D03*
X200660000Y-123190000D03*
X198120000Y-123190000D03*
X195580000Y-123190000D03*
X193040000Y-123190000D03*
X190500000Y-123190000D03*
X187960000Y-123190000D03*
G36*
G01*
X210400000Y-95410000D02*
X208700000Y-95410000D01*
G75*
G02*
X208500000Y-95210000I0J200000D01*
G01*
X208500000Y-90210000D01*
G75*
G02*
X208700000Y-90010000I200000J0D01*
G01*
X210400000Y-90010000D01*
G75*
G02*
X210600000Y-90210000I0J-200000D01*
G01*
X210600000Y-95210000D01*
G75*
G02*
X210400000Y-95410000I-200000J0D01*
G01*
G37*
D13*
X212090000Y-92710000D03*
X214630000Y-92710000D03*
D14*
X224620000Y-104230000D03*
X224620000Y-117370000D03*
G36*
G01*
X228092000Y-115262000D02*
X226568000Y-115262000D01*
G75*
G02*
X226368000Y-115062000I0J200000D01*
G01*
X226368000Y-113538000D01*
G75*
G02*
X226568000Y-113338000I200000J0D01*
G01*
X228092000Y-113338000D01*
G75*
G02*
X228292000Y-113538000I0J-200000D01*
G01*
X228292000Y-115062000D01*
G75*
G02*
X228092000Y-115262000I-200000J0D01*
G01*
G37*
D15*
X227330000Y-111800000D03*
X227330000Y-109800000D03*
X227330000Y-107300000D03*
G36*
G01*
X223100000Y-97570000D02*
X221400000Y-97570000D01*
G75*
G02*
X221200000Y-97370000I0J200000D01*
G01*
X221200000Y-95670000D01*
G75*
G02*
X221400000Y-95470000I200000J0D01*
G01*
X223100000Y-95470000D01*
G75*
G02*
X223300000Y-95670000I0J-200000D01*
G01*
X223300000Y-97370000D01*
G75*
G02*
X223100000Y-97570000I-200000J0D01*
G01*
G37*
D12*
X224790000Y-96520000D03*
X227330000Y-96520000D03*
X227330000Y-93980000D03*
X224790000Y-93980000D03*
G36*
G01*
X223100000Y-95030000D02*
X221400000Y-95030000D01*
G75*
G02*
X221200000Y-94830000I0J200000D01*
G01*
X221200000Y-93130000D01*
G75*
G02*
X221400000Y-92930000I200000J0D01*
G01*
X223100000Y-92930000D01*
G75*
G02*
X223300000Y-93130000I0J-200000D01*
G01*
X223300000Y-94830000D01*
G75*
G02*
X223100000Y-95030000I-200000J0D01*
G01*
G37*
D10*
X176530000Y-104140000D03*
D16*
X176530000Y-116840000D03*
X218440000Y-97790000D03*
D10*
X205740000Y-97790000D03*
D17*
X197660000Y-92710000D03*
X199660000Y-92710000D03*
X201660000Y-92710000D03*
X203660000Y-92710000D03*
D18*
X182880000Y-118110000D03*
X185420000Y-118110000D03*
X187960000Y-118110000D03*
X190500000Y-118110000D03*
X193040000Y-118110000D03*
X195580000Y-118110000D03*
X198120000Y-118110000D03*
X200660000Y-118110000D03*
X203200000Y-118110000D03*
X205740000Y-118110000D03*
D19*
X208280000Y-115570000D03*
X208280000Y-113030000D03*
X208280000Y-110490000D03*
X208280000Y-107950000D03*
X208280000Y-105410000D03*
D18*
X205740000Y-102870000D03*
X203200000Y-102870000D03*
X200660000Y-102870000D03*
X198120000Y-102870000D03*
X195580000Y-102870000D03*
X193040000Y-102870000D03*
X190500000Y-102870000D03*
X187960000Y-102870000D03*
X185420000Y-102870000D03*
X182880000Y-102870000D03*
D19*
X180340000Y-105410000D03*
X180340000Y-107950000D03*
X180340000Y-110490000D03*
X180340000Y-113030000D03*
X180340000Y-115570000D03*
G36*
G01*
X218220000Y-115990000D02*
X218220000Y-117690000D01*
G75*
G02*
X218020000Y-117890000I-200000J0D01*
G01*
X216320000Y-117890000D01*
G75*
G02*
X216120000Y-117690000I0J200000D01*
G01*
X216120000Y-115990000D01*
G75*
G02*
X216320000Y-115790000I200000J0D01*
G01*
X218020000Y-115790000D01*
G75*
G02*
X218220000Y-115990000I0J-200000D01*
G01*
G37*
D12*
X219710000Y-116840000D03*
X217170000Y-114300000D03*
X219710000Y-114300000D03*
X217170000Y-111760000D03*
X219710000Y-111760000D03*
X217170000Y-109220000D03*
X219710000Y-109220000D03*
X217170000Y-106680000D03*
X219710000Y-106680000D03*
X217170000Y-104140000D03*
X219710000Y-104140000D03*
D10*
X198120000Y-97790000D03*
D16*
X185420000Y-97790000D03*
G36*
G01*
X171720000Y-96050000D02*
X171720000Y-94450000D01*
G75*
G02*
X171920000Y-94250000I200000J0D01*
G01*
X173520000Y-94250000D01*
G75*
G02*
X173720000Y-94450000I0J-200000D01*
G01*
X173720000Y-96050000D01*
G75*
G02*
X173520000Y-96250000I-200000J0D01*
G01*
X171920000Y-96250000D01*
G75*
G02*
X171720000Y-96050000I0J200000D01*
G01*
G37*
D10*
X179220000Y-95250000D03*
D20*
X173990000Y-123190000D03*
X180340000Y-123190000D03*
D21*
G36*
X225791990Y-122484141D02*
G01*
X225794372Y-122508328D01*
X225801372Y-122531403D01*
X225812737Y-122552667D01*
X225828032Y-122571304D01*
X225846669Y-122586599D01*
X225867933Y-122597964D01*
X225891008Y-122604964D01*
X225914999Y-122607327D01*
X225938990Y-122604964D01*
X225962065Y-122597964D01*
X225983329Y-122586599D01*
X226001966Y-122571304D01*
X226013494Y-122557256D01*
X226015366Y-122556552D01*
X226016912Y-122557820D01*
X226016703Y-122559636D01*
X225909852Y-122719550D01*
X225834984Y-122900297D01*
X225796815Y-123092182D01*
X225796815Y-123287818D01*
X225834984Y-123479703D01*
X225909852Y-123660450D01*
X226016704Y-123820365D01*
X226016835Y-123822361D01*
X226015172Y-123823472D01*
X226013495Y-123822745D01*
X226001964Y-123808695D01*
X225983327Y-123793400D01*
X225962063Y-123782035D01*
X225938988Y-123775035D01*
X225914997Y-123772673D01*
X225891006Y-123775036D01*
X225867931Y-123782037D01*
X225846668Y-123793402D01*
X225828031Y-123808698D01*
X225812736Y-123827335D01*
X225801371Y-123848599D01*
X225794371Y-123871674D01*
X225791990Y-123895859D01*
X225790825Y-123897485D01*
X225788835Y-123897289D01*
X225788000Y-123895663D01*
X225788000Y-122484337D01*
X225789000Y-122482605D01*
X225791000Y-122482605D01*
X225791990Y-122484141D01*
G37*
G36*
X227690543Y-110685823D02*
G01*
X227691308Y-110687671D01*
X227690268Y-110689174D01*
X227674245Y-110697738D01*
X227655608Y-110713033D01*
X227640312Y-110731670D01*
X227628947Y-110752933D01*
X227621947Y-110776008D01*
X227619584Y-110799999D01*
X227621947Y-110823990D01*
X227628947Y-110847065D01*
X227640312Y-110868329D01*
X227655607Y-110886966D01*
X227674244Y-110902262D01*
X227690267Y-110910825D01*
X227691323Y-110912523D01*
X227690380Y-110914287D01*
X227688559Y-110914437D01*
X227608672Y-110881347D01*
X227424093Y-110844632D01*
X227235907Y-110844632D01*
X227051328Y-110881347D01*
X226971440Y-110914438D01*
X226969457Y-110914177D01*
X226968692Y-110912329D01*
X226969732Y-110910826D01*
X226985755Y-110902262D01*
X227004392Y-110886967D01*
X227019688Y-110868330D01*
X227031053Y-110847067D01*
X227038053Y-110823992D01*
X227040416Y-110800001D01*
X227038053Y-110776010D01*
X227031053Y-110752935D01*
X227019688Y-110731671D01*
X227004393Y-110713034D01*
X226985756Y-110697738D01*
X226969733Y-110689175D01*
X226968677Y-110687477D01*
X226969620Y-110685713D01*
X226971441Y-110685563D01*
X227051328Y-110718653D01*
X227235907Y-110755368D01*
X227424093Y-110755368D01*
X227608672Y-110718653D01*
X227688560Y-110685562D01*
X227690543Y-110685823D01*
G37*
G36*
X202774288Y-92380827D02*
G01*
X202774438Y-92382648D01*
X202752831Y-92434812D01*
X202716575Y-92617083D01*
X202716575Y-92802917D01*
X202752831Y-92985188D01*
X202774438Y-93037352D01*
X202774177Y-93039335D01*
X202772329Y-93040100D01*
X202770826Y-93039060D01*
X202762262Y-93023037D01*
X202746966Y-93004400D01*
X202728330Y-92989105D01*
X202707066Y-92977740D01*
X202683991Y-92970740D01*
X202660000Y-92968377D01*
X202636009Y-92970740D01*
X202612934Y-92977740D01*
X202591670Y-92989105D01*
X202573033Y-93004401D01*
X202557738Y-93023037D01*
X202549174Y-93039060D01*
X202547475Y-93040116D01*
X202545712Y-93039173D01*
X202545562Y-93037352D01*
X202567169Y-92985188D01*
X202603425Y-92802917D01*
X202603425Y-92617083D01*
X202567169Y-92434812D01*
X202545562Y-92382648D01*
X202545823Y-92380665D01*
X202547671Y-92379900D01*
X202549174Y-92380940D01*
X202557738Y-92396963D01*
X202573034Y-92415600D01*
X202591670Y-92430895D01*
X202612934Y-92442260D01*
X202636009Y-92449260D01*
X202660000Y-92451623D01*
X202683991Y-92449260D01*
X202707066Y-92442260D01*
X202728330Y-92430895D01*
X202746967Y-92415599D01*
X202762262Y-92396963D01*
X202770826Y-92380940D01*
X202772525Y-92379884D01*
X202774288Y-92380827D01*
G37*
G36*
X200774288Y-92380827D02*
G01*
X200774438Y-92382648D01*
X200752831Y-92434812D01*
X200716575Y-92617083D01*
X200716575Y-92802917D01*
X200752831Y-92985188D01*
X200774438Y-93037352D01*
X200774177Y-93039335D01*
X200772329Y-93040100D01*
X200770826Y-93039060D01*
X200762262Y-93023037D01*
X200746966Y-93004400D01*
X200728330Y-92989105D01*
X200707066Y-92977740D01*
X200683991Y-92970740D01*
X200660000Y-92968377D01*
X200636009Y-92970740D01*
X200612934Y-92977740D01*
X200591670Y-92989105D01*
X200573033Y-93004401D01*
X200557738Y-93023037D01*
X200549174Y-93039060D01*
X200547475Y-93040116D01*
X200545712Y-93039173D01*
X200545562Y-93037352D01*
X200567169Y-92985188D01*
X200603425Y-92802917D01*
X200603425Y-92617083D01*
X200567169Y-92434812D01*
X200545562Y-92382648D01*
X200545823Y-92380665D01*
X200547671Y-92379900D01*
X200549174Y-92380940D01*
X200557738Y-92396963D01*
X200573034Y-92415600D01*
X200591670Y-92430895D01*
X200612934Y-92442260D01*
X200636009Y-92449260D01*
X200660000Y-92451623D01*
X200683991Y-92449260D01*
X200707066Y-92442260D01*
X200728330Y-92430895D01*
X200746967Y-92415599D01*
X200762262Y-92396963D01*
X200770826Y-92380940D01*
X200772525Y-92379884D01*
X200774288Y-92380827D01*
G37*
G36*
X198774288Y-92380827D02*
G01*
X198774438Y-92382648D01*
X198752831Y-92434812D01*
X198716575Y-92617083D01*
X198716575Y-92802917D01*
X198752831Y-92985188D01*
X198774438Y-93037352D01*
X198774177Y-93039335D01*
X198772329Y-93040100D01*
X198770826Y-93039060D01*
X198762262Y-93023037D01*
X198746966Y-93004400D01*
X198728330Y-92989105D01*
X198707066Y-92977740D01*
X198683991Y-92970740D01*
X198660000Y-92968377D01*
X198636009Y-92970740D01*
X198612934Y-92977740D01*
X198591670Y-92989105D01*
X198573033Y-93004401D01*
X198557738Y-93023037D01*
X198549174Y-93039060D01*
X198547475Y-93040116D01*
X198545712Y-93039173D01*
X198545562Y-93037352D01*
X198567169Y-92985188D01*
X198603425Y-92802917D01*
X198603425Y-92617083D01*
X198567169Y-92434812D01*
X198545562Y-92382648D01*
X198545823Y-92380665D01*
X198547671Y-92379900D01*
X198549174Y-92380940D01*
X198557738Y-92396963D01*
X198573034Y-92415600D01*
X198591670Y-92430895D01*
X198612934Y-92442260D01*
X198636009Y-92449260D01*
X198660000Y-92451623D01*
X198683991Y-92449260D01*
X198707066Y-92442260D01*
X198728330Y-92430895D01*
X198746967Y-92415599D01*
X198762262Y-92396963D01*
X198770826Y-92380940D01*
X198772525Y-92379884D01*
X198774288Y-92380827D01*
G37*
M02*
