G04 #@! TF.GenerationSoftware,KiCad,Pcbnew,5.1.7-a382d34a8~87~ubuntu20.04.1*
G04 #@! TF.CreationDate,2020-11-07T19:00:24+09:00*
G04 #@! TF.ProjectId,AKBONE2020LGT8F,414b424f-4e45-4323-9032-304c47543846,rev?*
G04 #@! TF.SameCoordinates,Original*
G04 #@! TF.FileFunction,Legend,Bot*
G04 #@! TF.FilePolarity,Positive*
%FSLAX46Y46*%
G04 Gerber Fmt 4.6, Leading zero omitted, Abs format (unit mm)*
G04 Created by KiCad (PCBNEW 5.1.7-a382d34a8~87~ubuntu20.04.1) date 2020-11-07 19:00:24*
%MOMM*%
%LPD*%
G01*
G04 APERTURE LIST*
%ADD10C,0.250000*%
%ADD11C,0.500000*%
%ADD12C,0.170000*%
%ADD13C,0.200000*%
%ADD14C,0.150000*%
%ADD15C,0.125000*%
%ADD16C,0.002540*%
%ADD17C,0.120000*%
G04 APERTURE END LIST*
D10*
X195857142Y-108672380D02*
X195523809Y-109672380D01*
X195190476Y-108672380D01*
X194476190Y-109624761D02*
X194571428Y-109672380D01*
X194761904Y-109672380D01*
X194857142Y-109624761D01*
X194904761Y-109529523D01*
X194904761Y-109148571D01*
X194857142Y-109053333D01*
X194761904Y-109005714D01*
X194571428Y-109005714D01*
X194476190Y-109053333D01*
X194428571Y-109148571D01*
X194428571Y-109243809D01*
X194904761Y-109339047D01*
X194000000Y-109672380D02*
X194000000Y-109005714D01*
X194000000Y-109196190D02*
X193952380Y-109100952D01*
X193904761Y-109053333D01*
X193809523Y-109005714D01*
X193714285Y-109005714D01*
X193428571Y-108767619D02*
X193380952Y-108720000D01*
X193285714Y-108672380D01*
X193047619Y-108672380D01*
X192952380Y-108720000D01*
X192904761Y-108767619D01*
X192857142Y-108862857D01*
X192857142Y-108958095D01*
X192904761Y-109100952D01*
X193476190Y-109672380D01*
X192857142Y-109672380D01*
X192238095Y-108672380D02*
X192142857Y-108672380D01*
X192047619Y-108720000D01*
X192000000Y-108767619D01*
X191952380Y-108862857D01*
X191904761Y-109053333D01*
X191904761Y-109291428D01*
X191952380Y-109481904D01*
X192000000Y-109577142D01*
X192047619Y-109624761D01*
X192142857Y-109672380D01*
X192238095Y-109672380D01*
X192333333Y-109624761D01*
X192380952Y-109577142D01*
X192428571Y-109481904D01*
X192476190Y-109291428D01*
X192476190Y-109053333D01*
X192428571Y-108862857D01*
X192380952Y-108767619D01*
X192333333Y-108720000D01*
X192238095Y-108672380D01*
X191523809Y-108767619D02*
X191476190Y-108720000D01*
X191380952Y-108672380D01*
X191142857Y-108672380D01*
X191047619Y-108720000D01*
X191000000Y-108767619D01*
X190952380Y-108862857D01*
X190952380Y-108958095D01*
X191000000Y-109100952D01*
X191571428Y-109672380D01*
X190952380Y-109672380D01*
X190333333Y-108672380D02*
X190238095Y-108672380D01*
X190142857Y-108720000D01*
X190095238Y-108767619D01*
X190047619Y-108862857D01*
X190000000Y-109053333D01*
X190000000Y-109291428D01*
X190047619Y-109481904D01*
X190095238Y-109577142D01*
X190142857Y-109624761D01*
X190238095Y-109672380D01*
X190333333Y-109672380D01*
X190428571Y-109624761D01*
X190476190Y-109577142D01*
X190523809Y-109481904D01*
X190571428Y-109291428D01*
X190571428Y-109053333D01*
X190523809Y-108862857D01*
X190476190Y-108767619D01*
X190428571Y-108720000D01*
X190333333Y-108672380D01*
X189047619Y-109672380D02*
X189619047Y-109672380D01*
X189333333Y-109672380D02*
X189333333Y-108672380D01*
X189428571Y-108815238D01*
X189523809Y-108910476D01*
X189619047Y-108958095D01*
X188095238Y-109672380D02*
X188666666Y-109672380D01*
X188380952Y-109672380D02*
X188380952Y-108672380D01*
X188476190Y-108815238D01*
X188571428Y-108910476D01*
X188666666Y-108958095D01*
X187476190Y-108672380D02*
X187380952Y-108672380D01*
X187285714Y-108720000D01*
X187238095Y-108767619D01*
X187190476Y-108862857D01*
X187142857Y-109053333D01*
X187142857Y-109291428D01*
X187190476Y-109481904D01*
X187238095Y-109577142D01*
X187285714Y-109624761D01*
X187380952Y-109672380D01*
X187476190Y-109672380D01*
X187571428Y-109624761D01*
X187619047Y-109577142D01*
X187666666Y-109481904D01*
X187714285Y-109291428D01*
X187714285Y-109053333D01*
X187666666Y-108862857D01*
X187619047Y-108767619D01*
X187571428Y-108720000D01*
X187476190Y-108672380D01*
X186809523Y-108672380D02*
X186142857Y-108672380D01*
X186571428Y-109672380D01*
X185619047Y-109100952D02*
X185714285Y-109053333D01*
X185761904Y-109005714D01*
X185809523Y-108910476D01*
X185809523Y-108862857D01*
X185761904Y-108767619D01*
X185714285Y-108720000D01*
X185619047Y-108672380D01*
X185428571Y-108672380D01*
X185333333Y-108720000D01*
X185285714Y-108767619D01*
X185238095Y-108862857D01*
X185238095Y-108910476D01*
X185285714Y-109005714D01*
X185333333Y-109053333D01*
X185428571Y-109100952D01*
X185619047Y-109100952D01*
X185714285Y-109148571D01*
X185761904Y-109196190D01*
X185809523Y-109291428D01*
X185809523Y-109481904D01*
X185761904Y-109577142D01*
X185714285Y-109624761D01*
X185619047Y-109672380D01*
X185428571Y-109672380D01*
X185333333Y-109624761D01*
X185285714Y-109577142D01*
X185238095Y-109481904D01*
X185238095Y-109291428D01*
X185285714Y-109196190D01*
X185333333Y-109148571D01*
X185428571Y-109100952D01*
D11*
X203595714Y-107013333D02*
X202643333Y-107013333D01*
X203786190Y-107584761D02*
X203119523Y-105584761D01*
X202452857Y-107584761D01*
X201786190Y-107584761D02*
X201786190Y-105584761D01*
X200643333Y-107584761D02*
X201500476Y-106441904D01*
X200643333Y-105584761D02*
X201786190Y-106727619D01*
X199119523Y-106537142D02*
X198833809Y-106632380D01*
X198738571Y-106727619D01*
X198643333Y-106918095D01*
X198643333Y-107203809D01*
X198738571Y-107394285D01*
X198833809Y-107489523D01*
X199024285Y-107584761D01*
X199786190Y-107584761D01*
X199786190Y-105584761D01*
X199119523Y-105584761D01*
X198929047Y-105680000D01*
X198833809Y-105775238D01*
X198738571Y-105965714D01*
X198738571Y-106156190D01*
X198833809Y-106346666D01*
X198929047Y-106441904D01*
X199119523Y-106537142D01*
X199786190Y-106537142D01*
X197405238Y-105584761D02*
X197024285Y-105584761D01*
X196833809Y-105680000D01*
X196643333Y-105870476D01*
X196548095Y-106251428D01*
X196548095Y-106918095D01*
X196643333Y-107299047D01*
X196833809Y-107489523D01*
X197024285Y-107584761D01*
X197405238Y-107584761D01*
X197595714Y-107489523D01*
X197786190Y-107299047D01*
X197881428Y-106918095D01*
X197881428Y-106251428D01*
X197786190Y-105870476D01*
X197595714Y-105680000D01*
X197405238Y-105584761D01*
X195690952Y-107584761D02*
X195690952Y-105584761D01*
X194548095Y-107584761D01*
X194548095Y-105584761D01*
X193595714Y-106537142D02*
X192929047Y-106537142D01*
X192643333Y-107584761D02*
X193595714Y-107584761D01*
X193595714Y-105584761D01*
X192643333Y-105584761D01*
X191881428Y-105775238D02*
X191786190Y-105680000D01*
X191595714Y-105584761D01*
X191119523Y-105584761D01*
X190929047Y-105680000D01*
X190833809Y-105775238D01*
X190738571Y-105965714D01*
X190738571Y-106156190D01*
X190833809Y-106441904D01*
X191976666Y-107584761D01*
X190738571Y-107584761D01*
X189500476Y-105584761D02*
X189310000Y-105584761D01*
X189119523Y-105680000D01*
X189024285Y-105775238D01*
X188929047Y-105965714D01*
X188833809Y-106346666D01*
X188833809Y-106822857D01*
X188929047Y-107203809D01*
X189024285Y-107394285D01*
X189119523Y-107489523D01*
X189310000Y-107584761D01*
X189500476Y-107584761D01*
X189690952Y-107489523D01*
X189786190Y-107394285D01*
X189881428Y-107203809D01*
X189976666Y-106822857D01*
X189976666Y-106346666D01*
X189881428Y-105965714D01*
X189786190Y-105775238D01*
X189690952Y-105680000D01*
X189500476Y-105584761D01*
X188071904Y-105775238D02*
X187976666Y-105680000D01*
X187786190Y-105584761D01*
X187310000Y-105584761D01*
X187119523Y-105680000D01*
X187024285Y-105775238D01*
X186929047Y-105965714D01*
X186929047Y-106156190D01*
X187024285Y-106441904D01*
X188167142Y-107584761D01*
X186929047Y-107584761D01*
X185690952Y-105584761D02*
X185500476Y-105584761D01*
X185310000Y-105680000D01*
X185214761Y-105775238D01*
X185119523Y-105965714D01*
X185024285Y-106346666D01*
X185024285Y-106822857D01*
X185119523Y-107203809D01*
X185214761Y-107394285D01*
X185310000Y-107489523D01*
X185500476Y-107584761D01*
X185690952Y-107584761D01*
X185881428Y-107489523D01*
X185976666Y-107394285D01*
X186071904Y-107203809D01*
X186167142Y-106822857D01*
X186167142Y-106346666D01*
X186071904Y-105965714D01*
X185976666Y-105775238D01*
X185881428Y-105680000D01*
X185690952Y-105584761D01*
D12*
X212445714Y-116432857D02*
X212445714Y-117332857D01*
X212636190Y-117332857D01*
X212750476Y-117290000D01*
X212826666Y-117204285D01*
X212864761Y-117118571D01*
X212902857Y-116947142D01*
X212902857Y-116818571D01*
X212864761Y-116647142D01*
X212826666Y-116561428D01*
X212750476Y-116475714D01*
X212636190Y-116432857D01*
X212445714Y-116432857D01*
X213131428Y-117332857D02*
X213588571Y-117332857D01*
X213360000Y-116432857D02*
X213360000Y-117332857D01*
X214312380Y-116432857D02*
X214045714Y-116861428D01*
X213855238Y-116432857D02*
X213855238Y-117332857D01*
X214160000Y-117332857D01*
X214236190Y-117290000D01*
X214274285Y-117247142D01*
X214312380Y-117161428D01*
X214312380Y-117032857D01*
X214274285Y-116947142D01*
X214236190Y-116904285D01*
X214160000Y-116861428D01*
X213855238Y-116861428D01*
X212826666Y-113892857D02*
X212560000Y-114321428D01*
X212369523Y-113892857D02*
X212369523Y-114792857D01*
X212674285Y-114792857D01*
X212750476Y-114750000D01*
X212788571Y-114707142D01*
X212826666Y-114621428D01*
X212826666Y-114492857D01*
X212788571Y-114407142D01*
X212750476Y-114364285D01*
X212674285Y-114321428D01*
X212369523Y-114321428D01*
X213093333Y-114792857D02*
X213626666Y-113892857D01*
X213626666Y-114792857D02*
X213093333Y-113892857D01*
X213931428Y-113892857D02*
X213931428Y-114792857D01*
X214121904Y-114792857D01*
X214236190Y-114750000D01*
X214312380Y-114664285D01*
X214350476Y-114578571D01*
X214388571Y-114407142D01*
X214388571Y-114278571D01*
X214350476Y-114107142D01*
X214312380Y-114021428D01*
X214236190Y-113935714D01*
X214121904Y-113892857D01*
X213931428Y-113892857D01*
X212331428Y-109155714D02*
X212940952Y-109155714D01*
X212636190Y-108812857D02*
X212636190Y-109498571D01*
X213702857Y-109712857D02*
X213321904Y-109712857D01*
X213283809Y-109284285D01*
X213321904Y-109327142D01*
X213398095Y-109370000D01*
X213588571Y-109370000D01*
X213664761Y-109327142D01*
X213702857Y-109284285D01*
X213740952Y-109198571D01*
X213740952Y-108984285D01*
X213702857Y-108898571D01*
X213664761Y-108855714D01*
X213588571Y-108812857D01*
X213398095Y-108812857D01*
X213321904Y-108855714D01*
X213283809Y-108898571D01*
X213969523Y-109712857D02*
X214236190Y-108812857D01*
X214502857Y-109712857D01*
X212350476Y-112252857D02*
X212807619Y-112252857D01*
X212579047Y-111352857D02*
X212579047Y-112252857D01*
X212998095Y-112252857D02*
X213531428Y-111352857D01*
X213531428Y-112252857D02*
X212998095Y-111352857D01*
X213836190Y-111352857D02*
X213836190Y-112252857D01*
X214026666Y-112252857D01*
X214140952Y-112210000D01*
X214217142Y-112124285D01*
X214255238Y-112038571D01*
X214293333Y-111867142D01*
X214293333Y-111738571D01*
X214255238Y-111567142D01*
X214217142Y-111481428D01*
X214140952Y-111395714D01*
X214026666Y-111352857D01*
X213836190Y-111352857D01*
X212750476Y-107130000D02*
X212674285Y-107172857D01*
X212560000Y-107172857D01*
X212445714Y-107130000D01*
X212369523Y-107044285D01*
X212331428Y-106958571D01*
X212293333Y-106787142D01*
X212293333Y-106658571D01*
X212331428Y-106487142D01*
X212369523Y-106401428D01*
X212445714Y-106315714D01*
X212560000Y-106272857D01*
X212636190Y-106272857D01*
X212750476Y-106315714D01*
X212788571Y-106358571D01*
X212788571Y-106658571D01*
X212636190Y-106658571D01*
X213131428Y-106272857D02*
X213131428Y-107172857D01*
X213588571Y-106272857D01*
X213588571Y-107172857D01*
X213969523Y-106272857D02*
X213969523Y-107172857D01*
X214160000Y-107172857D01*
X214274285Y-107130000D01*
X214350476Y-107044285D01*
X214388571Y-106958571D01*
X214426666Y-106787142D01*
X214426666Y-106658571D01*
X214388571Y-106487142D01*
X214350476Y-106401428D01*
X214274285Y-106315714D01*
X214160000Y-106272857D01*
X213969523Y-106272857D01*
X212369523Y-104632857D02*
X212864761Y-104632857D01*
X212598095Y-104290000D01*
X212712380Y-104290000D01*
X212788571Y-104247142D01*
X212826666Y-104204285D01*
X212864761Y-104118571D01*
X212864761Y-103904285D01*
X212826666Y-103818571D01*
X212788571Y-103775714D01*
X212712380Y-103732857D01*
X212483809Y-103732857D01*
X212407619Y-103775714D01*
X212369523Y-103818571D01*
X213093333Y-104632857D02*
X213360000Y-103732857D01*
X213626666Y-104632857D01*
X213817142Y-104632857D02*
X214312380Y-104632857D01*
X214045714Y-104290000D01*
X214160000Y-104290000D01*
X214236190Y-104247142D01*
X214274285Y-104204285D01*
X214312380Y-104118571D01*
X214312380Y-103904285D01*
X214274285Y-103818571D01*
X214236190Y-103775714D01*
X214160000Y-103732857D01*
X213931428Y-103732857D01*
X213855238Y-103775714D01*
X213817142Y-103818571D01*
D13*
X222440476Y-90947142D02*
X222916666Y-90947142D01*
X222964285Y-91375714D01*
X222916666Y-91332857D01*
X222821428Y-91290000D01*
X222583333Y-91290000D01*
X222488095Y-91332857D01*
X222440476Y-91375714D01*
X222392857Y-91461428D01*
X222392857Y-91675714D01*
X222440476Y-91761428D01*
X222488095Y-91804285D01*
X222583333Y-91847142D01*
X222821428Y-91847142D01*
X222916666Y-91804285D01*
X222964285Y-91761428D01*
X222107142Y-90947142D02*
X221773809Y-91847142D01*
X221440476Y-90947142D01*
X228510952Y-90947142D02*
X228015714Y-90947142D01*
X228282380Y-91290000D01*
X228168095Y-91290000D01*
X228091904Y-91332857D01*
X228053809Y-91375714D01*
X228015714Y-91461428D01*
X228015714Y-91675714D01*
X228053809Y-91761428D01*
X228091904Y-91804285D01*
X228168095Y-91847142D01*
X228396666Y-91847142D01*
X228472857Y-91804285D01*
X228510952Y-91761428D01*
X227672857Y-91761428D02*
X227634761Y-91804285D01*
X227672857Y-91847142D01*
X227710952Y-91804285D01*
X227672857Y-91761428D01*
X227672857Y-91847142D01*
X227368095Y-90947142D02*
X226872857Y-90947142D01*
X227139523Y-91290000D01*
X227025238Y-91290000D01*
X226949047Y-91332857D01*
X226910952Y-91375714D01*
X226872857Y-91461428D01*
X226872857Y-91675714D01*
X226910952Y-91761428D01*
X226949047Y-91804285D01*
X227025238Y-91847142D01*
X227253809Y-91847142D01*
X227330000Y-91804285D01*
X227368095Y-91761428D01*
X226644285Y-90947142D02*
X226377619Y-91847142D01*
X226110952Y-90947142D01*
X226123333Y-89622380D02*
X225790000Y-90622380D01*
X225456666Y-89622380D01*
X224551904Y-90527142D02*
X224599523Y-90574761D01*
X224742380Y-90622380D01*
X224837619Y-90622380D01*
X224980476Y-90574761D01*
X225075714Y-90479523D01*
X225123333Y-90384285D01*
X225170952Y-90193809D01*
X225170952Y-90050952D01*
X225123333Y-89860476D01*
X225075714Y-89765238D01*
X224980476Y-89670000D01*
X224837619Y-89622380D01*
X224742380Y-89622380D01*
X224599523Y-89670000D01*
X224551904Y-89717619D01*
X223551904Y-90527142D02*
X223599523Y-90574761D01*
X223742380Y-90622380D01*
X223837619Y-90622380D01*
X223980476Y-90574761D01*
X224075714Y-90479523D01*
X224123333Y-90384285D01*
X224170952Y-90193809D01*
X224170952Y-90050952D01*
X224123333Y-89860476D01*
X224075714Y-89765238D01*
X223980476Y-89670000D01*
X223837619Y-89622380D01*
X223742380Y-89622380D01*
X223599523Y-89670000D01*
X223551904Y-89717619D01*
X215239523Y-88450000D02*
X215315714Y-88407142D01*
X215430000Y-88407142D01*
X215544285Y-88450000D01*
X215620476Y-88535714D01*
X215658571Y-88621428D01*
X215696666Y-88792857D01*
X215696666Y-88921428D01*
X215658571Y-89092857D01*
X215620476Y-89178571D01*
X215544285Y-89264285D01*
X215430000Y-89307142D01*
X215353809Y-89307142D01*
X215239523Y-89264285D01*
X215201428Y-89221428D01*
X215201428Y-88921428D01*
X215353809Y-88921428D01*
X214858571Y-89307142D02*
X214858571Y-88407142D01*
X214401428Y-89307142D01*
X214401428Y-88407142D01*
X214020476Y-89307142D02*
X214020476Y-88407142D01*
X213830000Y-88407142D01*
X213715714Y-88450000D01*
X213639523Y-88535714D01*
X213601428Y-88621428D01*
X213563333Y-88792857D01*
X213563333Y-88921428D01*
X213601428Y-89092857D01*
X213639523Y-89178571D01*
X213715714Y-89264285D01*
X213830000Y-89307142D01*
X214020476Y-89307142D01*
X212299523Y-89307142D02*
X212299523Y-88407142D01*
X212109047Y-88407142D01*
X211994761Y-88450000D01*
X211918571Y-88535714D01*
X211880476Y-88621428D01*
X211842380Y-88792857D01*
X211842380Y-88921428D01*
X211880476Y-89092857D01*
X211918571Y-89178571D01*
X211994761Y-89264285D01*
X212109047Y-89307142D01*
X212299523Y-89307142D01*
X210578571Y-88964285D02*
X209969047Y-88964285D01*
X210273809Y-89307142D02*
X210273809Y-88621428D01*
X209207142Y-88407142D02*
X209588095Y-88407142D01*
X209626190Y-88835714D01*
X209588095Y-88792857D01*
X209511904Y-88750000D01*
X209321428Y-88750000D01*
X209245238Y-88792857D01*
X209207142Y-88835714D01*
X209169047Y-88921428D01*
X209169047Y-89135714D01*
X209207142Y-89221428D01*
X209245238Y-89264285D01*
X209321428Y-89307142D01*
X209511904Y-89307142D01*
X209588095Y-89264285D01*
X209626190Y-89221428D01*
X208940476Y-88407142D02*
X208673809Y-89307142D01*
X208407142Y-88407142D01*
X215090000Y-88082380D02*
X215090000Y-87082380D01*
X214518571Y-88082380D01*
X214518571Y-87082380D01*
X213661428Y-88034761D02*
X213756666Y-88082380D01*
X213947142Y-88082380D01*
X214042380Y-88034761D01*
X214090000Y-87939523D01*
X214090000Y-87558571D01*
X214042380Y-87463333D01*
X213947142Y-87415714D01*
X213756666Y-87415714D01*
X213661428Y-87463333D01*
X213613809Y-87558571D01*
X213613809Y-87653809D01*
X214090000Y-87749047D01*
X213042380Y-88082380D02*
X213137619Y-88034761D01*
X213185238Y-87987142D01*
X213232857Y-87891904D01*
X213232857Y-87606190D01*
X213185238Y-87510952D01*
X213137619Y-87463333D01*
X213042380Y-87415714D01*
X212899523Y-87415714D01*
X212804285Y-87463333D01*
X212756666Y-87510952D01*
X212709047Y-87606190D01*
X212709047Y-87891904D01*
X212756666Y-87987142D01*
X212804285Y-88034761D01*
X212899523Y-88082380D01*
X213042380Y-88082380D01*
X212280476Y-88082380D02*
X212280476Y-87082380D01*
X211899523Y-87082380D01*
X211804285Y-87130000D01*
X211756666Y-87177619D01*
X211709047Y-87272857D01*
X211709047Y-87415714D01*
X211756666Y-87510952D01*
X211804285Y-87558571D01*
X211899523Y-87606190D01*
X212280476Y-87606190D01*
X211280476Y-88082380D02*
X211280476Y-87415714D01*
X211280476Y-87082380D02*
X211328095Y-87130000D01*
X211280476Y-87177619D01*
X211232857Y-87130000D01*
X211280476Y-87082380D01*
X211280476Y-87177619D01*
X210899523Y-88082380D02*
X210375714Y-87415714D01*
X210899523Y-87415714D02*
X210375714Y-88082380D01*
X209613809Y-88034761D02*
X209709047Y-88082380D01*
X209899523Y-88082380D01*
X209994761Y-88034761D01*
X210042380Y-87939523D01*
X210042380Y-87558571D01*
X209994761Y-87463333D01*
X209899523Y-87415714D01*
X209709047Y-87415714D01*
X209613809Y-87463333D01*
X209566190Y-87558571D01*
X209566190Y-87653809D01*
X210042380Y-87749047D01*
X208994761Y-88082380D02*
X209090000Y-88034761D01*
X209137619Y-87939523D01*
X209137619Y-87082380D01*
X202302857Y-87130000D02*
X202398095Y-87082380D01*
X202540952Y-87082380D01*
X202683809Y-87130000D01*
X202779047Y-87225238D01*
X202826666Y-87320476D01*
X202874285Y-87510952D01*
X202874285Y-87653809D01*
X202826666Y-87844285D01*
X202779047Y-87939523D01*
X202683809Y-88034761D01*
X202540952Y-88082380D01*
X202445714Y-88082380D01*
X202302857Y-88034761D01*
X202255238Y-87987142D01*
X202255238Y-87653809D01*
X202445714Y-87653809D01*
X201255238Y-88082380D02*
X201588571Y-87606190D01*
X201826666Y-88082380D02*
X201826666Y-87082380D01*
X201445714Y-87082380D01*
X201350476Y-87130000D01*
X201302857Y-87177619D01*
X201255238Y-87272857D01*
X201255238Y-87415714D01*
X201302857Y-87510952D01*
X201350476Y-87558571D01*
X201445714Y-87606190D01*
X201826666Y-87606190D01*
X200636190Y-87082380D02*
X200445714Y-87082380D01*
X200350476Y-87130000D01*
X200255238Y-87225238D01*
X200207619Y-87415714D01*
X200207619Y-87749047D01*
X200255238Y-87939523D01*
X200350476Y-88034761D01*
X200445714Y-88082380D01*
X200636190Y-88082380D01*
X200731428Y-88034761D01*
X200826666Y-87939523D01*
X200874285Y-87749047D01*
X200874285Y-87415714D01*
X200826666Y-87225238D01*
X200731428Y-87130000D01*
X200636190Y-87082380D01*
X199921904Y-87082380D02*
X199588571Y-88082380D01*
X199255238Y-87082380D01*
X198921904Y-87558571D02*
X198588571Y-87558571D01*
X198445714Y-88082380D02*
X198921904Y-88082380D01*
X198921904Y-87082380D01*
X198445714Y-87082380D01*
D14*
X205682857Y-126413333D02*
X205625714Y-126446666D01*
X205597142Y-126480000D01*
X205568571Y-126546666D01*
X205568571Y-126580000D01*
X205597142Y-126646666D01*
X205625714Y-126680000D01*
X205682857Y-126713333D01*
X205797142Y-126713333D01*
X205854285Y-126680000D01*
X205882857Y-126646666D01*
X205911428Y-126580000D01*
X205911428Y-126546666D01*
X205882857Y-126480000D01*
X205854285Y-126446666D01*
X205797142Y-126413333D01*
X205682857Y-126413333D01*
X205625714Y-126380000D01*
X205597142Y-126346666D01*
X205568571Y-126280000D01*
X205568571Y-126146666D01*
X205597142Y-126080000D01*
X205625714Y-126046666D01*
X205682857Y-126013333D01*
X205797142Y-126013333D01*
X205854285Y-126046666D01*
X205882857Y-126080000D01*
X205911428Y-126146666D01*
X205911428Y-126280000D01*
X205882857Y-126346666D01*
X205854285Y-126380000D01*
X205797142Y-126413333D01*
X204640000Y-124813333D02*
X204754285Y-124813333D01*
X204811428Y-124846666D01*
X204840000Y-124880000D01*
X204897142Y-124980000D01*
X204925714Y-125113333D01*
X204925714Y-125380000D01*
X204897142Y-125446666D01*
X204868571Y-125480000D01*
X204811428Y-125513333D01*
X204697142Y-125513333D01*
X204640000Y-125480000D01*
X204611428Y-125446666D01*
X204582857Y-125380000D01*
X204582857Y-125213333D01*
X204611428Y-125146666D01*
X204640000Y-125113333D01*
X204697142Y-125080000D01*
X204811428Y-125080000D01*
X204868571Y-125113333D01*
X204897142Y-125146666D01*
X204925714Y-125213333D01*
X205182857Y-124813333D02*
X205182857Y-125513333D01*
X205411428Y-125513333D01*
X205468571Y-125480000D01*
X205497142Y-125446666D01*
X205525714Y-125380000D01*
X205525714Y-125280000D01*
X205497142Y-125213333D01*
X205468571Y-125180000D01*
X205411428Y-125146666D01*
X205182857Y-125146666D01*
X205725714Y-125513333D02*
X205868571Y-124813333D01*
X205982857Y-125313333D01*
X206097142Y-124813333D01*
X206240000Y-125513333D01*
X206468571Y-124813333D02*
X206468571Y-125513333D01*
X206668571Y-125013333D01*
X206868571Y-125513333D01*
X206868571Y-124813333D01*
X190071428Y-126213333D02*
X190357142Y-126213333D01*
X190014285Y-126013333D02*
X190214285Y-126713333D01*
X190414285Y-126013333D01*
X190871428Y-126480000D02*
X190871428Y-126013333D01*
X190728571Y-126746666D02*
X190585714Y-126246666D01*
X190957142Y-126246666D01*
X189771428Y-124846666D02*
X189857142Y-124813333D01*
X190000000Y-124813333D01*
X190057142Y-124846666D01*
X190085714Y-124880000D01*
X190114285Y-124946666D01*
X190114285Y-125013333D01*
X190085714Y-125080000D01*
X190057142Y-125113333D01*
X190000000Y-125146666D01*
X189885714Y-125180000D01*
X189828571Y-125213333D01*
X189800000Y-125246666D01*
X189771428Y-125313333D01*
X189771428Y-125380000D01*
X189800000Y-125446666D01*
X189828571Y-125480000D01*
X189885714Y-125513333D01*
X190028571Y-125513333D01*
X190114285Y-125480000D01*
X190371428Y-124813333D02*
X190371428Y-125513333D01*
X190514285Y-125513333D01*
X190600000Y-125480000D01*
X190657142Y-125413333D01*
X190685714Y-125346666D01*
X190714285Y-125213333D01*
X190714285Y-125113333D01*
X190685714Y-124980000D01*
X190657142Y-124913333D01*
X190600000Y-124846666D01*
X190514285Y-124813333D01*
X190371428Y-124813333D01*
X190942857Y-125013333D02*
X191228571Y-125013333D01*
X190885714Y-124813333D02*
X191085714Y-125513333D01*
X191285714Y-124813333D01*
X187531428Y-126213333D02*
X187817142Y-126213333D01*
X187474285Y-126013333D02*
X187674285Y-126713333D01*
X187874285Y-126013333D01*
X188360000Y-126713333D02*
X188074285Y-126713333D01*
X188045714Y-126380000D01*
X188074285Y-126413333D01*
X188131428Y-126446666D01*
X188274285Y-126446666D01*
X188331428Y-126413333D01*
X188360000Y-126380000D01*
X188388571Y-126313333D01*
X188388571Y-126146666D01*
X188360000Y-126080000D01*
X188331428Y-126046666D01*
X188274285Y-126013333D01*
X188131428Y-126013333D01*
X188074285Y-126046666D01*
X188045714Y-126080000D01*
X187245714Y-124846666D02*
X187331428Y-124813333D01*
X187474285Y-124813333D01*
X187531428Y-124846666D01*
X187560000Y-124880000D01*
X187588571Y-124946666D01*
X187588571Y-125013333D01*
X187560000Y-125080000D01*
X187531428Y-125113333D01*
X187474285Y-125146666D01*
X187360000Y-125180000D01*
X187302857Y-125213333D01*
X187274285Y-125246666D01*
X187245714Y-125313333D01*
X187245714Y-125380000D01*
X187274285Y-125446666D01*
X187302857Y-125480000D01*
X187360000Y-125513333D01*
X187502857Y-125513333D01*
X187588571Y-125480000D01*
X187845714Y-124813333D02*
X187845714Y-125513333D01*
X187988571Y-125513333D01*
X188074285Y-125480000D01*
X188131428Y-125413333D01*
X188160000Y-125346666D01*
X188188571Y-125213333D01*
X188188571Y-125113333D01*
X188160000Y-124980000D01*
X188131428Y-124913333D01*
X188074285Y-124846666D01*
X187988571Y-124813333D01*
X187845714Y-124813333D01*
X188731428Y-124813333D02*
X188445714Y-124813333D01*
X188445714Y-125513333D01*
D12*
X195008571Y-125580000D02*
X195389523Y-125580000D01*
X194932380Y-125322857D02*
X195199047Y-126222857D01*
X195465714Y-125322857D01*
X195884761Y-126222857D02*
X195960952Y-126222857D01*
X196037142Y-126180000D01*
X196075238Y-126137142D01*
X196113333Y-126051428D01*
X196151428Y-125880000D01*
X196151428Y-125665714D01*
X196113333Y-125494285D01*
X196075238Y-125408571D01*
X196037142Y-125365714D01*
X195960952Y-125322857D01*
X195884761Y-125322857D01*
X195808571Y-125365714D01*
X195770476Y-125408571D01*
X195732380Y-125494285D01*
X195694285Y-125665714D01*
X195694285Y-125880000D01*
X195732380Y-126051428D01*
X195770476Y-126137142D01*
X195808571Y-126180000D01*
X195884761Y-126222857D01*
X197967619Y-125322857D02*
X197510476Y-125322857D01*
X197739047Y-125322857D02*
X197739047Y-126222857D01*
X197662857Y-126094285D01*
X197586666Y-126008571D01*
X197510476Y-125965714D01*
X198234285Y-126222857D02*
X198729523Y-126222857D01*
X198462857Y-125880000D01*
X198577142Y-125880000D01*
X198653333Y-125837142D01*
X198691428Y-125794285D01*
X198729523Y-125708571D01*
X198729523Y-125494285D01*
X198691428Y-125408571D01*
X198653333Y-125365714D01*
X198577142Y-125322857D01*
X198348571Y-125322857D01*
X198272380Y-125365714D01*
X198234285Y-125408571D01*
X217373333Y-126222857D02*
X217640000Y-125322857D01*
X217906666Y-126222857D01*
X218630476Y-125408571D02*
X218592380Y-125365714D01*
X218478095Y-125322857D01*
X218401904Y-125322857D01*
X218287619Y-125365714D01*
X218211428Y-125451428D01*
X218173333Y-125537142D01*
X218135238Y-125708571D01*
X218135238Y-125837142D01*
X218173333Y-126008571D01*
X218211428Y-126094285D01*
X218287619Y-126180000D01*
X218401904Y-126222857D01*
X218478095Y-126222857D01*
X218592380Y-126180000D01*
X218630476Y-126137142D01*
X219430476Y-125408571D02*
X219392380Y-125365714D01*
X219278095Y-125322857D01*
X219201904Y-125322857D01*
X219087619Y-125365714D01*
X219011428Y-125451428D01*
X218973333Y-125537142D01*
X218935238Y-125708571D01*
X218935238Y-125837142D01*
X218973333Y-126008571D01*
X219011428Y-126094285D01*
X219087619Y-126180000D01*
X219201904Y-126222857D01*
X219278095Y-126222857D01*
X219392380Y-126180000D01*
X219430476Y-126137142D01*
X192468571Y-125580000D02*
X192849523Y-125580000D01*
X192392380Y-125322857D02*
X192659047Y-126222857D01*
X192925714Y-125322857D01*
X193611428Y-125322857D02*
X193154285Y-125322857D01*
X193382857Y-125322857D02*
X193382857Y-126222857D01*
X193306666Y-126094285D01*
X193230476Y-126008571D01*
X193154285Y-125965714D01*
D15*
X202283333Y-126000833D02*
X201997619Y-126000833D01*
X202140476Y-126000833D02*
X202140476Y-126700833D01*
X202092857Y-126600833D01*
X202045238Y-126534166D01*
X201997619Y-126500833D01*
X202592857Y-126700833D02*
X202640476Y-126700833D01*
X202688095Y-126667500D01*
X202711904Y-126634166D01*
X202735714Y-126567500D01*
X202759523Y-126434166D01*
X202759523Y-126267500D01*
X202735714Y-126134166D01*
X202711904Y-126067500D01*
X202688095Y-126034166D01*
X202640476Y-126000833D01*
X202592857Y-126000833D01*
X202545238Y-126034166D01*
X202521428Y-126067500D01*
X202497619Y-126134166D01*
X202473809Y-126267500D01*
X202473809Y-126434166D01*
X202497619Y-126567500D01*
X202521428Y-126634166D01*
X202545238Y-126667500D01*
X202592857Y-126700833D01*
X202973809Y-126000833D02*
X202973809Y-126700833D01*
X203164285Y-126700833D01*
X203211904Y-126667500D01*
X203235714Y-126634166D01*
X203259523Y-126567500D01*
X203259523Y-126467500D01*
X203235714Y-126400833D01*
X203211904Y-126367500D01*
X203164285Y-126334166D01*
X202973809Y-126334166D01*
X203426190Y-126700833D02*
X203545238Y-126000833D01*
X203640476Y-126500833D01*
X203735714Y-126000833D01*
X203854761Y-126700833D01*
X204045238Y-126000833D02*
X204045238Y-126700833D01*
X204211904Y-126200833D01*
X204378571Y-126700833D01*
X204378571Y-126000833D01*
X202283333Y-124825833D02*
X201997619Y-124825833D01*
X202140476Y-124825833D02*
X202140476Y-125525833D01*
X202092857Y-125425833D01*
X202045238Y-125359166D01*
X201997619Y-125325833D01*
X202759523Y-124825833D02*
X202473809Y-124825833D01*
X202616666Y-124825833D02*
X202616666Y-125525833D01*
X202569047Y-125425833D01*
X202521428Y-125359166D01*
X202473809Y-125325833D01*
X202973809Y-124825833D02*
X202973809Y-125525833D01*
X203164285Y-125525833D01*
X203211904Y-125492500D01*
X203235714Y-125459166D01*
X203259523Y-125392500D01*
X203259523Y-125292500D01*
X203235714Y-125225833D01*
X203211904Y-125192500D01*
X203164285Y-125159166D01*
X202973809Y-125159166D01*
X203426190Y-125525833D02*
X203545238Y-124825833D01*
X203640476Y-125325833D01*
X203735714Y-124825833D01*
X203854761Y-125525833D01*
X204045238Y-124825833D02*
X204045238Y-125525833D01*
X204211904Y-125025833D01*
X204378571Y-125525833D01*
X204378571Y-124825833D01*
D12*
X208013333Y-126222857D02*
X208546666Y-126222857D01*
X208203809Y-125322857D01*
X200507619Y-125322857D02*
X200050476Y-125322857D01*
X200279047Y-125322857D02*
X200279047Y-126222857D01*
X200202857Y-126094285D01*
X200126666Y-126008571D01*
X200050476Y-125965714D01*
X200812380Y-126137142D02*
X200850476Y-126180000D01*
X200926666Y-126222857D01*
X201117142Y-126222857D01*
X201193333Y-126180000D01*
X201231428Y-126137142D01*
X201269523Y-126051428D01*
X201269523Y-125965714D01*
X201231428Y-125837142D01*
X200774285Y-125322857D01*
X201269523Y-125322857D01*
X213131428Y-126137142D02*
X213169523Y-126180000D01*
X213245714Y-126222857D01*
X213436190Y-126222857D01*
X213512380Y-126180000D01*
X213550476Y-126137142D01*
X213588571Y-126051428D01*
X213588571Y-125965714D01*
X213550476Y-125837142D01*
X213093333Y-125322857D01*
X213588571Y-125322857D01*
D14*
X209634285Y-126113333D02*
X210005714Y-126113333D01*
X209805714Y-125846666D01*
X209891428Y-125846666D01*
X209948571Y-125813333D01*
X209977142Y-125780000D01*
X210005714Y-125713333D01*
X210005714Y-125546666D01*
X209977142Y-125480000D01*
X209948571Y-125446666D01*
X209891428Y-125413333D01*
X209720000Y-125413333D01*
X209662857Y-125446666D01*
X209634285Y-125480000D01*
X210262857Y-125413333D02*
X210262857Y-126113333D01*
X210491428Y-126113333D01*
X210548571Y-126080000D01*
X210577142Y-126046666D01*
X210605714Y-125980000D01*
X210605714Y-125880000D01*
X210577142Y-125813333D01*
X210548571Y-125780000D01*
X210491428Y-125746666D01*
X210262857Y-125746666D01*
X210805714Y-126113333D02*
X210948571Y-125413333D01*
X211062857Y-125913333D01*
X211177142Y-125413333D01*
X211320000Y-126113333D01*
X211548571Y-125413333D02*
X211548571Y-126113333D01*
X211748571Y-125613333D01*
X211948571Y-126113333D01*
X211948571Y-125413333D01*
D12*
X215290476Y-126180000D02*
X215214285Y-126222857D01*
X215100000Y-126222857D01*
X214985714Y-126180000D01*
X214909523Y-126094285D01*
X214871428Y-126008571D01*
X214833333Y-125837142D01*
X214833333Y-125708571D01*
X214871428Y-125537142D01*
X214909523Y-125451428D01*
X214985714Y-125365714D01*
X215100000Y-125322857D01*
X215176190Y-125322857D01*
X215290476Y-125365714D01*
X215328571Y-125408571D01*
X215328571Y-125708571D01*
X215176190Y-125708571D01*
X215671428Y-125322857D02*
X215671428Y-126222857D01*
X216128571Y-125322857D01*
X216128571Y-126222857D01*
X216509523Y-125322857D02*
X216509523Y-126222857D01*
X216700000Y-126222857D01*
X216814285Y-126180000D01*
X216890476Y-126094285D01*
X216928571Y-126008571D01*
X216966666Y-125837142D01*
X216966666Y-125708571D01*
X216928571Y-125537142D01*
X216890476Y-125451428D01*
X216814285Y-125365714D01*
X216700000Y-125322857D01*
X216509523Y-125322857D01*
D16*
G36*
X201076560Y-114259360D02*
G01*
X201046080Y-114244120D01*
X200982580Y-114203480D01*
X200888600Y-114142520D01*
X200779380Y-114068860D01*
X200667620Y-113992660D01*
X200578720Y-113931700D01*
X200515220Y-113891060D01*
X200487280Y-113878360D01*
X200474580Y-113883440D01*
X200421240Y-113908840D01*
X200345040Y-113946940D01*
X200301860Y-113969800D01*
X200230740Y-114000280D01*
X200197720Y-114005360D01*
X200190100Y-113997740D01*
X200164700Y-113944400D01*
X200126600Y-113852960D01*
X200073260Y-113731040D01*
X200012300Y-113591340D01*
X199948800Y-113438940D01*
X199882760Y-113284000D01*
X199821800Y-113134140D01*
X199768460Y-113002060D01*
X199725280Y-112892840D01*
X199694800Y-112819180D01*
X199684640Y-112786160D01*
X199687180Y-112778540D01*
X199722740Y-112745520D01*
X199783700Y-112699800D01*
X199915780Y-112593120D01*
X200045320Y-112430560D01*
X200124060Y-112245140D01*
X200152000Y-112041940D01*
X200129140Y-111851440D01*
X200052940Y-111668560D01*
X199925940Y-111506000D01*
X199773540Y-111384080D01*
X199593200Y-111305340D01*
X199390000Y-111282480D01*
X199196960Y-111302800D01*
X199011540Y-111376460D01*
X198846440Y-111500920D01*
X198777860Y-111582200D01*
X198681340Y-111747300D01*
X198628000Y-111925100D01*
X198620380Y-111970820D01*
X198630540Y-112166400D01*
X198686420Y-112351820D01*
X198790560Y-112519460D01*
X198932800Y-112656620D01*
X198950580Y-112671860D01*
X199019160Y-112720120D01*
X199062340Y-112755680D01*
X199097900Y-112783620D01*
X198848980Y-113383060D01*
X198808340Y-113477040D01*
X198739760Y-113642140D01*
X198681340Y-113781840D01*
X198633080Y-113893600D01*
X198600060Y-113969800D01*
X198584820Y-114000280D01*
X198582280Y-114000280D01*
X198561960Y-114005360D01*
X198516240Y-113987580D01*
X198432420Y-113946940D01*
X198376540Y-113919000D01*
X198313040Y-113888520D01*
X198285100Y-113878360D01*
X198259700Y-113891060D01*
X198198740Y-113929160D01*
X198109840Y-113990120D01*
X198003160Y-114063780D01*
X197901560Y-114132360D01*
X197807580Y-114193320D01*
X197739000Y-114236500D01*
X197705980Y-114254280D01*
X197700900Y-114254280D01*
X197670420Y-114239040D01*
X197617080Y-114193320D01*
X197535800Y-114117120D01*
X197418960Y-114002820D01*
X197401180Y-113985040D01*
X197307200Y-113888520D01*
X197231000Y-113807240D01*
X197177660Y-113751360D01*
X197159880Y-113723420D01*
X197177660Y-113690400D01*
X197220840Y-113624360D01*
X197281800Y-113527840D01*
X197358000Y-113416080D01*
X197556120Y-113129060D01*
X197446900Y-112857280D01*
X197413880Y-112773460D01*
X197370700Y-112671860D01*
X197340220Y-112600740D01*
X197324980Y-112567720D01*
X197294500Y-112557560D01*
X197220840Y-112539780D01*
X197111620Y-112516920D01*
X196982080Y-112494060D01*
X196860160Y-112471200D01*
X196750940Y-112450880D01*
X196669660Y-112435640D01*
X196634100Y-112428020D01*
X196623940Y-112422940D01*
X196618860Y-112405160D01*
X196613780Y-112367060D01*
X196611240Y-112301020D01*
X196608700Y-112194340D01*
X196608700Y-112041940D01*
X196608700Y-112024160D01*
X196611240Y-111876840D01*
X196613780Y-111762540D01*
X196616320Y-111686340D01*
X196621400Y-111655860D01*
X196656960Y-111648240D01*
X196735700Y-111630460D01*
X196844920Y-111610140D01*
X196977000Y-111584740D01*
X196987160Y-111582200D01*
X197116700Y-111556800D01*
X197228460Y-111533940D01*
X197304660Y-111516160D01*
X197337680Y-111506000D01*
X197345300Y-111495840D01*
X197370700Y-111445040D01*
X197408800Y-111363760D01*
X197451980Y-111264700D01*
X197495160Y-111160560D01*
X197533260Y-111069120D01*
X197558660Y-110998000D01*
X197566280Y-110967520D01*
X197563740Y-110967520D01*
X197545960Y-110934500D01*
X197500240Y-110865920D01*
X197436740Y-110771940D01*
X197358000Y-110660180D01*
X197352920Y-110652560D01*
X197276720Y-110540800D01*
X197215760Y-110446820D01*
X197175120Y-110378240D01*
X197159880Y-110347760D01*
X197185280Y-110314740D01*
X197241160Y-110251240D01*
X197322440Y-110164880D01*
X197421500Y-110068360D01*
X197451980Y-110037880D01*
X197558660Y-109931200D01*
X197634860Y-109862620D01*
X197680580Y-109824520D01*
X197703440Y-109816900D01*
X197705980Y-109816900D01*
X197739000Y-109837220D01*
X197807580Y-109882940D01*
X197904100Y-109948980D01*
X198015860Y-110025180D01*
X198023480Y-110030260D01*
X198135240Y-110106460D01*
X198229220Y-110169960D01*
X198295260Y-110213140D01*
X198323200Y-110230920D01*
X198328280Y-110230920D01*
X198374000Y-110215680D01*
X198452740Y-110187740D01*
X198549260Y-110152180D01*
X198653400Y-110109000D01*
X198744840Y-110070900D01*
X198815960Y-110037880D01*
X198848980Y-110020100D01*
X198848980Y-110017560D01*
X198861680Y-109979460D01*
X198882000Y-109895640D01*
X198904860Y-109781340D01*
X198930260Y-109644180D01*
X198935340Y-109621320D01*
X198960740Y-109489240D01*
X198981060Y-109380020D01*
X198996300Y-109303820D01*
X199003920Y-109273340D01*
X199024240Y-109268260D01*
X199087740Y-109263180D01*
X199186800Y-109260640D01*
X199306180Y-109260640D01*
X199430640Y-109260640D01*
X199555100Y-109263180D01*
X199659240Y-109268260D01*
X199735440Y-109273340D01*
X199765920Y-109278420D01*
X199765920Y-109280960D01*
X199778620Y-109321600D01*
X199796400Y-109405420D01*
X199819260Y-109519720D01*
X199847200Y-109656880D01*
X199852280Y-109682280D01*
X199875140Y-109814360D01*
X199898000Y-109921040D01*
X199913240Y-109997240D01*
X199923400Y-110025180D01*
X199933560Y-110032800D01*
X199989440Y-110055660D01*
X200078340Y-110093760D01*
X200187560Y-110136940D01*
X200441560Y-110241080D01*
X200753980Y-110025180D01*
X200784460Y-110007400D01*
X200896220Y-109931200D01*
X200987660Y-109867700D01*
X201051160Y-109827060D01*
X201079100Y-109811820D01*
X201081640Y-109814360D01*
X201112120Y-109839760D01*
X201173080Y-109898180D01*
X201259440Y-109982000D01*
X201355960Y-110078520D01*
X201429620Y-110152180D01*
X201515980Y-110238540D01*
X201569320Y-110296960D01*
X201599800Y-110335060D01*
X201609960Y-110357920D01*
X201607420Y-110373160D01*
X201587100Y-110406180D01*
X201541380Y-110474760D01*
X201477880Y-110568740D01*
X201401680Y-110680500D01*
X201338180Y-110771940D01*
X201272140Y-110876080D01*
X201226420Y-110952280D01*
X201211180Y-110987840D01*
X201216260Y-111003080D01*
X201236580Y-111064040D01*
X201274680Y-111158020D01*
X201320400Y-111267240D01*
X201429620Y-111513620D01*
X201592180Y-111546640D01*
X201691240Y-111564420D01*
X201828400Y-111589820D01*
X201957940Y-111615220D01*
X202163680Y-111655860D01*
X202171300Y-112407700D01*
X202140820Y-112422940D01*
X202110340Y-112430560D01*
X202034140Y-112448340D01*
X201924920Y-112468660D01*
X201797920Y-112494060D01*
X201688700Y-112514380D01*
X201576940Y-112534700D01*
X201498200Y-112549940D01*
X201462640Y-112557560D01*
X201455020Y-112567720D01*
X201427080Y-112621060D01*
X201388980Y-112707420D01*
X201345800Y-112809020D01*
X201300080Y-112913160D01*
X201261980Y-113012220D01*
X201234040Y-113085880D01*
X201223880Y-113123980D01*
X201239120Y-113151920D01*
X201282300Y-113217960D01*
X201343260Y-113309400D01*
X201416920Y-113418620D01*
X201490580Y-113527840D01*
X201554080Y-113621820D01*
X201597260Y-113687860D01*
X201617580Y-113718340D01*
X201607420Y-113741200D01*
X201564240Y-113792000D01*
X201480420Y-113878360D01*
X201358500Y-114000280D01*
X201338180Y-114018060D01*
X201241660Y-114112040D01*
X201157840Y-114188240D01*
X201101960Y-114239040D01*
X201076560Y-114259360D01*
G37*
X201076560Y-114259360D02*
X201046080Y-114244120D01*
X200982580Y-114203480D01*
X200888600Y-114142520D01*
X200779380Y-114068860D01*
X200667620Y-113992660D01*
X200578720Y-113931700D01*
X200515220Y-113891060D01*
X200487280Y-113878360D01*
X200474580Y-113883440D01*
X200421240Y-113908840D01*
X200345040Y-113946940D01*
X200301860Y-113969800D01*
X200230740Y-114000280D01*
X200197720Y-114005360D01*
X200190100Y-113997740D01*
X200164700Y-113944400D01*
X200126600Y-113852960D01*
X200073260Y-113731040D01*
X200012300Y-113591340D01*
X199948800Y-113438940D01*
X199882760Y-113284000D01*
X199821800Y-113134140D01*
X199768460Y-113002060D01*
X199725280Y-112892840D01*
X199694800Y-112819180D01*
X199684640Y-112786160D01*
X199687180Y-112778540D01*
X199722740Y-112745520D01*
X199783700Y-112699800D01*
X199915780Y-112593120D01*
X200045320Y-112430560D01*
X200124060Y-112245140D01*
X200152000Y-112041940D01*
X200129140Y-111851440D01*
X200052940Y-111668560D01*
X199925940Y-111506000D01*
X199773540Y-111384080D01*
X199593200Y-111305340D01*
X199390000Y-111282480D01*
X199196960Y-111302800D01*
X199011540Y-111376460D01*
X198846440Y-111500920D01*
X198777860Y-111582200D01*
X198681340Y-111747300D01*
X198628000Y-111925100D01*
X198620380Y-111970820D01*
X198630540Y-112166400D01*
X198686420Y-112351820D01*
X198790560Y-112519460D01*
X198932800Y-112656620D01*
X198950580Y-112671860D01*
X199019160Y-112720120D01*
X199062340Y-112755680D01*
X199097900Y-112783620D01*
X198848980Y-113383060D01*
X198808340Y-113477040D01*
X198739760Y-113642140D01*
X198681340Y-113781840D01*
X198633080Y-113893600D01*
X198600060Y-113969800D01*
X198584820Y-114000280D01*
X198582280Y-114000280D01*
X198561960Y-114005360D01*
X198516240Y-113987580D01*
X198432420Y-113946940D01*
X198376540Y-113919000D01*
X198313040Y-113888520D01*
X198285100Y-113878360D01*
X198259700Y-113891060D01*
X198198740Y-113929160D01*
X198109840Y-113990120D01*
X198003160Y-114063780D01*
X197901560Y-114132360D01*
X197807580Y-114193320D01*
X197739000Y-114236500D01*
X197705980Y-114254280D01*
X197700900Y-114254280D01*
X197670420Y-114239040D01*
X197617080Y-114193320D01*
X197535800Y-114117120D01*
X197418960Y-114002820D01*
X197401180Y-113985040D01*
X197307200Y-113888520D01*
X197231000Y-113807240D01*
X197177660Y-113751360D01*
X197159880Y-113723420D01*
X197177660Y-113690400D01*
X197220840Y-113624360D01*
X197281800Y-113527840D01*
X197358000Y-113416080D01*
X197556120Y-113129060D01*
X197446900Y-112857280D01*
X197413880Y-112773460D01*
X197370700Y-112671860D01*
X197340220Y-112600740D01*
X197324980Y-112567720D01*
X197294500Y-112557560D01*
X197220840Y-112539780D01*
X197111620Y-112516920D01*
X196982080Y-112494060D01*
X196860160Y-112471200D01*
X196750940Y-112450880D01*
X196669660Y-112435640D01*
X196634100Y-112428020D01*
X196623940Y-112422940D01*
X196618860Y-112405160D01*
X196613780Y-112367060D01*
X196611240Y-112301020D01*
X196608700Y-112194340D01*
X196608700Y-112041940D01*
X196608700Y-112024160D01*
X196611240Y-111876840D01*
X196613780Y-111762540D01*
X196616320Y-111686340D01*
X196621400Y-111655860D01*
X196656960Y-111648240D01*
X196735700Y-111630460D01*
X196844920Y-111610140D01*
X196977000Y-111584740D01*
X196987160Y-111582200D01*
X197116700Y-111556800D01*
X197228460Y-111533940D01*
X197304660Y-111516160D01*
X197337680Y-111506000D01*
X197345300Y-111495840D01*
X197370700Y-111445040D01*
X197408800Y-111363760D01*
X197451980Y-111264700D01*
X197495160Y-111160560D01*
X197533260Y-111069120D01*
X197558660Y-110998000D01*
X197566280Y-110967520D01*
X197563740Y-110967520D01*
X197545960Y-110934500D01*
X197500240Y-110865920D01*
X197436740Y-110771940D01*
X197358000Y-110660180D01*
X197352920Y-110652560D01*
X197276720Y-110540800D01*
X197215760Y-110446820D01*
X197175120Y-110378240D01*
X197159880Y-110347760D01*
X197185280Y-110314740D01*
X197241160Y-110251240D01*
X197322440Y-110164880D01*
X197421500Y-110068360D01*
X197451980Y-110037880D01*
X197558660Y-109931200D01*
X197634860Y-109862620D01*
X197680580Y-109824520D01*
X197703440Y-109816900D01*
X197705980Y-109816900D01*
X197739000Y-109837220D01*
X197807580Y-109882940D01*
X197904100Y-109948980D01*
X198015860Y-110025180D01*
X198023480Y-110030260D01*
X198135240Y-110106460D01*
X198229220Y-110169960D01*
X198295260Y-110213140D01*
X198323200Y-110230920D01*
X198328280Y-110230920D01*
X198374000Y-110215680D01*
X198452740Y-110187740D01*
X198549260Y-110152180D01*
X198653400Y-110109000D01*
X198744840Y-110070900D01*
X198815960Y-110037880D01*
X198848980Y-110020100D01*
X198848980Y-110017560D01*
X198861680Y-109979460D01*
X198882000Y-109895640D01*
X198904860Y-109781340D01*
X198930260Y-109644180D01*
X198935340Y-109621320D01*
X198960740Y-109489240D01*
X198981060Y-109380020D01*
X198996300Y-109303820D01*
X199003920Y-109273340D01*
X199024240Y-109268260D01*
X199087740Y-109263180D01*
X199186800Y-109260640D01*
X199306180Y-109260640D01*
X199430640Y-109260640D01*
X199555100Y-109263180D01*
X199659240Y-109268260D01*
X199735440Y-109273340D01*
X199765920Y-109278420D01*
X199765920Y-109280960D01*
X199778620Y-109321600D01*
X199796400Y-109405420D01*
X199819260Y-109519720D01*
X199847200Y-109656880D01*
X199852280Y-109682280D01*
X199875140Y-109814360D01*
X199898000Y-109921040D01*
X199913240Y-109997240D01*
X199923400Y-110025180D01*
X199933560Y-110032800D01*
X199989440Y-110055660D01*
X200078340Y-110093760D01*
X200187560Y-110136940D01*
X200441560Y-110241080D01*
X200753980Y-110025180D01*
X200784460Y-110007400D01*
X200896220Y-109931200D01*
X200987660Y-109867700D01*
X201051160Y-109827060D01*
X201079100Y-109811820D01*
X201081640Y-109814360D01*
X201112120Y-109839760D01*
X201173080Y-109898180D01*
X201259440Y-109982000D01*
X201355960Y-110078520D01*
X201429620Y-110152180D01*
X201515980Y-110238540D01*
X201569320Y-110296960D01*
X201599800Y-110335060D01*
X201609960Y-110357920D01*
X201607420Y-110373160D01*
X201587100Y-110406180D01*
X201541380Y-110474760D01*
X201477880Y-110568740D01*
X201401680Y-110680500D01*
X201338180Y-110771940D01*
X201272140Y-110876080D01*
X201226420Y-110952280D01*
X201211180Y-110987840D01*
X201216260Y-111003080D01*
X201236580Y-111064040D01*
X201274680Y-111158020D01*
X201320400Y-111267240D01*
X201429620Y-111513620D01*
X201592180Y-111546640D01*
X201691240Y-111564420D01*
X201828400Y-111589820D01*
X201957940Y-111615220D01*
X202163680Y-111655860D01*
X202171300Y-112407700D01*
X202140820Y-112422940D01*
X202110340Y-112430560D01*
X202034140Y-112448340D01*
X201924920Y-112468660D01*
X201797920Y-112494060D01*
X201688700Y-112514380D01*
X201576940Y-112534700D01*
X201498200Y-112549940D01*
X201462640Y-112557560D01*
X201455020Y-112567720D01*
X201427080Y-112621060D01*
X201388980Y-112707420D01*
X201345800Y-112809020D01*
X201300080Y-112913160D01*
X201261980Y-113012220D01*
X201234040Y-113085880D01*
X201223880Y-113123980D01*
X201239120Y-113151920D01*
X201282300Y-113217960D01*
X201343260Y-113309400D01*
X201416920Y-113418620D01*
X201490580Y-113527840D01*
X201554080Y-113621820D01*
X201597260Y-113687860D01*
X201617580Y-113718340D01*
X201607420Y-113741200D01*
X201564240Y-113792000D01*
X201480420Y-113878360D01*
X201358500Y-114000280D01*
X201338180Y-114018060D01*
X201241660Y-114112040D01*
X201157840Y-114188240D01*
X201101960Y-114239040D01*
X201076560Y-114259360D01*
D17*
X222770000Y-118160000D02*
X214230000Y-118160000D01*
X214230000Y-118160000D02*
X214230000Y-103440000D01*
X222770000Y-103440000D02*
X214230000Y-103440000D01*
X228450000Y-118160000D02*
X228450000Y-103440000D01*
X228450000Y-118160000D02*
X226470000Y-118160000D01*
X226470000Y-103440000D02*
X228450000Y-103440000D01*
X229330000Y-114800000D02*
X228830000Y-114300000D01*
X228830000Y-114300000D02*
X229330000Y-113800000D01*
X229330000Y-113800000D02*
X229330000Y-114800000D01*
D14*
X230227619Y-116583333D02*
X229513333Y-116583333D01*
X229370476Y-116630952D01*
X229275238Y-116726190D01*
X229227619Y-116869047D01*
X229227619Y-116964285D01*
X229894285Y-115678571D02*
X229227619Y-115678571D01*
X230275238Y-115916666D02*
X229560952Y-116154761D01*
X229560952Y-115535714D01*
M02*
