M48
; DRILL file {KiCad 5.1.7-a382d34a8~87~ubuntu20.04.1} date Sat Nov  7 19:00:21 2020
; FORMAT={-:-/ absolute / inch / decimal}
; #@! TF.CreationDate,2020-11-07T19:00:21+09:00
; #@! TF.GenerationSoftware,Kicad,Pcbnew,5.1.7-a382d34a8~87~ubuntu20.04.1
; #@! TF.FileFunction,Plated,1,2,PTH
FMAT,2
INCH
T1C0.0300
T2C0.0315
T3C0.0339
T4C0.0362
T5C0.0394
T6C0.0394
T7C0.0433
T8C0.0906
T9C0.1260
%
G90
G05
T1
X7.7819Y-3.65
X7.8606Y-3.65
X7.9394Y-3.65
X8.0181Y-3.65
T2
X6.95Y-4.1
X6.95Y-4.6
X7.3Y-3.85
X7.8Y-3.85
X8.85Y-4.85
X8.9287Y-4.85
X8.1Y-3.85
X8.6Y-3.85
T3
X7.1Y-4.15
X7.1Y-4.25
X7.1Y-4.35
X7.1Y-4.45
X7.1Y-4.55
X7.2Y-4.05
X7.2Y-4.65
X7.3Y-4.05
X7.3Y-4.65
X7.4Y-4.05
X7.4Y-4.65
X7.5Y-4.05
X7.5Y-4.65
X7.6Y-4.05
X7.6Y-4.65
X7.7Y-4.05
X7.7Y-4.65
X7.8Y-4.05
X7.8Y-4.65
X7.9Y-4.05
X7.9Y-4.65
X8.0Y-4.05
X8.0Y-4.65
X8.1Y-4.05
X8.1Y-4.65
X8.2Y-4.15
X8.2Y-4.25
X8.2Y-4.35
X8.2Y-4.45
X8.2Y-4.55
T4
X8.95Y-4.2244
X8.95Y-4.3228
X8.95Y-4.4016
X8.95Y-4.5
T5
X8.75Y-3.7
X8.85Y-3.7
X8.95Y-3.7
X7.4Y-4.85
X7.5Y-4.85
X7.6Y-4.85
X7.7Y-4.85
X7.8Y-4.85
X7.9Y-4.85
X8.0Y-4.85
X8.1Y-4.85
X8.2Y-4.85
X8.3Y-4.85
X8.4Y-4.85
X8.5Y-4.85
X8.6Y-4.85
X8.25Y-3.65
X8.35Y-3.65
X8.45Y-3.65
X6.8Y-4.15
X6.8Y-4.25
X6.8Y-4.35
X6.8Y-4.45
X6.8Y-4.55
X8.75Y-3.8
X8.85Y-3.8
X8.95Y-3.8
X6.8Y-3.75
X7.0559Y-3.75
X8.55Y-4.1
X8.55Y-4.2
X8.55Y-4.3
X8.55Y-4.4
X8.55Y-4.5
X8.55Y-4.6
X8.65Y-4.1
X8.65Y-4.2
X8.65Y-4.3
X8.65Y-4.4
X8.65Y-4.5
X8.65Y-4.6
T6
X7.5Y-4.45
X8.35Y-4.7
X8.4Y-4.25
T7
X7.25Y-3.65
X7.65Y-3.65
T8
X8.8433Y-4.1035
X8.8433Y-4.6209
T9
X6.85Y-4.85
X7.1Y-4.85
T0
M30
