M48
; DRILL file {KiCad 5.1.9-73d0e3b20d~88~ubuntu20.04.1} date Tue Feb  2 19:01:39 2021
; FORMAT={-:-/ absolute / inch / decimal}
; #@! TF.CreationDate,2021-02-02T19:01:39+09:00
; #@! TF.GenerationSoftware,Kicad,Pcbnew,5.1.9-73d0e3b20d~88~ubuntu20.04.1
; #@! TF.FileFunction,Plated,1,2,PTH
FMAT,2
INCH
T1C0.0300
T2C0.0394
%
G90
G05
T1
X8.2283Y-3.0709
X8.2283Y-4.252
X8.2283Y-5.4331
X8.3071Y-3.0709
X8.3071Y-4.252
X8.3071Y-5.4331
X8.3858Y-3.0709
X8.3858Y-4.252
X8.3858Y-5.4331
X8.4646Y-3.0709
X8.4646Y-4.252
X8.4646Y-5.4331
X8.8583Y-3.0709
X8.8583Y-4.252
X8.8583Y-5.4331
X8.937Y-3.0709
X8.937Y-4.252
X8.937Y-5.4331
X9.0157Y-3.0709
X9.0157Y-4.252
X9.0157Y-5.4331
X9.0945Y-3.0709
X9.0945Y-4.252
X9.0945Y-5.4331
X9.4882Y-3.0709
X9.4882Y-4.252
X9.4882Y-5.4331
X9.5669Y-3.0709
X9.5669Y-4.252
X9.5669Y-5.4331
X9.6457Y-3.0709
X9.6457Y-4.252
X9.6457Y-5.4331
X9.7244Y-3.0709
X9.7244Y-4.252
X9.7244Y-5.4331
X10.1181Y-3.0709
X10.1181Y-4.252
X10.1181Y-5.4331
X10.1969Y-3.0709
X10.1969Y-4.252
X10.1969Y-5.4331
X10.2756Y-3.0709
X10.2756Y-4.252
X10.2756Y-5.4331
X10.3543Y-3.0709
X10.3543Y-4.252
X10.3543Y-5.4331
X10.748Y-3.0709
X10.748Y-4.252
X10.748Y-5.4331
X10.8268Y-3.0709
X10.8268Y-4.252
X10.8268Y-5.4331
X10.9055Y-3.0709
X10.9055Y-4.252
X10.9055Y-5.4331
X10.9843Y-3.0709
X10.9843Y-4.252
X10.9843Y-5.4331
X11.378Y-3.0709
X11.378Y-4.252
X11.378Y-5.4331
X11.4567Y-3.0709
X11.4567Y-4.252
X11.4567Y-5.4331
X11.5354Y-3.0709
X11.5354Y-4.252
X11.5354Y-5.4331
X11.6142Y-3.0709
X11.6142Y-4.252
X11.6142Y-5.4331
T2
X8.2504Y-2.4531
X8.2504Y-3.6342
X8.2504Y-4.8153
X8.3504Y-2.4531
X8.3504Y-3.6342
X8.3504Y-4.8153
X8.4504Y-2.4531
X8.4504Y-3.6342
X8.4504Y-4.8153
X8.8803Y-2.4531
X8.8803Y-3.6342
X8.8803Y-4.8153
X8.9803Y-2.4531
X8.9803Y-3.6342
X8.9803Y-4.8153
X9.0803Y-2.4531
X9.0803Y-3.6342
X9.0803Y-4.8153
X9.5102Y-2.4531
X9.5102Y-3.6342
X9.5102Y-4.8153
X9.6102Y-2.4531
X9.6102Y-3.6342
X9.6102Y-4.8153
X9.7102Y-2.4531
X9.7102Y-3.6342
X9.7102Y-4.8153
X10.1402Y-2.4531
X10.1402Y-3.6342
X10.1402Y-4.8153
X10.2402Y-2.4531
X10.2402Y-3.6342
X10.2402Y-4.8153
X10.3402Y-2.4531
X10.3402Y-3.6342
X10.3402Y-4.8153
X10.7701Y-2.4531
X10.7701Y-3.6342
X10.7701Y-4.8153
X10.8701Y-2.4531
X10.8701Y-3.6342
X10.8701Y-4.8153
X10.9701Y-2.4531
X10.9701Y-3.6342
X10.9701Y-4.8153
X11.4Y-2.4531
X11.4Y-3.6342
X11.4Y-4.8153
X11.5Y-2.4531
X11.5Y-3.6342
X11.5Y-4.8153
X11.6Y-2.4531
X11.6Y-3.6342
X11.6Y-4.8153
T0
M30
