M48
; DRILL file {KiCad 5.1.9-73d0e3b20d~88~ubuntu20.04.1} date Tue Feb  2 19:01:39 2021
; FORMAT={-:-/ absolute / inch / decimal}
; #@! TF.CreationDate,2021-02-02T19:01:39+09:00
; #@! TF.GenerationSoftware,Kicad,Pcbnew,5.1.9-73d0e3b20d~88~ubuntu20.04.1
; #@! TF.FileFunction,NonPlated,1,2,NPTH
FMAT,2
INCH
T1C0.1260
%
G90
G05
T1
X8.1299Y-2.313
X8.1299Y-3.4941
X8.1299Y-4.6752
X8.3465Y-2.8346
X8.3465Y-4.0157
X8.3465Y-5.1969
X8.563Y-2.313
X8.563Y-3.4941
X8.563Y-4.6752
X8.7598Y-2.313
X8.7598Y-3.4941
X8.7598Y-4.6752
X8.9764Y-2.8346
X8.9764Y-4.0157
X8.9764Y-5.1969
X9.1929Y-2.313
X9.1929Y-3.4941
X9.1929Y-4.6752
X9.3898Y-2.313
X9.3898Y-3.4941
X9.3898Y-4.6752
X9.6063Y-2.8346
X9.6063Y-4.0157
X9.6063Y-5.1969
X9.8228Y-2.313
X9.8228Y-3.4941
X9.8228Y-4.6752
X10.0197Y-2.313
X10.0197Y-3.4941
X10.0197Y-4.6752
X10.2362Y-2.8346
X10.2362Y-4.0157
X10.2362Y-5.1969
X10.4528Y-2.313
X10.4528Y-3.4941
X10.4528Y-4.6752
X10.6496Y-2.313
X10.6496Y-3.4941
X10.6496Y-4.6752
X10.8661Y-2.8346
X10.8661Y-4.0157
X10.8661Y-5.1969
X11.0827Y-2.313
X11.0827Y-3.4941
X11.0827Y-4.6752
X11.2795Y-2.313
X11.2795Y-3.4941
X11.2795Y-4.6752
X11.4961Y-2.8346
X11.4961Y-4.0157
X11.4961Y-5.1969
X11.7126Y-2.313
X11.7126Y-3.4941
X11.7126Y-4.6752
T0
M30
