G04 #@! TF.GenerationSoftware,KiCad,Pcbnew,5.1.9-73d0e3b20d~88~ubuntu20.04.1*
G04 #@! TF.CreationDate,2021-02-02T19:01:36+09:00*
G04 #@! TF.ProjectId,NeoPixel-Grove,4e656f50-6978-4656-9c2d-47726f76652e,rev?*
G04 #@! TF.SameCoordinates,Original*
G04 #@! TF.FileFunction,Copper,L1,Top*
G04 #@! TF.FilePolarity,Positive*
%FSLAX46Y46*%
G04 Gerber Fmt 4.6, Leading zero omitted, Abs format (unit mm)*
G04 Created by KiCad (PCBNEW 5.1.9-73d0e3b20d~88~ubuntu20.04.1) date 2021-02-02 19:01:36*
%MOMM*%
%LPD*%
G01*
G04 APERTURE LIST*
G04 #@! TA.AperFunction,EtchedComponent*
%ADD10C,0.100000*%
G04 #@! TD*
G04 #@! TA.AperFunction,SMDPad,CuDef*
%ADD11C,0.100000*%
G04 #@! TD*
G04 #@! TA.AperFunction,ComponentPad*
%ADD12C,1.500000*%
G04 #@! TD*
G04 #@! TA.AperFunction,ComponentPad*
%ADD13R,1.700000X5.000000*%
G04 #@! TD*
G04 #@! TA.AperFunction,ComponentPad*
%ADD14O,1.700000X5.000000*%
G04 #@! TD*
G04 #@! TA.AperFunction,Conductor*
%ADD15C,0.250000*%
G04 #@! TD*
G04 #@! TA.AperFunction,Conductor*
%ADD16C,1.270000*%
G04 #@! TD*
G04 #@! TA.AperFunction,Conductor*
%ADD17C,0.508000*%
G04 #@! TD*
G04 #@! TA.AperFunction,Conductor*
%ADD18C,0.381000*%
G04 #@! TD*
G04 APERTURE END LIST*
D10*
G36*
X292250000Y-66700000D02*
G01*
X291750000Y-66700000D01*
X291750000Y-67300000D01*
X292250000Y-67300000D01*
X292250000Y-66700000D01*
G37*
G36*
X244250000Y-66700000D02*
G01*
X243750000Y-66700000D01*
X243750000Y-67300000D01*
X244250000Y-67300000D01*
X244250000Y-66700000D01*
G37*
G36*
X260250000Y-66700000D02*
G01*
X259750000Y-66700000D01*
X259750000Y-67300000D01*
X260250000Y-67300000D01*
X260250000Y-66700000D01*
G37*
G36*
X276250000Y-66700000D02*
G01*
X275750000Y-66700000D01*
X275750000Y-67300000D01*
X276250000Y-67300000D01*
X276250000Y-66700000D01*
G37*
G36*
X212250000Y-66700000D02*
G01*
X211750000Y-66700000D01*
X211750000Y-67300000D01*
X212250000Y-67300000D01*
X212250000Y-66700000D01*
G37*
G36*
X228250000Y-66700000D02*
G01*
X227750000Y-66700000D01*
X227750000Y-67300000D01*
X228250000Y-67300000D01*
X228250000Y-66700000D01*
G37*
G36*
X292250000Y-126700000D02*
G01*
X291750000Y-126700000D01*
X291750000Y-127300000D01*
X292250000Y-127300000D01*
X292250000Y-126700000D01*
G37*
G36*
X244250000Y-126700000D02*
G01*
X243750000Y-126700000D01*
X243750000Y-127300000D01*
X244250000Y-127300000D01*
X244250000Y-126700000D01*
G37*
G36*
X260250000Y-126700000D02*
G01*
X259750000Y-126700000D01*
X259750000Y-127300000D01*
X260250000Y-127300000D01*
X260250000Y-126700000D01*
G37*
G36*
X276250000Y-126700000D02*
G01*
X275750000Y-126700000D01*
X275750000Y-127300000D01*
X276250000Y-127300000D01*
X276250000Y-126700000D01*
G37*
G36*
X228250000Y-126700000D02*
G01*
X227750000Y-126700000D01*
X227750000Y-127300000D01*
X228250000Y-127300000D01*
X228250000Y-126700000D01*
G37*
G36*
X212250000Y-126700000D02*
G01*
X211750000Y-126700000D01*
X211750000Y-127300000D01*
X212250000Y-127300000D01*
X212250000Y-126700000D01*
G37*
G36*
X292250000Y-96700000D02*
G01*
X291750000Y-96700000D01*
X291750000Y-97300000D01*
X292250000Y-97300000D01*
X292250000Y-96700000D01*
G37*
G36*
X276250000Y-96700000D02*
G01*
X275750000Y-96700000D01*
X275750000Y-97300000D01*
X276250000Y-97300000D01*
X276250000Y-96700000D01*
G37*
G36*
X260250000Y-96700000D02*
G01*
X259750000Y-96700000D01*
X259750000Y-97300000D01*
X260250000Y-97300000D01*
X260250000Y-96700000D01*
G37*
G36*
X244250000Y-96700000D02*
G01*
X243750000Y-96700000D01*
X243750000Y-97300000D01*
X244250000Y-97300000D01*
X244250000Y-96700000D01*
G37*
G36*
X228250000Y-96700000D02*
G01*
X227750000Y-96700000D01*
X227750000Y-97300000D01*
X228250000Y-97300000D01*
X228250000Y-96700000D01*
G37*
G36*
X212250000Y-96700000D02*
G01*
X211750000Y-96700000D01*
X211750000Y-97300000D01*
X212250000Y-97300000D01*
X212250000Y-96700000D01*
G37*
G04 #@! TA.AperFunction,SMDPad,CuDef*
D11*
G36*
X291850000Y-67750000D02*
G01*
X291350000Y-67750000D01*
X291350000Y-67749398D01*
X291325466Y-67749398D01*
X291276635Y-67744588D01*
X291228510Y-67735016D01*
X291181555Y-67720772D01*
X291136222Y-67701995D01*
X291092949Y-67678864D01*
X291052150Y-67651604D01*
X291014221Y-67620476D01*
X290979524Y-67585779D01*
X290948396Y-67547850D01*
X290921136Y-67507051D01*
X290898005Y-67463778D01*
X290879228Y-67418445D01*
X290864984Y-67371490D01*
X290855412Y-67323365D01*
X290850602Y-67274534D01*
X290850602Y-67250000D01*
X290850000Y-67250000D01*
X290850000Y-66750000D01*
X290850602Y-66750000D01*
X290850602Y-66725466D01*
X290855412Y-66676635D01*
X290864984Y-66628510D01*
X290879228Y-66581555D01*
X290898005Y-66536222D01*
X290921136Y-66492949D01*
X290948396Y-66452150D01*
X290979524Y-66414221D01*
X291014221Y-66379524D01*
X291052150Y-66348396D01*
X291092949Y-66321136D01*
X291136222Y-66298005D01*
X291181555Y-66279228D01*
X291228510Y-66264984D01*
X291276635Y-66255412D01*
X291325466Y-66250602D01*
X291350000Y-66250602D01*
X291350000Y-66250000D01*
X291850000Y-66250000D01*
X291850000Y-67750000D01*
G37*
G04 #@! TD.AperFunction*
G04 #@! TA.AperFunction,SMDPad,CuDef*
G36*
X292650000Y-66250602D02*
G01*
X292674534Y-66250602D01*
X292723365Y-66255412D01*
X292771490Y-66264984D01*
X292818445Y-66279228D01*
X292863778Y-66298005D01*
X292907051Y-66321136D01*
X292947850Y-66348396D01*
X292985779Y-66379524D01*
X293020476Y-66414221D01*
X293051604Y-66452150D01*
X293078864Y-66492949D01*
X293101995Y-66536222D01*
X293120772Y-66581555D01*
X293135016Y-66628510D01*
X293144588Y-66676635D01*
X293149398Y-66725466D01*
X293149398Y-66750000D01*
X293150000Y-66750000D01*
X293150000Y-67250000D01*
X293149398Y-67250000D01*
X293149398Y-67274534D01*
X293144588Y-67323365D01*
X293135016Y-67371490D01*
X293120772Y-67418445D01*
X293101995Y-67463778D01*
X293078864Y-67507051D01*
X293051604Y-67547850D01*
X293020476Y-67585779D01*
X292985779Y-67620476D01*
X292947850Y-67651604D01*
X292907051Y-67678864D01*
X292863778Y-67701995D01*
X292818445Y-67720772D01*
X292771490Y-67735016D01*
X292723365Y-67744588D01*
X292674534Y-67749398D01*
X292650000Y-67749398D01*
X292650000Y-67750000D01*
X292150000Y-67750000D01*
X292150000Y-66250000D01*
X292650000Y-66250000D01*
X292650000Y-66250602D01*
G37*
G04 #@! TD.AperFunction*
G04 #@! TA.AperFunction,SMDPad,CuDef*
G36*
G01*
X286725000Y-66775000D02*
X287275000Y-66775000D01*
G75*
G02*
X287475000Y-66975000I0J-200000D01*
G01*
X287475000Y-67375000D01*
G75*
G02*
X287275000Y-67575000I-200000J0D01*
G01*
X286725000Y-67575000D01*
G75*
G02*
X286525000Y-67375000I0J200000D01*
G01*
X286525000Y-66975000D01*
G75*
G02*
X286725000Y-66775000I200000J0D01*
G01*
G37*
G04 #@! TD.AperFunction*
G04 #@! TA.AperFunction,SMDPad,CuDef*
G36*
G01*
X286725000Y-68425000D02*
X287275000Y-68425000D01*
G75*
G02*
X287475000Y-68625000I0J-200000D01*
G01*
X287475000Y-69025000D01*
G75*
G02*
X287275000Y-69225000I-200000J0D01*
G01*
X286725000Y-69225000D01*
G75*
G02*
X286525000Y-69025000I0J200000D01*
G01*
X286525000Y-68625000D01*
G75*
G02*
X286725000Y-68425000I200000J0D01*
G01*
G37*
G04 #@! TD.AperFunction*
D12*
X273000000Y-78000000D03*
X275000000Y-78000000D03*
X277000000Y-78000000D03*
X279000000Y-78000000D03*
X263000000Y-78000000D03*
X261000000Y-78000000D03*
X259000000Y-78000000D03*
X257000000Y-78000000D03*
D13*
X246640160Y-62308680D03*
D14*
X244100160Y-62308680D03*
X241560160Y-62308680D03*
G04 #@! TA.AperFunction,SMDPad,CuDef*
G36*
G01*
X238725000Y-71775000D02*
X239275000Y-71775000D01*
G75*
G02*
X239475000Y-71975000I0J-200000D01*
G01*
X239475000Y-72375000D01*
G75*
G02*
X239275000Y-72575000I-200000J0D01*
G01*
X238725000Y-72575000D01*
G75*
G02*
X238525000Y-72375000I0J200000D01*
G01*
X238525000Y-71975000D01*
G75*
G02*
X238725000Y-71775000I200000J0D01*
G01*
G37*
G04 #@! TD.AperFunction*
G04 #@! TA.AperFunction,SMDPad,CuDef*
G36*
G01*
X238725000Y-73425000D02*
X239275000Y-73425000D01*
G75*
G02*
X239475000Y-73625000I0J-200000D01*
G01*
X239475000Y-74025000D01*
G75*
G02*
X239275000Y-74225000I-200000J0D01*
G01*
X238725000Y-74225000D01*
G75*
G02*
X238525000Y-74025000I0J200000D01*
G01*
X238525000Y-73625000D01*
G75*
G02*
X238725000Y-73425000I200000J0D01*
G01*
G37*
G04 #@! TD.AperFunction*
X257560160Y-62308680D03*
X260100160Y-62308680D03*
D13*
X262640160Y-62308680D03*
G04 #@! TA.AperFunction,SMDPad,CuDef*
D11*
G36*
X244650000Y-66250602D02*
G01*
X244674534Y-66250602D01*
X244723365Y-66255412D01*
X244771490Y-66264984D01*
X244818445Y-66279228D01*
X244863778Y-66298005D01*
X244907051Y-66321136D01*
X244947850Y-66348396D01*
X244985779Y-66379524D01*
X245020476Y-66414221D01*
X245051604Y-66452150D01*
X245078864Y-66492949D01*
X245101995Y-66536222D01*
X245120772Y-66581555D01*
X245135016Y-66628510D01*
X245144588Y-66676635D01*
X245149398Y-66725466D01*
X245149398Y-66750000D01*
X245150000Y-66750000D01*
X245150000Y-67250000D01*
X245149398Y-67250000D01*
X245149398Y-67274534D01*
X245144588Y-67323365D01*
X245135016Y-67371490D01*
X245120772Y-67418445D01*
X245101995Y-67463778D01*
X245078864Y-67507051D01*
X245051604Y-67547850D01*
X245020476Y-67585779D01*
X244985779Y-67620476D01*
X244947850Y-67651604D01*
X244907051Y-67678864D01*
X244863778Y-67701995D01*
X244818445Y-67720772D01*
X244771490Y-67735016D01*
X244723365Y-67744588D01*
X244674534Y-67749398D01*
X244650000Y-67749398D01*
X244650000Y-67750000D01*
X244150000Y-67750000D01*
X244150000Y-66250000D01*
X244650000Y-66250000D01*
X244650000Y-66250602D01*
G37*
G04 #@! TD.AperFunction*
G04 #@! TA.AperFunction,SMDPad,CuDef*
G36*
X243850000Y-67750000D02*
G01*
X243350000Y-67750000D01*
X243350000Y-67749398D01*
X243325466Y-67749398D01*
X243276635Y-67744588D01*
X243228510Y-67735016D01*
X243181555Y-67720772D01*
X243136222Y-67701995D01*
X243092949Y-67678864D01*
X243052150Y-67651604D01*
X243014221Y-67620476D01*
X242979524Y-67585779D01*
X242948396Y-67547850D01*
X242921136Y-67507051D01*
X242898005Y-67463778D01*
X242879228Y-67418445D01*
X242864984Y-67371490D01*
X242855412Y-67323365D01*
X242850602Y-67274534D01*
X242850602Y-67250000D01*
X242850000Y-67250000D01*
X242850000Y-66750000D01*
X242850602Y-66750000D01*
X242850602Y-66725466D01*
X242855412Y-66676635D01*
X242864984Y-66628510D01*
X242879228Y-66581555D01*
X242898005Y-66536222D01*
X242921136Y-66492949D01*
X242948396Y-66452150D01*
X242979524Y-66414221D01*
X243014221Y-66379524D01*
X243052150Y-66348396D01*
X243092949Y-66321136D01*
X243136222Y-66298005D01*
X243181555Y-66279228D01*
X243228510Y-66264984D01*
X243276635Y-66255412D01*
X243325466Y-66250602D01*
X243350000Y-66250602D01*
X243350000Y-66250000D01*
X243850000Y-66250000D01*
X243850000Y-67750000D01*
G37*
G04 #@! TD.AperFunction*
G04 #@! TA.AperFunction,SMDPad,CuDef*
G36*
G01*
X238725000Y-68425000D02*
X239275000Y-68425000D01*
G75*
G02*
X239475000Y-68625000I0J-200000D01*
G01*
X239475000Y-69025000D01*
G75*
G02*
X239275000Y-69225000I-200000J0D01*
G01*
X238725000Y-69225000D01*
G75*
G02*
X238525000Y-69025000I0J200000D01*
G01*
X238525000Y-68625000D01*
G75*
G02*
X238725000Y-68425000I200000J0D01*
G01*
G37*
G04 #@! TD.AperFunction*
G04 #@! TA.AperFunction,SMDPad,CuDef*
G36*
G01*
X238725000Y-66775000D02*
X239275000Y-66775000D01*
G75*
G02*
X239475000Y-66975000I0J-200000D01*
G01*
X239475000Y-67375000D01*
G75*
G02*
X239275000Y-67575000I-200000J0D01*
G01*
X238725000Y-67575000D01*
G75*
G02*
X238525000Y-67375000I0J200000D01*
G01*
X238525000Y-66975000D01*
G75*
G02*
X238725000Y-66775000I200000J0D01*
G01*
G37*
G04 #@! TD.AperFunction*
G04 #@! TA.AperFunction,SMDPad,CuDef*
G36*
X259850000Y-67750000D02*
G01*
X259350000Y-67750000D01*
X259350000Y-67749398D01*
X259325466Y-67749398D01*
X259276635Y-67744588D01*
X259228510Y-67735016D01*
X259181555Y-67720772D01*
X259136222Y-67701995D01*
X259092949Y-67678864D01*
X259052150Y-67651604D01*
X259014221Y-67620476D01*
X258979524Y-67585779D01*
X258948396Y-67547850D01*
X258921136Y-67507051D01*
X258898005Y-67463778D01*
X258879228Y-67418445D01*
X258864984Y-67371490D01*
X258855412Y-67323365D01*
X258850602Y-67274534D01*
X258850602Y-67250000D01*
X258850000Y-67250000D01*
X258850000Y-66750000D01*
X258850602Y-66750000D01*
X258850602Y-66725466D01*
X258855412Y-66676635D01*
X258864984Y-66628510D01*
X258879228Y-66581555D01*
X258898005Y-66536222D01*
X258921136Y-66492949D01*
X258948396Y-66452150D01*
X258979524Y-66414221D01*
X259014221Y-66379524D01*
X259052150Y-66348396D01*
X259092949Y-66321136D01*
X259136222Y-66298005D01*
X259181555Y-66279228D01*
X259228510Y-66264984D01*
X259276635Y-66255412D01*
X259325466Y-66250602D01*
X259350000Y-66250602D01*
X259350000Y-66250000D01*
X259850000Y-66250000D01*
X259850000Y-67750000D01*
G37*
G04 #@! TD.AperFunction*
G04 #@! TA.AperFunction,SMDPad,CuDef*
G36*
X260650000Y-66250602D02*
G01*
X260674534Y-66250602D01*
X260723365Y-66255412D01*
X260771490Y-66264984D01*
X260818445Y-66279228D01*
X260863778Y-66298005D01*
X260907051Y-66321136D01*
X260947850Y-66348396D01*
X260985779Y-66379524D01*
X261020476Y-66414221D01*
X261051604Y-66452150D01*
X261078864Y-66492949D01*
X261101995Y-66536222D01*
X261120772Y-66581555D01*
X261135016Y-66628510D01*
X261144588Y-66676635D01*
X261149398Y-66725466D01*
X261149398Y-66750000D01*
X261150000Y-66750000D01*
X261150000Y-67250000D01*
X261149398Y-67250000D01*
X261149398Y-67274534D01*
X261144588Y-67323365D01*
X261135016Y-67371490D01*
X261120772Y-67418445D01*
X261101995Y-67463778D01*
X261078864Y-67507051D01*
X261051604Y-67547850D01*
X261020476Y-67585779D01*
X260985779Y-67620476D01*
X260947850Y-67651604D01*
X260907051Y-67678864D01*
X260863778Y-67701995D01*
X260818445Y-67720772D01*
X260771490Y-67735016D01*
X260723365Y-67744588D01*
X260674534Y-67749398D01*
X260650000Y-67749398D01*
X260650000Y-67750000D01*
X260150000Y-67750000D01*
X260150000Y-66250000D01*
X260650000Y-66250000D01*
X260650000Y-66250602D01*
G37*
G04 #@! TD.AperFunction*
G04 #@! TA.AperFunction,SMDPad,CuDef*
G36*
G01*
X286725000Y-73425000D02*
X287275000Y-73425000D01*
G75*
G02*
X287475000Y-73625000I0J-200000D01*
G01*
X287475000Y-74025000D01*
G75*
G02*
X287275000Y-74225000I-200000J0D01*
G01*
X286725000Y-74225000D01*
G75*
G02*
X286525000Y-74025000I0J200000D01*
G01*
X286525000Y-73625000D01*
G75*
G02*
X286725000Y-73425000I200000J0D01*
G01*
G37*
G04 #@! TD.AperFunction*
G04 #@! TA.AperFunction,SMDPad,CuDef*
G36*
G01*
X286725000Y-71775000D02*
X287275000Y-71775000D01*
G75*
G02*
X287475000Y-71975000I0J-200000D01*
G01*
X287475000Y-72375000D01*
G75*
G02*
X287275000Y-72575000I-200000J0D01*
G01*
X286725000Y-72575000D01*
G75*
G02*
X286525000Y-72375000I0J200000D01*
G01*
X286525000Y-71975000D01*
G75*
G02*
X286725000Y-71775000I200000J0D01*
G01*
G37*
G04 #@! TD.AperFunction*
D12*
X231000000Y-78000000D03*
X229000000Y-78000000D03*
X227000000Y-78000000D03*
X225000000Y-78000000D03*
X209000000Y-78000000D03*
X211000000Y-78000000D03*
X213000000Y-78000000D03*
X215000000Y-78000000D03*
G04 #@! TA.AperFunction,SMDPad,CuDef*
D11*
G36*
X276650000Y-66250602D02*
G01*
X276674534Y-66250602D01*
X276723365Y-66255412D01*
X276771490Y-66264984D01*
X276818445Y-66279228D01*
X276863778Y-66298005D01*
X276907051Y-66321136D01*
X276947850Y-66348396D01*
X276985779Y-66379524D01*
X277020476Y-66414221D01*
X277051604Y-66452150D01*
X277078864Y-66492949D01*
X277101995Y-66536222D01*
X277120772Y-66581555D01*
X277135016Y-66628510D01*
X277144588Y-66676635D01*
X277149398Y-66725466D01*
X277149398Y-66750000D01*
X277150000Y-66750000D01*
X277150000Y-67250000D01*
X277149398Y-67250000D01*
X277149398Y-67274534D01*
X277144588Y-67323365D01*
X277135016Y-67371490D01*
X277120772Y-67418445D01*
X277101995Y-67463778D01*
X277078864Y-67507051D01*
X277051604Y-67547850D01*
X277020476Y-67585779D01*
X276985779Y-67620476D01*
X276947850Y-67651604D01*
X276907051Y-67678864D01*
X276863778Y-67701995D01*
X276818445Y-67720772D01*
X276771490Y-67735016D01*
X276723365Y-67744588D01*
X276674534Y-67749398D01*
X276650000Y-67749398D01*
X276650000Y-67750000D01*
X276150000Y-67750000D01*
X276150000Y-66250000D01*
X276650000Y-66250000D01*
X276650000Y-66250602D01*
G37*
G04 #@! TD.AperFunction*
G04 #@! TA.AperFunction,SMDPad,CuDef*
G36*
X275850000Y-67750000D02*
G01*
X275350000Y-67750000D01*
X275350000Y-67749398D01*
X275325466Y-67749398D01*
X275276635Y-67744588D01*
X275228510Y-67735016D01*
X275181555Y-67720772D01*
X275136222Y-67701995D01*
X275092949Y-67678864D01*
X275052150Y-67651604D01*
X275014221Y-67620476D01*
X274979524Y-67585779D01*
X274948396Y-67547850D01*
X274921136Y-67507051D01*
X274898005Y-67463778D01*
X274879228Y-67418445D01*
X274864984Y-67371490D01*
X274855412Y-67323365D01*
X274850602Y-67274534D01*
X274850602Y-67250000D01*
X274850000Y-67250000D01*
X274850000Y-66750000D01*
X274850602Y-66750000D01*
X274850602Y-66725466D01*
X274855412Y-66676635D01*
X274864984Y-66628510D01*
X274879228Y-66581555D01*
X274898005Y-66536222D01*
X274921136Y-66492949D01*
X274948396Y-66452150D01*
X274979524Y-66414221D01*
X275014221Y-66379524D01*
X275052150Y-66348396D01*
X275092949Y-66321136D01*
X275136222Y-66298005D01*
X275181555Y-66279228D01*
X275228510Y-66264984D01*
X275276635Y-66255412D01*
X275325466Y-66250602D01*
X275350000Y-66250602D01*
X275350000Y-66250000D01*
X275850000Y-66250000D01*
X275850000Y-67750000D01*
G37*
G04 #@! TD.AperFunction*
G04 #@! TA.AperFunction,SMDPad,CuDef*
G36*
G01*
X206725000Y-68425000D02*
X207275000Y-68425000D01*
G75*
G02*
X207475000Y-68625000I0J-200000D01*
G01*
X207475000Y-69025000D01*
G75*
G02*
X207275000Y-69225000I-200000J0D01*
G01*
X206725000Y-69225000D01*
G75*
G02*
X206525000Y-69025000I0J200000D01*
G01*
X206525000Y-68625000D01*
G75*
G02*
X206725000Y-68425000I200000J0D01*
G01*
G37*
G04 #@! TD.AperFunction*
G04 #@! TA.AperFunction,SMDPad,CuDef*
G36*
G01*
X206725000Y-66775000D02*
X207275000Y-66775000D01*
G75*
G02*
X207475000Y-66975000I0J-200000D01*
G01*
X207475000Y-67375000D01*
G75*
G02*
X207275000Y-67575000I-200000J0D01*
G01*
X206725000Y-67575000D01*
G75*
G02*
X206525000Y-67375000I0J200000D01*
G01*
X206525000Y-66975000D01*
G75*
G02*
X206725000Y-66775000I200000J0D01*
G01*
G37*
G04 #@! TD.AperFunction*
D14*
X225560160Y-62308680D03*
X228100160Y-62308680D03*
D13*
X230640160Y-62308680D03*
G04 #@! TA.AperFunction,SMDPad,CuDef*
D11*
G36*
X212650000Y-66250602D02*
G01*
X212674534Y-66250602D01*
X212723365Y-66255412D01*
X212771490Y-66264984D01*
X212818445Y-66279228D01*
X212863778Y-66298005D01*
X212907051Y-66321136D01*
X212947850Y-66348396D01*
X212985779Y-66379524D01*
X213020476Y-66414221D01*
X213051604Y-66452150D01*
X213078864Y-66492949D01*
X213101995Y-66536222D01*
X213120772Y-66581555D01*
X213135016Y-66628510D01*
X213144588Y-66676635D01*
X213149398Y-66725466D01*
X213149398Y-66750000D01*
X213150000Y-66750000D01*
X213150000Y-67250000D01*
X213149398Y-67250000D01*
X213149398Y-67274534D01*
X213144588Y-67323365D01*
X213135016Y-67371490D01*
X213120772Y-67418445D01*
X213101995Y-67463778D01*
X213078864Y-67507051D01*
X213051604Y-67547850D01*
X213020476Y-67585779D01*
X212985779Y-67620476D01*
X212947850Y-67651604D01*
X212907051Y-67678864D01*
X212863778Y-67701995D01*
X212818445Y-67720772D01*
X212771490Y-67735016D01*
X212723365Y-67744588D01*
X212674534Y-67749398D01*
X212650000Y-67749398D01*
X212650000Y-67750000D01*
X212150000Y-67750000D01*
X212150000Y-66250000D01*
X212650000Y-66250000D01*
X212650000Y-66250602D01*
G37*
G04 #@! TD.AperFunction*
G04 #@! TA.AperFunction,SMDPad,CuDef*
G36*
X211850000Y-67750000D02*
G01*
X211350000Y-67750000D01*
X211350000Y-67749398D01*
X211325466Y-67749398D01*
X211276635Y-67744588D01*
X211228510Y-67735016D01*
X211181555Y-67720772D01*
X211136222Y-67701995D01*
X211092949Y-67678864D01*
X211052150Y-67651604D01*
X211014221Y-67620476D01*
X210979524Y-67585779D01*
X210948396Y-67547850D01*
X210921136Y-67507051D01*
X210898005Y-67463778D01*
X210879228Y-67418445D01*
X210864984Y-67371490D01*
X210855412Y-67323365D01*
X210850602Y-67274534D01*
X210850602Y-67250000D01*
X210850000Y-67250000D01*
X210850000Y-66750000D01*
X210850602Y-66750000D01*
X210850602Y-66725466D01*
X210855412Y-66676635D01*
X210864984Y-66628510D01*
X210879228Y-66581555D01*
X210898005Y-66536222D01*
X210921136Y-66492949D01*
X210948396Y-66452150D01*
X210979524Y-66414221D01*
X211014221Y-66379524D01*
X211052150Y-66348396D01*
X211092949Y-66321136D01*
X211136222Y-66298005D01*
X211181555Y-66279228D01*
X211228510Y-66264984D01*
X211276635Y-66255412D01*
X211325466Y-66250602D01*
X211350000Y-66250602D01*
X211350000Y-66250000D01*
X211850000Y-66250000D01*
X211850000Y-67750000D01*
G37*
G04 #@! TD.AperFunction*
D13*
X214640160Y-62308680D03*
D14*
X212100160Y-62308680D03*
X209560160Y-62308680D03*
G04 #@! TA.AperFunction,SMDPad,CuDef*
D11*
G36*
X227850000Y-67750000D02*
G01*
X227350000Y-67750000D01*
X227350000Y-67749398D01*
X227325466Y-67749398D01*
X227276635Y-67744588D01*
X227228510Y-67735016D01*
X227181555Y-67720772D01*
X227136222Y-67701995D01*
X227092949Y-67678864D01*
X227052150Y-67651604D01*
X227014221Y-67620476D01*
X226979524Y-67585779D01*
X226948396Y-67547850D01*
X226921136Y-67507051D01*
X226898005Y-67463778D01*
X226879228Y-67418445D01*
X226864984Y-67371490D01*
X226855412Y-67323365D01*
X226850602Y-67274534D01*
X226850602Y-67250000D01*
X226850000Y-67250000D01*
X226850000Y-66750000D01*
X226850602Y-66750000D01*
X226850602Y-66725466D01*
X226855412Y-66676635D01*
X226864984Y-66628510D01*
X226879228Y-66581555D01*
X226898005Y-66536222D01*
X226921136Y-66492949D01*
X226948396Y-66452150D01*
X226979524Y-66414221D01*
X227014221Y-66379524D01*
X227052150Y-66348396D01*
X227092949Y-66321136D01*
X227136222Y-66298005D01*
X227181555Y-66279228D01*
X227228510Y-66264984D01*
X227276635Y-66255412D01*
X227325466Y-66250602D01*
X227350000Y-66250602D01*
X227350000Y-66250000D01*
X227850000Y-66250000D01*
X227850000Y-67750000D01*
G37*
G04 #@! TD.AperFunction*
G04 #@! TA.AperFunction,SMDPad,CuDef*
G36*
X228650000Y-66250602D02*
G01*
X228674534Y-66250602D01*
X228723365Y-66255412D01*
X228771490Y-66264984D01*
X228818445Y-66279228D01*
X228863778Y-66298005D01*
X228907051Y-66321136D01*
X228947850Y-66348396D01*
X228985779Y-66379524D01*
X229020476Y-66414221D01*
X229051604Y-66452150D01*
X229078864Y-66492949D01*
X229101995Y-66536222D01*
X229120772Y-66581555D01*
X229135016Y-66628510D01*
X229144588Y-66676635D01*
X229149398Y-66725466D01*
X229149398Y-66750000D01*
X229150000Y-66750000D01*
X229150000Y-67250000D01*
X229149398Y-67250000D01*
X229149398Y-67274534D01*
X229144588Y-67323365D01*
X229135016Y-67371490D01*
X229120772Y-67418445D01*
X229101995Y-67463778D01*
X229078864Y-67507051D01*
X229051604Y-67547850D01*
X229020476Y-67585779D01*
X228985779Y-67620476D01*
X228947850Y-67651604D01*
X228907051Y-67678864D01*
X228863778Y-67701995D01*
X228818445Y-67720772D01*
X228771490Y-67735016D01*
X228723365Y-67744588D01*
X228674534Y-67749398D01*
X228650000Y-67749398D01*
X228650000Y-67750000D01*
X228150000Y-67750000D01*
X228150000Y-66250000D01*
X228650000Y-66250000D01*
X228650000Y-66250602D01*
G37*
G04 #@! TD.AperFunction*
G04 #@! TA.AperFunction,SMDPad,CuDef*
G36*
G01*
X222725000Y-73425000D02*
X223275000Y-73425000D01*
G75*
G02*
X223475000Y-73625000I0J-200000D01*
G01*
X223475000Y-74025000D01*
G75*
G02*
X223275000Y-74225000I-200000J0D01*
G01*
X222725000Y-74225000D01*
G75*
G02*
X222525000Y-74025000I0J200000D01*
G01*
X222525000Y-73625000D01*
G75*
G02*
X222725000Y-73425000I200000J0D01*
G01*
G37*
G04 #@! TD.AperFunction*
G04 #@! TA.AperFunction,SMDPad,CuDef*
G36*
G01*
X222725000Y-71775000D02*
X223275000Y-71775000D01*
G75*
G02*
X223475000Y-71975000I0J-200000D01*
G01*
X223475000Y-72375000D01*
G75*
G02*
X223275000Y-72575000I-200000J0D01*
G01*
X222725000Y-72575000D01*
G75*
G02*
X222525000Y-72375000I0J200000D01*
G01*
X222525000Y-71975000D01*
G75*
G02*
X222725000Y-71775000I200000J0D01*
G01*
G37*
G04 #@! TD.AperFunction*
G04 #@! TA.AperFunction,SMDPad,CuDef*
G36*
G01*
X270725000Y-71775000D02*
X271275000Y-71775000D01*
G75*
G02*
X271475000Y-71975000I0J-200000D01*
G01*
X271475000Y-72375000D01*
G75*
G02*
X271275000Y-72575000I-200000J0D01*
G01*
X270725000Y-72575000D01*
G75*
G02*
X270525000Y-72375000I0J200000D01*
G01*
X270525000Y-71975000D01*
G75*
G02*
X270725000Y-71775000I200000J0D01*
G01*
G37*
G04 #@! TD.AperFunction*
G04 #@! TA.AperFunction,SMDPad,CuDef*
G36*
G01*
X270725000Y-73425000D02*
X271275000Y-73425000D01*
G75*
G02*
X271475000Y-73625000I0J-200000D01*
G01*
X271475000Y-74025000D01*
G75*
G02*
X271275000Y-74225000I-200000J0D01*
G01*
X270725000Y-74225000D01*
G75*
G02*
X270525000Y-74025000I0J200000D01*
G01*
X270525000Y-73625000D01*
G75*
G02*
X270725000Y-73425000I200000J0D01*
G01*
G37*
G04 #@! TD.AperFunction*
G04 #@! TA.AperFunction,SMDPad,CuDef*
G36*
G01*
X206725000Y-71775000D02*
X207275000Y-71775000D01*
G75*
G02*
X207475000Y-71975000I0J-200000D01*
G01*
X207475000Y-72375000D01*
G75*
G02*
X207275000Y-72575000I-200000J0D01*
G01*
X206725000Y-72575000D01*
G75*
G02*
X206525000Y-72375000I0J200000D01*
G01*
X206525000Y-71975000D01*
G75*
G02*
X206725000Y-71775000I200000J0D01*
G01*
G37*
G04 #@! TD.AperFunction*
G04 #@! TA.AperFunction,SMDPad,CuDef*
G36*
G01*
X206725000Y-73425000D02*
X207275000Y-73425000D01*
G75*
G02*
X207475000Y-73625000I0J-200000D01*
G01*
X207475000Y-74025000D01*
G75*
G02*
X207275000Y-74225000I-200000J0D01*
G01*
X206725000Y-74225000D01*
G75*
G02*
X206525000Y-74025000I0J200000D01*
G01*
X206525000Y-73625000D01*
G75*
G02*
X206725000Y-73425000I200000J0D01*
G01*
G37*
G04 #@! TD.AperFunction*
G04 #@! TA.AperFunction,SMDPad,CuDef*
G36*
G01*
X222725000Y-66775000D02*
X223275000Y-66775000D01*
G75*
G02*
X223475000Y-66975000I0J-200000D01*
G01*
X223475000Y-67375000D01*
G75*
G02*
X223275000Y-67575000I-200000J0D01*
G01*
X222725000Y-67575000D01*
G75*
G02*
X222525000Y-67375000I0J200000D01*
G01*
X222525000Y-66975000D01*
G75*
G02*
X222725000Y-66775000I200000J0D01*
G01*
G37*
G04 #@! TD.AperFunction*
G04 #@! TA.AperFunction,SMDPad,CuDef*
G36*
G01*
X222725000Y-68425000D02*
X223275000Y-68425000D01*
G75*
G02*
X223475000Y-68625000I0J-200000D01*
G01*
X223475000Y-69025000D01*
G75*
G02*
X223275000Y-69225000I-200000J0D01*
G01*
X222725000Y-69225000D01*
G75*
G02*
X222525000Y-69025000I0J200000D01*
G01*
X222525000Y-68625000D01*
G75*
G02*
X222725000Y-68425000I200000J0D01*
G01*
G37*
G04 #@! TD.AperFunction*
G04 #@! TA.AperFunction,SMDPad,CuDef*
G36*
G01*
X254725000Y-66775000D02*
X255275000Y-66775000D01*
G75*
G02*
X255475000Y-66975000I0J-200000D01*
G01*
X255475000Y-67375000D01*
G75*
G02*
X255275000Y-67575000I-200000J0D01*
G01*
X254725000Y-67575000D01*
G75*
G02*
X254525000Y-67375000I0J200000D01*
G01*
X254525000Y-66975000D01*
G75*
G02*
X254725000Y-66775000I200000J0D01*
G01*
G37*
G04 #@! TD.AperFunction*
G04 #@! TA.AperFunction,SMDPad,CuDef*
G36*
G01*
X254725000Y-68425000D02*
X255275000Y-68425000D01*
G75*
G02*
X255475000Y-68625000I0J-200000D01*
G01*
X255475000Y-69025000D01*
G75*
G02*
X255275000Y-69225000I-200000J0D01*
G01*
X254725000Y-69225000D01*
G75*
G02*
X254525000Y-69025000I0J200000D01*
G01*
X254525000Y-68625000D01*
G75*
G02*
X254725000Y-68425000I200000J0D01*
G01*
G37*
G04 #@! TD.AperFunction*
D13*
X278640160Y-62308680D03*
D14*
X276100160Y-62308680D03*
X273560160Y-62308680D03*
D12*
X241000000Y-78000000D03*
X243000000Y-78000000D03*
X245000000Y-78000000D03*
X247000000Y-78000000D03*
G04 #@! TA.AperFunction,SMDPad,CuDef*
G36*
G01*
X254725000Y-73425000D02*
X255275000Y-73425000D01*
G75*
G02*
X255475000Y-73625000I0J-200000D01*
G01*
X255475000Y-74025000D01*
G75*
G02*
X255275000Y-74225000I-200000J0D01*
G01*
X254725000Y-74225000D01*
G75*
G02*
X254525000Y-74025000I0J200000D01*
G01*
X254525000Y-73625000D01*
G75*
G02*
X254725000Y-73425000I200000J0D01*
G01*
G37*
G04 #@! TD.AperFunction*
G04 #@! TA.AperFunction,SMDPad,CuDef*
G36*
G01*
X254725000Y-71775000D02*
X255275000Y-71775000D01*
G75*
G02*
X255475000Y-71975000I0J-200000D01*
G01*
X255475000Y-72375000D01*
G75*
G02*
X255275000Y-72575000I-200000J0D01*
G01*
X254725000Y-72575000D01*
G75*
G02*
X254525000Y-72375000I0J200000D01*
G01*
X254525000Y-71975000D01*
G75*
G02*
X254725000Y-71775000I200000J0D01*
G01*
G37*
G04 #@! TD.AperFunction*
G04 #@! TA.AperFunction,SMDPad,CuDef*
G36*
G01*
X270725000Y-68425000D02*
X271275000Y-68425000D01*
G75*
G02*
X271475000Y-68625000I0J-200000D01*
G01*
X271475000Y-69025000D01*
G75*
G02*
X271275000Y-69225000I-200000J0D01*
G01*
X270725000Y-69225000D01*
G75*
G02*
X270525000Y-69025000I0J200000D01*
G01*
X270525000Y-68625000D01*
G75*
G02*
X270725000Y-68425000I200000J0D01*
G01*
G37*
G04 #@! TD.AperFunction*
G04 #@! TA.AperFunction,SMDPad,CuDef*
G36*
G01*
X270725000Y-66775000D02*
X271275000Y-66775000D01*
G75*
G02*
X271475000Y-66975000I0J-200000D01*
G01*
X271475000Y-67375000D01*
G75*
G02*
X271275000Y-67575000I-200000J0D01*
G01*
X270725000Y-67575000D01*
G75*
G02*
X270525000Y-67375000I0J200000D01*
G01*
X270525000Y-66975000D01*
G75*
G02*
X270725000Y-66775000I200000J0D01*
G01*
G37*
G04 #@! TD.AperFunction*
X295000000Y-78000000D03*
X293000000Y-78000000D03*
X291000000Y-78000000D03*
X289000000Y-78000000D03*
D14*
X289560160Y-62308680D03*
X292100160Y-62308680D03*
D13*
X294640160Y-62308680D03*
G04 #@! TA.AperFunction,SMDPad,CuDef*
G36*
G01*
X270725000Y-133425000D02*
X271275000Y-133425000D01*
G75*
G02*
X271475000Y-133625000I0J-200000D01*
G01*
X271475000Y-134025000D01*
G75*
G02*
X271275000Y-134225000I-200000J0D01*
G01*
X270725000Y-134225000D01*
G75*
G02*
X270525000Y-134025000I0J200000D01*
G01*
X270525000Y-133625000D01*
G75*
G02*
X270725000Y-133425000I200000J0D01*
G01*
G37*
G04 #@! TD.AperFunction*
G04 #@! TA.AperFunction,SMDPad,CuDef*
G36*
G01*
X270725000Y-131775000D02*
X271275000Y-131775000D01*
G75*
G02*
X271475000Y-131975000I0J-200000D01*
G01*
X271475000Y-132375000D01*
G75*
G02*
X271275000Y-132575000I-200000J0D01*
G01*
X270725000Y-132575000D01*
G75*
G02*
X270525000Y-132375000I0J200000D01*
G01*
X270525000Y-131975000D01*
G75*
G02*
X270725000Y-131775000I200000J0D01*
G01*
G37*
G04 #@! TD.AperFunction*
G04 #@! TA.AperFunction,SMDPad,CuDef*
G36*
G01*
X206725000Y-133425000D02*
X207275000Y-133425000D01*
G75*
G02*
X207475000Y-133625000I0J-200000D01*
G01*
X207475000Y-134025000D01*
G75*
G02*
X207275000Y-134225000I-200000J0D01*
G01*
X206725000Y-134225000D01*
G75*
G02*
X206525000Y-134025000I0J200000D01*
G01*
X206525000Y-133625000D01*
G75*
G02*
X206725000Y-133425000I200000J0D01*
G01*
G37*
G04 #@! TD.AperFunction*
G04 #@! TA.AperFunction,SMDPad,CuDef*
G36*
G01*
X206725000Y-131775000D02*
X207275000Y-131775000D01*
G75*
G02*
X207475000Y-131975000I0J-200000D01*
G01*
X207475000Y-132375000D01*
G75*
G02*
X207275000Y-132575000I-200000J0D01*
G01*
X206725000Y-132575000D01*
G75*
G02*
X206525000Y-132375000I0J200000D01*
G01*
X206525000Y-131975000D01*
G75*
G02*
X206725000Y-131775000I200000J0D01*
G01*
G37*
G04 #@! TD.AperFunction*
G04 #@! TA.AperFunction,SMDPad,CuDef*
G36*
G01*
X222725000Y-128425000D02*
X223275000Y-128425000D01*
G75*
G02*
X223475000Y-128625000I0J-200000D01*
G01*
X223475000Y-129025000D01*
G75*
G02*
X223275000Y-129225000I-200000J0D01*
G01*
X222725000Y-129225000D01*
G75*
G02*
X222525000Y-129025000I0J200000D01*
G01*
X222525000Y-128625000D01*
G75*
G02*
X222725000Y-128425000I200000J0D01*
G01*
G37*
G04 #@! TD.AperFunction*
G04 #@! TA.AperFunction,SMDPad,CuDef*
G36*
G01*
X222725000Y-126775000D02*
X223275000Y-126775000D01*
G75*
G02*
X223475000Y-126975000I0J-200000D01*
G01*
X223475000Y-127375000D01*
G75*
G02*
X223275000Y-127575000I-200000J0D01*
G01*
X222725000Y-127575000D01*
G75*
G02*
X222525000Y-127375000I0J200000D01*
G01*
X222525000Y-126975000D01*
G75*
G02*
X222725000Y-126775000I200000J0D01*
G01*
G37*
G04 #@! TD.AperFunction*
G04 #@! TA.AperFunction,SMDPad,CuDef*
G36*
G01*
X254725000Y-128425000D02*
X255275000Y-128425000D01*
G75*
G02*
X255475000Y-128625000I0J-200000D01*
G01*
X255475000Y-129025000D01*
G75*
G02*
X255275000Y-129225000I-200000J0D01*
G01*
X254725000Y-129225000D01*
G75*
G02*
X254525000Y-129025000I0J200000D01*
G01*
X254525000Y-128625000D01*
G75*
G02*
X254725000Y-128425000I200000J0D01*
G01*
G37*
G04 #@! TD.AperFunction*
G04 #@! TA.AperFunction,SMDPad,CuDef*
G36*
G01*
X254725000Y-126775000D02*
X255275000Y-126775000D01*
G75*
G02*
X255475000Y-126975000I0J-200000D01*
G01*
X255475000Y-127375000D01*
G75*
G02*
X255275000Y-127575000I-200000J0D01*
G01*
X254725000Y-127575000D01*
G75*
G02*
X254525000Y-127375000I0J200000D01*
G01*
X254525000Y-126975000D01*
G75*
G02*
X254725000Y-126775000I200000J0D01*
G01*
G37*
G04 #@! TD.AperFunction*
D14*
X273560160Y-122308680D03*
X276100160Y-122308680D03*
D13*
X278640160Y-122308680D03*
D12*
X247000000Y-138000000D03*
X245000000Y-138000000D03*
X243000000Y-138000000D03*
X241000000Y-138000000D03*
G04 #@! TA.AperFunction,SMDPad,CuDef*
G36*
G01*
X254725000Y-131775000D02*
X255275000Y-131775000D01*
G75*
G02*
X255475000Y-131975000I0J-200000D01*
G01*
X255475000Y-132375000D01*
G75*
G02*
X255275000Y-132575000I-200000J0D01*
G01*
X254725000Y-132575000D01*
G75*
G02*
X254525000Y-132375000I0J200000D01*
G01*
X254525000Y-131975000D01*
G75*
G02*
X254725000Y-131775000I200000J0D01*
G01*
G37*
G04 #@! TD.AperFunction*
G04 #@! TA.AperFunction,SMDPad,CuDef*
G36*
G01*
X254725000Y-133425000D02*
X255275000Y-133425000D01*
G75*
G02*
X255475000Y-133625000I0J-200000D01*
G01*
X255475000Y-134025000D01*
G75*
G02*
X255275000Y-134225000I-200000J0D01*
G01*
X254725000Y-134225000D01*
G75*
G02*
X254525000Y-134025000I0J200000D01*
G01*
X254525000Y-133625000D01*
G75*
G02*
X254725000Y-133425000I200000J0D01*
G01*
G37*
G04 #@! TD.AperFunction*
G04 #@! TA.AperFunction,SMDPad,CuDef*
G36*
G01*
X270725000Y-126775000D02*
X271275000Y-126775000D01*
G75*
G02*
X271475000Y-126975000I0J-200000D01*
G01*
X271475000Y-127375000D01*
G75*
G02*
X271275000Y-127575000I-200000J0D01*
G01*
X270725000Y-127575000D01*
G75*
G02*
X270525000Y-127375000I0J200000D01*
G01*
X270525000Y-126975000D01*
G75*
G02*
X270725000Y-126775000I200000J0D01*
G01*
G37*
G04 #@! TD.AperFunction*
G04 #@! TA.AperFunction,SMDPad,CuDef*
G36*
G01*
X270725000Y-128425000D02*
X271275000Y-128425000D01*
G75*
G02*
X271475000Y-128625000I0J-200000D01*
G01*
X271475000Y-129025000D01*
G75*
G02*
X271275000Y-129225000I-200000J0D01*
G01*
X270725000Y-129225000D01*
G75*
G02*
X270525000Y-129025000I0J200000D01*
G01*
X270525000Y-128625000D01*
G75*
G02*
X270725000Y-128425000I200000J0D01*
G01*
G37*
G04 #@! TD.AperFunction*
X289000000Y-138000000D03*
X291000000Y-138000000D03*
X293000000Y-138000000D03*
X295000000Y-138000000D03*
D13*
X294640160Y-122308680D03*
D14*
X292100160Y-122308680D03*
X289560160Y-122308680D03*
G04 #@! TA.AperFunction,SMDPad,CuDef*
D11*
G36*
X292650000Y-126250602D02*
G01*
X292674534Y-126250602D01*
X292723365Y-126255412D01*
X292771490Y-126264984D01*
X292818445Y-126279228D01*
X292863778Y-126298005D01*
X292907051Y-126321136D01*
X292947850Y-126348396D01*
X292985779Y-126379524D01*
X293020476Y-126414221D01*
X293051604Y-126452150D01*
X293078864Y-126492949D01*
X293101995Y-126536222D01*
X293120772Y-126581555D01*
X293135016Y-126628510D01*
X293144588Y-126676635D01*
X293149398Y-126725466D01*
X293149398Y-126750000D01*
X293150000Y-126750000D01*
X293150000Y-127250000D01*
X293149398Y-127250000D01*
X293149398Y-127274534D01*
X293144588Y-127323365D01*
X293135016Y-127371490D01*
X293120772Y-127418445D01*
X293101995Y-127463778D01*
X293078864Y-127507051D01*
X293051604Y-127547850D01*
X293020476Y-127585779D01*
X292985779Y-127620476D01*
X292947850Y-127651604D01*
X292907051Y-127678864D01*
X292863778Y-127701995D01*
X292818445Y-127720772D01*
X292771490Y-127735016D01*
X292723365Y-127744588D01*
X292674534Y-127749398D01*
X292650000Y-127749398D01*
X292650000Y-127750000D01*
X292150000Y-127750000D01*
X292150000Y-126250000D01*
X292650000Y-126250000D01*
X292650000Y-126250602D01*
G37*
G04 #@! TD.AperFunction*
G04 #@! TA.AperFunction,SMDPad,CuDef*
G36*
X291850000Y-127750000D02*
G01*
X291350000Y-127750000D01*
X291350000Y-127749398D01*
X291325466Y-127749398D01*
X291276635Y-127744588D01*
X291228510Y-127735016D01*
X291181555Y-127720772D01*
X291136222Y-127701995D01*
X291092949Y-127678864D01*
X291052150Y-127651604D01*
X291014221Y-127620476D01*
X290979524Y-127585779D01*
X290948396Y-127547850D01*
X290921136Y-127507051D01*
X290898005Y-127463778D01*
X290879228Y-127418445D01*
X290864984Y-127371490D01*
X290855412Y-127323365D01*
X290850602Y-127274534D01*
X290850602Y-127250000D01*
X290850000Y-127250000D01*
X290850000Y-126750000D01*
X290850602Y-126750000D01*
X290850602Y-126725466D01*
X290855412Y-126676635D01*
X290864984Y-126628510D01*
X290879228Y-126581555D01*
X290898005Y-126536222D01*
X290921136Y-126492949D01*
X290948396Y-126452150D01*
X290979524Y-126414221D01*
X291014221Y-126379524D01*
X291052150Y-126348396D01*
X291092949Y-126321136D01*
X291136222Y-126298005D01*
X291181555Y-126279228D01*
X291228510Y-126264984D01*
X291276635Y-126255412D01*
X291325466Y-126250602D01*
X291350000Y-126250602D01*
X291350000Y-126250000D01*
X291850000Y-126250000D01*
X291850000Y-127750000D01*
G37*
G04 #@! TD.AperFunction*
G04 #@! TA.AperFunction,SMDPad,CuDef*
G36*
G01*
X286725000Y-128425000D02*
X287275000Y-128425000D01*
G75*
G02*
X287475000Y-128625000I0J-200000D01*
G01*
X287475000Y-129025000D01*
G75*
G02*
X287275000Y-129225000I-200000J0D01*
G01*
X286725000Y-129225000D01*
G75*
G02*
X286525000Y-129025000I0J200000D01*
G01*
X286525000Y-128625000D01*
G75*
G02*
X286725000Y-128425000I200000J0D01*
G01*
G37*
G04 #@! TD.AperFunction*
G04 #@! TA.AperFunction,SMDPad,CuDef*
G36*
G01*
X286725000Y-126775000D02*
X287275000Y-126775000D01*
G75*
G02*
X287475000Y-126975000I0J-200000D01*
G01*
X287475000Y-127375000D01*
G75*
G02*
X287275000Y-127575000I-200000J0D01*
G01*
X286725000Y-127575000D01*
G75*
G02*
X286525000Y-127375000I0J200000D01*
G01*
X286525000Y-126975000D01*
G75*
G02*
X286725000Y-126775000I200000J0D01*
G01*
G37*
G04 #@! TD.AperFunction*
D12*
X279000000Y-138000000D03*
X277000000Y-138000000D03*
X275000000Y-138000000D03*
X273000000Y-138000000D03*
X257000000Y-138000000D03*
X259000000Y-138000000D03*
X261000000Y-138000000D03*
X263000000Y-138000000D03*
D14*
X241560160Y-122308680D03*
X244100160Y-122308680D03*
D13*
X246640160Y-122308680D03*
G04 #@! TA.AperFunction,SMDPad,CuDef*
G36*
G01*
X238725000Y-133425000D02*
X239275000Y-133425000D01*
G75*
G02*
X239475000Y-133625000I0J-200000D01*
G01*
X239475000Y-134025000D01*
G75*
G02*
X239275000Y-134225000I-200000J0D01*
G01*
X238725000Y-134225000D01*
G75*
G02*
X238525000Y-134025000I0J200000D01*
G01*
X238525000Y-133625000D01*
G75*
G02*
X238725000Y-133425000I200000J0D01*
G01*
G37*
G04 #@! TD.AperFunction*
G04 #@! TA.AperFunction,SMDPad,CuDef*
G36*
G01*
X238725000Y-131775000D02*
X239275000Y-131775000D01*
G75*
G02*
X239475000Y-131975000I0J-200000D01*
G01*
X239475000Y-132375000D01*
G75*
G02*
X239275000Y-132575000I-200000J0D01*
G01*
X238725000Y-132575000D01*
G75*
G02*
X238525000Y-132375000I0J200000D01*
G01*
X238525000Y-131975000D01*
G75*
G02*
X238725000Y-131775000I200000J0D01*
G01*
G37*
G04 #@! TD.AperFunction*
X262640160Y-122308680D03*
D14*
X260100160Y-122308680D03*
X257560160Y-122308680D03*
G04 #@! TA.AperFunction,SMDPad,CuDef*
D11*
G36*
X243850000Y-127750000D02*
G01*
X243350000Y-127750000D01*
X243350000Y-127749398D01*
X243325466Y-127749398D01*
X243276635Y-127744588D01*
X243228510Y-127735016D01*
X243181555Y-127720772D01*
X243136222Y-127701995D01*
X243092949Y-127678864D01*
X243052150Y-127651604D01*
X243014221Y-127620476D01*
X242979524Y-127585779D01*
X242948396Y-127547850D01*
X242921136Y-127507051D01*
X242898005Y-127463778D01*
X242879228Y-127418445D01*
X242864984Y-127371490D01*
X242855412Y-127323365D01*
X242850602Y-127274534D01*
X242850602Y-127250000D01*
X242850000Y-127250000D01*
X242850000Y-126750000D01*
X242850602Y-126750000D01*
X242850602Y-126725466D01*
X242855412Y-126676635D01*
X242864984Y-126628510D01*
X242879228Y-126581555D01*
X242898005Y-126536222D01*
X242921136Y-126492949D01*
X242948396Y-126452150D01*
X242979524Y-126414221D01*
X243014221Y-126379524D01*
X243052150Y-126348396D01*
X243092949Y-126321136D01*
X243136222Y-126298005D01*
X243181555Y-126279228D01*
X243228510Y-126264984D01*
X243276635Y-126255412D01*
X243325466Y-126250602D01*
X243350000Y-126250602D01*
X243350000Y-126250000D01*
X243850000Y-126250000D01*
X243850000Y-127750000D01*
G37*
G04 #@! TD.AperFunction*
G04 #@! TA.AperFunction,SMDPad,CuDef*
G36*
X244650000Y-126250602D02*
G01*
X244674534Y-126250602D01*
X244723365Y-126255412D01*
X244771490Y-126264984D01*
X244818445Y-126279228D01*
X244863778Y-126298005D01*
X244907051Y-126321136D01*
X244947850Y-126348396D01*
X244985779Y-126379524D01*
X245020476Y-126414221D01*
X245051604Y-126452150D01*
X245078864Y-126492949D01*
X245101995Y-126536222D01*
X245120772Y-126581555D01*
X245135016Y-126628510D01*
X245144588Y-126676635D01*
X245149398Y-126725466D01*
X245149398Y-126750000D01*
X245150000Y-126750000D01*
X245150000Y-127250000D01*
X245149398Y-127250000D01*
X245149398Y-127274534D01*
X245144588Y-127323365D01*
X245135016Y-127371490D01*
X245120772Y-127418445D01*
X245101995Y-127463778D01*
X245078864Y-127507051D01*
X245051604Y-127547850D01*
X245020476Y-127585779D01*
X244985779Y-127620476D01*
X244947850Y-127651604D01*
X244907051Y-127678864D01*
X244863778Y-127701995D01*
X244818445Y-127720772D01*
X244771490Y-127735016D01*
X244723365Y-127744588D01*
X244674534Y-127749398D01*
X244650000Y-127749398D01*
X244650000Y-127750000D01*
X244150000Y-127750000D01*
X244150000Y-126250000D01*
X244650000Y-126250000D01*
X244650000Y-126250602D01*
G37*
G04 #@! TD.AperFunction*
G04 #@! TA.AperFunction,SMDPad,CuDef*
G36*
G01*
X238725000Y-126775000D02*
X239275000Y-126775000D01*
G75*
G02*
X239475000Y-126975000I0J-200000D01*
G01*
X239475000Y-127375000D01*
G75*
G02*
X239275000Y-127575000I-200000J0D01*
G01*
X238725000Y-127575000D01*
G75*
G02*
X238525000Y-127375000I0J200000D01*
G01*
X238525000Y-126975000D01*
G75*
G02*
X238725000Y-126775000I200000J0D01*
G01*
G37*
G04 #@! TD.AperFunction*
G04 #@! TA.AperFunction,SMDPad,CuDef*
G36*
G01*
X238725000Y-128425000D02*
X239275000Y-128425000D01*
G75*
G02*
X239475000Y-128625000I0J-200000D01*
G01*
X239475000Y-129025000D01*
G75*
G02*
X239275000Y-129225000I-200000J0D01*
G01*
X238725000Y-129225000D01*
G75*
G02*
X238525000Y-129025000I0J200000D01*
G01*
X238525000Y-128625000D01*
G75*
G02*
X238725000Y-128425000I200000J0D01*
G01*
G37*
G04 #@! TD.AperFunction*
G04 #@! TA.AperFunction,SMDPad,CuDef*
G36*
X260650000Y-126250602D02*
G01*
X260674534Y-126250602D01*
X260723365Y-126255412D01*
X260771490Y-126264984D01*
X260818445Y-126279228D01*
X260863778Y-126298005D01*
X260907051Y-126321136D01*
X260947850Y-126348396D01*
X260985779Y-126379524D01*
X261020476Y-126414221D01*
X261051604Y-126452150D01*
X261078864Y-126492949D01*
X261101995Y-126536222D01*
X261120772Y-126581555D01*
X261135016Y-126628510D01*
X261144588Y-126676635D01*
X261149398Y-126725466D01*
X261149398Y-126750000D01*
X261150000Y-126750000D01*
X261150000Y-127250000D01*
X261149398Y-127250000D01*
X261149398Y-127274534D01*
X261144588Y-127323365D01*
X261135016Y-127371490D01*
X261120772Y-127418445D01*
X261101995Y-127463778D01*
X261078864Y-127507051D01*
X261051604Y-127547850D01*
X261020476Y-127585779D01*
X260985779Y-127620476D01*
X260947850Y-127651604D01*
X260907051Y-127678864D01*
X260863778Y-127701995D01*
X260818445Y-127720772D01*
X260771490Y-127735016D01*
X260723365Y-127744588D01*
X260674534Y-127749398D01*
X260650000Y-127749398D01*
X260650000Y-127750000D01*
X260150000Y-127750000D01*
X260150000Y-126250000D01*
X260650000Y-126250000D01*
X260650000Y-126250602D01*
G37*
G04 #@! TD.AperFunction*
G04 #@! TA.AperFunction,SMDPad,CuDef*
G36*
X259850000Y-127750000D02*
G01*
X259350000Y-127750000D01*
X259350000Y-127749398D01*
X259325466Y-127749398D01*
X259276635Y-127744588D01*
X259228510Y-127735016D01*
X259181555Y-127720772D01*
X259136222Y-127701995D01*
X259092949Y-127678864D01*
X259052150Y-127651604D01*
X259014221Y-127620476D01*
X258979524Y-127585779D01*
X258948396Y-127547850D01*
X258921136Y-127507051D01*
X258898005Y-127463778D01*
X258879228Y-127418445D01*
X258864984Y-127371490D01*
X258855412Y-127323365D01*
X258850602Y-127274534D01*
X258850602Y-127250000D01*
X258850000Y-127250000D01*
X258850000Y-126750000D01*
X258850602Y-126750000D01*
X258850602Y-126725466D01*
X258855412Y-126676635D01*
X258864984Y-126628510D01*
X258879228Y-126581555D01*
X258898005Y-126536222D01*
X258921136Y-126492949D01*
X258948396Y-126452150D01*
X258979524Y-126414221D01*
X259014221Y-126379524D01*
X259052150Y-126348396D01*
X259092949Y-126321136D01*
X259136222Y-126298005D01*
X259181555Y-126279228D01*
X259228510Y-126264984D01*
X259276635Y-126255412D01*
X259325466Y-126250602D01*
X259350000Y-126250602D01*
X259350000Y-126250000D01*
X259850000Y-126250000D01*
X259850000Y-127750000D01*
G37*
G04 #@! TD.AperFunction*
G04 #@! TA.AperFunction,SMDPad,CuDef*
G36*
G01*
X286725000Y-131775000D02*
X287275000Y-131775000D01*
G75*
G02*
X287475000Y-131975000I0J-200000D01*
G01*
X287475000Y-132375000D01*
G75*
G02*
X287275000Y-132575000I-200000J0D01*
G01*
X286725000Y-132575000D01*
G75*
G02*
X286525000Y-132375000I0J200000D01*
G01*
X286525000Y-131975000D01*
G75*
G02*
X286725000Y-131775000I200000J0D01*
G01*
G37*
G04 #@! TD.AperFunction*
G04 #@! TA.AperFunction,SMDPad,CuDef*
G36*
G01*
X286725000Y-133425000D02*
X287275000Y-133425000D01*
G75*
G02*
X287475000Y-133625000I0J-200000D01*
G01*
X287475000Y-134025000D01*
G75*
G02*
X287275000Y-134225000I-200000J0D01*
G01*
X286725000Y-134225000D01*
G75*
G02*
X286525000Y-134025000I0J200000D01*
G01*
X286525000Y-133625000D01*
G75*
G02*
X286725000Y-133425000I200000J0D01*
G01*
G37*
G04 #@! TD.AperFunction*
D12*
X225000000Y-138000000D03*
X227000000Y-138000000D03*
X229000000Y-138000000D03*
X231000000Y-138000000D03*
X215000000Y-138000000D03*
X213000000Y-138000000D03*
X211000000Y-138000000D03*
X209000000Y-138000000D03*
G04 #@! TA.AperFunction,SMDPad,CuDef*
D11*
G36*
X275850000Y-127750000D02*
G01*
X275350000Y-127750000D01*
X275350000Y-127749398D01*
X275325466Y-127749398D01*
X275276635Y-127744588D01*
X275228510Y-127735016D01*
X275181555Y-127720772D01*
X275136222Y-127701995D01*
X275092949Y-127678864D01*
X275052150Y-127651604D01*
X275014221Y-127620476D01*
X274979524Y-127585779D01*
X274948396Y-127547850D01*
X274921136Y-127507051D01*
X274898005Y-127463778D01*
X274879228Y-127418445D01*
X274864984Y-127371490D01*
X274855412Y-127323365D01*
X274850602Y-127274534D01*
X274850602Y-127250000D01*
X274850000Y-127250000D01*
X274850000Y-126750000D01*
X274850602Y-126750000D01*
X274850602Y-126725466D01*
X274855412Y-126676635D01*
X274864984Y-126628510D01*
X274879228Y-126581555D01*
X274898005Y-126536222D01*
X274921136Y-126492949D01*
X274948396Y-126452150D01*
X274979524Y-126414221D01*
X275014221Y-126379524D01*
X275052150Y-126348396D01*
X275092949Y-126321136D01*
X275136222Y-126298005D01*
X275181555Y-126279228D01*
X275228510Y-126264984D01*
X275276635Y-126255412D01*
X275325466Y-126250602D01*
X275350000Y-126250602D01*
X275350000Y-126250000D01*
X275850000Y-126250000D01*
X275850000Y-127750000D01*
G37*
G04 #@! TD.AperFunction*
G04 #@! TA.AperFunction,SMDPad,CuDef*
G36*
X276650000Y-126250602D02*
G01*
X276674534Y-126250602D01*
X276723365Y-126255412D01*
X276771490Y-126264984D01*
X276818445Y-126279228D01*
X276863778Y-126298005D01*
X276907051Y-126321136D01*
X276947850Y-126348396D01*
X276985779Y-126379524D01*
X277020476Y-126414221D01*
X277051604Y-126452150D01*
X277078864Y-126492949D01*
X277101995Y-126536222D01*
X277120772Y-126581555D01*
X277135016Y-126628510D01*
X277144588Y-126676635D01*
X277149398Y-126725466D01*
X277149398Y-126750000D01*
X277150000Y-126750000D01*
X277150000Y-127250000D01*
X277149398Y-127250000D01*
X277149398Y-127274534D01*
X277144588Y-127323365D01*
X277135016Y-127371490D01*
X277120772Y-127418445D01*
X277101995Y-127463778D01*
X277078864Y-127507051D01*
X277051604Y-127547850D01*
X277020476Y-127585779D01*
X276985779Y-127620476D01*
X276947850Y-127651604D01*
X276907051Y-127678864D01*
X276863778Y-127701995D01*
X276818445Y-127720772D01*
X276771490Y-127735016D01*
X276723365Y-127744588D01*
X276674534Y-127749398D01*
X276650000Y-127749398D01*
X276650000Y-127750000D01*
X276150000Y-127750000D01*
X276150000Y-126250000D01*
X276650000Y-126250000D01*
X276650000Y-126250602D01*
G37*
G04 #@! TD.AperFunction*
G04 #@! TA.AperFunction,SMDPad,CuDef*
G36*
G01*
X206725000Y-126775000D02*
X207275000Y-126775000D01*
G75*
G02*
X207475000Y-126975000I0J-200000D01*
G01*
X207475000Y-127375000D01*
G75*
G02*
X207275000Y-127575000I-200000J0D01*
G01*
X206725000Y-127575000D01*
G75*
G02*
X206525000Y-127375000I0J200000D01*
G01*
X206525000Y-126975000D01*
G75*
G02*
X206725000Y-126775000I200000J0D01*
G01*
G37*
G04 #@! TD.AperFunction*
G04 #@! TA.AperFunction,SMDPad,CuDef*
G36*
G01*
X206725000Y-128425000D02*
X207275000Y-128425000D01*
G75*
G02*
X207475000Y-128625000I0J-200000D01*
G01*
X207475000Y-129025000D01*
G75*
G02*
X207275000Y-129225000I-200000J0D01*
G01*
X206725000Y-129225000D01*
G75*
G02*
X206525000Y-129025000I0J200000D01*
G01*
X206525000Y-128625000D01*
G75*
G02*
X206725000Y-128425000I200000J0D01*
G01*
G37*
G04 #@! TD.AperFunction*
D13*
X230640160Y-122308680D03*
D14*
X228100160Y-122308680D03*
X225560160Y-122308680D03*
G04 #@! TA.AperFunction,SMDPad,CuDef*
G36*
G01*
X222725000Y-131775000D02*
X223275000Y-131775000D01*
G75*
G02*
X223475000Y-131975000I0J-200000D01*
G01*
X223475000Y-132375000D01*
G75*
G02*
X223275000Y-132575000I-200000J0D01*
G01*
X222725000Y-132575000D01*
G75*
G02*
X222525000Y-132375000I0J200000D01*
G01*
X222525000Y-131975000D01*
G75*
G02*
X222725000Y-131775000I200000J0D01*
G01*
G37*
G04 #@! TD.AperFunction*
G04 #@! TA.AperFunction,SMDPad,CuDef*
G36*
G01*
X222725000Y-133425000D02*
X223275000Y-133425000D01*
G75*
G02*
X223475000Y-133625000I0J-200000D01*
G01*
X223475000Y-134025000D01*
G75*
G02*
X223275000Y-134225000I-200000J0D01*
G01*
X222725000Y-134225000D01*
G75*
G02*
X222525000Y-134025000I0J200000D01*
G01*
X222525000Y-133625000D01*
G75*
G02*
X222725000Y-133425000I200000J0D01*
G01*
G37*
G04 #@! TD.AperFunction*
G04 #@! TA.AperFunction,SMDPad,CuDef*
D11*
G36*
X228650000Y-126250602D02*
G01*
X228674534Y-126250602D01*
X228723365Y-126255412D01*
X228771490Y-126264984D01*
X228818445Y-126279228D01*
X228863778Y-126298005D01*
X228907051Y-126321136D01*
X228947850Y-126348396D01*
X228985779Y-126379524D01*
X229020476Y-126414221D01*
X229051604Y-126452150D01*
X229078864Y-126492949D01*
X229101995Y-126536222D01*
X229120772Y-126581555D01*
X229135016Y-126628510D01*
X229144588Y-126676635D01*
X229149398Y-126725466D01*
X229149398Y-126750000D01*
X229150000Y-126750000D01*
X229150000Y-127250000D01*
X229149398Y-127250000D01*
X229149398Y-127274534D01*
X229144588Y-127323365D01*
X229135016Y-127371490D01*
X229120772Y-127418445D01*
X229101995Y-127463778D01*
X229078864Y-127507051D01*
X229051604Y-127547850D01*
X229020476Y-127585779D01*
X228985779Y-127620476D01*
X228947850Y-127651604D01*
X228907051Y-127678864D01*
X228863778Y-127701995D01*
X228818445Y-127720772D01*
X228771490Y-127735016D01*
X228723365Y-127744588D01*
X228674534Y-127749398D01*
X228650000Y-127749398D01*
X228650000Y-127750000D01*
X228150000Y-127750000D01*
X228150000Y-126250000D01*
X228650000Y-126250000D01*
X228650000Y-126250602D01*
G37*
G04 #@! TD.AperFunction*
G04 #@! TA.AperFunction,SMDPad,CuDef*
G36*
X227850000Y-127750000D02*
G01*
X227350000Y-127750000D01*
X227350000Y-127749398D01*
X227325466Y-127749398D01*
X227276635Y-127744588D01*
X227228510Y-127735016D01*
X227181555Y-127720772D01*
X227136222Y-127701995D01*
X227092949Y-127678864D01*
X227052150Y-127651604D01*
X227014221Y-127620476D01*
X226979524Y-127585779D01*
X226948396Y-127547850D01*
X226921136Y-127507051D01*
X226898005Y-127463778D01*
X226879228Y-127418445D01*
X226864984Y-127371490D01*
X226855412Y-127323365D01*
X226850602Y-127274534D01*
X226850602Y-127250000D01*
X226850000Y-127250000D01*
X226850000Y-126750000D01*
X226850602Y-126750000D01*
X226850602Y-126725466D01*
X226855412Y-126676635D01*
X226864984Y-126628510D01*
X226879228Y-126581555D01*
X226898005Y-126536222D01*
X226921136Y-126492949D01*
X226948396Y-126452150D01*
X226979524Y-126414221D01*
X227014221Y-126379524D01*
X227052150Y-126348396D01*
X227092949Y-126321136D01*
X227136222Y-126298005D01*
X227181555Y-126279228D01*
X227228510Y-126264984D01*
X227276635Y-126255412D01*
X227325466Y-126250602D01*
X227350000Y-126250602D01*
X227350000Y-126250000D01*
X227850000Y-126250000D01*
X227850000Y-127750000D01*
G37*
G04 #@! TD.AperFunction*
D14*
X209560160Y-122308680D03*
X212100160Y-122308680D03*
D13*
X214640160Y-122308680D03*
G04 #@! TA.AperFunction,SMDPad,CuDef*
D11*
G36*
X211850000Y-127750000D02*
G01*
X211350000Y-127750000D01*
X211350000Y-127749398D01*
X211325466Y-127749398D01*
X211276635Y-127744588D01*
X211228510Y-127735016D01*
X211181555Y-127720772D01*
X211136222Y-127701995D01*
X211092949Y-127678864D01*
X211052150Y-127651604D01*
X211014221Y-127620476D01*
X210979524Y-127585779D01*
X210948396Y-127547850D01*
X210921136Y-127507051D01*
X210898005Y-127463778D01*
X210879228Y-127418445D01*
X210864984Y-127371490D01*
X210855412Y-127323365D01*
X210850602Y-127274534D01*
X210850602Y-127250000D01*
X210850000Y-127250000D01*
X210850000Y-126750000D01*
X210850602Y-126750000D01*
X210850602Y-126725466D01*
X210855412Y-126676635D01*
X210864984Y-126628510D01*
X210879228Y-126581555D01*
X210898005Y-126536222D01*
X210921136Y-126492949D01*
X210948396Y-126452150D01*
X210979524Y-126414221D01*
X211014221Y-126379524D01*
X211052150Y-126348396D01*
X211092949Y-126321136D01*
X211136222Y-126298005D01*
X211181555Y-126279228D01*
X211228510Y-126264984D01*
X211276635Y-126255412D01*
X211325466Y-126250602D01*
X211350000Y-126250602D01*
X211350000Y-126250000D01*
X211850000Y-126250000D01*
X211850000Y-127750000D01*
G37*
G04 #@! TD.AperFunction*
G04 #@! TA.AperFunction,SMDPad,CuDef*
G36*
X212650000Y-126250602D02*
G01*
X212674534Y-126250602D01*
X212723365Y-126255412D01*
X212771490Y-126264984D01*
X212818445Y-126279228D01*
X212863778Y-126298005D01*
X212907051Y-126321136D01*
X212947850Y-126348396D01*
X212985779Y-126379524D01*
X213020476Y-126414221D01*
X213051604Y-126452150D01*
X213078864Y-126492949D01*
X213101995Y-126536222D01*
X213120772Y-126581555D01*
X213135016Y-126628510D01*
X213144588Y-126676635D01*
X213149398Y-126725466D01*
X213149398Y-126750000D01*
X213150000Y-126750000D01*
X213150000Y-127250000D01*
X213149398Y-127250000D01*
X213149398Y-127274534D01*
X213144588Y-127323365D01*
X213135016Y-127371490D01*
X213120772Y-127418445D01*
X213101995Y-127463778D01*
X213078864Y-127507051D01*
X213051604Y-127547850D01*
X213020476Y-127585779D01*
X212985779Y-127620476D01*
X212947850Y-127651604D01*
X212907051Y-127678864D01*
X212863778Y-127701995D01*
X212818445Y-127720772D01*
X212771490Y-127735016D01*
X212723365Y-127744588D01*
X212674534Y-127749398D01*
X212650000Y-127749398D01*
X212650000Y-127750000D01*
X212150000Y-127750000D01*
X212150000Y-126250000D01*
X212650000Y-126250000D01*
X212650000Y-126250602D01*
G37*
G04 #@! TD.AperFunction*
G04 #@! TA.AperFunction,SMDPad,CuDef*
G36*
G01*
X254725000Y-103425000D02*
X255275000Y-103425000D01*
G75*
G02*
X255475000Y-103625000I0J-200000D01*
G01*
X255475000Y-104025000D01*
G75*
G02*
X255275000Y-104225000I-200000J0D01*
G01*
X254725000Y-104225000D01*
G75*
G02*
X254525000Y-104025000I0J200000D01*
G01*
X254525000Y-103625000D01*
G75*
G02*
X254725000Y-103425000I200000J0D01*
G01*
G37*
G04 #@! TD.AperFunction*
G04 #@! TA.AperFunction,SMDPad,CuDef*
G36*
G01*
X254725000Y-101775000D02*
X255275000Y-101775000D01*
G75*
G02*
X255475000Y-101975000I0J-200000D01*
G01*
X255475000Y-102375000D01*
G75*
G02*
X255275000Y-102575000I-200000J0D01*
G01*
X254725000Y-102575000D01*
G75*
G02*
X254525000Y-102375000I0J200000D01*
G01*
X254525000Y-101975000D01*
G75*
G02*
X254725000Y-101775000I200000J0D01*
G01*
G37*
G04 #@! TD.AperFunction*
G04 #@! TA.AperFunction,SMDPad,CuDef*
G36*
G01*
X270725000Y-98425000D02*
X271275000Y-98425000D01*
G75*
G02*
X271475000Y-98625000I0J-200000D01*
G01*
X271475000Y-99025000D01*
G75*
G02*
X271275000Y-99225000I-200000J0D01*
G01*
X270725000Y-99225000D01*
G75*
G02*
X270525000Y-99025000I0J200000D01*
G01*
X270525000Y-98625000D01*
G75*
G02*
X270725000Y-98425000I200000J0D01*
G01*
G37*
G04 #@! TD.AperFunction*
G04 #@! TA.AperFunction,SMDPad,CuDef*
G36*
G01*
X270725000Y-96775000D02*
X271275000Y-96775000D01*
G75*
G02*
X271475000Y-96975000I0J-200000D01*
G01*
X271475000Y-97375000D01*
G75*
G02*
X271275000Y-97575000I-200000J0D01*
G01*
X270725000Y-97575000D01*
G75*
G02*
X270525000Y-97375000I0J200000D01*
G01*
X270525000Y-96975000D01*
G75*
G02*
X270725000Y-96775000I200000J0D01*
G01*
G37*
G04 #@! TD.AperFunction*
D12*
X295000000Y-108000000D03*
X293000000Y-108000000D03*
X291000000Y-108000000D03*
X289000000Y-108000000D03*
D14*
X289560160Y-92308680D03*
X292100160Y-92308680D03*
D13*
X294640160Y-92308680D03*
G04 #@! TA.AperFunction,SMDPad,CuDef*
G36*
G01*
X286725000Y-103425000D02*
X287275000Y-103425000D01*
G75*
G02*
X287475000Y-103625000I0J-200000D01*
G01*
X287475000Y-104025000D01*
G75*
G02*
X287275000Y-104225000I-200000J0D01*
G01*
X286725000Y-104225000D01*
G75*
G02*
X286525000Y-104025000I0J200000D01*
G01*
X286525000Y-103625000D01*
G75*
G02*
X286725000Y-103425000I200000J0D01*
G01*
G37*
G04 #@! TD.AperFunction*
G04 #@! TA.AperFunction,SMDPad,CuDef*
G36*
G01*
X286725000Y-101775000D02*
X287275000Y-101775000D01*
G75*
G02*
X287475000Y-101975000I0J-200000D01*
G01*
X287475000Y-102375000D01*
G75*
G02*
X287275000Y-102575000I-200000J0D01*
G01*
X286725000Y-102575000D01*
G75*
G02*
X286525000Y-102375000I0J200000D01*
G01*
X286525000Y-101975000D01*
G75*
G02*
X286725000Y-101775000I200000J0D01*
G01*
G37*
G04 #@! TD.AperFunction*
G04 #@! TA.AperFunction,SMDPad,CuDef*
D11*
G36*
X291850000Y-97750000D02*
G01*
X291350000Y-97750000D01*
X291350000Y-97749398D01*
X291325466Y-97749398D01*
X291276635Y-97744588D01*
X291228510Y-97735016D01*
X291181555Y-97720772D01*
X291136222Y-97701995D01*
X291092949Y-97678864D01*
X291052150Y-97651604D01*
X291014221Y-97620476D01*
X290979524Y-97585779D01*
X290948396Y-97547850D01*
X290921136Y-97507051D01*
X290898005Y-97463778D01*
X290879228Y-97418445D01*
X290864984Y-97371490D01*
X290855412Y-97323365D01*
X290850602Y-97274534D01*
X290850602Y-97250000D01*
X290850000Y-97250000D01*
X290850000Y-96750000D01*
X290850602Y-96750000D01*
X290850602Y-96725466D01*
X290855412Y-96676635D01*
X290864984Y-96628510D01*
X290879228Y-96581555D01*
X290898005Y-96536222D01*
X290921136Y-96492949D01*
X290948396Y-96452150D01*
X290979524Y-96414221D01*
X291014221Y-96379524D01*
X291052150Y-96348396D01*
X291092949Y-96321136D01*
X291136222Y-96298005D01*
X291181555Y-96279228D01*
X291228510Y-96264984D01*
X291276635Y-96255412D01*
X291325466Y-96250602D01*
X291350000Y-96250602D01*
X291350000Y-96250000D01*
X291850000Y-96250000D01*
X291850000Y-97750000D01*
G37*
G04 #@! TD.AperFunction*
G04 #@! TA.AperFunction,SMDPad,CuDef*
G36*
X292650000Y-96250602D02*
G01*
X292674534Y-96250602D01*
X292723365Y-96255412D01*
X292771490Y-96264984D01*
X292818445Y-96279228D01*
X292863778Y-96298005D01*
X292907051Y-96321136D01*
X292947850Y-96348396D01*
X292985779Y-96379524D01*
X293020476Y-96414221D01*
X293051604Y-96452150D01*
X293078864Y-96492949D01*
X293101995Y-96536222D01*
X293120772Y-96581555D01*
X293135016Y-96628510D01*
X293144588Y-96676635D01*
X293149398Y-96725466D01*
X293149398Y-96750000D01*
X293150000Y-96750000D01*
X293150000Y-97250000D01*
X293149398Y-97250000D01*
X293149398Y-97274534D01*
X293144588Y-97323365D01*
X293135016Y-97371490D01*
X293120772Y-97418445D01*
X293101995Y-97463778D01*
X293078864Y-97507051D01*
X293051604Y-97547850D01*
X293020476Y-97585779D01*
X292985779Y-97620476D01*
X292947850Y-97651604D01*
X292907051Y-97678864D01*
X292863778Y-97701995D01*
X292818445Y-97720772D01*
X292771490Y-97735016D01*
X292723365Y-97744588D01*
X292674534Y-97749398D01*
X292650000Y-97749398D01*
X292650000Y-97750000D01*
X292150000Y-97750000D01*
X292150000Y-96250000D01*
X292650000Y-96250000D01*
X292650000Y-96250602D01*
G37*
G04 #@! TD.AperFunction*
G04 #@! TA.AperFunction,SMDPad,CuDef*
G36*
G01*
X286725000Y-96775000D02*
X287275000Y-96775000D01*
G75*
G02*
X287475000Y-96975000I0J-200000D01*
G01*
X287475000Y-97375000D01*
G75*
G02*
X287275000Y-97575000I-200000J0D01*
G01*
X286725000Y-97575000D01*
G75*
G02*
X286525000Y-97375000I0J200000D01*
G01*
X286525000Y-96975000D01*
G75*
G02*
X286725000Y-96775000I200000J0D01*
G01*
G37*
G04 #@! TD.AperFunction*
G04 #@! TA.AperFunction,SMDPad,CuDef*
G36*
G01*
X286725000Y-98425000D02*
X287275000Y-98425000D01*
G75*
G02*
X287475000Y-98625000I0J-200000D01*
G01*
X287475000Y-99025000D01*
G75*
G02*
X287275000Y-99225000I-200000J0D01*
G01*
X286725000Y-99225000D01*
G75*
G02*
X286525000Y-99025000I0J200000D01*
G01*
X286525000Y-98625000D01*
G75*
G02*
X286725000Y-98425000I200000J0D01*
G01*
G37*
G04 #@! TD.AperFunction*
D12*
X273000000Y-108000000D03*
X275000000Y-108000000D03*
X277000000Y-108000000D03*
X279000000Y-108000000D03*
X263000000Y-108000000D03*
X261000000Y-108000000D03*
X259000000Y-108000000D03*
X257000000Y-108000000D03*
G04 #@! TA.AperFunction,SMDPad,CuDef*
G36*
G01*
X254725000Y-96775000D02*
X255275000Y-96775000D01*
G75*
G02*
X255475000Y-96975000I0J-200000D01*
G01*
X255475000Y-97375000D01*
G75*
G02*
X255275000Y-97575000I-200000J0D01*
G01*
X254725000Y-97575000D01*
G75*
G02*
X254525000Y-97375000I0J200000D01*
G01*
X254525000Y-96975000D01*
G75*
G02*
X254725000Y-96775000I200000J0D01*
G01*
G37*
G04 #@! TD.AperFunction*
G04 #@! TA.AperFunction,SMDPad,CuDef*
G36*
G01*
X254725000Y-98425000D02*
X255275000Y-98425000D01*
G75*
G02*
X255475000Y-98625000I0J-200000D01*
G01*
X255475000Y-99025000D01*
G75*
G02*
X255275000Y-99225000I-200000J0D01*
G01*
X254725000Y-99225000D01*
G75*
G02*
X254525000Y-99025000I0J200000D01*
G01*
X254525000Y-98625000D01*
G75*
G02*
X254725000Y-98425000I200000J0D01*
G01*
G37*
G04 #@! TD.AperFunction*
D13*
X278640160Y-92308680D03*
D14*
X276100160Y-92308680D03*
X273560160Y-92308680D03*
G04 #@! TA.AperFunction,SMDPad,CuDef*
G36*
G01*
X270725000Y-101775000D02*
X271275000Y-101775000D01*
G75*
G02*
X271475000Y-101975000I0J-200000D01*
G01*
X271475000Y-102375000D01*
G75*
G02*
X271275000Y-102575000I-200000J0D01*
G01*
X270725000Y-102575000D01*
G75*
G02*
X270525000Y-102375000I0J200000D01*
G01*
X270525000Y-101975000D01*
G75*
G02*
X270725000Y-101775000I200000J0D01*
G01*
G37*
G04 #@! TD.AperFunction*
G04 #@! TA.AperFunction,SMDPad,CuDef*
G36*
G01*
X270725000Y-103425000D02*
X271275000Y-103425000D01*
G75*
G02*
X271475000Y-103625000I0J-200000D01*
G01*
X271475000Y-104025000D01*
G75*
G02*
X271275000Y-104225000I-200000J0D01*
G01*
X270725000Y-104225000D01*
G75*
G02*
X270525000Y-104025000I0J200000D01*
G01*
X270525000Y-103625000D01*
G75*
G02*
X270725000Y-103425000I200000J0D01*
G01*
G37*
G04 #@! TD.AperFunction*
G04 #@! TA.AperFunction,SMDPad,CuDef*
D11*
G36*
X276650000Y-96250602D02*
G01*
X276674534Y-96250602D01*
X276723365Y-96255412D01*
X276771490Y-96264984D01*
X276818445Y-96279228D01*
X276863778Y-96298005D01*
X276907051Y-96321136D01*
X276947850Y-96348396D01*
X276985779Y-96379524D01*
X277020476Y-96414221D01*
X277051604Y-96452150D01*
X277078864Y-96492949D01*
X277101995Y-96536222D01*
X277120772Y-96581555D01*
X277135016Y-96628510D01*
X277144588Y-96676635D01*
X277149398Y-96725466D01*
X277149398Y-96750000D01*
X277150000Y-96750000D01*
X277150000Y-97250000D01*
X277149398Y-97250000D01*
X277149398Y-97274534D01*
X277144588Y-97323365D01*
X277135016Y-97371490D01*
X277120772Y-97418445D01*
X277101995Y-97463778D01*
X277078864Y-97507051D01*
X277051604Y-97547850D01*
X277020476Y-97585779D01*
X276985779Y-97620476D01*
X276947850Y-97651604D01*
X276907051Y-97678864D01*
X276863778Y-97701995D01*
X276818445Y-97720772D01*
X276771490Y-97735016D01*
X276723365Y-97744588D01*
X276674534Y-97749398D01*
X276650000Y-97749398D01*
X276650000Y-97750000D01*
X276150000Y-97750000D01*
X276150000Y-96250000D01*
X276650000Y-96250000D01*
X276650000Y-96250602D01*
G37*
G04 #@! TD.AperFunction*
G04 #@! TA.AperFunction,SMDPad,CuDef*
G36*
X275850000Y-97750000D02*
G01*
X275350000Y-97750000D01*
X275350000Y-97749398D01*
X275325466Y-97749398D01*
X275276635Y-97744588D01*
X275228510Y-97735016D01*
X275181555Y-97720772D01*
X275136222Y-97701995D01*
X275092949Y-97678864D01*
X275052150Y-97651604D01*
X275014221Y-97620476D01*
X274979524Y-97585779D01*
X274948396Y-97547850D01*
X274921136Y-97507051D01*
X274898005Y-97463778D01*
X274879228Y-97418445D01*
X274864984Y-97371490D01*
X274855412Y-97323365D01*
X274850602Y-97274534D01*
X274850602Y-97250000D01*
X274850000Y-97250000D01*
X274850000Y-96750000D01*
X274850602Y-96750000D01*
X274850602Y-96725466D01*
X274855412Y-96676635D01*
X274864984Y-96628510D01*
X274879228Y-96581555D01*
X274898005Y-96536222D01*
X274921136Y-96492949D01*
X274948396Y-96452150D01*
X274979524Y-96414221D01*
X275014221Y-96379524D01*
X275052150Y-96348396D01*
X275092949Y-96321136D01*
X275136222Y-96298005D01*
X275181555Y-96279228D01*
X275228510Y-96264984D01*
X275276635Y-96255412D01*
X275325466Y-96250602D01*
X275350000Y-96250602D01*
X275350000Y-96250000D01*
X275850000Y-96250000D01*
X275850000Y-97750000D01*
G37*
G04 #@! TD.AperFunction*
D14*
X257560160Y-92308680D03*
X260100160Y-92308680D03*
D13*
X262640160Y-92308680D03*
G04 #@! TA.AperFunction,SMDPad,CuDef*
D11*
G36*
X259850000Y-97750000D02*
G01*
X259350000Y-97750000D01*
X259350000Y-97749398D01*
X259325466Y-97749398D01*
X259276635Y-97744588D01*
X259228510Y-97735016D01*
X259181555Y-97720772D01*
X259136222Y-97701995D01*
X259092949Y-97678864D01*
X259052150Y-97651604D01*
X259014221Y-97620476D01*
X258979524Y-97585779D01*
X258948396Y-97547850D01*
X258921136Y-97507051D01*
X258898005Y-97463778D01*
X258879228Y-97418445D01*
X258864984Y-97371490D01*
X258855412Y-97323365D01*
X258850602Y-97274534D01*
X258850602Y-97250000D01*
X258850000Y-97250000D01*
X258850000Y-96750000D01*
X258850602Y-96750000D01*
X258850602Y-96725466D01*
X258855412Y-96676635D01*
X258864984Y-96628510D01*
X258879228Y-96581555D01*
X258898005Y-96536222D01*
X258921136Y-96492949D01*
X258948396Y-96452150D01*
X258979524Y-96414221D01*
X259014221Y-96379524D01*
X259052150Y-96348396D01*
X259092949Y-96321136D01*
X259136222Y-96298005D01*
X259181555Y-96279228D01*
X259228510Y-96264984D01*
X259276635Y-96255412D01*
X259325466Y-96250602D01*
X259350000Y-96250602D01*
X259350000Y-96250000D01*
X259850000Y-96250000D01*
X259850000Y-97750000D01*
G37*
G04 #@! TD.AperFunction*
G04 #@! TA.AperFunction,SMDPad,CuDef*
G36*
X260650000Y-96250602D02*
G01*
X260674534Y-96250602D01*
X260723365Y-96255412D01*
X260771490Y-96264984D01*
X260818445Y-96279228D01*
X260863778Y-96298005D01*
X260907051Y-96321136D01*
X260947850Y-96348396D01*
X260985779Y-96379524D01*
X261020476Y-96414221D01*
X261051604Y-96452150D01*
X261078864Y-96492949D01*
X261101995Y-96536222D01*
X261120772Y-96581555D01*
X261135016Y-96628510D01*
X261144588Y-96676635D01*
X261149398Y-96725466D01*
X261149398Y-96750000D01*
X261150000Y-96750000D01*
X261150000Y-97250000D01*
X261149398Y-97250000D01*
X261149398Y-97274534D01*
X261144588Y-97323365D01*
X261135016Y-97371490D01*
X261120772Y-97418445D01*
X261101995Y-97463778D01*
X261078864Y-97507051D01*
X261051604Y-97547850D01*
X261020476Y-97585779D01*
X260985779Y-97620476D01*
X260947850Y-97651604D01*
X260907051Y-97678864D01*
X260863778Y-97701995D01*
X260818445Y-97720772D01*
X260771490Y-97735016D01*
X260723365Y-97744588D01*
X260674534Y-97749398D01*
X260650000Y-97749398D01*
X260650000Y-97750000D01*
X260150000Y-97750000D01*
X260150000Y-96250000D01*
X260650000Y-96250000D01*
X260650000Y-96250602D01*
G37*
G04 #@! TD.AperFunction*
G04 #@! TA.AperFunction,SMDPad,CuDef*
G36*
G01*
X238725000Y-98425000D02*
X239275000Y-98425000D01*
G75*
G02*
X239475000Y-98625000I0J-200000D01*
G01*
X239475000Y-99025000D01*
G75*
G02*
X239275000Y-99225000I-200000J0D01*
G01*
X238725000Y-99225000D01*
G75*
G02*
X238525000Y-99025000I0J200000D01*
G01*
X238525000Y-98625000D01*
G75*
G02*
X238725000Y-98425000I200000J0D01*
G01*
G37*
G04 #@! TD.AperFunction*
G04 #@! TA.AperFunction,SMDPad,CuDef*
G36*
G01*
X238725000Y-96775000D02*
X239275000Y-96775000D01*
G75*
G02*
X239475000Y-96975000I0J-200000D01*
G01*
X239475000Y-97375000D01*
G75*
G02*
X239275000Y-97575000I-200000J0D01*
G01*
X238725000Y-97575000D01*
G75*
G02*
X238525000Y-97375000I0J200000D01*
G01*
X238525000Y-96975000D01*
G75*
G02*
X238725000Y-96775000I200000J0D01*
G01*
G37*
G04 #@! TD.AperFunction*
D12*
X241000000Y-108000000D03*
X243000000Y-108000000D03*
X245000000Y-108000000D03*
X247000000Y-108000000D03*
D13*
X246640160Y-92308680D03*
D14*
X244100160Y-92308680D03*
X241560160Y-92308680D03*
G04 #@! TA.AperFunction,SMDPad,CuDef*
G36*
G01*
X238725000Y-101775000D02*
X239275000Y-101775000D01*
G75*
G02*
X239475000Y-101975000I0J-200000D01*
G01*
X239475000Y-102375000D01*
G75*
G02*
X239275000Y-102575000I-200000J0D01*
G01*
X238725000Y-102575000D01*
G75*
G02*
X238525000Y-102375000I0J200000D01*
G01*
X238525000Y-101975000D01*
G75*
G02*
X238725000Y-101775000I200000J0D01*
G01*
G37*
G04 #@! TD.AperFunction*
G04 #@! TA.AperFunction,SMDPad,CuDef*
G36*
G01*
X238725000Y-103425000D02*
X239275000Y-103425000D01*
G75*
G02*
X239475000Y-103625000I0J-200000D01*
G01*
X239475000Y-104025000D01*
G75*
G02*
X239275000Y-104225000I-200000J0D01*
G01*
X238725000Y-104225000D01*
G75*
G02*
X238525000Y-104025000I0J200000D01*
G01*
X238525000Y-103625000D01*
G75*
G02*
X238725000Y-103425000I200000J0D01*
G01*
G37*
G04 #@! TD.AperFunction*
G04 #@! TA.AperFunction,SMDPad,CuDef*
D11*
G36*
X244650000Y-96250602D02*
G01*
X244674534Y-96250602D01*
X244723365Y-96255412D01*
X244771490Y-96264984D01*
X244818445Y-96279228D01*
X244863778Y-96298005D01*
X244907051Y-96321136D01*
X244947850Y-96348396D01*
X244985779Y-96379524D01*
X245020476Y-96414221D01*
X245051604Y-96452150D01*
X245078864Y-96492949D01*
X245101995Y-96536222D01*
X245120772Y-96581555D01*
X245135016Y-96628510D01*
X245144588Y-96676635D01*
X245149398Y-96725466D01*
X245149398Y-96750000D01*
X245150000Y-96750000D01*
X245150000Y-97250000D01*
X245149398Y-97250000D01*
X245149398Y-97274534D01*
X245144588Y-97323365D01*
X245135016Y-97371490D01*
X245120772Y-97418445D01*
X245101995Y-97463778D01*
X245078864Y-97507051D01*
X245051604Y-97547850D01*
X245020476Y-97585779D01*
X244985779Y-97620476D01*
X244947850Y-97651604D01*
X244907051Y-97678864D01*
X244863778Y-97701995D01*
X244818445Y-97720772D01*
X244771490Y-97735016D01*
X244723365Y-97744588D01*
X244674534Y-97749398D01*
X244650000Y-97749398D01*
X244650000Y-97750000D01*
X244150000Y-97750000D01*
X244150000Y-96250000D01*
X244650000Y-96250000D01*
X244650000Y-96250602D01*
G37*
G04 #@! TD.AperFunction*
G04 #@! TA.AperFunction,SMDPad,CuDef*
G36*
X243850000Y-97750000D02*
G01*
X243350000Y-97750000D01*
X243350000Y-97749398D01*
X243325466Y-97749398D01*
X243276635Y-97744588D01*
X243228510Y-97735016D01*
X243181555Y-97720772D01*
X243136222Y-97701995D01*
X243092949Y-97678864D01*
X243052150Y-97651604D01*
X243014221Y-97620476D01*
X242979524Y-97585779D01*
X242948396Y-97547850D01*
X242921136Y-97507051D01*
X242898005Y-97463778D01*
X242879228Y-97418445D01*
X242864984Y-97371490D01*
X242855412Y-97323365D01*
X242850602Y-97274534D01*
X242850602Y-97250000D01*
X242850000Y-97250000D01*
X242850000Y-96750000D01*
X242850602Y-96750000D01*
X242850602Y-96725466D01*
X242855412Y-96676635D01*
X242864984Y-96628510D01*
X242879228Y-96581555D01*
X242898005Y-96536222D01*
X242921136Y-96492949D01*
X242948396Y-96452150D01*
X242979524Y-96414221D01*
X243014221Y-96379524D01*
X243052150Y-96348396D01*
X243092949Y-96321136D01*
X243136222Y-96298005D01*
X243181555Y-96279228D01*
X243228510Y-96264984D01*
X243276635Y-96255412D01*
X243325466Y-96250602D01*
X243350000Y-96250602D01*
X243350000Y-96250000D01*
X243850000Y-96250000D01*
X243850000Y-97750000D01*
G37*
G04 #@! TD.AperFunction*
G04 #@! TA.AperFunction,SMDPad,CuDef*
G36*
G01*
X222725000Y-103425000D02*
X223275000Y-103425000D01*
G75*
G02*
X223475000Y-103625000I0J-200000D01*
G01*
X223475000Y-104025000D01*
G75*
G02*
X223275000Y-104225000I-200000J0D01*
G01*
X222725000Y-104225000D01*
G75*
G02*
X222525000Y-104025000I0J200000D01*
G01*
X222525000Y-103625000D01*
G75*
G02*
X222725000Y-103425000I200000J0D01*
G01*
G37*
G04 #@! TD.AperFunction*
G04 #@! TA.AperFunction,SMDPad,CuDef*
G36*
G01*
X222725000Y-101775000D02*
X223275000Y-101775000D01*
G75*
G02*
X223475000Y-101975000I0J-200000D01*
G01*
X223475000Y-102375000D01*
G75*
G02*
X223275000Y-102575000I-200000J0D01*
G01*
X222725000Y-102575000D01*
G75*
G02*
X222525000Y-102375000I0J200000D01*
G01*
X222525000Y-101975000D01*
G75*
G02*
X222725000Y-101775000I200000J0D01*
G01*
G37*
G04 #@! TD.AperFunction*
D12*
X231000000Y-108000000D03*
X229000000Y-108000000D03*
X227000000Y-108000000D03*
X225000000Y-108000000D03*
G04 #@! TA.AperFunction,SMDPad,CuDef*
G36*
G01*
X222725000Y-96775000D02*
X223275000Y-96775000D01*
G75*
G02*
X223475000Y-96975000I0J-200000D01*
G01*
X223475000Y-97375000D01*
G75*
G02*
X223275000Y-97575000I-200000J0D01*
G01*
X222725000Y-97575000D01*
G75*
G02*
X222525000Y-97375000I0J200000D01*
G01*
X222525000Y-96975000D01*
G75*
G02*
X222725000Y-96775000I200000J0D01*
G01*
G37*
G04 #@! TD.AperFunction*
G04 #@! TA.AperFunction,SMDPad,CuDef*
G36*
G01*
X222725000Y-98425000D02*
X223275000Y-98425000D01*
G75*
G02*
X223475000Y-98625000I0J-200000D01*
G01*
X223475000Y-99025000D01*
G75*
G02*
X223275000Y-99225000I-200000J0D01*
G01*
X222725000Y-99225000D01*
G75*
G02*
X222525000Y-99025000I0J200000D01*
G01*
X222525000Y-98625000D01*
G75*
G02*
X222725000Y-98425000I200000J0D01*
G01*
G37*
G04 #@! TD.AperFunction*
D14*
X225560160Y-92308680D03*
X228100160Y-92308680D03*
D13*
X230640160Y-92308680D03*
G04 #@! TA.AperFunction,SMDPad,CuDef*
D11*
G36*
X227850000Y-97750000D02*
G01*
X227350000Y-97750000D01*
X227350000Y-97749398D01*
X227325466Y-97749398D01*
X227276635Y-97744588D01*
X227228510Y-97735016D01*
X227181555Y-97720772D01*
X227136222Y-97701995D01*
X227092949Y-97678864D01*
X227052150Y-97651604D01*
X227014221Y-97620476D01*
X226979524Y-97585779D01*
X226948396Y-97547850D01*
X226921136Y-97507051D01*
X226898005Y-97463778D01*
X226879228Y-97418445D01*
X226864984Y-97371490D01*
X226855412Y-97323365D01*
X226850602Y-97274534D01*
X226850602Y-97250000D01*
X226850000Y-97250000D01*
X226850000Y-96750000D01*
X226850602Y-96750000D01*
X226850602Y-96725466D01*
X226855412Y-96676635D01*
X226864984Y-96628510D01*
X226879228Y-96581555D01*
X226898005Y-96536222D01*
X226921136Y-96492949D01*
X226948396Y-96452150D01*
X226979524Y-96414221D01*
X227014221Y-96379524D01*
X227052150Y-96348396D01*
X227092949Y-96321136D01*
X227136222Y-96298005D01*
X227181555Y-96279228D01*
X227228510Y-96264984D01*
X227276635Y-96255412D01*
X227325466Y-96250602D01*
X227350000Y-96250602D01*
X227350000Y-96250000D01*
X227850000Y-96250000D01*
X227850000Y-97750000D01*
G37*
G04 #@! TD.AperFunction*
G04 #@! TA.AperFunction,SMDPad,CuDef*
G36*
X228650000Y-96250602D02*
G01*
X228674534Y-96250602D01*
X228723365Y-96255412D01*
X228771490Y-96264984D01*
X228818445Y-96279228D01*
X228863778Y-96298005D01*
X228907051Y-96321136D01*
X228947850Y-96348396D01*
X228985779Y-96379524D01*
X229020476Y-96414221D01*
X229051604Y-96452150D01*
X229078864Y-96492949D01*
X229101995Y-96536222D01*
X229120772Y-96581555D01*
X229135016Y-96628510D01*
X229144588Y-96676635D01*
X229149398Y-96725466D01*
X229149398Y-96750000D01*
X229150000Y-96750000D01*
X229150000Y-97250000D01*
X229149398Y-97250000D01*
X229149398Y-97274534D01*
X229144588Y-97323365D01*
X229135016Y-97371490D01*
X229120772Y-97418445D01*
X229101995Y-97463778D01*
X229078864Y-97507051D01*
X229051604Y-97547850D01*
X229020476Y-97585779D01*
X228985779Y-97620476D01*
X228947850Y-97651604D01*
X228907051Y-97678864D01*
X228863778Y-97701995D01*
X228818445Y-97720772D01*
X228771490Y-97735016D01*
X228723365Y-97744588D01*
X228674534Y-97749398D01*
X228650000Y-97749398D01*
X228650000Y-97750000D01*
X228150000Y-97750000D01*
X228150000Y-96250000D01*
X228650000Y-96250000D01*
X228650000Y-96250602D01*
G37*
G04 #@! TD.AperFunction*
D13*
X214640160Y-92308680D03*
D14*
X212100160Y-92308680D03*
X209560160Y-92308680D03*
G04 #@! TA.AperFunction,SMDPad,CuDef*
D11*
G36*
X212650000Y-96250602D02*
G01*
X212674534Y-96250602D01*
X212723365Y-96255412D01*
X212771490Y-96264984D01*
X212818445Y-96279228D01*
X212863778Y-96298005D01*
X212907051Y-96321136D01*
X212947850Y-96348396D01*
X212985779Y-96379524D01*
X213020476Y-96414221D01*
X213051604Y-96452150D01*
X213078864Y-96492949D01*
X213101995Y-96536222D01*
X213120772Y-96581555D01*
X213135016Y-96628510D01*
X213144588Y-96676635D01*
X213149398Y-96725466D01*
X213149398Y-96750000D01*
X213150000Y-96750000D01*
X213150000Y-97250000D01*
X213149398Y-97250000D01*
X213149398Y-97274534D01*
X213144588Y-97323365D01*
X213135016Y-97371490D01*
X213120772Y-97418445D01*
X213101995Y-97463778D01*
X213078864Y-97507051D01*
X213051604Y-97547850D01*
X213020476Y-97585779D01*
X212985779Y-97620476D01*
X212947850Y-97651604D01*
X212907051Y-97678864D01*
X212863778Y-97701995D01*
X212818445Y-97720772D01*
X212771490Y-97735016D01*
X212723365Y-97744588D01*
X212674534Y-97749398D01*
X212650000Y-97749398D01*
X212650000Y-97750000D01*
X212150000Y-97750000D01*
X212150000Y-96250000D01*
X212650000Y-96250000D01*
X212650000Y-96250602D01*
G37*
G04 #@! TD.AperFunction*
G04 #@! TA.AperFunction,SMDPad,CuDef*
G36*
X211850000Y-97750000D02*
G01*
X211350000Y-97750000D01*
X211350000Y-97749398D01*
X211325466Y-97749398D01*
X211276635Y-97744588D01*
X211228510Y-97735016D01*
X211181555Y-97720772D01*
X211136222Y-97701995D01*
X211092949Y-97678864D01*
X211052150Y-97651604D01*
X211014221Y-97620476D01*
X210979524Y-97585779D01*
X210948396Y-97547850D01*
X210921136Y-97507051D01*
X210898005Y-97463778D01*
X210879228Y-97418445D01*
X210864984Y-97371490D01*
X210855412Y-97323365D01*
X210850602Y-97274534D01*
X210850602Y-97250000D01*
X210850000Y-97250000D01*
X210850000Y-96750000D01*
X210850602Y-96750000D01*
X210850602Y-96725466D01*
X210855412Y-96676635D01*
X210864984Y-96628510D01*
X210879228Y-96581555D01*
X210898005Y-96536222D01*
X210921136Y-96492949D01*
X210948396Y-96452150D01*
X210979524Y-96414221D01*
X211014221Y-96379524D01*
X211052150Y-96348396D01*
X211092949Y-96321136D01*
X211136222Y-96298005D01*
X211181555Y-96279228D01*
X211228510Y-96264984D01*
X211276635Y-96255412D01*
X211325466Y-96250602D01*
X211350000Y-96250602D01*
X211350000Y-96250000D01*
X211850000Y-96250000D01*
X211850000Y-97750000D01*
G37*
G04 #@! TD.AperFunction*
D12*
X209000000Y-108000000D03*
X211000000Y-108000000D03*
X213000000Y-108000000D03*
X215000000Y-108000000D03*
G04 #@! TA.AperFunction,SMDPad,CuDef*
G36*
G01*
X206725000Y-98425000D02*
X207275000Y-98425000D01*
G75*
G02*
X207475000Y-98625000I0J-200000D01*
G01*
X207475000Y-99025000D01*
G75*
G02*
X207275000Y-99225000I-200000J0D01*
G01*
X206725000Y-99225000D01*
G75*
G02*
X206525000Y-99025000I0J200000D01*
G01*
X206525000Y-98625000D01*
G75*
G02*
X206725000Y-98425000I200000J0D01*
G01*
G37*
G04 #@! TD.AperFunction*
G04 #@! TA.AperFunction,SMDPad,CuDef*
G36*
G01*
X206725000Y-96775000D02*
X207275000Y-96775000D01*
G75*
G02*
X207475000Y-96975000I0J-200000D01*
G01*
X207475000Y-97375000D01*
G75*
G02*
X207275000Y-97575000I-200000J0D01*
G01*
X206725000Y-97575000D01*
G75*
G02*
X206525000Y-97375000I0J200000D01*
G01*
X206525000Y-96975000D01*
G75*
G02*
X206725000Y-96775000I200000J0D01*
G01*
G37*
G04 #@! TD.AperFunction*
G04 #@! TA.AperFunction,SMDPad,CuDef*
G36*
G01*
X206725000Y-101775000D02*
X207275000Y-101775000D01*
G75*
G02*
X207475000Y-101975000I0J-200000D01*
G01*
X207475000Y-102375000D01*
G75*
G02*
X207275000Y-102575000I-200000J0D01*
G01*
X206725000Y-102575000D01*
G75*
G02*
X206525000Y-102375000I0J200000D01*
G01*
X206525000Y-101975000D01*
G75*
G02*
X206725000Y-101775000I200000J0D01*
G01*
G37*
G04 #@! TD.AperFunction*
G04 #@! TA.AperFunction,SMDPad,CuDef*
G36*
G01*
X206725000Y-103425000D02*
X207275000Y-103425000D01*
G75*
G02*
X207475000Y-103625000I0J-200000D01*
G01*
X207475000Y-104025000D01*
G75*
G02*
X207275000Y-104225000I-200000J0D01*
G01*
X206725000Y-104225000D01*
G75*
G02*
X206525000Y-104025000I0J200000D01*
G01*
X206525000Y-103625000D01*
G75*
G02*
X206725000Y-103425000I200000J0D01*
G01*
G37*
G04 #@! TD.AperFunction*
D15*
X209560160Y-92308680D02*
X208460160Y-92308680D01*
D16*
X208000000Y-109000000D02*
X209000000Y-108000000D01*
X205000000Y-108000000D02*
X206000000Y-109000000D01*
X206000000Y-109000000D02*
X208000000Y-109000000D01*
X207440160Y-92308680D02*
X205000000Y-94748840D01*
X209560160Y-92308680D02*
X207440160Y-92308680D01*
D17*
X205175000Y-103825000D02*
X205000000Y-104000000D01*
X207000000Y-103825000D02*
X205175000Y-103825000D01*
D16*
X205000000Y-104000000D02*
X205000000Y-108000000D01*
X205000000Y-94748840D02*
X205000000Y-104000000D01*
D15*
X225560160Y-92308680D02*
X224460160Y-92308680D01*
D16*
X225560160Y-92308680D02*
X223440160Y-92308680D01*
X221000000Y-108000000D02*
X222000000Y-109000000D01*
X224000000Y-109000000D02*
X225000000Y-108000000D01*
D17*
X223000000Y-103825000D02*
X221175000Y-103825000D01*
D16*
X222000000Y-109000000D02*
X224000000Y-109000000D01*
X223440160Y-92308680D02*
X221000000Y-94748840D01*
D17*
X221175000Y-103825000D02*
X221000000Y-104000000D01*
D16*
X221000000Y-104000000D02*
X221000000Y-108000000D01*
X221000000Y-94748840D02*
X221000000Y-104000000D01*
X237000000Y-108000000D02*
X238000000Y-109000000D01*
X240000000Y-109000000D02*
X241000000Y-108000000D01*
D17*
X239000000Y-103825000D02*
X237175000Y-103825000D01*
D16*
X239440160Y-92308680D02*
X237000000Y-94748840D01*
D17*
X237175000Y-103825000D02*
X237000000Y-104000000D01*
D16*
X237000000Y-104000000D02*
X237000000Y-108000000D01*
X237000000Y-94748840D02*
X237000000Y-104000000D01*
D15*
X241560160Y-92308680D02*
X240460160Y-92308680D01*
D16*
X241560160Y-92308680D02*
X239440160Y-92308680D01*
X238000000Y-109000000D02*
X240000000Y-109000000D01*
X269000000Y-108000000D02*
X270000000Y-109000000D01*
X272000000Y-109000000D02*
X273000000Y-108000000D01*
D17*
X271000000Y-103825000D02*
X269175000Y-103825000D01*
D16*
X271440160Y-92308680D02*
X269000000Y-94748840D01*
D17*
X269175000Y-103825000D02*
X269000000Y-104000000D01*
D16*
X269000000Y-104000000D02*
X269000000Y-108000000D01*
X269000000Y-94748840D02*
X269000000Y-104000000D01*
D15*
X273560160Y-92308680D02*
X272460160Y-92308680D01*
D16*
X273560160Y-92308680D02*
X271440160Y-92308680D01*
X287440160Y-92308680D02*
X285000000Y-94748840D01*
X270000000Y-109000000D02*
X272000000Y-109000000D01*
X285000000Y-108000000D02*
X286000000Y-109000000D01*
D17*
X285175000Y-103825000D02*
X285000000Y-104000000D01*
D15*
X257560160Y-92308680D02*
X256460160Y-92308680D01*
D16*
X257560160Y-92308680D02*
X255440160Y-92308680D01*
X285000000Y-104000000D02*
X285000000Y-108000000D01*
D17*
X287000000Y-103825000D02*
X285175000Y-103825000D01*
D15*
X289560160Y-92308680D02*
X288460160Y-92308680D01*
D16*
X289560160Y-92308680D02*
X287440160Y-92308680D01*
X286000000Y-109000000D02*
X288000000Y-109000000D01*
X288000000Y-109000000D02*
X289000000Y-108000000D01*
X253000000Y-108000000D02*
X254000000Y-109000000D01*
X256000000Y-109000000D02*
X257000000Y-108000000D01*
D17*
X255000000Y-103825000D02*
X253175000Y-103825000D01*
D16*
X254000000Y-109000000D02*
X256000000Y-109000000D01*
X255440160Y-92308680D02*
X253000000Y-94748840D01*
D17*
X253175000Y-103825000D02*
X253000000Y-104000000D01*
D16*
X253000000Y-104000000D02*
X253000000Y-108000000D01*
X253000000Y-94748840D02*
X253000000Y-104000000D01*
X285000000Y-94748840D02*
X285000000Y-104000000D01*
X221000000Y-138000000D02*
X222000000Y-139000000D01*
X224000000Y-139000000D02*
X225000000Y-138000000D01*
D17*
X223000000Y-133825000D02*
X221175000Y-133825000D01*
D16*
X223440160Y-122308680D02*
X221000000Y-124748840D01*
D17*
X221175000Y-133825000D02*
X221000000Y-134000000D01*
D16*
X221000000Y-134000000D02*
X221000000Y-138000000D01*
X221000000Y-124748840D02*
X221000000Y-134000000D01*
D15*
X225560160Y-122308680D02*
X224460160Y-122308680D01*
D16*
X225560160Y-122308680D02*
X223440160Y-122308680D01*
X239440160Y-122308680D02*
X237000000Y-124748840D01*
X222000000Y-139000000D02*
X224000000Y-139000000D01*
X237000000Y-138000000D02*
X238000000Y-139000000D01*
D17*
X237175000Y-133825000D02*
X237000000Y-134000000D01*
D15*
X209560160Y-122308680D02*
X208460160Y-122308680D01*
D16*
X209560160Y-122308680D02*
X207440160Y-122308680D01*
X237000000Y-134000000D02*
X237000000Y-138000000D01*
D17*
X239000000Y-133825000D02*
X237175000Y-133825000D01*
D15*
X241560160Y-122308680D02*
X240460160Y-122308680D01*
D16*
X241560160Y-122308680D02*
X239440160Y-122308680D01*
X238000000Y-139000000D02*
X240000000Y-139000000D01*
D15*
X257560160Y-122308680D02*
X256460160Y-122308680D01*
D16*
X257560160Y-122308680D02*
X255440160Y-122308680D01*
X285000000Y-134000000D02*
X285000000Y-138000000D01*
D17*
X287000000Y-133825000D02*
X285175000Y-133825000D01*
D15*
X289560160Y-122308680D02*
X288460160Y-122308680D01*
D16*
X286000000Y-139000000D02*
X288000000Y-139000000D01*
X288000000Y-139000000D02*
X289000000Y-138000000D01*
X253000000Y-138000000D02*
X254000000Y-139000000D01*
X256000000Y-139000000D02*
X257000000Y-138000000D01*
D17*
X255000000Y-133825000D02*
X253175000Y-133825000D01*
D16*
X254000000Y-139000000D02*
X256000000Y-139000000D01*
X255440160Y-122308680D02*
X253000000Y-124748840D01*
D17*
X253175000Y-133825000D02*
X253000000Y-134000000D01*
D16*
X253000000Y-134000000D02*
X253000000Y-138000000D01*
X253000000Y-124748840D02*
X253000000Y-134000000D01*
X285000000Y-124748840D02*
X285000000Y-134000000D01*
X240000000Y-139000000D02*
X241000000Y-138000000D01*
X269000000Y-138000000D02*
X270000000Y-139000000D01*
X272000000Y-139000000D02*
X273000000Y-138000000D01*
D17*
X271000000Y-133825000D02*
X269175000Y-133825000D01*
D16*
X271440160Y-122308680D02*
X269000000Y-124748840D01*
D17*
X269175000Y-133825000D02*
X269000000Y-134000000D01*
D16*
X269000000Y-134000000D02*
X269000000Y-138000000D01*
X269000000Y-124748840D02*
X269000000Y-134000000D01*
D15*
X273560160Y-122308680D02*
X272460160Y-122308680D01*
D16*
X273560160Y-122308680D02*
X271440160Y-122308680D01*
X287440160Y-122308680D02*
X285000000Y-124748840D01*
X270000000Y-139000000D02*
X272000000Y-139000000D01*
X285000000Y-138000000D02*
X286000000Y-139000000D01*
D17*
X285175000Y-133825000D02*
X285000000Y-134000000D01*
D16*
X205000000Y-138000000D02*
X206000000Y-139000000D01*
X208000000Y-139000000D02*
X209000000Y-138000000D01*
D17*
X207000000Y-133825000D02*
X205175000Y-133825000D01*
D16*
X206000000Y-139000000D02*
X208000000Y-139000000D01*
X207440160Y-122308680D02*
X205000000Y-124748840D01*
D17*
X205175000Y-133825000D02*
X205000000Y-134000000D01*
D16*
X205000000Y-134000000D02*
X205000000Y-138000000D01*
X205000000Y-124748840D02*
X205000000Y-134000000D01*
X289560160Y-122308680D02*
X287440160Y-122308680D01*
X237000000Y-124748840D02*
X237000000Y-134000000D01*
D15*
X289560160Y-62308680D02*
X288460160Y-62308680D01*
D16*
X286000000Y-79000000D02*
X288000000Y-79000000D01*
X288000000Y-79000000D02*
X289000000Y-78000000D01*
X253000000Y-78000000D02*
X254000000Y-79000000D01*
X256000000Y-79000000D02*
X257000000Y-78000000D01*
D17*
X255000000Y-73825000D02*
X253175000Y-73825000D01*
D16*
X254000000Y-79000000D02*
X256000000Y-79000000D01*
X255440160Y-62308680D02*
X253000000Y-64748840D01*
D17*
X253175000Y-73825000D02*
X253000000Y-74000000D01*
D16*
X253000000Y-74000000D02*
X253000000Y-78000000D01*
X253000000Y-64748840D02*
X253000000Y-74000000D01*
X285000000Y-64748840D02*
X285000000Y-74000000D01*
X240000000Y-79000000D02*
X241000000Y-78000000D01*
X269000000Y-78000000D02*
X270000000Y-79000000D01*
X272000000Y-79000000D02*
X273000000Y-78000000D01*
D17*
X271000000Y-73825000D02*
X269175000Y-73825000D01*
D16*
X271440160Y-62308680D02*
X269000000Y-64748840D01*
D17*
X269175000Y-73825000D02*
X269000000Y-74000000D01*
D16*
X269000000Y-74000000D02*
X269000000Y-78000000D01*
X269000000Y-64748840D02*
X269000000Y-74000000D01*
D15*
X273560160Y-62308680D02*
X272460160Y-62308680D01*
D16*
X273560160Y-62308680D02*
X271440160Y-62308680D01*
X287440160Y-62308680D02*
X285000000Y-64748840D01*
X270000000Y-79000000D02*
X272000000Y-79000000D01*
X285000000Y-78000000D02*
X286000000Y-79000000D01*
D17*
X285175000Y-73825000D02*
X285000000Y-74000000D01*
D16*
X205000000Y-78000000D02*
X206000000Y-79000000D01*
X208000000Y-79000000D02*
X209000000Y-78000000D01*
D17*
X207000000Y-73825000D02*
X205175000Y-73825000D01*
D16*
X206000000Y-79000000D02*
X208000000Y-79000000D01*
X207440160Y-62308680D02*
X205000000Y-64748840D01*
D17*
X205175000Y-73825000D02*
X205000000Y-74000000D01*
D16*
X205000000Y-74000000D02*
X205000000Y-78000000D01*
X205000000Y-64748840D02*
X205000000Y-74000000D01*
X289560160Y-62308680D02*
X287440160Y-62308680D01*
X237000000Y-64748840D02*
X237000000Y-74000000D01*
X221000000Y-78000000D02*
X222000000Y-79000000D01*
X224000000Y-79000000D02*
X225000000Y-78000000D01*
D17*
X223000000Y-73825000D02*
X221175000Y-73825000D01*
D16*
X223440160Y-62308680D02*
X221000000Y-64748840D01*
D17*
X221175000Y-73825000D02*
X221000000Y-74000000D01*
D16*
X221000000Y-74000000D02*
X221000000Y-78000000D01*
X221000000Y-64748840D02*
X221000000Y-74000000D01*
D15*
X225560160Y-62308680D02*
X224460160Y-62308680D01*
D16*
X225560160Y-62308680D02*
X223440160Y-62308680D01*
X239440160Y-62308680D02*
X237000000Y-64748840D01*
X222000000Y-79000000D02*
X224000000Y-79000000D01*
X237000000Y-78000000D02*
X238000000Y-79000000D01*
D17*
X237175000Y-73825000D02*
X237000000Y-74000000D01*
D15*
X209560160Y-62308680D02*
X208460160Y-62308680D01*
D16*
X209560160Y-62308680D02*
X207440160Y-62308680D01*
X237000000Y-74000000D02*
X237000000Y-78000000D01*
D17*
X239000000Y-73825000D02*
X237175000Y-73825000D01*
D15*
X241560160Y-62308680D02*
X240460160Y-62308680D01*
D16*
X241560160Y-62308680D02*
X239440160Y-62308680D01*
X238000000Y-79000000D02*
X240000000Y-79000000D01*
D15*
X257560160Y-62308680D02*
X256460160Y-62308680D01*
D16*
X257560160Y-62308680D02*
X255440160Y-62308680D01*
X285000000Y-74000000D02*
X285000000Y-78000000D01*
D17*
X287000000Y-73825000D02*
X285175000Y-73825000D01*
D18*
X212090000Y-92710000D02*
X212090000Y-94360000D01*
D15*
X212650000Y-97000000D02*
X212650000Y-96252408D01*
D17*
X212100160Y-92308680D02*
X212100160Y-93899840D01*
X209912500Y-96087500D02*
X208087500Y-96087500D01*
X212100160Y-93899840D02*
X209912500Y-96087500D01*
X207000000Y-97175000D02*
X208087500Y-96087500D01*
X212650000Y-92858520D02*
X212100160Y-92308680D01*
X212650000Y-97000000D02*
X212650000Y-92858520D01*
X228100160Y-93899840D02*
X225912500Y-96087500D01*
X228650000Y-97000000D02*
X228650000Y-92858520D01*
X228650000Y-92858520D02*
X228100160Y-92308680D01*
D15*
X228650000Y-97000000D02*
X228650000Y-96252408D01*
D18*
X228090000Y-92710000D02*
X228090000Y-94360000D01*
D17*
X223000000Y-97175000D02*
X224087500Y-96087500D01*
X225912500Y-96087500D02*
X224087500Y-96087500D01*
X228100160Y-92308680D02*
X228100160Y-93899840D01*
D18*
X244090000Y-92710000D02*
X244090000Y-94360000D01*
D17*
X241912500Y-96087500D02*
X240087500Y-96087500D01*
X244100160Y-92308680D02*
X244100160Y-93899840D01*
X239000000Y-97175000D02*
X240087500Y-96087500D01*
X244100160Y-93899840D02*
X241912500Y-96087500D01*
X244650000Y-97000000D02*
X244650000Y-92858520D01*
X244650000Y-92858520D02*
X244100160Y-92308680D01*
D15*
X244650000Y-97000000D02*
X244650000Y-96252408D01*
D17*
X292650000Y-97000000D02*
X292650000Y-92858520D01*
X292650000Y-92858520D02*
X292100160Y-92308680D01*
D15*
X292650000Y-97000000D02*
X292650000Y-96252408D01*
D18*
X276090000Y-92710000D02*
X276090000Y-94360000D01*
D17*
X273912500Y-96087500D02*
X272087500Y-96087500D01*
X276100160Y-92308680D02*
X276100160Y-93899840D01*
X260100160Y-93899840D02*
X257912500Y-96087500D01*
D18*
X292090000Y-92710000D02*
X292090000Y-94360000D01*
D17*
X260650000Y-97000000D02*
X260650000Y-92858520D01*
X289912500Y-96087500D02*
X288087500Y-96087500D01*
X260650000Y-92858520D02*
X260100160Y-92308680D01*
D15*
X260650000Y-97000000D02*
X260650000Y-96252408D01*
D17*
X271000000Y-97175000D02*
X272087500Y-96087500D01*
X276100160Y-93899840D02*
X273912500Y-96087500D01*
X287000000Y-97175000D02*
X288087500Y-96087500D01*
X292100160Y-93899840D02*
X289912500Y-96087500D01*
D18*
X260090000Y-92710000D02*
X260090000Y-94360000D01*
D17*
X255000000Y-97175000D02*
X256087500Y-96087500D01*
X257912500Y-96087500D02*
X256087500Y-96087500D01*
X260100160Y-92308680D02*
X260100160Y-93899840D01*
X292100160Y-92308680D02*
X292100160Y-93899840D01*
X276650000Y-97000000D02*
X276650000Y-92858520D01*
X276650000Y-92858520D02*
X276100160Y-92308680D01*
D15*
X276650000Y-97000000D02*
X276650000Y-96252408D01*
D17*
X244650000Y-127000000D02*
X244650000Y-122858520D01*
X244650000Y-122858520D02*
X244100160Y-122308680D01*
D15*
X244650000Y-127000000D02*
X244650000Y-126252408D01*
D17*
X292650000Y-127000000D02*
X292650000Y-122858520D01*
D18*
X228090000Y-122710000D02*
X228090000Y-124360000D01*
D17*
X225912500Y-126087500D02*
X224087500Y-126087500D01*
X228100160Y-122308680D02*
X228100160Y-123899840D01*
X212100160Y-123899840D02*
X209912500Y-126087500D01*
D18*
X244090000Y-122710000D02*
X244090000Y-124360000D01*
D17*
X292650000Y-122858520D02*
X292100160Y-122308680D01*
X212650000Y-127000000D02*
X212650000Y-122858520D01*
X241912500Y-126087500D02*
X240087500Y-126087500D01*
X212650000Y-122858520D02*
X212100160Y-122308680D01*
D15*
X212650000Y-127000000D02*
X212650000Y-126252408D01*
D17*
X223000000Y-127175000D02*
X224087500Y-126087500D01*
X228100160Y-123899840D02*
X225912500Y-126087500D01*
X239000000Y-127175000D02*
X240087500Y-126087500D01*
X244100160Y-123899840D02*
X241912500Y-126087500D01*
X260650000Y-122858520D02*
X260100160Y-122308680D01*
D15*
X260650000Y-127000000D02*
X260650000Y-126252408D01*
D17*
X271000000Y-127175000D02*
X272087500Y-126087500D01*
X276100160Y-123899840D02*
X273912500Y-126087500D01*
X287000000Y-127175000D02*
X288087500Y-126087500D01*
X292100160Y-123899840D02*
X289912500Y-126087500D01*
D18*
X260090000Y-122710000D02*
X260090000Y-124360000D01*
D17*
X255000000Y-127175000D02*
X256087500Y-126087500D01*
X257912500Y-126087500D02*
X256087500Y-126087500D01*
X260100160Y-122308680D02*
X260100160Y-123899840D01*
X292100160Y-122308680D02*
X292100160Y-123899840D01*
X276650000Y-127000000D02*
X276650000Y-122858520D01*
X276650000Y-122858520D02*
X276100160Y-122308680D01*
D15*
X276650000Y-127000000D02*
X276650000Y-126252408D01*
X292650000Y-127000000D02*
X292650000Y-126252408D01*
D18*
X276090000Y-122710000D02*
X276090000Y-124360000D01*
D17*
X273912500Y-126087500D02*
X272087500Y-126087500D01*
X276100160Y-122308680D02*
X276100160Y-123899840D01*
X260100160Y-123899840D02*
X257912500Y-126087500D01*
D18*
X292090000Y-122710000D02*
X292090000Y-124360000D01*
D17*
X260650000Y-127000000D02*
X260650000Y-122858520D01*
X289912500Y-126087500D02*
X288087500Y-126087500D01*
D18*
X212090000Y-122710000D02*
X212090000Y-124360000D01*
D17*
X207000000Y-127175000D02*
X208087500Y-126087500D01*
X209912500Y-126087500D02*
X208087500Y-126087500D01*
X212100160Y-122308680D02*
X212100160Y-123899840D01*
X244100160Y-122308680D02*
X244100160Y-123899840D01*
X228650000Y-127000000D02*
X228650000Y-122858520D01*
X228650000Y-122858520D02*
X228100160Y-122308680D01*
D15*
X228650000Y-127000000D02*
X228650000Y-126252408D01*
D18*
X260090000Y-62710000D02*
X260090000Y-64360000D01*
D17*
X255000000Y-67175000D02*
X256087500Y-66087500D01*
X257912500Y-66087500D02*
X256087500Y-66087500D01*
X260100160Y-62308680D02*
X260100160Y-63899840D01*
X292100160Y-62308680D02*
X292100160Y-63899840D01*
X276650000Y-67000000D02*
X276650000Y-62858520D01*
X276650000Y-62858520D02*
X276100160Y-62308680D01*
D15*
X276650000Y-67000000D02*
X276650000Y-66252408D01*
X292650000Y-67000000D02*
X292650000Y-66252408D01*
D18*
X276090000Y-62710000D02*
X276090000Y-64360000D01*
D17*
X273912500Y-66087500D02*
X272087500Y-66087500D01*
X276100160Y-62308680D02*
X276100160Y-63899840D01*
X260100160Y-63899840D02*
X257912500Y-66087500D01*
D18*
X292090000Y-62710000D02*
X292090000Y-64360000D01*
D17*
X289912500Y-66087500D02*
X288087500Y-66087500D01*
D18*
X212090000Y-62710000D02*
X212090000Y-64360000D01*
D17*
X207000000Y-67175000D02*
X208087500Y-66087500D01*
X209912500Y-66087500D02*
X208087500Y-66087500D01*
X212100160Y-62308680D02*
X212100160Y-63899840D01*
X244100160Y-62308680D02*
X244100160Y-63899840D01*
X228650000Y-67000000D02*
X228650000Y-62858520D01*
X228650000Y-62858520D02*
X228100160Y-62308680D01*
D15*
X228650000Y-67000000D02*
X228650000Y-66252408D01*
D17*
X292650000Y-67000000D02*
X292650000Y-62858520D01*
X244650000Y-62858520D02*
X244100160Y-62308680D01*
X244650000Y-67000000D02*
X244650000Y-62858520D01*
D15*
X244650000Y-67000000D02*
X244650000Y-66252408D01*
D18*
X228090000Y-62710000D02*
X228090000Y-64360000D01*
D17*
X225912500Y-66087500D02*
X224087500Y-66087500D01*
X228100160Y-62308680D02*
X228100160Y-63899840D01*
X212100160Y-63899840D02*
X209912500Y-66087500D01*
D18*
X244090000Y-62710000D02*
X244090000Y-64360000D01*
D17*
X292650000Y-62858520D02*
X292100160Y-62308680D01*
X212650000Y-67000000D02*
X212650000Y-62858520D01*
X241912500Y-66087500D02*
X240087500Y-66087500D01*
X212650000Y-62858520D02*
X212100160Y-62308680D01*
D15*
X212650000Y-67000000D02*
X212650000Y-66252408D01*
D17*
X223000000Y-67175000D02*
X224087500Y-66087500D01*
X228100160Y-63899840D02*
X225912500Y-66087500D01*
X239000000Y-67175000D02*
X240087500Y-66087500D01*
X244100160Y-63899840D02*
X241912500Y-66087500D01*
X260650000Y-62858520D02*
X260100160Y-62308680D01*
D15*
X260650000Y-67000000D02*
X260650000Y-66252408D01*
D17*
X271000000Y-67175000D02*
X272087500Y-66087500D01*
X276100160Y-63899840D02*
X273912500Y-66087500D01*
X287000000Y-67175000D02*
X288087500Y-66087500D01*
X292100160Y-63899840D02*
X289912500Y-66087500D01*
X260650000Y-67000000D02*
X260650000Y-62858520D01*
D16*
X211474341Y-109535001D02*
X215736801Y-109535001D01*
X211000000Y-109060660D02*
X211474341Y-109535001D01*
X215736801Y-109535001D02*
X218000000Y-107271802D01*
X211000000Y-108000000D02*
X211000000Y-109060660D01*
X218000000Y-95668520D02*
X214640160Y-92308680D01*
X218000000Y-107271802D02*
X218000000Y-95668520D01*
X231736801Y-109535001D02*
X234000000Y-107271802D01*
X234000000Y-95668520D02*
X230640160Y-92308680D01*
X227000000Y-108000000D02*
X227000000Y-109060660D01*
X227000000Y-109060660D02*
X227474341Y-109535001D01*
X227474341Y-109535001D02*
X231736801Y-109535001D01*
X234000000Y-107271802D02*
X234000000Y-95668520D01*
X247736801Y-109535001D02*
X250000000Y-107271802D01*
X243000000Y-108000000D02*
X243000000Y-109060660D01*
X243000000Y-109060660D02*
X243474341Y-109535001D01*
X243474341Y-109535001D02*
X247736801Y-109535001D01*
X250000000Y-107271802D02*
X250000000Y-95668520D01*
X250000000Y-95668520D02*
X246640160Y-92308680D01*
X298000000Y-95668520D02*
X294640160Y-92308680D01*
X279736801Y-109535001D02*
X282000000Y-107271802D01*
X275000000Y-108000000D02*
X275000000Y-109060660D01*
X275000000Y-109060660D02*
X275474341Y-109535001D01*
X275474341Y-109535001D02*
X279736801Y-109535001D01*
X282000000Y-107271802D02*
X282000000Y-95668520D01*
X291000000Y-109060660D02*
X291474341Y-109535001D01*
X263736801Y-109535001D02*
X266000000Y-107271802D01*
X266000000Y-95668520D02*
X262640160Y-92308680D01*
X295736801Y-109535001D02*
X298000000Y-107271802D01*
X259000000Y-108000000D02*
X259000000Y-109060660D01*
X259000000Y-109060660D02*
X259474341Y-109535001D01*
X291000000Y-108000000D02*
X291000000Y-109060660D01*
X259474341Y-109535001D02*
X263736801Y-109535001D01*
X266000000Y-107271802D02*
X266000000Y-95668520D01*
X291474341Y-109535001D02*
X295736801Y-109535001D01*
X298000000Y-107271802D02*
X298000000Y-95668520D01*
X282000000Y-95668520D02*
X278640160Y-92308680D01*
X250000000Y-125668520D02*
X246640160Y-122308680D01*
X231736801Y-139535001D02*
X234000000Y-137271802D01*
X227000000Y-138000000D02*
X227000000Y-139060660D01*
X227000000Y-139060660D02*
X227474341Y-139535001D01*
X227474341Y-139535001D02*
X231736801Y-139535001D01*
X234000000Y-137271802D02*
X234000000Y-125668520D01*
X243000000Y-139060660D02*
X243474341Y-139535001D01*
X215736801Y-139535001D02*
X218000000Y-137271802D01*
X298000000Y-125668520D02*
X294640160Y-122308680D01*
X218000000Y-125668520D02*
X214640160Y-122308680D01*
X295736801Y-139535001D02*
X298000000Y-137271802D01*
X247736801Y-139535001D02*
X250000000Y-137271802D01*
X259000000Y-138000000D02*
X259000000Y-139060660D01*
X259000000Y-139060660D02*
X259474341Y-139535001D01*
X291000000Y-138000000D02*
X291000000Y-139060660D01*
X259474341Y-139535001D02*
X263736801Y-139535001D01*
X266000000Y-137271802D02*
X266000000Y-125668520D01*
X291474341Y-139535001D02*
X295736801Y-139535001D01*
X298000000Y-137271802D02*
X298000000Y-125668520D01*
X282000000Y-125668520D02*
X278640160Y-122308680D01*
X279736801Y-139535001D02*
X282000000Y-137271802D01*
X275000000Y-138000000D02*
X275000000Y-139060660D01*
X275000000Y-139060660D02*
X275474341Y-139535001D01*
X275474341Y-139535001D02*
X279736801Y-139535001D01*
X282000000Y-137271802D02*
X282000000Y-125668520D01*
X291000000Y-139060660D02*
X291474341Y-139535001D01*
X263736801Y-139535001D02*
X266000000Y-137271802D01*
X266000000Y-125668520D02*
X262640160Y-122308680D01*
X211000000Y-138000000D02*
X211000000Y-139060660D01*
X211000000Y-139060660D02*
X211474341Y-139535001D01*
X243000000Y-138000000D02*
X243000000Y-139060660D01*
X211474341Y-139535001D02*
X215736801Y-139535001D01*
X218000000Y-137271802D02*
X218000000Y-125668520D01*
X243474341Y-139535001D02*
X247736801Y-139535001D01*
X250000000Y-137271802D02*
X250000000Y-125668520D01*
X234000000Y-125668520D02*
X230640160Y-122308680D01*
X259000000Y-78000000D02*
X259000000Y-79060660D01*
X259000000Y-79060660D02*
X259474341Y-79535001D01*
X291000000Y-78000000D02*
X291000000Y-79060660D01*
X259474341Y-79535001D02*
X263736801Y-79535001D01*
X266000000Y-77271802D02*
X266000000Y-65668520D01*
X291474341Y-79535001D02*
X295736801Y-79535001D01*
X298000000Y-77271802D02*
X298000000Y-65668520D01*
X282000000Y-65668520D02*
X278640160Y-62308680D01*
X279736801Y-79535001D02*
X282000000Y-77271802D01*
X275000000Y-78000000D02*
X275000000Y-79060660D01*
X275000000Y-79060660D02*
X275474341Y-79535001D01*
X275474341Y-79535001D02*
X279736801Y-79535001D01*
X282000000Y-77271802D02*
X282000000Y-65668520D01*
X291000000Y-79060660D02*
X291474341Y-79535001D01*
X263736801Y-79535001D02*
X266000000Y-77271802D01*
X266000000Y-65668520D02*
X262640160Y-62308680D01*
X211000000Y-78000000D02*
X211000000Y-79060660D01*
X211000000Y-79060660D02*
X211474341Y-79535001D01*
X243000000Y-78000000D02*
X243000000Y-79060660D01*
X211474341Y-79535001D02*
X215736801Y-79535001D01*
X218000000Y-77271802D02*
X218000000Y-65668520D01*
X243474341Y-79535001D02*
X247736801Y-79535001D01*
X250000000Y-77271802D02*
X250000000Y-65668520D01*
X234000000Y-65668520D02*
X230640160Y-62308680D01*
X250000000Y-65668520D02*
X246640160Y-62308680D01*
X231736801Y-79535001D02*
X234000000Y-77271802D01*
X227000000Y-78000000D02*
X227000000Y-79060660D01*
X227000000Y-79060660D02*
X227474341Y-79535001D01*
X227474341Y-79535001D02*
X231736801Y-79535001D01*
X234000000Y-77271802D02*
X234000000Y-65668520D01*
X243000000Y-79060660D02*
X243474341Y-79535001D01*
X215736801Y-79535001D02*
X218000000Y-77271802D01*
X298000000Y-65668520D02*
X294640160Y-62308680D01*
X218000000Y-65668520D02*
X214640160Y-62308680D01*
X295736801Y-79535001D02*
X298000000Y-77271802D01*
X247736801Y-79535001D02*
X250000000Y-77271802D01*
D17*
X213000000Y-106000000D02*
X215000000Y-108000000D01*
X210000000Y-106000000D02*
X213000000Y-106000000D01*
X208000000Y-104000000D02*
X210000000Y-106000000D01*
X208000000Y-103175000D02*
X208000000Y-104000000D01*
X207000000Y-102175000D02*
X208000000Y-103175000D01*
X207000000Y-102175000D02*
X207000000Y-98825000D01*
X207000000Y-98825000D02*
X208175000Y-98825000D01*
X210000000Y-97000000D02*
X211350000Y-97000000D01*
X208175000Y-98825000D02*
X210000000Y-97000000D01*
X224175000Y-98825000D02*
X226000000Y-97000000D01*
X224000000Y-104000000D02*
X226000000Y-106000000D01*
X223000000Y-102175000D02*
X224000000Y-103175000D01*
X226000000Y-97000000D02*
X227350000Y-97000000D01*
X226000000Y-106000000D02*
X229000000Y-106000000D01*
X223000000Y-102175000D02*
X223000000Y-98825000D01*
X224000000Y-103175000D02*
X224000000Y-104000000D01*
X229000000Y-106000000D02*
X231000000Y-108000000D01*
X223000000Y-98825000D02*
X224175000Y-98825000D01*
X242000000Y-97000000D02*
X243350000Y-97000000D01*
X242000000Y-106000000D02*
X245000000Y-106000000D01*
X240000000Y-103175000D02*
X240000000Y-104000000D01*
X245000000Y-106000000D02*
X247000000Y-108000000D01*
X240000000Y-104000000D02*
X242000000Y-106000000D01*
X240175000Y-98825000D02*
X242000000Y-97000000D01*
X239000000Y-98825000D02*
X240175000Y-98825000D01*
X239000000Y-102175000D02*
X239000000Y-98825000D01*
X239000000Y-102175000D02*
X240000000Y-103175000D01*
X256175000Y-98825000D02*
X258000000Y-97000000D01*
X287000000Y-102175000D02*
X288000000Y-103175000D01*
X274000000Y-97000000D02*
X275350000Y-97000000D01*
X274000000Y-106000000D02*
X277000000Y-106000000D01*
X272000000Y-103175000D02*
X272000000Y-104000000D01*
X277000000Y-106000000D02*
X279000000Y-108000000D01*
X272000000Y-104000000D02*
X274000000Y-106000000D01*
X288000000Y-104000000D02*
X290000000Y-106000000D01*
X288175000Y-98825000D02*
X290000000Y-97000000D01*
X272175000Y-98825000D02*
X274000000Y-97000000D01*
X256000000Y-104000000D02*
X258000000Y-106000000D01*
X290000000Y-97000000D02*
X291350000Y-97000000D01*
X255000000Y-102175000D02*
X256000000Y-103175000D01*
X271000000Y-98825000D02*
X272175000Y-98825000D01*
X288000000Y-103175000D02*
X288000000Y-104000000D01*
X287000000Y-102175000D02*
X287000000Y-98825000D01*
X293000000Y-106000000D02*
X295000000Y-108000000D01*
X258000000Y-97000000D02*
X259350000Y-97000000D01*
X287000000Y-98825000D02*
X288175000Y-98825000D01*
X258000000Y-106000000D02*
X261000000Y-106000000D01*
X255000000Y-102175000D02*
X255000000Y-98825000D01*
X290000000Y-106000000D02*
X293000000Y-106000000D01*
X256000000Y-103175000D02*
X256000000Y-104000000D01*
X271000000Y-102175000D02*
X271000000Y-98825000D01*
X261000000Y-106000000D02*
X263000000Y-108000000D01*
X271000000Y-102175000D02*
X272000000Y-103175000D01*
X255000000Y-98825000D02*
X256175000Y-98825000D01*
X208175000Y-128825000D02*
X210000000Y-127000000D01*
X239000000Y-132175000D02*
X240000000Y-133175000D01*
X287000000Y-132175000D02*
X288000000Y-133175000D01*
X226000000Y-127000000D02*
X227350000Y-127000000D01*
X226000000Y-136000000D02*
X229000000Y-136000000D01*
X224000000Y-133175000D02*
X224000000Y-134000000D01*
X229000000Y-136000000D02*
X231000000Y-138000000D01*
X224000000Y-134000000D02*
X226000000Y-136000000D01*
X240000000Y-134000000D02*
X242000000Y-136000000D01*
X240175000Y-128825000D02*
X242000000Y-127000000D01*
X224175000Y-128825000D02*
X226000000Y-127000000D01*
X208000000Y-134000000D02*
X210000000Y-136000000D01*
X242000000Y-127000000D02*
X243350000Y-127000000D01*
X207000000Y-132175000D02*
X208000000Y-133175000D01*
X223000000Y-128825000D02*
X224175000Y-128825000D01*
X240000000Y-133175000D02*
X240000000Y-134000000D01*
X239000000Y-132175000D02*
X239000000Y-128825000D01*
X245000000Y-136000000D02*
X247000000Y-138000000D01*
X210000000Y-127000000D02*
X211350000Y-127000000D01*
X271000000Y-128825000D02*
X272175000Y-128825000D01*
X288000000Y-133175000D02*
X288000000Y-134000000D01*
X287000000Y-132175000D02*
X287000000Y-128825000D01*
X293000000Y-136000000D02*
X295000000Y-138000000D01*
X258000000Y-127000000D02*
X259350000Y-127000000D01*
X287000000Y-128825000D02*
X288175000Y-128825000D01*
X258000000Y-136000000D02*
X261000000Y-136000000D01*
X255000000Y-132175000D02*
X255000000Y-128825000D01*
X290000000Y-136000000D02*
X293000000Y-136000000D01*
X256000000Y-133175000D02*
X256000000Y-134000000D01*
X271000000Y-132175000D02*
X271000000Y-128825000D01*
X261000000Y-136000000D02*
X263000000Y-138000000D01*
X271000000Y-132175000D02*
X272000000Y-133175000D01*
X255000000Y-128825000D02*
X256175000Y-128825000D01*
X239000000Y-128825000D02*
X240175000Y-128825000D01*
X256175000Y-128825000D02*
X258000000Y-127000000D01*
X274000000Y-127000000D02*
X275350000Y-127000000D01*
X274000000Y-136000000D02*
X277000000Y-136000000D01*
X272000000Y-133175000D02*
X272000000Y-134000000D01*
X277000000Y-136000000D02*
X279000000Y-138000000D01*
X272000000Y-134000000D02*
X274000000Y-136000000D01*
X288000000Y-134000000D02*
X290000000Y-136000000D01*
X288175000Y-128825000D02*
X290000000Y-127000000D01*
X272175000Y-128825000D02*
X274000000Y-127000000D01*
X256000000Y-134000000D02*
X258000000Y-136000000D01*
X290000000Y-127000000D02*
X291350000Y-127000000D01*
X255000000Y-132175000D02*
X256000000Y-133175000D01*
X210000000Y-136000000D02*
X213000000Y-136000000D01*
X207000000Y-132175000D02*
X207000000Y-128825000D01*
X242000000Y-136000000D02*
X245000000Y-136000000D01*
X208000000Y-133175000D02*
X208000000Y-134000000D01*
X223000000Y-132175000D02*
X223000000Y-128825000D01*
X213000000Y-136000000D02*
X215000000Y-138000000D01*
X223000000Y-132175000D02*
X224000000Y-133175000D01*
X207000000Y-128825000D02*
X208175000Y-128825000D01*
X293000000Y-76000000D02*
X295000000Y-78000000D01*
X258000000Y-67000000D02*
X259350000Y-67000000D01*
X287000000Y-68825000D02*
X288175000Y-68825000D01*
X258000000Y-76000000D02*
X261000000Y-76000000D01*
X255000000Y-72175000D02*
X255000000Y-68825000D01*
X290000000Y-76000000D02*
X293000000Y-76000000D01*
X256000000Y-73175000D02*
X256000000Y-74000000D01*
X271000000Y-72175000D02*
X271000000Y-68825000D01*
X271000000Y-72175000D02*
X272000000Y-73175000D01*
X255000000Y-68825000D02*
X256175000Y-68825000D01*
X239000000Y-68825000D02*
X240175000Y-68825000D01*
X256175000Y-68825000D02*
X258000000Y-67000000D01*
X274000000Y-67000000D02*
X275350000Y-67000000D01*
X274000000Y-76000000D02*
X277000000Y-76000000D01*
X272000000Y-73175000D02*
X272000000Y-74000000D01*
X277000000Y-76000000D02*
X279000000Y-78000000D01*
X272000000Y-74000000D02*
X274000000Y-76000000D01*
X288000000Y-74000000D02*
X290000000Y-76000000D01*
X288175000Y-68825000D02*
X290000000Y-67000000D01*
X272175000Y-68825000D02*
X274000000Y-67000000D01*
X256000000Y-74000000D02*
X258000000Y-76000000D01*
X290000000Y-67000000D02*
X291350000Y-67000000D01*
X255000000Y-72175000D02*
X256000000Y-73175000D01*
X210000000Y-76000000D02*
X213000000Y-76000000D01*
X207000000Y-72175000D02*
X207000000Y-68825000D01*
X242000000Y-76000000D02*
X245000000Y-76000000D01*
X208000000Y-73175000D02*
X208000000Y-74000000D01*
X223000000Y-72175000D02*
X223000000Y-68825000D01*
X213000000Y-76000000D02*
X215000000Y-78000000D01*
X223000000Y-72175000D02*
X224000000Y-73175000D01*
X207000000Y-68825000D02*
X208175000Y-68825000D01*
X261000000Y-76000000D02*
X263000000Y-78000000D01*
X239000000Y-72175000D02*
X240000000Y-73175000D01*
X208175000Y-68825000D02*
X210000000Y-67000000D01*
X226000000Y-67000000D02*
X227350000Y-67000000D01*
X226000000Y-76000000D02*
X229000000Y-76000000D01*
X224000000Y-73175000D02*
X224000000Y-74000000D01*
X229000000Y-76000000D02*
X231000000Y-78000000D01*
X224000000Y-74000000D02*
X226000000Y-76000000D01*
X240000000Y-74000000D02*
X242000000Y-76000000D01*
X240175000Y-68825000D02*
X242000000Y-67000000D01*
X224175000Y-68825000D02*
X226000000Y-67000000D01*
X208000000Y-74000000D02*
X210000000Y-76000000D01*
X242000000Y-67000000D02*
X243350000Y-67000000D01*
X207000000Y-72175000D02*
X208000000Y-73175000D01*
X223000000Y-68825000D02*
X224175000Y-68825000D01*
X240000000Y-73175000D02*
X240000000Y-74000000D01*
X239000000Y-72175000D02*
X239000000Y-68825000D01*
X245000000Y-76000000D02*
X247000000Y-78000000D01*
X210000000Y-67000000D02*
X211350000Y-67000000D01*
X271000000Y-68825000D02*
X272175000Y-68825000D01*
X288000000Y-73175000D02*
X288000000Y-74000000D01*
X287000000Y-72175000D02*
X287000000Y-68825000D01*
X287000000Y-72175000D02*
X288000000Y-73175000D01*
M02*
