G04 #@! TF.GenerationSoftware,KiCad,Pcbnew,5.1.9-73d0e3b20d~88~ubuntu20.04.1*
G04 #@! TF.CreationDate,2021-02-02T19:01:36+09:00*
G04 #@! TF.ProjectId,NeoPixel-Grove,4e656f50-6978-4656-9c2d-47726f76652e,rev?*
G04 #@! TF.SameCoordinates,Original*
G04 #@! TF.FileFunction,Soldermask,Top*
G04 #@! TF.FilePolarity,Negative*
%FSLAX46Y46*%
G04 Gerber Fmt 4.6, Leading zero omitted, Abs format (unit mm)*
G04 Created by KiCad (PCBNEW 5.1.9-73d0e3b20d~88~ubuntu20.04.1) date 2021-02-02 19:01:36*
%MOMM*%
%LPD*%
G01*
G04 APERTURE LIST*
%ADD10C,3.600000*%
%ADD11C,0.100000*%
%ADD12C,1.900000*%
%ADD13O,2.100000X5.400000*%
G04 APERTURE END LIST*
D10*
X249500000Y-58750000D03*
X233500000Y-58750000D03*
D11*
G36*
X291889018Y-66053843D02*
G01*
X291926537Y-66065224D01*
X291961114Y-66083706D01*
X291991421Y-66108579D01*
X292016294Y-66138886D01*
X292034776Y-66173463D01*
X292046157Y-66210982D01*
X292050000Y-66250000D01*
X292050000Y-67750000D01*
X292046157Y-67789018D01*
X292034776Y-67826537D01*
X292016294Y-67861114D01*
X291991421Y-67891421D01*
X291961114Y-67916294D01*
X291926537Y-67934776D01*
X291889018Y-67946157D01*
X291850000Y-67950000D01*
X291350000Y-67950000D01*
X291343888Y-67949398D01*
X291325466Y-67949398D01*
X291305860Y-67948435D01*
X291257029Y-67943625D01*
X291237620Y-67940746D01*
X291189495Y-67931174D01*
X291170452Y-67926404D01*
X291123497Y-67912160D01*
X291105020Y-67905549D01*
X291059687Y-67886772D01*
X291041939Y-67878377D01*
X290998666Y-67855246D01*
X290981838Y-67845160D01*
X290941039Y-67817900D01*
X290925270Y-67806205D01*
X290887341Y-67775077D01*
X290872800Y-67761897D01*
X290838103Y-67727200D01*
X290824923Y-67712659D01*
X290793795Y-67674730D01*
X290782100Y-67658961D01*
X290754840Y-67618162D01*
X290744754Y-67601334D01*
X290721623Y-67558061D01*
X290713228Y-67540313D01*
X290694451Y-67494980D01*
X290687840Y-67476503D01*
X290673596Y-67429548D01*
X290668826Y-67410505D01*
X290659254Y-67362380D01*
X290656375Y-67342971D01*
X290651565Y-67294140D01*
X290650602Y-67274534D01*
X290650602Y-67256112D01*
X290650000Y-67250000D01*
X290650000Y-66750000D01*
X290650602Y-66743888D01*
X290650602Y-66725466D01*
X290651565Y-66705860D01*
X290656375Y-66657029D01*
X290659254Y-66637620D01*
X290668826Y-66589495D01*
X290673596Y-66570452D01*
X290687840Y-66523497D01*
X290694451Y-66505020D01*
X290713228Y-66459687D01*
X290721623Y-66441939D01*
X290744754Y-66398666D01*
X290754840Y-66381838D01*
X290782100Y-66341039D01*
X290793795Y-66325270D01*
X290824923Y-66287341D01*
X290838103Y-66272800D01*
X290872800Y-66238103D01*
X290887341Y-66224923D01*
X290925270Y-66193795D01*
X290941039Y-66182100D01*
X290981838Y-66154840D01*
X290998666Y-66144754D01*
X291041939Y-66121623D01*
X291059687Y-66113228D01*
X291105020Y-66094451D01*
X291123497Y-66087840D01*
X291170452Y-66073596D01*
X291189495Y-66068826D01*
X291237620Y-66059254D01*
X291257029Y-66056375D01*
X291305860Y-66051565D01*
X291325466Y-66050602D01*
X291343888Y-66050602D01*
X291350000Y-66050000D01*
X291850000Y-66050000D01*
X291889018Y-66053843D01*
G37*
G36*
X292656112Y-66050602D02*
G01*
X292674534Y-66050602D01*
X292694140Y-66051565D01*
X292742971Y-66056375D01*
X292762380Y-66059254D01*
X292810505Y-66068826D01*
X292829548Y-66073596D01*
X292876503Y-66087840D01*
X292894980Y-66094451D01*
X292940313Y-66113228D01*
X292958061Y-66121623D01*
X293001334Y-66144754D01*
X293018162Y-66154840D01*
X293058961Y-66182100D01*
X293074730Y-66193795D01*
X293112659Y-66224923D01*
X293127200Y-66238103D01*
X293161897Y-66272800D01*
X293175077Y-66287341D01*
X293206205Y-66325270D01*
X293217900Y-66341039D01*
X293245160Y-66381838D01*
X293255246Y-66398666D01*
X293278377Y-66441939D01*
X293286772Y-66459687D01*
X293305549Y-66505020D01*
X293312160Y-66523497D01*
X293326404Y-66570452D01*
X293331174Y-66589495D01*
X293340746Y-66637620D01*
X293343625Y-66657029D01*
X293348435Y-66705860D01*
X293349398Y-66725466D01*
X293349398Y-66743888D01*
X293350000Y-66750000D01*
X293350000Y-67250000D01*
X293349398Y-67256112D01*
X293349398Y-67274534D01*
X293348435Y-67294140D01*
X293343625Y-67342971D01*
X293340746Y-67362380D01*
X293331174Y-67410505D01*
X293326404Y-67429548D01*
X293312160Y-67476503D01*
X293305549Y-67494980D01*
X293286772Y-67540313D01*
X293278377Y-67558061D01*
X293255246Y-67601334D01*
X293245160Y-67618162D01*
X293217900Y-67658961D01*
X293206205Y-67674730D01*
X293175077Y-67712659D01*
X293161897Y-67727200D01*
X293127200Y-67761897D01*
X293112659Y-67775077D01*
X293074730Y-67806205D01*
X293058961Y-67817900D01*
X293018162Y-67845160D01*
X293001334Y-67855246D01*
X292958061Y-67878377D01*
X292940313Y-67886772D01*
X292894980Y-67905549D01*
X292876503Y-67912160D01*
X292829548Y-67926404D01*
X292810505Y-67931174D01*
X292762380Y-67940746D01*
X292742971Y-67943625D01*
X292694140Y-67948435D01*
X292674534Y-67949398D01*
X292656112Y-67949398D01*
X292650000Y-67950000D01*
X292150000Y-67950000D01*
X292110982Y-67946157D01*
X292073463Y-67934776D01*
X292038886Y-67916294D01*
X292008579Y-67891421D01*
X291983706Y-67861114D01*
X291965224Y-67826537D01*
X291953843Y-67789018D01*
X291950000Y-67750000D01*
X291950000Y-66250000D01*
X291953843Y-66210982D01*
X291965224Y-66173463D01*
X291983706Y-66138886D01*
X292008579Y-66108579D01*
X292038886Y-66083706D01*
X292073463Y-66065224D01*
X292110982Y-66053843D01*
X292150000Y-66050000D01*
X292650000Y-66050000D01*
X292656112Y-66050602D01*
G37*
G36*
G01*
X286625000Y-66575000D02*
X287375000Y-66575000D01*
G75*
G02*
X287675000Y-66875000I0J-300000D01*
G01*
X287675000Y-67475000D01*
G75*
G02*
X287375000Y-67775000I-300000J0D01*
G01*
X286625000Y-67775000D01*
G75*
G02*
X286325000Y-67475000I0J300000D01*
G01*
X286325000Y-66875000D01*
G75*
G02*
X286625000Y-66575000I300000J0D01*
G01*
G37*
G36*
G01*
X286625000Y-68225000D02*
X287375000Y-68225000D01*
G75*
G02*
X287675000Y-68525000I0J-300000D01*
G01*
X287675000Y-69125000D01*
G75*
G02*
X287375000Y-69425000I-300000J0D01*
G01*
X286625000Y-69425000D01*
G75*
G02*
X286325000Y-69125000I0J300000D01*
G01*
X286325000Y-68525000D01*
G75*
G02*
X286625000Y-68225000I300000J0D01*
G01*
G37*
D12*
X273000000Y-78000000D03*
X275000000Y-78000000D03*
X277000000Y-78000000D03*
X279000000Y-78000000D03*
X263000000Y-78000000D03*
X261000000Y-78000000D03*
X259000000Y-78000000D03*
X257000000Y-78000000D03*
G36*
G01*
X245790160Y-59608680D02*
X247490160Y-59608680D01*
G75*
G02*
X247690160Y-59808680I0J-200000D01*
G01*
X247690160Y-64808680D01*
G75*
G02*
X247490160Y-65008680I-200000J0D01*
G01*
X245790160Y-65008680D01*
G75*
G02*
X245590160Y-64808680I0J200000D01*
G01*
X245590160Y-59808680D01*
G75*
G02*
X245790160Y-59608680I200000J0D01*
G01*
G37*
D13*
X244100160Y-62308680D03*
X241560160Y-62308680D03*
G36*
G01*
X238625000Y-71575000D02*
X239375000Y-71575000D01*
G75*
G02*
X239675000Y-71875000I0J-300000D01*
G01*
X239675000Y-72475000D01*
G75*
G02*
X239375000Y-72775000I-300000J0D01*
G01*
X238625000Y-72775000D01*
G75*
G02*
X238325000Y-72475000I0J300000D01*
G01*
X238325000Y-71875000D01*
G75*
G02*
X238625000Y-71575000I300000J0D01*
G01*
G37*
G36*
G01*
X238625000Y-73225000D02*
X239375000Y-73225000D01*
G75*
G02*
X239675000Y-73525000I0J-300000D01*
G01*
X239675000Y-74125000D01*
G75*
G02*
X239375000Y-74425000I-300000J0D01*
G01*
X238625000Y-74425000D01*
G75*
G02*
X238325000Y-74125000I0J300000D01*
G01*
X238325000Y-73525000D01*
G75*
G02*
X238625000Y-73225000I300000J0D01*
G01*
G37*
X257560160Y-62308680D03*
X260100160Y-62308680D03*
G36*
G01*
X261790160Y-59608680D02*
X263490160Y-59608680D01*
G75*
G02*
X263690160Y-59808680I0J-200000D01*
G01*
X263690160Y-64808680D01*
G75*
G02*
X263490160Y-65008680I-200000J0D01*
G01*
X261790160Y-65008680D01*
G75*
G02*
X261590160Y-64808680I0J200000D01*
G01*
X261590160Y-59808680D01*
G75*
G02*
X261790160Y-59608680I200000J0D01*
G01*
G37*
D11*
G36*
X244656112Y-66050602D02*
G01*
X244674534Y-66050602D01*
X244694140Y-66051565D01*
X244742971Y-66056375D01*
X244762380Y-66059254D01*
X244810505Y-66068826D01*
X244829548Y-66073596D01*
X244876503Y-66087840D01*
X244894980Y-66094451D01*
X244940313Y-66113228D01*
X244958061Y-66121623D01*
X245001334Y-66144754D01*
X245018162Y-66154840D01*
X245058961Y-66182100D01*
X245074730Y-66193795D01*
X245112659Y-66224923D01*
X245127200Y-66238103D01*
X245161897Y-66272800D01*
X245175077Y-66287341D01*
X245206205Y-66325270D01*
X245217900Y-66341039D01*
X245245160Y-66381838D01*
X245255246Y-66398666D01*
X245278377Y-66441939D01*
X245286772Y-66459687D01*
X245305549Y-66505020D01*
X245312160Y-66523497D01*
X245326404Y-66570452D01*
X245331174Y-66589495D01*
X245340746Y-66637620D01*
X245343625Y-66657029D01*
X245348435Y-66705860D01*
X245349398Y-66725466D01*
X245349398Y-66743888D01*
X245350000Y-66750000D01*
X245350000Y-67250000D01*
X245349398Y-67256112D01*
X245349398Y-67274534D01*
X245348435Y-67294140D01*
X245343625Y-67342971D01*
X245340746Y-67362380D01*
X245331174Y-67410505D01*
X245326404Y-67429548D01*
X245312160Y-67476503D01*
X245305549Y-67494980D01*
X245286772Y-67540313D01*
X245278377Y-67558061D01*
X245255246Y-67601334D01*
X245245160Y-67618162D01*
X245217900Y-67658961D01*
X245206205Y-67674730D01*
X245175077Y-67712659D01*
X245161897Y-67727200D01*
X245127200Y-67761897D01*
X245112659Y-67775077D01*
X245074730Y-67806205D01*
X245058961Y-67817900D01*
X245018162Y-67845160D01*
X245001334Y-67855246D01*
X244958061Y-67878377D01*
X244940313Y-67886772D01*
X244894980Y-67905549D01*
X244876503Y-67912160D01*
X244829548Y-67926404D01*
X244810505Y-67931174D01*
X244762380Y-67940746D01*
X244742971Y-67943625D01*
X244694140Y-67948435D01*
X244674534Y-67949398D01*
X244656112Y-67949398D01*
X244650000Y-67950000D01*
X244150000Y-67950000D01*
X244110982Y-67946157D01*
X244073463Y-67934776D01*
X244038886Y-67916294D01*
X244008579Y-67891421D01*
X243983706Y-67861114D01*
X243965224Y-67826537D01*
X243953843Y-67789018D01*
X243950000Y-67750000D01*
X243950000Y-66250000D01*
X243953843Y-66210982D01*
X243965224Y-66173463D01*
X243983706Y-66138886D01*
X244008579Y-66108579D01*
X244038886Y-66083706D01*
X244073463Y-66065224D01*
X244110982Y-66053843D01*
X244150000Y-66050000D01*
X244650000Y-66050000D01*
X244656112Y-66050602D01*
G37*
G36*
X243889018Y-66053843D02*
G01*
X243926537Y-66065224D01*
X243961114Y-66083706D01*
X243991421Y-66108579D01*
X244016294Y-66138886D01*
X244034776Y-66173463D01*
X244046157Y-66210982D01*
X244050000Y-66250000D01*
X244050000Y-67750000D01*
X244046157Y-67789018D01*
X244034776Y-67826537D01*
X244016294Y-67861114D01*
X243991421Y-67891421D01*
X243961114Y-67916294D01*
X243926537Y-67934776D01*
X243889018Y-67946157D01*
X243850000Y-67950000D01*
X243350000Y-67950000D01*
X243343888Y-67949398D01*
X243325466Y-67949398D01*
X243305860Y-67948435D01*
X243257029Y-67943625D01*
X243237620Y-67940746D01*
X243189495Y-67931174D01*
X243170452Y-67926404D01*
X243123497Y-67912160D01*
X243105020Y-67905549D01*
X243059687Y-67886772D01*
X243041939Y-67878377D01*
X242998666Y-67855246D01*
X242981838Y-67845160D01*
X242941039Y-67817900D01*
X242925270Y-67806205D01*
X242887341Y-67775077D01*
X242872800Y-67761897D01*
X242838103Y-67727200D01*
X242824923Y-67712659D01*
X242793795Y-67674730D01*
X242782100Y-67658961D01*
X242754840Y-67618162D01*
X242744754Y-67601334D01*
X242721623Y-67558061D01*
X242713228Y-67540313D01*
X242694451Y-67494980D01*
X242687840Y-67476503D01*
X242673596Y-67429548D01*
X242668826Y-67410505D01*
X242659254Y-67362380D01*
X242656375Y-67342971D01*
X242651565Y-67294140D01*
X242650602Y-67274534D01*
X242650602Y-67256112D01*
X242650000Y-67250000D01*
X242650000Y-66750000D01*
X242650602Y-66743888D01*
X242650602Y-66725466D01*
X242651565Y-66705860D01*
X242656375Y-66657029D01*
X242659254Y-66637620D01*
X242668826Y-66589495D01*
X242673596Y-66570452D01*
X242687840Y-66523497D01*
X242694451Y-66505020D01*
X242713228Y-66459687D01*
X242721623Y-66441939D01*
X242744754Y-66398666D01*
X242754840Y-66381838D01*
X242782100Y-66341039D01*
X242793795Y-66325270D01*
X242824923Y-66287341D01*
X242838103Y-66272800D01*
X242872800Y-66238103D01*
X242887341Y-66224923D01*
X242925270Y-66193795D01*
X242941039Y-66182100D01*
X242981838Y-66154840D01*
X242998666Y-66144754D01*
X243041939Y-66121623D01*
X243059687Y-66113228D01*
X243105020Y-66094451D01*
X243123497Y-66087840D01*
X243170452Y-66073596D01*
X243189495Y-66068826D01*
X243237620Y-66059254D01*
X243257029Y-66056375D01*
X243305860Y-66051565D01*
X243325466Y-66050602D01*
X243343888Y-66050602D01*
X243350000Y-66050000D01*
X243850000Y-66050000D01*
X243889018Y-66053843D01*
G37*
G36*
G01*
X238625000Y-68225000D02*
X239375000Y-68225000D01*
G75*
G02*
X239675000Y-68525000I0J-300000D01*
G01*
X239675000Y-69125000D01*
G75*
G02*
X239375000Y-69425000I-300000J0D01*
G01*
X238625000Y-69425000D01*
G75*
G02*
X238325000Y-69125000I0J300000D01*
G01*
X238325000Y-68525000D01*
G75*
G02*
X238625000Y-68225000I300000J0D01*
G01*
G37*
G36*
G01*
X238625000Y-66575000D02*
X239375000Y-66575000D01*
G75*
G02*
X239675000Y-66875000I0J-300000D01*
G01*
X239675000Y-67475000D01*
G75*
G02*
X239375000Y-67775000I-300000J0D01*
G01*
X238625000Y-67775000D01*
G75*
G02*
X238325000Y-67475000I0J300000D01*
G01*
X238325000Y-66875000D01*
G75*
G02*
X238625000Y-66575000I300000J0D01*
G01*
G37*
G36*
X259889018Y-66053843D02*
G01*
X259926537Y-66065224D01*
X259961114Y-66083706D01*
X259991421Y-66108579D01*
X260016294Y-66138886D01*
X260034776Y-66173463D01*
X260046157Y-66210982D01*
X260050000Y-66250000D01*
X260050000Y-67750000D01*
X260046157Y-67789018D01*
X260034776Y-67826537D01*
X260016294Y-67861114D01*
X259991421Y-67891421D01*
X259961114Y-67916294D01*
X259926537Y-67934776D01*
X259889018Y-67946157D01*
X259850000Y-67950000D01*
X259350000Y-67950000D01*
X259343888Y-67949398D01*
X259325466Y-67949398D01*
X259305860Y-67948435D01*
X259257029Y-67943625D01*
X259237620Y-67940746D01*
X259189495Y-67931174D01*
X259170452Y-67926404D01*
X259123497Y-67912160D01*
X259105020Y-67905549D01*
X259059687Y-67886772D01*
X259041939Y-67878377D01*
X258998666Y-67855246D01*
X258981838Y-67845160D01*
X258941039Y-67817900D01*
X258925270Y-67806205D01*
X258887341Y-67775077D01*
X258872800Y-67761897D01*
X258838103Y-67727200D01*
X258824923Y-67712659D01*
X258793795Y-67674730D01*
X258782100Y-67658961D01*
X258754840Y-67618162D01*
X258744754Y-67601334D01*
X258721623Y-67558061D01*
X258713228Y-67540313D01*
X258694451Y-67494980D01*
X258687840Y-67476503D01*
X258673596Y-67429548D01*
X258668826Y-67410505D01*
X258659254Y-67362380D01*
X258656375Y-67342971D01*
X258651565Y-67294140D01*
X258650602Y-67274534D01*
X258650602Y-67256112D01*
X258650000Y-67250000D01*
X258650000Y-66750000D01*
X258650602Y-66743888D01*
X258650602Y-66725466D01*
X258651565Y-66705860D01*
X258656375Y-66657029D01*
X258659254Y-66637620D01*
X258668826Y-66589495D01*
X258673596Y-66570452D01*
X258687840Y-66523497D01*
X258694451Y-66505020D01*
X258713228Y-66459687D01*
X258721623Y-66441939D01*
X258744754Y-66398666D01*
X258754840Y-66381838D01*
X258782100Y-66341039D01*
X258793795Y-66325270D01*
X258824923Y-66287341D01*
X258838103Y-66272800D01*
X258872800Y-66238103D01*
X258887341Y-66224923D01*
X258925270Y-66193795D01*
X258941039Y-66182100D01*
X258981838Y-66154840D01*
X258998666Y-66144754D01*
X259041939Y-66121623D01*
X259059687Y-66113228D01*
X259105020Y-66094451D01*
X259123497Y-66087840D01*
X259170452Y-66073596D01*
X259189495Y-66068826D01*
X259237620Y-66059254D01*
X259257029Y-66056375D01*
X259305860Y-66051565D01*
X259325466Y-66050602D01*
X259343888Y-66050602D01*
X259350000Y-66050000D01*
X259850000Y-66050000D01*
X259889018Y-66053843D01*
G37*
G36*
X260656112Y-66050602D02*
G01*
X260674534Y-66050602D01*
X260694140Y-66051565D01*
X260742971Y-66056375D01*
X260762380Y-66059254D01*
X260810505Y-66068826D01*
X260829548Y-66073596D01*
X260876503Y-66087840D01*
X260894980Y-66094451D01*
X260940313Y-66113228D01*
X260958061Y-66121623D01*
X261001334Y-66144754D01*
X261018162Y-66154840D01*
X261058961Y-66182100D01*
X261074730Y-66193795D01*
X261112659Y-66224923D01*
X261127200Y-66238103D01*
X261161897Y-66272800D01*
X261175077Y-66287341D01*
X261206205Y-66325270D01*
X261217900Y-66341039D01*
X261245160Y-66381838D01*
X261255246Y-66398666D01*
X261278377Y-66441939D01*
X261286772Y-66459687D01*
X261305549Y-66505020D01*
X261312160Y-66523497D01*
X261326404Y-66570452D01*
X261331174Y-66589495D01*
X261340746Y-66637620D01*
X261343625Y-66657029D01*
X261348435Y-66705860D01*
X261349398Y-66725466D01*
X261349398Y-66743888D01*
X261350000Y-66750000D01*
X261350000Y-67250000D01*
X261349398Y-67256112D01*
X261349398Y-67274534D01*
X261348435Y-67294140D01*
X261343625Y-67342971D01*
X261340746Y-67362380D01*
X261331174Y-67410505D01*
X261326404Y-67429548D01*
X261312160Y-67476503D01*
X261305549Y-67494980D01*
X261286772Y-67540313D01*
X261278377Y-67558061D01*
X261255246Y-67601334D01*
X261245160Y-67618162D01*
X261217900Y-67658961D01*
X261206205Y-67674730D01*
X261175077Y-67712659D01*
X261161897Y-67727200D01*
X261127200Y-67761897D01*
X261112659Y-67775077D01*
X261074730Y-67806205D01*
X261058961Y-67817900D01*
X261018162Y-67845160D01*
X261001334Y-67855246D01*
X260958061Y-67878377D01*
X260940313Y-67886772D01*
X260894980Y-67905549D01*
X260876503Y-67912160D01*
X260829548Y-67926404D01*
X260810505Y-67931174D01*
X260762380Y-67940746D01*
X260742971Y-67943625D01*
X260694140Y-67948435D01*
X260674534Y-67949398D01*
X260656112Y-67949398D01*
X260650000Y-67950000D01*
X260150000Y-67950000D01*
X260110982Y-67946157D01*
X260073463Y-67934776D01*
X260038886Y-67916294D01*
X260008579Y-67891421D01*
X259983706Y-67861114D01*
X259965224Y-67826537D01*
X259953843Y-67789018D01*
X259950000Y-67750000D01*
X259950000Y-66250000D01*
X259953843Y-66210982D01*
X259965224Y-66173463D01*
X259983706Y-66138886D01*
X260008579Y-66108579D01*
X260038886Y-66083706D01*
X260073463Y-66065224D01*
X260110982Y-66053843D01*
X260150000Y-66050000D01*
X260650000Y-66050000D01*
X260656112Y-66050602D01*
G37*
G36*
G01*
X286625000Y-73225000D02*
X287375000Y-73225000D01*
G75*
G02*
X287675000Y-73525000I0J-300000D01*
G01*
X287675000Y-74125000D01*
G75*
G02*
X287375000Y-74425000I-300000J0D01*
G01*
X286625000Y-74425000D01*
G75*
G02*
X286325000Y-74125000I0J300000D01*
G01*
X286325000Y-73525000D01*
G75*
G02*
X286625000Y-73225000I300000J0D01*
G01*
G37*
G36*
G01*
X286625000Y-71575000D02*
X287375000Y-71575000D01*
G75*
G02*
X287675000Y-71875000I0J-300000D01*
G01*
X287675000Y-72475000D01*
G75*
G02*
X287375000Y-72775000I-300000J0D01*
G01*
X286625000Y-72775000D01*
G75*
G02*
X286325000Y-72475000I0J300000D01*
G01*
X286325000Y-71875000D01*
G75*
G02*
X286625000Y-71575000I300000J0D01*
G01*
G37*
D12*
X231000000Y-78000000D03*
X229000000Y-78000000D03*
X227000000Y-78000000D03*
X225000000Y-78000000D03*
X209000000Y-78000000D03*
X211000000Y-78000000D03*
X213000000Y-78000000D03*
X215000000Y-78000000D03*
D10*
X297500000Y-58750000D03*
D11*
G36*
X276656112Y-66050602D02*
G01*
X276674534Y-66050602D01*
X276694140Y-66051565D01*
X276742971Y-66056375D01*
X276762380Y-66059254D01*
X276810505Y-66068826D01*
X276829548Y-66073596D01*
X276876503Y-66087840D01*
X276894980Y-66094451D01*
X276940313Y-66113228D01*
X276958061Y-66121623D01*
X277001334Y-66144754D01*
X277018162Y-66154840D01*
X277058961Y-66182100D01*
X277074730Y-66193795D01*
X277112659Y-66224923D01*
X277127200Y-66238103D01*
X277161897Y-66272800D01*
X277175077Y-66287341D01*
X277206205Y-66325270D01*
X277217900Y-66341039D01*
X277245160Y-66381838D01*
X277255246Y-66398666D01*
X277278377Y-66441939D01*
X277286772Y-66459687D01*
X277305549Y-66505020D01*
X277312160Y-66523497D01*
X277326404Y-66570452D01*
X277331174Y-66589495D01*
X277340746Y-66637620D01*
X277343625Y-66657029D01*
X277348435Y-66705860D01*
X277349398Y-66725466D01*
X277349398Y-66743888D01*
X277350000Y-66750000D01*
X277350000Y-67250000D01*
X277349398Y-67256112D01*
X277349398Y-67274534D01*
X277348435Y-67294140D01*
X277343625Y-67342971D01*
X277340746Y-67362380D01*
X277331174Y-67410505D01*
X277326404Y-67429548D01*
X277312160Y-67476503D01*
X277305549Y-67494980D01*
X277286772Y-67540313D01*
X277278377Y-67558061D01*
X277255246Y-67601334D01*
X277245160Y-67618162D01*
X277217900Y-67658961D01*
X277206205Y-67674730D01*
X277175077Y-67712659D01*
X277161897Y-67727200D01*
X277127200Y-67761897D01*
X277112659Y-67775077D01*
X277074730Y-67806205D01*
X277058961Y-67817900D01*
X277018162Y-67845160D01*
X277001334Y-67855246D01*
X276958061Y-67878377D01*
X276940313Y-67886772D01*
X276894980Y-67905549D01*
X276876503Y-67912160D01*
X276829548Y-67926404D01*
X276810505Y-67931174D01*
X276762380Y-67940746D01*
X276742971Y-67943625D01*
X276694140Y-67948435D01*
X276674534Y-67949398D01*
X276656112Y-67949398D01*
X276650000Y-67950000D01*
X276150000Y-67950000D01*
X276110982Y-67946157D01*
X276073463Y-67934776D01*
X276038886Y-67916294D01*
X276008579Y-67891421D01*
X275983706Y-67861114D01*
X275965224Y-67826537D01*
X275953843Y-67789018D01*
X275950000Y-67750000D01*
X275950000Y-66250000D01*
X275953843Y-66210982D01*
X275965224Y-66173463D01*
X275983706Y-66138886D01*
X276008579Y-66108579D01*
X276038886Y-66083706D01*
X276073463Y-66065224D01*
X276110982Y-66053843D01*
X276150000Y-66050000D01*
X276650000Y-66050000D01*
X276656112Y-66050602D01*
G37*
G36*
X275889018Y-66053843D02*
G01*
X275926537Y-66065224D01*
X275961114Y-66083706D01*
X275991421Y-66108579D01*
X276016294Y-66138886D01*
X276034776Y-66173463D01*
X276046157Y-66210982D01*
X276050000Y-66250000D01*
X276050000Y-67750000D01*
X276046157Y-67789018D01*
X276034776Y-67826537D01*
X276016294Y-67861114D01*
X275991421Y-67891421D01*
X275961114Y-67916294D01*
X275926537Y-67934776D01*
X275889018Y-67946157D01*
X275850000Y-67950000D01*
X275350000Y-67950000D01*
X275343888Y-67949398D01*
X275325466Y-67949398D01*
X275305860Y-67948435D01*
X275257029Y-67943625D01*
X275237620Y-67940746D01*
X275189495Y-67931174D01*
X275170452Y-67926404D01*
X275123497Y-67912160D01*
X275105020Y-67905549D01*
X275059687Y-67886772D01*
X275041939Y-67878377D01*
X274998666Y-67855246D01*
X274981838Y-67845160D01*
X274941039Y-67817900D01*
X274925270Y-67806205D01*
X274887341Y-67775077D01*
X274872800Y-67761897D01*
X274838103Y-67727200D01*
X274824923Y-67712659D01*
X274793795Y-67674730D01*
X274782100Y-67658961D01*
X274754840Y-67618162D01*
X274744754Y-67601334D01*
X274721623Y-67558061D01*
X274713228Y-67540313D01*
X274694451Y-67494980D01*
X274687840Y-67476503D01*
X274673596Y-67429548D01*
X274668826Y-67410505D01*
X274659254Y-67362380D01*
X274656375Y-67342971D01*
X274651565Y-67294140D01*
X274650602Y-67274534D01*
X274650602Y-67256112D01*
X274650000Y-67250000D01*
X274650000Y-66750000D01*
X274650602Y-66743888D01*
X274650602Y-66725466D01*
X274651565Y-66705860D01*
X274656375Y-66657029D01*
X274659254Y-66637620D01*
X274668826Y-66589495D01*
X274673596Y-66570452D01*
X274687840Y-66523497D01*
X274694451Y-66505020D01*
X274713228Y-66459687D01*
X274721623Y-66441939D01*
X274744754Y-66398666D01*
X274754840Y-66381838D01*
X274782100Y-66341039D01*
X274793795Y-66325270D01*
X274824923Y-66287341D01*
X274838103Y-66272800D01*
X274872800Y-66238103D01*
X274887341Y-66224923D01*
X274925270Y-66193795D01*
X274941039Y-66182100D01*
X274981838Y-66154840D01*
X274998666Y-66144754D01*
X275041939Y-66121623D01*
X275059687Y-66113228D01*
X275105020Y-66094451D01*
X275123497Y-66087840D01*
X275170452Y-66073596D01*
X275189495Y-66068826D01*
X275237620Y-66059254D01*
X275257029Y-66056375D01*
X275305860Y-66051565D01*
X275325466Y-66050602D01*
X275343888Y-66050602D01*
X275350000Y-66050000D01*
X275850000Y-66050000D01*
X275889018Y-66053843D01*
G37*
D10*
X222500000Y-58750000D03*
G36*
G01*
X206625000Y-68225000D02*
X207375000Y-68225000D01*
G75*
G02*
X207675000Y-68525000I0J-300000D01*
G01*
X207675000Y-69125000D01*
G75*
G02*
X207375000Y-69425000I-300000J0D01*
G01*
X206625000Y-69425000D01*
G75*
G02*
X206325000Y-69125000I0J300000D01*
G01*
X206325000Y-68525000D01*
G75*
G02*
X206625000Y-68225000I300000J0D01*
G01*
G37*
G36*
G01*
X206625000Y-66575000D02*
X207375000Y-66575000D01*
G75*
G02*
X207675000Y-66875000I0J-300000D01*
G01*
X207675000Y-67475000D01*
G75*
G02*
X207375000Y-67775000I-300000J0D01*
G01*
X206625000Y-67775000D01*
G75*
G02*
X206325000Y-67475000I0J300000D01*
G01*
X206325000Y-66875000D01*
G75*
G02*
X206625000Y-66575000I300000J0D01*
G01*
G37*
X281500000Y-58750000D03*
D13*
X225560160Y-62308680D03*
X228100160Y-62308680D03*
G36*
G01*
X229790160Y-59608680D02*
X231490160Y-59608680D01*
G75*
G02*
X231690160Y-59808680I0J-200000D01*
G01*
X231690160Y-64808680D01*
G75*
G02*
X231490160Y-65008680I-200000J0D01*
G01*
X229790160Y-65008680D01*
G75*
G02*
X229590160Y-64808680I0J200000D01*
G01*
X229590160Y-59808680D01*
G75*
G02*
X229790160Y-59608680I200000J0D01*
G01*
G37*
D10*
X212000000Y-72000000D03*
X206500000Y-58750000D03*
X265500000Y-58750000D03*
X276000000Y-72000000D03*
D11*
G36*
X212656112Y-66050602D02*
G01*
X212674534Y-66050602D01*
X212694140Y-66051565D01*
X212742971Y-66056375D01*
X212762380Y-66059254D01*
X212810505Y-66068826D01*
X212829548Y-66073596D01*
X212876503Y-66087840D01*
X212894980Y-66094451D01*
X212940313Y-66113228D01*
X212958061Y-66121623D01*
X213001334Y-66144754D01*
X213018162Y-66154840D01*
X213058961Y-66182100D01*
X213074730Y-66193795D01*
X213112659Y-66224923D01*
X213127200Y-66238103D01*
X213161897Y-66272800D01*
X213175077Y-66287341D01*
X213206205Y-66325270D01*
X213217900Y-66341039D01*
X213245160Y-66381838D01*
X213255246Y-66398666D01*
X213278377Y-66441939D01*
X213286772Y-66459687D01*
X213305549Y-66505020D01*
X213312160Y-66523497D01*
X213326404Y-66570452D01*
X213331174Y-66589495D01*
X213340746Y-66637620D01*
X213343625Y-66657029D01*
X213348435Y-66705860D01*
X213349398Y-66725466D01*
X213349398Y-66743888D01*
X213350000Y-66750000D01*
X213350000Y-67250000D01*
X213349398Y-67256112D01*
X213349398Y-67274534D01*
X213348435Y-67294140D01*
X213343625Y-67342971D01*
X213340746Y-67362380D01*
X213331174Y-67410505D01*
X213326404Y-67429548D01*
X213312160Y-67476503D01*
X213305549Y-67494980D01*
X213286772Y-67540313D01*
X213278377Y-67558061D01*
X213255246Y-67601334D01*
X213245160Y-67618162D01*
X213217900Y-67658961D01*
X213206205Y-67674730D01*
X213175077Y-67712659D01*
X213161897Y-67727200D01*
X213127200Y-67761897D01*
X213112659Y-67775077D01*
X213074730Y-67806205D01*
X213058961Y-67817900D01*
X213018162Y-67845160D01*
X213001334Y-67855246D01*
X212958061Y-67878377D01*
X212940313Y-67886772D01*
X212894980Y-67905549D01*
X212876503Y-67912160D01*
X212829548Y-67926404D01*
X212810505Y-67931174D01*
X212762380Y-67940746D01*
X212742971Y-67943625D01*
X212694140Y-67948435D01*
X212674534Y-67949398D01*
X212656112Y-67949398D01*
X212650000Y-67950000D01*
X212150000Y-67950000D01*
X212110982Y-67946157D01*
X212073463Y-67934776D01*
X212038886Y-67916294D01*
X212008579Y-67891421D01*
X211983706Y-67861114D01*
X211965224Y-67826537D01*
X211953843Y-67789018D01*
X211950000Y-67750000D01*
X211950000Y-66250000D01*
X211953843Y-66210982D01*
X211965224Y-66173463D01*
X211983706Y-66138886D01*
X212008579Y-66108579D01*
X212038886Y-66083706D01*
X212073463Y-66065224D01*
X212110982Y-66053843D01*
X212150000Y-66050000D01*
X212650000Y-66050000D01*
X212656112Y-66050602D01*
G37*
G36*
X211889018Y-66053843D02*
G01*
X211926537Y-66065224D01*
X211961114Y-66083706D01*
X211991421Y-66108579D01*
X212016294Y-66138886D01*
X212034776Y-66173463D01*
X212046157Y-66210982D01*
X212050000Y-66250000D01*
X212050000Y-67750000D01*
X212046157Y-67789018D01*
X212034776Y-67826537D01*
X212016294Y-67861114D01*
X211991421Y-67891421D01*
X211961114Y-67916294D01*
X211926537Y-67934776D01*
X211889018Y-67946157D01*
X211850000Y-67950000D01*
X211350000Y-67950000D01*
X211343888Y-67949398D01*
X211325466Y-67949398D01*
X211305860Y-67948435D01*
X211257029Y-67943625D01*
X211237620Y-67940746D01*
X211189495Y-67931174D01*
X211170452Y-67926404D01*
X211123497Y-67912160D01*
X211105020Y-67905549D01*
X211059687Y-67886772D01*
X211041939Y-67878377D01*
X210998666Y-67855246D01*
X210981838Y-67845160D01*
X210941039Y-67817900D01*
X210925270Y-67806205D01*
X210887341Y-67775077D01*
X210872800Y-67761897D01*
X210838103Y-67727200D01*
X210824923Y-67712659D01*
X210793795Y-67674730D01*
X210782100Y-67658961D01*
X210754840Y-67618162D01*
X210744754Y-67601334D01*
X210721623Y-67558061D01*
X210713228Y-67540313D01*
X210694451Y-67494980D01*
X210687840Y-67476503D01*
X210673596Y-67429548D01*
X210668826Y-67410505D01*
X210659254Y-67362380D01*
X210656375Y-67342971D01*
X210651565Y-67294140D01*
X210650602Y-67274534D01*
X210650602Y-67256112D01*
X210650000Y-67250000D01*
X210650000Y-66750000D01*
X210650602Y-66743888D01*
X210650602Y-66725466D01*
X210651565Y-66705860D01*
X210656375Y-66657029D01*
X210659254Y-66637620D01*
X210668826Y-66589495D01*
X210673596Y-66570452D01*
X210687840Y-66523497D01*
X210694451Y-66505020D01*
X210713228Y-66459687D01*
X210721623Y-66441939D01*
X210744754Y-66398666D01*
X210754840Y-66381838D01*
X210782100Y-66341039D01*
X210793795Y-66325270D01*
X210824923Y-66287341D01*
X210838103Y-66272800D01*
X210872800Y-66238103D01*
X210887341Y-66224923D01*
X210925270Y-66193795D01*
X210941039Y-66182100D01*
X210981838Y-66154840D01*
X210998666Y-66144754D01*
X211041939Y-66121623D01*
X211059687Y-66113228D01*
X211105020Y-66094451D01*
X211123497Y-66087840D01*
X211170452Y-66073596D01*
X211189495Y-66068826D01*
X211237620Y-66059254D01*
X211257029Y-66056375D01*
X211305860Y-66051565D01*
X211325466Y-66050602D01*
X211343888Y-66050602D01*
X211350000Y-66050000D01*
X211850000Y-66050000D01*
X211889018Y-66053843D01*
G37*
G36*
G01*
X213790160Y-59608680D02*
X215490160Y-59608680D01*
G75*
G02*
X215690160Y-59808680I0J-200000D01*
G01*
X215690160Y-64808680D01*
G75*
G02*
X215490160Y-65008680I-200000J0D01*
G01*
X213790160Y-65008680D01*
G75*
G02*
X213590160Y-64808680I0J200000D01*
G01*
X213590160Y-59808680D01*
G75*
G02*
X213790160Y-59608680I200000J0D01*
G01*
G37*
D13*
X212100160Y-62308680D03*
X209560160Y-62308680D03*
D10*
X244000000Y-72000000D03*
D11*
G36*
X227889018Y-66053843D02*
G01*
X227926537Y-66065224D01*
X227961114Y-66083706D01*
X227991421Y-66108579D01*
X228016294Y-66138886D01*
X228034776Y-66173463D01*
X228046157Y-66210982D01*
X228050000Y-66250000D01*
X228050000Y-67750000D01*
X228046157Y-67789018D01*
X228034776Y-67826537D01*
X228016294Y-67861114D01*
X227991421Y-67891421D01*
X227961114Y-67916294D01*
X227926537Y-67934776D01*
X227889018Y-67946157D01*
X227850000Y-67950000D01*
X227350000Y-67950000D01*
X227343888Y-67949398D01*
X227325466Y-67949398D01*
X227305860Y-67948435D01*
X227257029Y-67943625D01*
X227237620Y-67940746D01*
X227189495Y-67931174D01*
X227170452Y-67926404D01*
X227123497Y-67912160D01*
X227105020Y-67905549D01*
X227059687Y-67886772D01*
X227041939Y-67878377D01*
X226998666Y-67855246D01*
X226981838Y-67845160D01*
X226941039Y-67817900D01*
X226925270Y-67806205D01*
X226887341Y-67775077D01*
X226872800Y-67761897D01*
X226838103Y-67727200D01*
X226824923Y-67712659D01*
X226793795Y-67674730D01*
X226782100Y-67658961D01*
X226754840Y-67618162D01*
X226744754Y-67601334D01*
X226721623Y-67558061D01*
X226713228Y-67540313D01*
X226694451Y-67494980D01*
X226687840Y-67476503D01*
X226673596Y-67429548D01*
X226668826Y-67410505D01*
X226659254Y-67362380D01*
X226656375Y-67342971D01*
X226651565Y-67294140D01*
X226650602Y-67274534D01*
X226650602Y-67256112D01*
X226650000Y-67250000D01*
X226650000Y-66750000D01*
X226650602Y-66743888D01*
X226650602Y-66725466D01*
X226651565Y-66705860D01*
X226656375Y-66657029D01*
X226659254Y-66637620D01*
X226668826Y-66589495D01*
X226673596Y-66570452D01*
X226687840Y-66523497D01*
X226694451Y-66505020D01*
X226713228Y-66459687D01*
X226721623Y-66441939D01*
X226744754Y-66398666D01*
X226754840Y-66381838D01*
X226782100Y-66341039D01*
X226793795Y-66325270D01*
X226824923Y-66287341D01*
X226838103Y-66272800D01*
X226872800Y-66238103D01*
X226887341Y-66224923D01*
X226925270Y-66193795D01*
X226941039Y-66182100D01*
X226981838Y-66154840D01*
X226998666Y-66144754D01*
X227041939Y-66121623D01*
X227059687Y-66113228D01*
X227105020Y-66094451D01*
X227123497Y-66087840D01*
X227170452Y-66073596D01*
X227189495Y-66068826D01*
X227237620Y-66059254D01*
X227257029Y-66056375D01*
X227305860Y-66051565D01*
X227325466Y-66050602D01*
X227343888Y-66050602D01*
X227350000Y-66050000D01*
X227850000Y-66050000D01*
X227889018Y-66053843D01*
G37*
G36*
X228656112Y-66050602D02*
G01*
X228674534Y-66050602D01*
X228694140Y-66051565D01*
X228742971Y-66056375D01*
X228762380Y-66059254D01*
X228810505Y-66068826D01*
X228829548Y-66073596D01*
X228876503Y-66087840D01*
X228894980Y-66094451D01*
X228940313Y-66113228D01*
X228958061Y-66121623D01*
X229001334Y-66144754D01*
X229018162Y-66154840D01*
X229058961Y-66182100D01*
X229074730Y-66193795D01*
X229112659Y-66224923D01*
X229127200Y-66238103D01*
X229161897Y-66272800D01*
X229175077Y-66287341D01*
X229206205Y-66325270D01*
X229217900Y-66341039D01*
X229245160Y-66381838D01*
X229255246Y-66398666D01*
X229278377Y-66441939D01*
X229286772Y-66459687D01*
X229305549Y-66505020D01*
X229312160Y-66523497D01*
X229326404Y-66570452D01*
X229331174Y-66589495D01*
X229340746Y-66637620D01*
X229343625Y-66657029D01*
X229348435Y-66705860D01*
X229349398Y-66725466D01*
X229349398Y-66743888D01*
X229350000Y-66750000D01*
X229350000Y-67250000D01*
X229349398Y-67256112D01*
X229349398Y-67274534D01*
X229348435Y-67294140D01*
X229343625Y-67342971D01*
X229340746Y-67362380D01*
X229331174Y-67410505D01*
X229326404Y-67429548D01*
X229312160Y-67476503D01*
X229305549Y-67494980D01*
X229286772Y-67540313D01*
X229278377Y-67558061D01*
X229255246Y-67601334D01*
X229245160Y-67618162D01*
X229217900Y-67658961D01*
X229206205Y-67674730D01*
X229175077Y-67712659D01*
X229161897Y-67727200D01*
X229127200Y-67761897D01*
X229112659Y-67775077D01*
X229074730Y-67806205D01*
X229058961Y-67817900D01*
X229018162Y-67845160D01*
X229001334Y-67855246D01*
X228958061Y-67878377D01*
X228940313Y-67886772D01*
X228894980Y-67905549D01*
X228876503Y-67912160D01*
X228829548Y-67926404D01*
X228810505Y-67931174D01*
X228762380Y-67940746D01*
X228742971Y-67943625D01*
X228694140Y-67948435D01*
X228674534Y-67949398D01*
X228656112Y-67949398D01*
X228650000Y-67950000D01*
X228150000Y-67950000D01*
X228110982Y-67946157D01*
X228073463Y-67934776D01*
X228038886Y-67916294D01*
X228008579Y-67891421D01*
X227983706Y-67861114D01*
X227965224Y-67826537D01*
X227953843Y-67789018D01*
X227950000Y-67750000D01*
X227950000Y-66250000D01*
X227953843Y-66210982D01*
X227965224Y-66173463D01*
X227983706Y-66138886D01*
X228008579Y-66108579D01*
X228038886Y-66083706D01*
X228073463Y-66065224D01*
X228110982Y-66053843D01*
X228150000Y-66050000D01*
X228650000Y-66050000D01*
X228656112Y-66050602D01*
G37*
G36*
G01*
X222625000Y-73225000D02*
X223375000Y-73225000D01*
G75*
G02*
X223675000Y-73525000I0J-300000D01*
G01*
X223675000Y-74125000D01*
G75*
G02*
X223375000Y-74425000I-300000J0D01*
G01*
X222625000Y-74425000D01*
G75*
G02*
X222325000Y-74125000I0J300000D01*
G01*
X222325000Y-73525000D01*
G75*
G02*
X222625000Y-73225000I300000J0D01*
G01*
G37*
G36*
G01*
X222625000Y-71575000D02*
X223375000Y-71575000D01*
G75*
G02*
X223675000Y-71875000I0J-300000D01*
G01*
X223675000Y-72475000D01*
G75*
G02*
X223375000Y-72775000I-300000J0D01*
G01*
X222625000Y-72775000D01*
G75*
G02*
X222325000Y-72475000I0J300000D01*
G01*
X222325000Y-71875000D01*
G75*
G02*
X222625000Y-71575000I300000J0D01*
G01*
G37*
D10*
X217500000Y-58750000D03*
X228000000Y-72000000D03*
G36*
G01*
X270625000Y-71575000D02*
X271375000Y-71575000D01*
G75*
G02*
X271675000Y-71875000I0J-300000D01*
G01*
X271675000Y-72475000D01*
G75*
G02*
X271375000Y-72775000I-300000J0D01*
G01*
X270625000Y-72775000D01*
G75*
G02*
X270325000Y-72475000I0J300000D01*
G01*
X270325000Y-71875000D01*
G75*
G02*
X270625000Y-71575000I300000J0D01*
G01*
G37*
G36*
G01*
X270625000Y-73225000D02*
X271375000Y-73225000D01*
G75*
G02*
X271675000Y-73525000I0J-300000D01*
G01*
X271675000Y-74125000D01*
G75*
G02*
X271375000Y-74425000I-300000J0D01*
G01*
X270625000Y-74425000D01*
G75*
G02*
X270325000Y-74125000I0J300000D01*
G01*
X270325000Y-73525000D01*
G75*
G02*
X270625000Y-73225000I300000J0D01*
G01*
G37*
G36*
G01*
X206625000Y-71575000D02*
X207375000Y-71575000D01*
G75*
G02*
X207675000Y-71875000I0J-300000D01*
G01*
X207675000Y-72475000D01*
G75*
G02*
X207375000Y-72775000I-300000J0D01*
G01*
X206625000Y-72775000D01*
G75*
G02*
X206325000Y-72475000I0J300000D01*
G01*
X206325000Y-71875000D01*
G75*
G02*
X206625000Y-71575000I300000J0D01*
G01*
G37*
G36*
G01*
X206625000Y-73225000D02*
X207375000Y-73225000D01*
G75*
G02*
X207675000Y-73525000I0J-300000D01*
G01*
X207675000Y-74125000D01*
G75*
G02*
X207375000Y-74425000I-300000J0D01*
G01*
X206625000Y-74425000D01*
G75*
G02*
X206325000Y-74125000I0J300000D01*
G01*
X206325000Y-73525000D01*
G75*
G02*
X206625000Y-73225000I300000J0D01*
G01*
G37*
X292000000Y-72000000D03*
G36*
G01*
X222625000Y-66575000D02*
X223375000Y-66575000D01*
G75*
G02*
X223675000Y-66875000I0J-300000D01*
G01*
X223675000Y-67475000D01*
G75*
G02*
X223375000Y-67775000I-300000J0D01*
G01*
X222625000Y-67775000D01*
G75*
G02*
X222325000Y-67475000I0J300000D01*
G01*
X222325000Y-66875000D01*
G75*
G02*
X222625000Y-66575000I300000J0D01*
G01*
G37*
G36*
G01*
X222625000Y-68225000D02*
X223375000Y-68225000D01*
G75*
G02*
X223675000Y-68525000I0J-300000D01*
G01*
X223675000Y-69125000D01*
G75*
G02*
X223375000Y-69425000I-300000J0D01*
G01*
X222625000Y-69425000D01*
G75*
G02*
X222325000Y-69125000I0J300000D01*
G01*
X222325000Y-68525000D01*
G75*
G02*
X222625000Y-68225000I300000J0D01*
G01*
G37*
X270500000Y-58750000D03*
G36*
G01*
X254625000Y-66575000D02*
X255375000Y-66575000D01*
G75*
G02*
X255675000Y-66875000I0J-300000D01*
G01*
X255675000Y-67475000D01*
G75*
G02*
X255375000Y-67775000I-300000J0D01*
G01*
X254625000Y-67775000D01*
G75*
G02*
X254325000Y-67475000I0J300000D01*
G01*
X254325000Y-66875000D01*
G75*
G02*
X254625000Y-66575000I300000J0D01*
G01*
G37*
G36*
G01*
X254625000Y-68225000D02*
X255375000Y-68225000D01*
G75*
G02*
X255675000Y-68525000I0J-300000D01*
G01*
X255675000Y-69125000D01*
G75*
G02*
X255375000Y-69425000I-300000J0D01*
G01*
X254625000Y-69425000D01*
G75*
G02*
X254325000Y-69125000I0J300000D01*
G01*
X254325000Y-68525000D01*
G75*
G02*
X254625000Y-68225000I300000J0D01*
G01*
G37*
G36*
G01*
X277790160Y-59608680D02*
X279490160Y-59608680D01*
G75*
G02*
X279690160Y-59808680I0J-200000D01*
G01*
X279690160Y-64808680D01*
G75*
G02*
X279490160Y-65008680I-200000J0D01*
G01*
X277790160Y-65008680D01*
G75*
G02*
X277590160Y-64808680I0J200000D01*
G01*
X277590160Y-59808680D01*
G75*
G02*
X277790160Y-59608680I200000J0D01*
G01*
G37*
D13*
X276100160Y-62308680D03*
X273560160Y-62308680D03*
D10*
X260000000Y-72000000D03*
X254500000Y-58750000D03*
D12*
X241000000Y-78000000D03*
X243000000Y-78000000D03*
X245000000Y-78000000D03*
X247000000Y-78000000D03*
D10*
X238500000Y-58750000D03*
G36*
G01*
X254625000Y-73225000D02*
X255375000Y-73225000D01*
G75*
G02*
X255675000Y-73525000I0J-300000D01*
G01*
X255675000Y-74125000D01*
G75*
G02*
X255375000Y-74425000I-300000J0D01*
G01*
X254625000Y-74425000D01*
G75*
G02*
X254325000Y-74125000I0J300000D01*
G01*
X254325000Y-73525000D01*
G75*
G02*
X254625000Y-73225000I300000J0D01*
G01*
G37*
G36*
G01*
X254625000Y-71575000D02*
X255375000Y-71575000D01*
G75*
G02*
X255675000Y-71875000I0J-300000D01*
G01*
X255675000Y-72475000D01*
G75*
G02*
X255375000Y-72775000I-300000J0D01*
G01*
X254625000Y-72775000D01*
G75*
G02*
X254325000Y-72475000I0J300000D01*
G01*
X254325000Y-71875000D01*
G75*
G02*
X254625000Y-71575000I300000J0D01*
G01*
G37*
G36*
G01*
X270625000Y-68225000D02*
X271375000Y-68225000D01*
G75*
G02*
X271675000Y-68525000I0J-300000D01*
G01*
X271675000Y-69125000D01*
G75*
G02*
X271375000Y-69425000I-300000J0D01*
G01*
X270625000Y-69425000D01*
G75*
G02*
X270325000Y-69125000I0J300000D01*
G01*
X270325000Y-68525000D01*
G75*
G02*
X270625000Y-68225000I300000J0D01*
G01*
G37*
G36*
G01*
X270625000Y-66575000D02*
X271375000Y-66575000D01*
G75*
G02*
X271675000Y-66875000I0J-300000D01*
G01*
X271675000Y-67475000D01*
G75*
G02*
X271375000Y-67775000I-300000J0D01*
G01*
X270625000Y-67775000D01*
G75*
G02*
X270325000Y-67475000I0J300000D01*
G01*
X270325000Y-66875000D01*
G75*
G02*
X270625000Y-66575000I300000J0D01*
G01*
G37*
D12*
X295000000Y-78000000D03*
X293000000Y-78000000D03*
X291000000Y-78000000D03*
X289000000Y-78000000D03*
D10*
X286500000Y-58750000D03*
D13*
X289560160Y-62308680D03*
X292100160Y-62308680D03*
G36*
G01*
X293790160Y-59608680D02*
X295490160Y-59608680D01*
G75*
G02*
X295690160Y-59808680I0J-200000D01*
G01*
X295690160Y-64808680D01*
G75*
G02*
X295490160Y-65008680I-200000J0D01*
G01*
X293790160Y-65008680D01*
G75*
G02*
X293590160Y-64808680I0J200000D01*
G01*
X293590160Y-59808680D01*
G75*
G02*
X293790160Y-59608680I200000J0D01*
G01*
G37*
D10*
X217500000Y-118750000D03*
X228000000Y-132000000D03*
G36*
G01*
X270625000Y-133225000D02*
X271375000Y-133225000D01*
G75*
G02*
X271675000Y-133525000I0J-300000D01*
G01*
X271675000Y-134125000D01*
G75*
G02*
X271375000Y-134425000I-300000J0D01*
G01*
X270625000Y-134425000D01*
G75*
G02*
X270325000Y-134125000I0J300000D01*
G01*
X270325000Y-133525000D01*
G75*
G02*
X270625000Y-133225000I300000J0D01*
G01*
G37*
G36*
G01*
X270625000Y-131575000D02*
X271375000Y-131575000D01*
G75*
G02*
X271675000Y-131875000I0J-300000D01*
G01*
X271675000Y-132475000D01*
G75*
G02*
X271375000Y-132775000I-300000J0D01*
G01*
X270625000Y-132775000D01*
G75*
G02*
X270325000Y-132475000I0J300000D01*
G01*
X270325000Y-131875000D01*
G75*
G02*
X270625000Y-131575000I300000J0D01*
G01*
G37*
G36*
G01*
X206625000Y-133225000D02*
X207375000Y-133225000D01*
G75*
G02*
X207675000Y-133525000I0J-300000D01*
G01*
X207675000Y-134125000D01*
G75*
G02*
X207375000Y-134425000I-300000J0D01*
G01*
X206625000Y-134425000D01*
G75*
G02*
X206325000Y-134125000I0J300000D01*
G01*
X206325000Y-133525000D01*
G75*
G02*
X206625000Y-133225000I300000J0D01*
G01*
G37*
G36*
G01*
X206625000Y-131575000D02*
X207375000Y-131575000D01*
G75*
G02*
X207675000Y-131875000I0J-300000D01*
G01*
X207675000Y-132475000D01*
G75*
G02*
X207375000Y-132775000I-300000J0D01*
G01*
X206625000Y-132775000D01*
G75*
G02*
X206325000Y-132475000I0J300000D01*
G01*
X206325000Y-131875000D01*
G75*
G02*
X206625000Y-131575000I300000J0D01*
G01*
G37*
X292000000Y-132000000D03*
G36*
G01*
X222625000Y-128225000D02*
X223375000Y-128225000D01*
G75*
G02*
X223675000Y-128525000I0J-300000D01*
G01*
X223675000Y-129125000D01*
G75*
G02*
X223375000Y-129425000I-300000J0D01*
G01*
X222625000Y-129425000D01*
G75*
G02*
X222325000Y-129125000I0J300000D01*
G01*
X222325000Y-128525000D01*
G75*
G02*
X222625000Y-128225000I300000J0D01*
G01*
G37*
G36*
G01*
X222625000Y-126575000D02*
X223375000Y-126575000D01*
G75*
G02*
X223675000Y-126875000I0J-300000D01*
G01*
X223675000Y-127475000D01*
G75*
G02*
X223375000Y-127775000I-300000J0D01*
G01*
X222625000Y-127775000D01*
G75*
G02*
X222325000Y-127475000I0J300000D01*
G01*
X222325000Y-126875000D01*
G75*
G02*
X222625000Y-126575000I300000J0D01*
G01*
G37*
X270500000Y-118750000D03*
G36*
G01*
X254625000Y-128225000D02*
X255375000Y-128225000D01*
G75*
G02*
X255675000Y-128525000I0J-300000D01*
G01*
X255675000Y-129125000D01*
G75*
G02*
X255375000Y-129425000I-300000J0D01*
G01*
X254625000Y-129425000D01*
G75*
G02*
X254325000Y-129125000I0J300000D01*
G01*
X254325000Y-128525000D01*
G75*
G02*
X254625000Y-128225000I300000J0D01*
G01*
G37*
G36*
G01*
X254625000Y-126575000D02*
X255375000Y-126575000D01*
G75*
G02*
X255675000Y-126875000I0J-300000D01*
G01*
X255675000Y-127475000D01*
G75*
G02*
X255375000Y-127775000I-300000J0D01*
G01*
X254625000Y-127775000D01*
G75*
G02*
X254325000Y-127475000I0J300000D01*
G01*
X254325000Y-126875000D01*
G75*
G02*
X254625000Y-126575000I300000J0D01*
G01*
G37*
D13*
X273560160Y-122308680D03*
X276100160Y-122308680D03*
G36*
G01*
X277790160Y-119608680D02*
X279490160Y-119608680D01*
G75*
G02*
X279690160Y-119808680I0J-200000D01*
G01*
X279690160Y-124808680D01*
G75*
G02*
X279490160Y-125008680I-200000J0D01*
G01*
X277790160Y-125008680D01*
G75*
G02*
X277590160Y-124808680I0J200000D01*
G01*
X277590160Y-119808680D01*
G75*
G02*
X277790160Y-119608680I200000J0D01*
G01*
G37*
D10*
X260000000Y-132000000D03*
X254500000Y-118750000D03*
D12*
X247000000Y-138000000D03*
X245000000Y-138000000D03*
X243000000Y-138000000D03*
X241000000Y-138000000D03*
D10*
X238500000Y-118750000D03*
X265500000Y-118750000D03*
X276000000Y-132000000D03*
G36*
G01*
X254625000Y-131575000D02*
X255375000Y-131575000D01*
G75*
G02*
X255675000Y-131875000I0J-300000D01*
G01*
X255675000Y-132475000D01*
G75*
G02*
X255375000Y-132775000I-300000J0D01*
G01*
X254625000Y-132775000D01*
G75*
G02*
X254325000Y-132475000I0J300000D01*
G01*
X254325000Y-131875000D01*
G75*
G02*
X254625000Y-131575000I300000J0D01*
G01*
G37*
G36*
G01*
X254625000Y-133225000D02*
X255375000Y-133225000D01*
G75*
G02*
X255675000Y-133525000I0J-300000D01*
G01*
X255675000Y-134125000D01*
G75*
G02*
X255375000Y-134425000I-300000J0D01*
G01*
X254625000Y-134425000D01*
G75*
G02*
X254325000Y-134125000I0J300000D01*
G01*
X254325000Y-133525000D01*
G75*
G02*
X254625000Y-133225000I300000J0D01*
G01*
G37*
G36*
G01*
X270625000Y-126575000D02*
X271375000Y-126575000D01*
G75*
G02*
X271675000Y-126875000I0J-300000D01*
G01*
X271675000Y-127475000D01*
G75*
G02*
X271375000Y-127775000I-300000J0D01*
G01*
X270625000Y-127775000D01*
G75*
G02*
X270325000Y-127475000I0J300000D01*
G01*
X270325000Y-126875000D01*
G75*
G02*
X270625000Y-126575000I300000J0D01*
G01*
G37*
G36*
G01*
X270625000Y-128225000D02*
X271375000Y-128225000D01*
G75*
G02*
X271675000Y-128525000I0J-300000D01*
G01*
X271675000Y-129125000D01*
G75*
G02*
X271375000Y-129425000I-300000J0D01*
G01*
X270625000Y-129425000D01*
G75*
G02*
X270325000Y-129125000I0J300000D01*
G01*
X270325000Y-128525000D01*
G75*
G02*
X270625000Y-128225000I300000J0D01*
G01*
G37*
D12*
X289000000Y-138000000D03*
X291000000Y-138000000D03*
X293000000Y-138000000D03*
X295000000Y-138000000D03*
D10*
X286500000Y-118750000D03*
G36*
G01*
X293790160Y-119608680D02*
X295490160Y-119608680D01*
G75*
G02*
X295690160Y-119808680I0J-200000D01*
G01*
X295690160Y-124808680D01*
G75*
G02*
X295490160Y-125008680I-200000J0D01*
G01*
X293790160Y-125008680D01*
G75*
G02*
X293590160Y-124808680I0J200000D01*
G01*
X293590160Y-119808680D01*
G75*
G02*
X293790160Y-119608680I200000J0D01*
G01*
G37*
D13*
X292100160Y-122308680D03*
X289560160Y-122308680D03*
D11*
G36*
X292656112Y-126050602D02*
G01*
X292674534Y-126050602D01*
X292694140Y-126051565D01*
X292742971Y-126056375D01*
X292762380Y-126059254D01*
X292810505Y-126068826D01*
X292829548Y-126073596D01*
X292876503Y-126087840D01*
X292894980Y-126094451D01*
X292940313Y-126113228D01*
X292958061Y-126121623D01*
X293001334Y-126144754D01*
X293018162Y-126154840D01*
X293058961Y-126182100D01*
X293074730Y-126193795D01*
X293112659Y-126224923D01*
X293127200Y-126238103D01*
X293161897Y-126272800D01*
X293175077Y-126287341D01*
X293206205Y-126325270D01*
X293217900Y-126341039D01*
X293245160Y-126381838D01*
X293255246Y-126398666D01*
X293278377Y-126441939D01*
X293286772Y-126459687D01*
X293305549Y-126505020D01*
X293312160Y-126523497D01*
X293326404Y-126570452D01*
X293331174Y-126589495D01*
X293340746Y-126637620D01*
X293343625Y-126657029D01*
X293348435Y-126705860D01*
X293349398Y-126725466D01*
X293349398Y-126743888D01*
X293350000Y-126750000D01*
X293350000Y-127250000D01*
X293349398Y-127256112D01*
X293349398Y-127274534D01*
X293348435Y-127294140D01*
X293343625Y-127342971D01*
X293340746Y-127362380D01*
X293331174Y-127410505D01*
X293326404Y-127429548D01*
X293312160Y-127476503D01*
X293305549Y-127494980D01*
X293286772Y-127540313D01*
X293278377Y-127558061D01*
X293255246Y-127601334D01*
X293245160Y-127618162D01*
X293217900Y-127658961D01*
X293206205Y-127674730D01*
X293175077Y-127712659D01*
X293161897Y-127727200D01*
X293127200Y-127761897D01*
X293112659Y-127775077D01*
X293074730Y-127806205D01*
X293058961Y-127817900D01*
X293018162Y-127845160D01*
X293001334Y-127855246D01*
X292958061Y-127878377D01*
X292940313Y-127886772D01*
X292894980Y-127905549D01*
X292876503Y-127912160D01*
X292829548Y-127926404D01*
X292810505Y-127931174D01*
X292762380Y-127940746D01*
X292742971Y-127943625D01*
X292694140Y-127948435D01*
X292674534Y-127949398D01*
X292656112Y-127949398D01*
X292650000Y-127950000D01*
X292150000Y-127950000D01*
X292110982Y-127946157D01*
X292073463Y-127934776D01*
X292038886Y-127916294D01*
X292008579Y-127891421D01*
X291983706Y-127861114D01*
X291965224Y-127826537D01*
X291953843Y-127789018D01*
X291950000Y-127750000D01*
X291950000Y-126250000D01*
X291953843Y-126210982D01*
X291965224Y-126173463D01*
X291983706Y-126138886D01*
X292008579Y-126108579D01*
X292038886Y-126083706D01*
X292073463Y-126065224D01*
X292110982Y-126053843D01*
X292150000Y-126050000D01*
X292650000Y-126050000D01*
X292656112Y-126050602D01*
G37*
G36*
X291889018Y-126053843D02*
G01*
X291926537Y-126065224D01*
X291961114Y-126083706D01*
X291991421Y-126108579D01*
X292016294Y-126138886D01*
X292034776Y-126173463D01*
X292046157Y-126210982D01*
X292050000Y-126250000D01*
X292050000Y-127750000D01*
X292046157Y-127789018D01*
X292034776Y-127826537D01*
X292016294Y-127861114D01*
X291991421Y-127891421D01*
X291961114Y-127916294D01*
X291926537Y-127934776D01*
X291889018Y-127946157D01*
X291850000Y-127950000D01*
X291350000Y-127950000D01*
X291343888Y-127949398D01*
X291325466Y-127949398D01*
X291305860Y-127948435D01*
X291257029Y-127943625D01*
X291237620Y-127940746D01*
X291189495Y-127931174D01*
X291170452Y-127926404D01*
X291123497Y-127912160D01*
X291105020Y-127905549D01*
X291059687Y-127886772D01*
X291041939Y-127878377D01*
X290998666Y-127855246D01*
X290981838Y-127845160D01*
X290941039Y-127817900D01*
X290925270Y-127806205D01*
X290887341Y-127775077D01*
X290872800Y-127761897D01*
X290838103Y-127727200D01*
X290824923Y-127712659D01*
X290793795Y-127674730D01*
X290782100Y-127658961D01*
X290754840Y-127618162D01*
X290744754Y-127601334D01*
X290721623Y-127558061D01*
X290713228Y-127540313D01*
X290694451Y-127494980D01*
X290687840Y-127476503D01*
X290673596Y-127429548D01*
X290668826Y-127410505D01*
X290659254Y-127362380D01*
X290656375Y-127342971D01*
X290651565Y-127294140D01*
X290650602Y-127274534D01*
X290650602Y-127256112D01*
X290650000Y-127250000D01*
X290650000Y-126750000D01*
X290650602Y-126743888D01*
X290650602Y-126725466D01*
X290651565Y-126705860D01*
X290656375Y-126657029D01*
X290659254Y-126637620D01*
X290668826Y-126589495D01*
X290673596Y-126570452D01*
X290687840Y-126523497D01*
X290694451Y-126505020D01*
X290713228Y-126459687D01*
X290721623Y-126441939D01*
X290744754Y-126398666D01*
X290754840Y-126381838D01*
X290782100Y-126341039D01*
X290793795Y-126325270D01*
X290824923Y-126287341D01*
X290838103Y-126272800D01*
X290872800Y-126238103D01*
X290887341Y-126224923D01*
X290925270Y-126193795D01*
X290941039Y-126182100D01*
X290981838Y-126154840D01*
X290998666Y-126144754D01*
X291041939Y-126121623D01*
X291059687Y-126113228D01*
X291105020Y-126094451D01*
X291123497Y-126087840D01*
X291170452Y-126073596D01*
X291189495Y-126068826D01*
X291237620Y-126059254D01*
X291257029Y-126056375D01*
X291305860Y-126051565D01*
X291325466Y-126050602D01*
X291343888Y-126050602D01*
X291350000Y-126050000D01*
X291850000Y-126050000D01*
X291889018Y-126053843D01*
G37*
G36*
G01*
X286625000Y-128225000D02*
X287375000Y-128225000D01*
G75*
G02*
X287675000Y-128525000I0J-300000D01*
G01*
X287675000Y-129125000D01*
G75*
G02*
X287375000Y-129425000I-300000J0D01*
G01*
X286625000Y-129425000D01*
G75*
G02*
X286325000Y-129125000I0J300000D01*
G01*
X286325000Y-128525000D01*
G75*
G02*
X286625000Y-128225000I300000J0D01*
G01*
G37*
G36*
G01*
X286625000Y-126575000D02*
X287375000Y-126575000D01*
G75*
G02*
X287675000Y-126875000I0J-300000D01*
G01*
X287675000Y-127475000D01*
G75*
G02*
X287375000Y-127775000I-300000J0D01*
G01*
X286625000Y-127775000D01*
G75*
G02*
X286325000Y-127475000I0J300000D01*
G01*
X286325000Y-126875000D01*
G75*
G02*
X286625000Y-126575000I300000J0D01*
G01*
G37*
D12*
X279000000Y-138000000D03*
X277000000Y-138000000D03*
X275000000Y-138000000D03*
X273000000Y-138000000D03*
X257000000Y-138000000D03*
X259000000Y-138000000D03*
X261000000Y-138000000D03*
X263000000Y-138000000D03*
D13*
X241560160Y-122308680D03*
X244100160Y-122308680D03*
G36*
G01*
X245790160Y-119608680D02*
X247490160Y-119608680D01*
G75*
G02*
X247690160Y-119808680I0J-200000D01*
G01*
X247690160Y-124808680D01*
G75*
G02*
X247490160Y-125008680I-200000J0D01*
G01*
X245790160Y-125008680D01*
G75*
G02*
X245590160Y-124808680I0J200000D01*
G01*
X245590160Y-119808680D01*
G75*
G02*
X245790160Y-119608680I200000J0D01*
G01*
G37*
G36*
G01*
X238625000Y-133225000D02*
X239375000Y-133225000D01*
G75*
G02*
X239675000Y-133525000I0J-300000D01*
G01*
X239675000Y-134125000D01*
G75*
G02*
X239375000Y-134425000I-300000J0D01*
G01*
X238625000Y-134425000D01*
G75*
G02*
X238325000Y-134125000I0J300000D01*
G01*
X238325000Y-133525000D01*
G75*
G02*
X238625000Y-133225000I300000J0D01*
G01*
G37*
G36*
G01*
X238625000Y-131575000D02*
X239375000Y-131575000D01*
G75*
G02*
X239675000Y-131875000I0J-300000D01*
G01*
X239675000Y-132475000D01*
G75*
G02*
X239375000Y-132775000I-300000J0D01*
G01*
X238625000Y-132775000D01*
G75*
G02*
X238325000Y-132475000I0J300000D01*
G01*
X238325000Y-131875000D01*
G75*
G02*
X238625000Y-131575000I300000J0D01*
G01*
G37*
G36*
G01*
X261790160Y-119608680D02*
X263490160Y-119608680D01*
G75*
G02*
X263690160Y-119808680I0J-200000D01*
G01*
X263690160Y-124808680D01*
G75*
G02*
X263490160Y-125008680I-200000J0D01*
G01*
X261790160Y-125008680D01*
G75*
G02*
X261590160Y-124808680I0J200000D01*
G01*
X261590160Y-119808680D01*
G75*
G02*
X261790160Y-119608680I200000J0D01*
G01*
G37*
X260100160Y-122308680D03*
X257560160Y-122308680D03*
D11*
G36*
X243889018Y-126053843D02*
G01*
X243926537Y-126065224D01*
X243961114Y-126083706D01*
X243991421Y-126108579D01*
X244016294Y-126138886D01*
X244034776Y-126173463D01*
X244046157Y-126210982D01*
X244050000Y-126250000D01*
X244050000Y-127750000D01*
X244046157Y-127789018D01*
X244034776Y-127826537D01*
X244016294Y-127861114D01*
X243991421Y-127891421D01*
X243961114Y-127916294D01*
X243926537Y-127934776D01*
X243889018Y-127946157D01*
X243850000Y-127950000D01*
X243350000Y-127950000D01*
X243343888Y-127949398D01*
X243325466Y-127949398D01*
X243305860Y-127948435D01*
X243257029Y-127943625D01*
X243237620Y-127940746D01*
X243189495Y-127931174D01*
X243170452Y-127926404D01*
X243123497Y-127912160D01*
X243105020Y-127905549D01*
X243059687Y-127886772D01*
X243041939Y-127878377D01*
X242998666Y-127855246D01*
X242981838Y-127845160D01*
X242941039Y-127817900D01*
X242925270Y-127806205D01*
X242887341Y-127775077D01*
X242872800Y-127761897D01*
X242838103Y-127727200D01*
X242824923Y-127712659D01*
X242793795Y-127674730D01*
X242782100Y-127658961D01*
X242754840Y-127618162D01*
X242744754Y-127601334D01*
X242721623Y-127558061D01*
X242713228Y-127540313D01*
X242694451Y-127494980D01*
X242687840Y-127476503D01*
X242673596Y-127429548D01*
X242668826Y-127410505D01*
X242659254Y-127362380D01*
X242656375Y-127342971D01*
X242651565Y-127294140D01*
X242650602Y-127274534D01*
X242650602Y-127256112D01*
X242650000Y-127250000D01*
X242650000Y-126750000D01*
X242650602Y-126743888D01*
X242650602Y-126725466D01*
X242651565Y-126705860D01*
X242656375Y-126657029D01*
X242659254Y-126637620D01*
X242668826Y-126589495D01*
X242673596Y-126570452D01*
X242687840Y-126523497D01*
X242694451Y-126505020D01*
X242713228Y-126459687D01*
X242721623Y-126441939D01*
X242744754Y-126398666D01*
X242754840Y-126381838D01*
X242782100Y-126341039D01*
X242793795Y-126325270D01*
X242824923Y-126287341D01*
X242838103Y-126272800D01*
X242872800Y-126238103D01*
X242887341Y-126224923D01*
X242925270Y-126193795D01*
X242941039Y-126182100D01*
X242981838Y-126154840D01*
X242998666Y-126144754D01*
X243041939Y-126121623D01*
X243059687Y-126113228D01*
X243105020Y-126094451D01*
X243123497Y-126087840D01*
X243170452Y-126073596D01*
X243189495Y-126068826D01*
X243237620Y-126059254D01*
X243257029Y-126056375D01*
X243305860Y-126051565D01*
X243325466Y-126050602D01*
X243343888Y-126050602D01*
X243350000Y-126050000D01*
X243850000Y-126050000D01*
X243889018Y-126053843D01*
G37*
G36*
X244656112Y-126050602D02*
G01*
X244674534Y-126050602D01*
X244694140Y-126051565D01*
X244742971Y-126056375D01*
X244762380Y-126059254D01*
X244810505Y-126068826D01*
X244829548Y-126073596D01*
X244876503Y-126087840D01*
X244894980Y-126094451D01*
X244940313Y-126113228D01*
X244958061Y-126121623D01*
X245001334Y-126144754D01*
X245018162Y-126154840D01*
X245058961Y-126182100D01*
X245074730Y-126193795D01*
X245112659Y-126224923D01*
X245127200Y-126238103D01*
X245161897Y-126272800D01*
X245175077Y-126287341D01*
X245206205Y-126325270D01*
X245217900Y-126341039D01*
X245245160Y-126381838D01*
X245255246Y-126398666D01*
X245278377Y-126441939D01*
X245286772Y-126459687D01*
X245305549Y-126505020D01*
X245312160Y-126523497D01*
X245326404Y-126570452D01*
X245331174Y-126589495D01*
X245340746Y-126637620D01*
X245343625Y-126657029D01*
X245348435Y-126705860D01*
X245349398Y-126725466D01*
X245349398Y-126743888D01*
X245350000Y-126750000D01*
X245350000Y-127250000D01*
X245349398Y-127256112D01*
X245349398Y-127274534D01*
X245348435Y-127294140D01*
X245343625Y-127342971D01*
X245340746Y-127362380D01*
X245331174Y-127410505D01*
X245326404Y-127429548D01*
X245312160Y-127476503D01*
X245305549Y-127494980D01*
X245286772Y-127540313D01*
X245278377Y-127558061D01*
X245255246Y-127601334D01*
X245245160Y-127618162D01*
X245217900Y-127658961D01*
X245206205Y-127674730D01*
X245175077Y-127712659D01*
X245161897Y-127727200D01*
X245127200Y-127761897D01*
X245112659Y-127775077D01*
X245074730Y-127806205D01*
X245058961Y-127817900D01*
X245018162Y-127845160D01*
X245001334Y-127855246D01*
X244958061Y-127878377D01*
X244940313Y-127886772D01*
X244894980Y-127905549D01*
X244876503Y-127912160D01*
X244829548Y-127926404D01*
X244810505Y-127931174D01*
X244762380Y-127940746D01*
X244742971Y-127943625D01*
X244694140Y-127948435D01*
X244674534Y-127949398D01*
X244656112Y-127949398D01*
X244650000Y-127950000D01*
X244150000Y-127950000D01*
X244110982Y-127946157D01*
X244073463Y-127934776D01*
X244038886Y-127916294D01*
X244008579Y-127891421D01*
X243983706Y-127861114D01*
X243965224Y-127826537D01*
X243953843Y-127789018D01*
X243950000Y-127750000D01*
X243950000Y-126250000D01*
X243953843Y-126210982D01*
X243965224Y-126173463D01*
X243983706Y-126138886D01*
X244008579Y-126108579D01*
X244038886Y-126083706D01*
X244073463Y-126065224D01*
X244110982Y-126053843D01*
X244150000Y-126050000D01*
X244650000Y-126050000D01*
X244656112Y-126050602D01*
G37*
G36*
G01*
X238625000Y-126575000D02*
X239375000Y-126575000D01*
G75*
G02*
X239675000Y-126875000I0J-300000D01*
G01*
X239675000Y-127475000D01*
G75*
G02*
X239375000Y-127775000I-300000J0D01*
G01*
X238625000Y-127775000D01*
G75*
G02*
X238325000Y-127475000I0J300000D01*
G01*
X238325000Y-126875000D01*
G75*
G02*
X238625000Y-126575000I300000J0D01*
G01*
G37*
G36*
G01*
X238625000Y-128225000D02*
X239375000Y-128225000D01*
G75*
G02*
X239675000Y-128525000I0J-300000D01*
G01*
X239675000Y-129125000D01*
G75*
G02*
X239375000Y-129425000I-300000J0D01*
G01*
X238625000Y-129425000D01*
G75*
G02*
X238325000Y-129125000I0J300000D01*
G01*
X238325000Y-128525000D01*
G75*
G02*
X238625000Y-128225000I300000J0D01*
G01*
G37*
G36*
X260656112Y-126050602D02*
G01*
X260674534Y-126050602D01*
X260694140Y-126051565D01*
X260742971Y-126056375D01*
X260762380Y-126059254D01*
X260810505Y-126068826D01*
X260829548Y-126073596D01*
X260876503Y-126087840D01*
X260894980Y-126094451D01*
X260940313Y-126113228D01*
X260958061Y-126121623D01*
X261001334Y-126144754D01*
X261018162Y-126154840D01*
X261058961Y-126182100D01*
X261074730Y-126193795D01*
X261112659Y-126224923D01*
X261127200Y-126238103D01*
X261161897Y-126272800D01*
X261175077Y-126287341D01*
X261206205Y-126325270D01*
X261217900Y-126341039D01*
X261245160Y-126381838D01*
X261255246Y-126398666D01*
X261278377Y-126441939D01*
X261286772Y-126459687D01*
X261305549Y-126505020D01*
X261312160Y-126523497D01*
X261326404Y-126570452D01*
X261331174Y-126589495D01*
X261340746Y-126637620D01*
X261343625Y-126657029D01*
X261348435Y-126705860D01*
X261349398Y-126725466D01*
X261349398Y-126743888D01*
X261350000Y-126750000D01*
X261350000Y-127250000D01*
X261349398Y-127256112D01*
X261349398Y-127274534D01*
X261348435Y-127294140D01*
X261343625Y-127342971D01*
X261340746Y-127362380D01*
X261331174Y-127410505D01*
X261326404Y-127429548D01*
X261312160Y-127476503D01*
X261305549Y-127494980D01*
X261286772Y-127540313D01*
X261278377Y-127558061D01*
X261255246Y-127601334D01*
X261245160Y-127618162D01*
X261217900Y-127658961D01*
X261206205Y-127674730D01*
X261175077Y-127712659D01*
X261161897Y-127727200D01*
X261127200Y-127761897D01*
X261112659Y-127775077D01*
X261074730Y-127806205D01*
X261058961Y-127817900D01*
X261018162Y-127845160D01*
X261001334Y-127855246D01*
X260958061Y-127878377D01*
X260940313Y-127886772D01*
X260894980Y-127905549D01*
X260876503Y-127912160D01*
X260829548Y-127926404D01*
X260810505Y-127931174D01*
X260762380Y-127940746D01*
X260742971Y-127943625D01*
X260694140Y-127948435D01*
X260674534Y-127949398D01*
X260656112Y-127949398D01*
X260650000Y-127950000D01*
X260150000Y-127950000D01*
X260110982Y-127946157D01*
X260073463Y-127934776D01*
X260038886Y-127916294D01*
X260008579Y-127891421D01*
X259983706Y-127861114D01*
X259965224Y-127826537D01*
X259953843Y-127789018D01*
X259950000Y-127750000D01*
X259950000Y-126250000D01*
X259953843Y-126210982D01*
X259965224Y-126173463D01*
X259983706Y-126138886D01*
X260008579Y-126108579D01*
X260038886Y-126083706D01*
X260073463Y-126065224D01*
X260110982Y-126053843D01*
X260150000Y-126050000D01*
X260650000Y-126050000D01*
X260656112Y-126050602D01*
G37*
G36*
X259889018Y-126053843D02*
G01*
X259926537Y-126065224D01*
X259961114Y-126083706D01*
X259991421Y-126108579D01*
X260016294Y-126138886D01*
X260034776Y-126173463D01*
X260046157Y-126210982D01*
X260050000Y-126250000D01*
X260050000Y-127750000D01*
X260046157Y-127789018D01*
X260034776Y-127826537D01*
X260016294Y-127861114D01*
X259991421Y-127891421D01*
X259961114Y-127916294D01*
X259926537Y-127934776D01*
X259889018Y-127946157D01*
X259850000Y-127950000D01*
X259350000Y-127950000D01*
X259343888Y-127949398D01*
X259325466Y-127949398D01*
X259305860Y-127948435D01*
X259257029Y-127943625D01*
X259237620Y-127940746D01*
X259189495Y-127931174D01*
X259170452Y-127926404D01*
X259123497Y-127912160D01*
X259105020Y-127905549D01*
X259059687Y-127886772D01*
X259041939Y-127878377D01*
X258998666Y-127855246D01*
X258981838Y-127845160D01*
X258941039Y-127817900D01*
X258925270Y-127806205D01*
X258887341Y-127775077D01*
X258872800Y-127761897D01*
X258838103Y-127727200D01*
X258824923Y-127712659D01*
X258793795Y-127674730D01*
X258782100Y-127658961D01*
X258754840Y-127618162D01*
X258744754Y-127601334D01*
X258721623Y-127558061D01*
X258713228Y-127540313D01*
X258694451Y-127494980D01*
X258687840Y-127476503D01*
X258673596Y-127429548D01*
X258668826Y-127410505D01*
X258659254Y-127362380D01*
X258656375Y-127342971D01*
X258651565Y-127294140D01*
X258650602Y-127274534D01*
X258650602Y-127256112D01*
X258650000Y-127250000D01*
X258650000Y-126750000D01*
X258650602Y-126743888D01*
X258650602Y-126725466D01*
X258651565Y-126705860D01*
X258656375Y-126657029D01*
X258659254Y-126637620D01*
X258668826Y-126589495D01*
X258673596Y-126570452D01*
X258687840Y-126523497D01*
X258694451Y-126505020D01*
X258713228Y-126459687D01*
X258721623Y-126441939D01*
X258744754Y-126398666D01*
X258754840Y-126381838D01*
X258782100Y-126341039D01*
X258793795Y-126325270D01*
X258824923Y-126287341D01*
X258838103Y-126272800D01*
X258872800Y-126238103D01*
X258887341Y-126224923D01*
X258925270Y-126193795D01*
X258941039Y-126182100D01*
X258981838Y-126154840D01*
X258998666Y-126144754D01*
X259041939Y-126121623D01*
X259059687Y-126113228D01*
X259105020Y-126094451D01*
X259123497Y-126087840D01*
X259170452Y-126073596D01*
X259189495Y-126068826D01*
X259237620Y-126059254D01*
X259257029Y-126056375D01*
X259305860Y-126051565D01*
X259325466Y-126050602D01*
X259343888Y-126050602D01*
X259350000Y-126050000D01*
X259850000Y-126050000D01*
X259889018Y-126053843D01*
G37*
G36*
G01*
X286625000Y-131575000D02*
X287375000Y-131575000D01*
G75*
G02*
X287675000Y-131875000I0J-300000D01*
G01*
X287675000Y-132475000D01*
G75*
G02*
X287375000Y-132775000I-300000J0D01*
G01*
X286625000Y-132775000D01*
G75*
G02*
X286325000Y-132475000I0J300000D01*
G01*
X286325000Y-131875000D01*
G75*
G02*
X286625000Y-131575000I300000J0D01*
G01*
G37*
G36*
G01*
X286625000Y-133225000D02*
X287375000Y-133225000D01*
G75*
G02*
X287675000Y-133525000I0J-300000D01*
G01*
X287675000Y-134125000D01*
G75*
G02*
X287375000Y-134425000I-300000J0D01*
G01*
X286625000Y-134425000D01*
G75*
G02*
X286325000Y-134125000I0J300000D01*
G01*
X286325000Y-133525000D01*
G75*
G02*
X286625000Y-133225000I300000J0D01*
G01*
G37*
D12*
X225000000Y-138000000D03*
X227000000Y-138000000D03*
X229000000Y-138000000D03*
X231000000Y-138000000D03*
X215000000Y-138000000D03*
X213000000Y-138000000D03*
X211000000Y-138000000D03*
X209000000Y-138000000D03*
D10*
X297500000Y-118750000D03*
D11*
G36*
X275889018Y-126053843D02*
G01*
X275926537Y-126065224D01*
X275961114Y-126083706D01*
X275991421Y-126108579D01*
X276016294Y-126138886D01*
X276034776Y-126173463D01*
X276046157Y-126210982D01*
X276050000Y-126250000D01*
X276050000Y-127750000D01*
X276046157Y-127789018D01*
X276034776Y-127826537D01*
X276016294Y-127861114D01*
X275991421Y-127891421D01*
X275961114Y-127916294D01*
X275926537Y-127934776D01*
X275889018Y-127946157D01*
X275850000Y-127950000D01*
X275350000Y-127950000D01*
X275343888Y-127949398D01*
X275325466Y-127949398D01*
X275305860Y-127948435D01*
X275257029Y-127943625D01*
X275237620Y-127940746D01*
X275189495Y-127931174D01*
X275170452Y-127926404D01*
X275123497Y-127912160D01*
X275105020Y-127905549D01*
X275059687Y-127886772D01*
X275041939Y-127878377D01*
X274998666Y-127855246D01*
X274981838Y-127845160D01*
X274941039Y-127817900D01*
X274925270Y-127806205D01*
X274887341Y-127775077D01*
X274872800Y-127761897D01*
X274838103Y-127727200D01*
X274824923Y-127712659D01*
X274793795Y-127674730D01*
X274782100Y-127658961D01*
X274754840Y-127618162D01*
X274744754Y-127601334D01*
X274721623Y-127558061D01*
X274713228Y-127540313D01*
X274694451Y-127494980D01*
X274687840Y-127476503D01*
X274673596Y-127429548D01*
X274668826Y-127410505D01*
X274659254Y-127362380D01*
X274656375Y-127342971D01*
X274651565Y-127294140D01*
X274650602Y-127274534D01*
X274650602Y-127256112D01*
X274650000Y-127250000D01*
X274650000Y-126750000D01*
X274650602Y-126743888D01*
X274650602Y-126725466D01*
X274651565Y-126705860D01*
X274656375Y-126657029D01*
X274659254Y-126637620D01*
X274668826Y-126589495D01*
X274673596Y-126570452D01*
X274687840Y-126523497D01*
X274694451Y-126505020D01*
X274713228Y-126459687D01*
X274721623Y-126441939D01*
X274744754Y-126398666D01*
X274754840Y-126381838D01*
X274782100Y-126341039D01*
X274793795Y-126325270D01*
X274824923Y-126287341D01*
X274838103Y-126272800D01*
X274872800Y-126238103D01*
X274887341Y-126224923D01*
X274925270Y-126193795D01*
X274941039Y-126182100D01*
X274981838Y-126154840D01*
X274998666Y-126144754D01*
X275041939Y-126121623D01*
X275059687Y-126113228D01*
X275105020Y-126094451D01*
X275123497Y-126087840D01*
X275170452Y-126073596D01*
X275189495Y-126068826D01*
X275237620Y-126059254D01*
X275257029Y-126056375D01*
X275305860Y-126051565D01*
X275325466Y-126050602D01*
X275343888Y-126050602D01*
X275350000Y-126050000D01*
X275850000Y-126050000D01*
X275889018Y-126053843D01*
G37*
G36*
X276656112Y-126050602D02*
G01*
X276674534Y-126050602D01*
X276694140Y-126051565D01*
X276742971Y-126056375D01*
X276762380Y-126059254D01*
X276810505Y-126068826D01*
X276829548Y-126073596D01*
X276876503Y-126087840D01*
X276894980Y-126094451D01*
X276940313Y-126113228D01*
X276958061Y-126121623D01*
X277001334Y-126144754D01*
X277018162Y-126154840D01*
X277058961Y-126182100D01*
X277074730Y-126193795D01*
X277112659Y-126224923D01*
X277127200Y-126238103D01*
X277161897Y-126272800D01*
X277175077Y-126287341D01*
X277206205Y-126325270D01*
X277217900Y-126341039D01*
X277245160Y-126381838D01*
X277255246Y-126398666D01*
X277278377Y-126441939D01*
X277286772Y-126459687D01*
X277305549Y-126505020D01*
X277312160Y-126523497D01*
X277326404Y-126570452D01*
X277331174Y-126589495D01*
X277340746Y-126637620D01*
X277343625Y-126657029D01*
X277348435Y-126705860D01*
X277349398Y-126725466D01*
X277349398Y-126743888D01*
X277350000Y-126750000D01*
X277350000Y-127250000D01*
X277349398Y-127256112D01*
X277349398Y-127274534D01*
X277348435Y-127294140D01*
X277343625Y-127342971D01*
X277340746Y-127362380D01*
X277331174Y-127410505D01*
X277326404Y-127429548D01*
X277312160Y-127476503D01*
X277305549Y-127494980D01*
X277286772Y-127540313D01*
X277278377Y-127558061D01*
X277255246Y-127601334D01*
X277245160Y-127618162D01*
X277217900Y-127658961D01*
X277206205Y-127674730D01*
X277175077Y-127712659D01*
X277161897Y-127727200D01*
X277127200Y-127761897D01*
X277112659Y-127775077D01*
X277074730Y-127806205D01*
X277058961Y-127817900D01*
X277018162Y-127845160D01*
X277001334Y-127855246D01*
X276958061Y-127878377D01*
X276940313Y-127886772D01*
X276894980Y-127905549D01*
X276876503Y-127912160D01*
X276829548Y-127926404D01*
X276810505Y-127931174D01*
X276762380Y-127940746D01*
X276742971Y-127943625D01*
X276694140Y-127948435D01*
X276674534Y-127949398D01*
X276656112Y-127949398D01*
X276650000Y-127950000D01*
X276150000Y-127950000D01*
X276110982Y-127946157D01*
X276073463Y-127934776D01*
X276038886Y-127916294D01*
X276008579Y-127891421D01*
X275983706Y-127861114D01*
X275965224Y-127826537D01*
X275953843Y-127789018D01*
X275950000Y-127750000D01*
X275950000Y-126250000D01*
X275953843Y-126210982D01*
X275965224Y-126173463D01*
X275983706Y-126138886D01*
X276008579Y-126108579D01*
X276038886Y-126083706D01*
X276073463Y-126065224D01*
X276110982Y-126053843D01*
X276150000Y-126050000D01*
X276650000Y-126050000D01*
X276656112Y-126050602D01*
G37*
D10*
X222500000Y-118750000D03*
G36*
G01*
X206625000Y-126575000D02*
X207375000Y-126575000D01*
G75*
G02*
X207675000Y-126875000I0J-300000D01*
G01*
X207675000Y-127475000D01*
G75*
G02*
X207375000Y-127775000I-300000J0D01*
G01*
X206625000Y-127775000D01*
G75*
G02*
X206325000Y-127475000I0J300000D01*
G01*
X206325000Y-126875000D01*
G75*
G02*
X206625000Y-126575000I300000J0D01*
G01*
G37*
G36*
G01*
X206625000Y-128225000D02*
X207375000Y-128225000D01*
G75*
G02*
X207675000Y-128525000I0J-300000D01*
G01*
X207675000Y-129125000D01*
G75*
G02*
X207375000Y-129425000I-300000J0D01*
G01*
X206625000Y-129425000D01*
G75*
G02*
X206325000Y-129125000I0J300000D01*
G01*
X206325000Y-128525000D01*
G75*
G02*
X206625000Y-128225000I300000J0D01*
G01*
G37*
X281500000Y-118750000D03*
G36*
G01*
X229790160Y-119608680D02*
X231490160Y-119608680D01*
G75*
G02*
X231690160Y-119808680I0J-200000D01*
G01*
X231690160Y-124808680D01*
G75*
G02*
X231490160Y-125008680I-200000J0D01*
G01*
X229790160Y-125008680D01*
G75*
G02*
X229590160Y-124808680I0J200000D01*
G01*
X229590160Y-119808680D01*
G75*
G02*
X229790160Y-119608680I200000J0D01*
G01*
G37*
D13*
X228100160Y-122308680D03*
X225560160Y-122308680D03*
D10*
X212000000Y-132000000D03*
X206500000Y-118750000D03*
G36*
G01*
X222625000Y-131575000D02*
X223375000Y-131575000D01*
G75*
G02*
X223675000Y-131875000I0J-300000D01*
G01*
X223675000Y-132475000D01*
G75*
G02*
X223375000Y-132775000I-300000J0D01*
G01*
X222625000Y-132775000D01*
G75*
G02*
X222325000Y-132475000I0J300000D01*
G01*
X222325000Y-131875000D01*
G75*
G02*
X222625000Y-131575000I300000J0D01*
G01*
G37*
G36*
G01*
X222625000Y-133225000D02*
X223375000Y-133225000D01*
G75*
G02*
X223675000Y-133525000I0J-300000D01*
G01*
X223675000Y-134125000D01*
G75*
G02*
X223375000Y-134425000I-300000J0D01*
G01*
X222625000Y-134425000D01*
G75*
G02*
X222325000Y-134125000I0J300000D01*
G01*
X222325000Y-133525000D01*
G75*
G02*
X222625000Y-133225000I300000J0D01*
G01*
G37*
X249500000Y-118750000D03*
X233500000Y-118750000D03*
X244000000Y-132000000D03*
D11*
G36*
X228656112Y-126050602D02*
G01*
X228674534Y-126050602D01*
X228694140Y-126051565D01*
X228742971Y-126056375D01*
X228762380Y-126059254D01*
X228810505Y-126068826D01*
X228829548Y-126073596D01*
X228876503Y-126087840D01*
X228894980Y-126094451D01*
X228940313Y-126113228D01*
X228958061Y-126121623D01*
X229001334Y-126144754D01*
X229018162Y-126154840D01*
X229058961Y-126182100D01*
X229074730Y-126193795D01*
X229112659Y-126224923D01*
X229127200Y-126238103D01*
X229161897Y-126272800D01*
X229175077Y-126287341D01*
X229206205Y-126325270D01*
X229217900Y-126341039D01*
X229245160Y-126381838D01*
X229255246Y-126398666D01*
X229278377Y-126441939D01*
X229286772Y-126459687D01*
X229305549Y-126505020D01*
X229312160Y-126523497D01*
X229326404Y-126570452D01*
X229331174Y-126589495D01*
X229340746Y-126637620D01*
X229343625Y-126657029D01*
X229348435Y-126705860D01*
X229349398Y-126725466D01*
X229349398Y-126743888D01*
X229350000Y-126750000D01*
X229350000Y-127250000D01*
X229349398Y-127256112D01*
X229349398Y-127274534D01*
X229348435Y-127294140D01*
X229343625Y-127342971D01*
X229340746Y-127362380D01*
X229331174Y-127410505D01*
X229326404Y-127429548D01*
X229312160Y-127476503D01*
X229305549Y-127494980D01*
X229286772Y-127540313D01*
X229278377Y-127558061D01*
X229255246Y-127601334D01*
X229245160Y-127618162D01*
X229217900Y-127658961D01*
X229206205Y-127674730D01*
X229175077Y-127712659D01*
X229161897Y-127727200D01*
X229127200Y-127761897D01*
X229112659Y-127775077D01*
X229074730Y-127806205D01*
X229058961Y-127817900D01*
X229018162Y-127845160D01*
X229001334Y-127855246D01*
X228958061Y-127878377D01*
X228940313Y-127886772D01*
X228894980Y-127905549D01*
X228876503Y-127912160D01*
X228829548Y-127926404D01*
X228810505Y-127931174D01*
X228762380Y-127940746D01*
X228742971Y-127943625D01*
X228694140Y-127948435D01*
X228674534Y-127949398D01*
X228656112Y-127949398D01*
X228650000Y-127950000D01*
X228150000Y-127950000D01*
X228110982Y-127946157D01*
X228073463Y-127934776D01*
X228038886Y-127916294D01*
X228008579Y-127891421D01*
X227983706Y-127861114D01*
X227965224Y-127826537D01*
X227953843Y-127789018D01*
X227950000Y-127750000D01*
X227950000Y-126250000D01*
X227953843Y-126210982D01*
X227965224Y-126173463D01*
X227983706Y-126138886D01*
X228008579Y-126108579D01*
X228038886Y-126083706D01*
X228073463Y-126065224D01*
X228110982Y-126053843D01*
X228150000Y-126050000D01*
X228650000Y-126050000D01*
X228656112Y-126050602D01*
G37*
G36*
X227889018Y-126053843D02*
G01*
X227926537Y-126065224D01*
X227961114Y-126083706D01*
X227991421Y-126108579D01*
X228016294Y-126138886D01*
X228034776Y-126173463D01*
X228046157Y-126210982D01*
X228050000Y-126250000D01*
X228050000Y-127750000D01*
X228046157Y-127789018D01*
X228034776Y-127826537D01*
X228016294Y-127861114D01*
X227991421Y-127891421D01*
X227961114Y-127916294D01*
X227926537Y-127934776D01*
X227889018Y-127946157D01*
X227850000Y-127950000D01*
X227350000Y-127950000D01*
X227343888Y-127949398D01*
X227325466Y-127949398D01*
X227305860Y-127948435D01*
X227257029Y-127943625D01*
X227237620Y-127940746D01*
X227189495Y-127931174D01*
X227170452Y-127926404D01*
X227123497Y-127912160D01*
X227105020Y-127905549D01*
X227059687Y-127886772D01*
X227041939Y-127878377D01*
X226998666Y-127855246D01*
X226981838Y-127845160D01*
X226941039Y-127817900D01*
X226925270Y-127806205D01*
X226887341Y-127775077D01*
X226872800Y-127761897D01*
X226838103Y-127727200D01*
X226824923Y-127712659D01*
X226793795Y-127674730D01*
X226782100Y-127658961D01*
X226754840Y-127618162D01*
X226744754Y-127601334D01*
X226721623Y-127558061D01*
X226713228Y-127540313D01*
X226694451Y-127494980D01*
X226687840Y-127476503D01*
X226673596Y-127429548D01*
X226668826Y-127410505D01*
X226659254Y-127362380D01*
X226656375Y-127342971D01*
X226651565Y-127294140D01*
X226650602Y-127274534D01*
X226650602Y-127256112D01*
X226650000Y-127250000D01*
X226650000Y-126750000D01*
X226650602Y-126743888D01*
X226650602Y-126725466D01*
X226651565Y-126705860D01*
X226656375Y-126657029D01*
X226659254Y-126637620D01*
X226668826Y-126589495D01*
X226673596Y-126570452D01*
X226687840Y-126523497D01*
X226694451Y-126505020D01*
X226713228Y-126459687D01*
X226721623Y-126441939D01*
X226744754Y-126398666D01*
X226754840Y-126381838D01*
X226782100Y-126341039D01*
X226793795Y-126325270D01*
X226824923Y-126287341D01*
X226838103Y-126272800D01*
X226872800Y-126238103D01*
X226887341Y-126224923D01*
X226925270Y-126193795D01*
X226941039Y-126182100D01*
X226981838Y-126154840D01*
X226998666Y-126144754D01*
X227041939Y-126121623D01*
X227059687Y-126113228D01*
X227105020Y-126094451D01*
X227123497Y-126087840D01*
X227170452Y-126073596D01*
X227189495Y-126068826D01*
X227237620Y-126059254D01*
X227257029Y-126056375D01*
X227305860Y-126051565D01*
X227325466Y-126050602D01*
X227343888Y-126050602D01*
X227350000Y-126050000D01*
X227850000Y-126050000D01*
X227889018Y-126053843D01*
G37*
D13*
X209560160Y-122308680D03*
X212100160Y-122308680D03*
G36*
G01*
X213790160Y-119608680D02*
X215490160Y-119608680D01*
G75*
G02*
X215690160Y-119808680I0J-200000D01*
G01*
X215690160Y-124808680D01*
G75*
G02*
X215490160Y-125008680I-200000J0D01*
G01*
X213790160Y-125008680D01*
G75*
G02*
X213590160Y-124808680I0J200000D01*
G01*
X213590160Y-119808680D01*
G75*
G02*
X213790160Y-119608680I200000J0D01*
G01*
G37*
D11*
G36*
X211889018Y-126053843D02*
G01*
X211926537Y-126065224D01*
X211961114Y-126083706D01*
X211991421Y-126108579D01*
X212016294Y-126138886D01*
X212034776Y-126173463D01*
X212046157Y-126210982D01*
X212050000Y-126250000D01*
X212050000Y-127750000D01*
X212046157Y-127789018D01*
X212034776Y-127826537D01*
X212016294Y-127861114D01*
X211991421Y-127891421D01*
X211961114Y-127916294D01*
X211926537Y-127934776D01*
X211889018Y-127946157D01*
X211850000Y-127950000D01*
X211350000Y-127950000D01*
X211343888Y-127949398D01*
X211325466Y-127949398D01*
X211305860Y-127948435D01*
X211257029Y-127943625D01*
X211237620Y-127940746D01*
X211189495Y-127931174D01*
X211170452Y-127926404D01*
X211123497Y-127912160D01*
X211105020Y-127905549D01*
X211059687Y-127886772D01*
X211041939Y-127878377D01*
X210998666Y-127855246D01*
X210981838Y-127845160D01*
X210941039Y-127817900D01*
X210925270Y-127806205D01*
X210887341Y-127775077D01*
X210872800Y-127761897D01*
X210838103Y-127727200D01*
X210824923Y-127712659D01*
X210793795Y-127674730D01*
X210782100Y-127658961D01*
X210754840Y-127618162D01*
X210744754Y-127601334D01*
X210721623Y-127558061D01*
X210713228Y-127540313D01*
X210694451Y-127494980D01*
X210687840Y-127476503D01*
X210673596Y-127429548D01*
X210668826Y-127410505D01*
X210659254Y-127362380D01*
X210656375Y-127342971D01*
X210651565Y-127294140D01*
X210650602Y-127274534D01*
X210650602Y-127256112D01*
X210650000Y-127250000D01*
X210650000Y-126750000D01*
X210650602Y-126743888D01*
X210650602Y-126725466D01*
X210651565Y-126705860D01*
X210656375Y-126657029D01*
X210659254Y-126637620D01*
X210668826Y-126589495D01*
X210673596Y-126570452D01*
X210687840Y-126523497D01*
X210694451Y-126505020D01*
X210713228Y-126459687D01*
X210721623Y-126441939D01*
X210744754Y-126398666D01*
X210754840Y-126381838D01*
X210782100Y-126341039D01*
X210793795Y-126325270D01*
X210824923Y-126287341D01*
X210838103Y-126272800D01*
X210872800Y-126238103D01*
X210887341Y-126224923D01*
X210925270Y-126193795D01*
X210941039Y-126182100D01*
X210981838Y-126154840D01*
X210998666Y-126144754D01*
X211041939Y-126121623D01*
X211059687Y-126113228D01*
X211105020Y-126094451D01*
X211123497Y-126087840D01*
X211170452Y-126073596D01*
X211189495Y-126068826D01*
X211237620Y-126059254D01*
X211257029Y-126056375D01*
X211305860Y-126051565D01*
X211325466Y-126050602D01*
X211343888Y-126050602D01*
X211350000Y-126050000D01*
X211850000Y-126050000D01*
X211889018Y-126053843D01*
G37*
G36*
X212656112Y-126050602D02*
G01*
X212674534Y-126050602D01*
X212694140Y-126051565D01*
X212742971Y-126056375D01*
X212762380Y-126059254D01*
X212810505Y-126068826D01*
X212829548Y-126073596D01*
X212876503Y-126087840D01*
X212894980Y-126094451D01*
X212940313Y-126113228D01*
X212958061Y-126121623D01*
X213001334Y-126144754D01*
X213018162Y-126154840D01*
X213058961Y-126182100D01*
X213074730Y-126193795D01*
X213112659Y-126224923D01*
X213127200Y-126238103D01*
X213161897Y-126272800D01*
X213175077Y-126287341D01*
X213206205Y-126325270D01*
X213217900Y-126341039D01*
X213245160Y-126381838D01*
X213255246Y-126398666D01*
X213278377Y-126441939D01*
X213286772Y-126459687D01*
X213305549Y-126505020D01*
X213312160Y-126523497D01*
X213326404Y-126570452D01*
X213331174Y-126589495D01*
X213340746Y-126637620D01*
X213343625Y-126657029D01*
X213348435Y-126705860D01*
X213349398Y-126725466D01*
X213349398Y-126743888D01*
X213350000Y-126750000D01*
X213350000Y-127250000D01*
X213349398Y-127256112D01*
X213349398Y-127274534D01*
X213348435Y-127294140D01*
X213343625Y-127342971D01*
X213340746Y-127362380D01*
X213331174Y-127410505D01*
X213326404Y-127429548D01*
X213312160Y-127476503D01*
X213305549Y-127494980D01*
X213286772Y-127540313D01*
X213278377Y-127558061D01*
X213255246Y-127601334D01*
X213245160Y-127618162D01*
X213217900Y-127658961D01*
X213206205Y-127674730D01*
X213175077Y-127712659D01*
X213161897Y-127727200D01*
X213127200Y-127761897D01*
X213112659Y-127775077D01*
X213074730Y-127806205D01*
X213058961Y-127817900D01*
X213018162Y-127845160D01*
X213001334Y-127855246D01*
X212958061Y-127878377D01*
X212940313Y-127886772D01*
X212894980Y-127905549D01*
X212876503Y-127912160D01*
X212829548Y-127926404D01*
X212810505Y-127931174D01*
X212762380Y-127940746D01*
X212742971Y-127943625D01*
X212694140Y-127948435D01*
X212674534Y-127949398D01*
X212656112Y-127949398D01*
X212650000Y-127950000D01*
X212150000Y-127950000D01*
X212110982Y-127946157D01*
X212073463Y-127934776D01*
X212038886Y-127916294D01*
X212008579Y-127891421D01*
X211983706Y-127861114D01*
X211965224Y-127826537D01*
X211953843Y-127789018D01*
X211950000Y-127750000D01*
X211950000Y-126250000D01*
X211953843Y-126210982D01*
X211965224Y-126173463D01*
X211983706Y-126138886D01*
X212008579Y-126108579D01*
X212038886Y-126083706D01*
X212073463Y-126065224D01*
X212110982Y-126053843D01*
X212150000Y-126050000D01*
X212650000Y-126050000D01*
X212656112Y-126050602D01*
G37*
D10*
X265500000Y-88750000D03*
X276000000Y-102000000D03*
G36*
G01*
X254625000Y-103225000D02*
X255375000Y-103225000D01*
G75*
G02*
X255675000Y-103525000I0J-300000D01*
G01*
X255675000Y-104125000D01*
G75*
G02*
X255375000Y-104425000I-300000J0D01*
G01*
X254625000Y-104425000D01*
G75*
G02*
X254325000Y-104125000I0J300000D01*
G01*
X254325000Y-103525000D01*
G75*
G02*
X254625000Y-103225000I300000J0D01*
G01*
G37*
G36*
G01*
X254625000Y-101575000D02*
X255375000Y-101575000D01*
G75*
G02*
X255675000Y-101875000I0J-300000D01*
G01*
X255675000Y-102475000D01*
G75*
G02*
X255375000Y-102775000I-300000J0D01*
G01*
X254625000Y-102775000D01*
G75*
G02*
X254325000Y-102475000I0J300000D01*
G01*
X254325000Y-101875000D01*
G75*
G02*
X254625000Y-101575000I300000J0D01*
G01*
G37*
G36*
G01*
X270625000Y-98225000D02*
X271375000Y-98225000D01*
G75*
G02*
X271675000Y-98525000I0J-300000D01*
G01*
X271675000Y-99125000D01*
G75*
G02*
X271375000Y-99425000I-300000J0D01*
G01*
X270625000Y-99425000D01*
G75*
G02*
X270325000Y-99125000I0J300000D01*
G01*
X270325000Y-98525000D01*
G75*
G02*
X270625000Y-98225000I300000J0D01*
G01*
G37*
G36*
G01*
X270625000Y-96575000D02*
X271375000Y-96575000D01*
G75*
G02*
X271675000Y-96875000I0J-300000D01*
G01*
X271675000Y-97475000D01*
G75*
G02*
X271375000Y-97775000I-300000J0D01*
G01*
X270625000Y-97775000D01*
G75*
G02*
X270325000Y-97475000I0J300000D01*
G01*
X270325000Y-96875000D01*
G75*
G02*
X270625000Y-96575000I300000J0D01*
G01*
G37*
D12*
X295000000Y-108000000D03*
X293000000Y-108000000D03*
X291000000Y-108000000D03*
X289000000Y-108000000D03*
D10*
X286500000Y-88750000D03*
D13*
X289560160Y-92308680D03*
X292100160Y-92308680D03*
G36*
G01*
X293790160Y-89608680D02*
X295490160Y-89608680D01*
G75*
G02*
X295690160Y-89808680I0J-200000D01*
G01*
X295690160Y-94808680D01*
G75*
G02*
X295490160Y-95008680I-200000J0D01*
G01*
X293790160Y-95008680D01*
G75*
G02*
X293590160Y-94808680I0J200000D01*
G01*
X293590160Y-89808680D01*
G75*
G02*
X293790160Y-89608680I200000J0D01*
G01*
G37*
G36*
G01*
X286625000Y-103225000D02*
X287375000Y-103225000D01*
G75*
G02*
X287675000Y-103525000I0J-300000D01*
G01*
X287675000Y-104125000D01*
G75*
G02*
X287375000Y-104425000I-300000J0D01*
G01*
X286625000Y-104425000D01*
G75*
G02*
X286325000Y-104125000I0J300000D01*
G01*
X286325000Y-103525000D01*
G75*
G02*
X286625000Y-103225000I300000J0D01*
G01*
G37*
G36*
G01*
X286625000Y-101575000D02*
X287375000Y-101575000D01*
G75*
G02*
X287675000Y-101875000I0J-300000D01*
G01*
X287675000Y-102475000D01*
G75*
G02*
X287375000Y-102775000I-300000J0D01*
G01*
X286625000Y-102775000D01*
G75*
G02*
X286325000Y-102475000I0J300000D01*
G01*
X286325000Y-101875000D01*
G75*
G02*
X286625000Y-101575000I300000J0D01*
G01*
G37*
D11*
G36*
X291889018Y-96053843D02*
G01*
X291926537Y-96065224D01*
X291961114Y-96083706D01*
X291991421Y-96108579D01*
X292016294Y-96138886D01*
X292034776Y-96173463D01*
X292046157Y-96210982D01*
X292050000Y-96250000D01*
X292050000Y-97750000D01*
X292046157Y-97789018D01*
X292034776Y-97826537D01*
X292016294Y-97861114D01*
X291991421Y-97891421D01*
X291961114Y-97916294D01*
X291926537Y-97934776D01*
X291889018Y-97946157D01*
X291850000Y-97950000D01*
X291350000Y-97950000D01*
X291343888Y-97949398D01*
X291325466Y-97949398D01*
X291305860Y-97948435D01*
X291257029Y-97943625D01*
X291237620Y-97940746D01*
X291189495Y-97931174D01*
X291170452Y-97926404D01*
X291123497Y-97912160D01*
X291105020Y-97905549D01*
X291059687Y-97886772D01*
X291041939Y-97878377D01*
X290998666Y-97855246D01*
X290981838Y-97845160D01*
X290941039Y-97817900D01*
X290925270Y-97806205D01*
X290887341Y-97775077D01*
X290872800Y-97761897D01*
X290838103Y-97727200D01*
X290824923Y-97712659D01*
X290793795Y-97674730D01*
X290782100Y-97658961D01*
X290754840Y-97618162D01*
X290744754Y-97601334D01*
X290721623Y-97558061D01*
X290713228Y-97540313D01*
X290694451Y-97494980D01*
X290687840Y-97476503D01*
X290673596Y-97429548D01*
X290668826Y-97410505D01*
X290659254Y-97362380D01*
X290656375Y-97342971D01*
X290651565Y-97294140D01*
X290650602Y-97274534D01*
X290650602Y-97256112D01*
X290650000Y-97250000D01*
X290650000Y-96750000D01*
X290650602Y-96743888D01*
X290650602Y-96725466D01*
X290651565Y-96705860D01*
X290656375Y-96657029D01*
X290659254Y-96637620D01*
X290668826Y-96589495D01*
X290673596Y-96570452D01*
X290687840Y-96523497D01*
X290694451Y-96505020D01*
X290713228Y-96459687D01*
X290721623Y-96441939D01*
X290744754Y-96398666D01*
X290754840Y-96381838D01*
X290782100Y-96341039D01*
X290793795Y-96325270D01*
X290824923Y-96287341D01*
X290838103Y-96272800D01*
X290872800Y-96238103D01*
X290887341Y-96224923D01*
X290925270Y-96193795D01*
X290941039Y-96182100D01*
X290981838Y-96154840D01*
X290998666Y-96144754D01*
X291041939Y-96121623D01*
X291059687Y-96113228D01*
X291105020Y-96094451D01*
X291123497Y-96087840D01*
X291170452Y-96073596D01*
X291189495Y-96068826D01*
X291237620Y-96059254D01*
X291257029Y-96056375D01*
X291305860Y-96051565D01*
X291325466Y-96050602D01*
X291343888Y-96050602D01*
X291350000Y-96050000D01*
X291850000Y-96050000D01*
X291889018Y-96053843D01*
G37*
G36*
X292656112Y-96050602D02*
G01*
X292674534Y-96050602D01*
X292694140Y-96051565D01*
X292742971Y-96056375D01*
X292762380Y-96059254D01*
X292810505Y-96068826D01*
X292829548Y-96073596D01*
X292876503Y-96087840D01*
X292894980Y-96094451D01*
X292940313Y-96113228D01*
X292958061Y-96121623D01*
X293001334Y-96144754D01*
X293018162Y-96154840D01*
X293058961Y-96182100D01*
X293074730Y-96193795D01*
X293112659Y-96224923D01*
X293127200Y-96238103D01*
X293161897Y-96272800D01*
X293175077Y-96287341D01*
X293206205Y-96325270D01*
X293217900Y-96341039D01*
X293245160Y-96381838D01*
X293255246Y-96398666D01*
X293278377Y-96441939D01*
X293286772Y-96459687D01*
X293305549Y-96505020D01*
X293312160Y-96523497D01*
X293326404Y-96570452D01*
X293331174Y-96589495D01*
X293340746Y-96637620D01*
X293343625Y-96657029D01*
X293348435Y-96705860D01*
X293349398Y-96725466D01*
X293349398Y-96743888D01*
X293350000Y-96750000D01*
X293350000Y-97250000D01*
X293349398Y-97256112D01*
X293349398Y-97274534D01*
X293348435Y-97294140D01*
X293343625Y-97342971D01*
X293340746Y-97362380D01*
X293331174Y-97410505D01*
X293326404Y-97429548D01*
X293312160Y-97476503D01*
X293305549Y-97494980D01*
X293286772Y-97540313D01*
X293278377Y-97558061D01*
X293255246Y-97601334D01*
X293245160Y-97618162D01*
X293217900Y-97658961D01*
X293206205Y-97674730D01*
X293175077Y-97712659D01*
X293161897Y-97727200D01*
X293127200Y-97761897D01*
X293112659Y-97775077D01*
X293074730Y-97806205D01*
X293058961Y-97817900D01*
X293018162Y-97845160D01*
X293001334Y-97855246D01*
X292958061Y-97878377D01*
X292940313Y-97886772D01*
X292894980Y-97905549D01*
X292876503Y-97912160D01*
X292829548Y-97926404D01*
X292810505Y-97931174D01*
X292762380Y-97940746D01*
X292742971Y-97943625D01*
X292694140Y-97948435D01*
X292674534Y-97949398D01*
X292656112Y-97949398D01*
X292650000Y-97950000D01*
X292150000Y-97950000D01*
X292110982Y-97946157D01*
X292073463Y-97934776D01*
X292038886Y-97916294D01*
X292008579Y-97891421D01*
X291983706Y-97861114D01*
X291965224Y-97826537D01*
X291953843Y-97789018D01*
X291950000Y-97750000D01*
X291950000Y-96250000D01*
X291953843Y-96210982D01*
X291965224Y-96173463D01*
X291983706Y-96138886D01*
X292008579Y-96108579D01*
X292038886Y-96083706D01*
X292073463Y-96065224D01*
X292110982Y-96053843D01*
X292150000Y-96050000D01*
X292650000Y-96050000D01*
X292656112Y-96050602D01*
G37*
G36*
G01*
X286625000Y-96575000D02*
X287375000Y-96575000D01*
G75*
G02*
X287675000Y-96875000I0J-300000D01*
G01*
X287675000Y-97475000D01*
G75*
G02*
X287375000Y-97775000I-300000J0D01*
G01*
X286625000Y-97775000D01*
G75*
G02*
X286325000Y-97475000I0J300000D01*
G01*
X286325000Y-96875000D01*
G75*
G02*
X286625000Y-96575000I300000J0D01*
G01*
G37*
G36*
G01*
X286625000Y-98225000D02*
X287375000Y-98225000D01*
G75*
G02*
X287675000Y-98525000I0J-300000D01*
G01*
X287675000Y-99125000D01*
G75*
G02*
X287375000Y-99425000I-300000J0D01*
G01*
X286625000Y-99425000D01*
G75*
G02*
X286325000Y-99125000I0J300000D01*
G01*
X286325000Y-98525000D01*
G75*
G02*
X286625000Y-98225000I300000J0D01*
G01*
G37*
D12*
X273000000Y-108000000D03*
X275000000Y-108000000D03*
X277000000Y-108000000D03*
X279000000Y-108000000D03*
X263000000Y-108000000D03*
X261000000Y-108000000D03*
X259000000Y-108000000D03*
X257000000Y-108000000D03*
D10*
X270500000Y-88750000D03*
G36*
G01*
X254625000Y-96575000D02*
X255375000Y-96575000D01*
G75*
G02*
X255675000Y-96875000I0J-300000D01*
G01*
X255675000Y-97475000D01*
G75*
G02*
X255375000Y-97775000I-300000J0D01*
G01*
X254625000Y-97775000D01*
G75*
G02*
X254325000Y-97475000I0J300000D01*
G01*
X254325000Y-96875000D01*
G75*
G02*
X254625000Y-96575000I300000J0D01*
G01*
G37*
G36*
G01*
X254625000Y-98225000D02*
X255375000Y-98225000D01*
G75*
G02*
X255675000Y-98525000I0J-300000D01*
G01*
X255675000Y-99125000D01*
G75*
G02*
X255375000Y-99425000I-300000J0D01*
G01*
X254625000Y-99425000D01*
G75*
G02*
X254325000Y-99125000I0J300000D01*
G01*
X254325000Y-98525000D01*
G75*
G02*
X254625000Y-98225000I300000J0D01*
G01*
G37*
G36*
G01*
X277790160Y-89608680D02*
X279490160Y-89608680D01*
G75*
G02*
X279690160Y-89808680I0J-200000D01*
G01*
X279690160Y-94808680D01*
G75*
G02*
X279490160Y-95008680I-200000J0D01*
G01*
X277790160Y-95008680D01*
G75*
G02*
X277590160Y-94808680I0J200000D01*
G01*
X277590160Y-89808680D01*
G75*
G02*
X277790160Y-89608680I200000J0D01*
G01*
G37*
D13*
X276100160Y-92308680D03*
X273560160Y-92308680D03*
D10*
X260000000Y-102000000D03*
X254500000Y-88750000D03*
G36*
G01*
X270625000Y-101575000D02*
X271375000Y-101575000D01*
G75*
G02*
X271675000Y-101875000I0J-300000D01*
G01*
X271675000Y-102475000D01*
G75*
G02*
X271375000Y-102775000I-300000J0D01*
G01*
X270625000Y-102775000D01*
G75*
G02*
X270325000Y-102475000I0J300000D01*
G01*
X270325000Y-101875000D01*
G75*
G02*
X270625000Y-101575000I300000J0D01*
G01*
G37*
G36*
G01*
X270625000Y-103225000D02*
X271375000Y-103225000D01*
G75*
G02*
X271675000Y-103525000I0J-300000D01*
G01*
X271675000Y-104125000D01*
G75*
G02*
X271375000Y-104425000I-300000J0D01*
G01*
X270625000Y-104425000D01*
G75*
G02*
X270325000Y-104125000I0J300000D01*
G01*
X270325000Y-103525000D01*
G75*
G02*
X270625000Y-103225000I300000J0D01*
G01*
G37*
X297500000Y-88750000D03*
X281500000Y-88750000D03*
X292000000Y-102000000D03*
D11*
G36*
X276656112Y-96050602D02*
G01*
X276674534Y-96050602D01*
X276694140Y-96051565D01*
X276742971Y-96056375D01*
X276762380Y-96059254D01*
X276810505Y-96068826D01*
X276829548Y-96073596D01*
X276876503Y-96087840D01*
X276894980Y-96094451D01*
X276940313Y-96113228D01*
X276958061Y-96121623D01*
X277001334Y-96144754D01*
X277018162Y-96154840D01*
X277058961Y-96182100D01*
X277074730Y-96193795D01*
X277112659Y-96224923D01*
X277127200Y-96238103D01*
X277161897Y-96272800D01*
X277175077Y-96287341D01*
X277206205Y-96325270D01*
X277217900Y-96341039D01*
X277245160Y-96381838D01*
X277255246Y-96398666D01*
X277278377Y-96441939D01*
X277286772Y-96459687D01*
X277305549Y-96505020D01*
X277312160Y-96523497D01*
X277326404Y-96570452D01*
X277331174Y-96589495D01*
X277340746Y-96637620D01*
X277343625Y-96657029D01*
X277348435Y-96705860D01*
X277349398Y-96725466D01*
X277349398Y-96743888D01*
X277350000Y-96750000D01*
X277350000Y-97250000D01*
X277349398Y-97256112D01*
X277349398Y-97274534D01*
X277348435Y-97294140D01*
X277343625Y-97342971D01*
X277340746Y-97362380D01*
X277331174Y-97410505D01*
X277326404Y-97429548D01*
X277312160Y-97476503D01*
X277305549Y-97494980D01*
X277286772Y-97540313D01*
X277278377Y-97558061D01*
X277255246Y-97601334D01*
X277245160Y-97618162D01*
X277217900Y-97658961D01*
X277206205Y-97674730D01*
X277175077Y-97712659D01*
X277161897Y-97727200D01*
X277127200Y-97761897D01*
X277112659Y-97775077D01*
X277074730Y-97806205D01*
X277058961Y-97817900D01*
X277018162Y-97845160D01*
X277001334Y-97855246D01*
X276958061Y-97878377D01*
X276940313Y-97886772D01*
X276894980Y-97905549D01*
X276876503Y-97912160D01*
X276829548Y-97926404D01*
X276810505Y-97931174D01*
X276762380Y-97940746D01*
X276742971Y-97943625D01*
X276694140Y-97948435D01*
X276674534Y-97949398D01*
X276656112Y-97949398D01*
X276650000Y-97950000D01*
X276150000Y-97950000D01*
X276110982Y-97946157D01*
X276073463Y-97934776D01*
X276038886Y-97916294D01*
X276008579Y-97891421D01*
X275983706Y-97861114D01*
X275965224Y-97826537D01*
X275953843Y-97789018D01*
X275950000Y-97750000D01*
X275950000Y-96250000D01*
X275953843Y-96210982D01*
X275965224Y-96173463D01*
X275983706Y-96138886D01*
X276008579Y-96108579D01*
X276038886Y-96083706D01*
X276073463Y-96065224D01*
X276110982Y-96053843D01*
X276150000Y-96050000D01*
X276650000Y-96050000D01*
X276656112Y-96050602D01*
G37*
G36*
X275889018Y-96053843D02*
G01*
X275926537Y-96065224D01*
X275961114Y-96083706D01*
X275991421Y-96108579D01*
X276016294Y-96138886D01*
X276034776Y-96173463D01*
X276046157Y-96210982D01*
X276050000Y-96250000D01*
X276050000Y-97750000D01*
X276046157Y-97789018D01*
X276034776Y-97826537D01*
X276016294Y-97861114D01*
X275991421Y-97891421D01*
X275961114Y-97916294D01*
X275926537Y-97934776D01*
X275889018Y-97946157D01*
X275850000Y-97950000D01*
X275350000Y-97950000D01*
X275343888Y-97949398D01*
X275325466Y-97949398D01*
X275305860Y-97948435D01*
X275257029Y-97943625D01*
X275237620Y-97940746D01*
X275189495Y-97931174D01*
X275170452Y-97926404D01*
X275123497Y-97912160D01*
X275105020Y-97905549D01*
X275059687Y-97886772D01*
X275041939Y-97878377D01*
X274998666Y-97855246D01*
X274981838Y-97845160D01*
X274941039Y-97817900D01*
X274925270Y-97806205D01*
X274887341Y-97775077D01*
X274872800Y-97761897D01*
X274838103Y-97727200D01*
X274824923Y-97712659D01*
X274793795Y-97674730D01*
X274782100Y-97658961D01*
X274754840Y-97618162D01*
X274744754Y-97601334D01*
X274721623Y-97558061D01*
X274713228Y-97540313D01*
X274694451Y-97494980D01*
X274687840Y-97476503D01*
X274673596Y-97429548D01*
X274668826Y-97410505D01*
X274659254Y-97362380D01*
X274656375Y-97342971D01*
X274651565Y-97294140D01*
X274650602Y-97274534D01*
X274650602Y-97256112D01*
X274650000Y-97250000D01*
X274650000Y-96750000D01*
X274650602Y-96743888D01*
X274650602Y-96725466D01*
X274651565Y-96705860D01*
X274656375Y-96657029D01*
X274659254Y-96637620D01*
X274668826Y-96589495D01*
X274673596Y-96570452D01*
X274687840Y-96523497D01*
X274694451Y-96505020D01*
X274713228Y-96459687D01*
X274721623Y-96441939D01*
X274744754Y-96398666D01*
X274754840Y-96381838D01*
X274782100Y-96341039D01*
X274793795Y-96325270D01*
X274824923Y-96287341D01*
X274838103Y-96272800D01*
X274872800Y-96238103D01*
X274887341Y-96224923D01*
X274925270Y-96193795D01*
X274941039Y-96182100D01*
X274981838Y-96154840D01*
X274998666Y-96144754D01*
X275041939Y-96121623D01*
X275059687Y-96113228D01*
X275105020Y-96094451D01*
X275123497Y-96087840D01*
X275170452Y-96073596D01*
X275189495Y-96068826D01*
X275237620Y-96059254D01*
X275257029Y-96056375D01*
X275305860Y-96051565D01*
X275325466Y-96050602D01*
X275343888Y-96050602D01*
X275350000Y-96050000D01*
X275850000Y-96050000D01*
X275889018Y-96053843D01*
G37*
D13*
X257560160Y-92308680D03*
X260100160Y-92308680D03*
G36*
G01*
X261790160Y-89608680D02*
X263490160Y-89608680D01*
G75*
G02*
X263690160Y-89808680I0J-200000D01*
G01*
X263690160Y-94808680D01*
G75*
G02*
X263490160Y-95008680I-200000J0D01*
G01*
X261790160Y-95008680D01*
G75*
G02*
X261590160Y-94808680I0J200000D01*
G01*
X261590160Y-89808680D01*
G75*
G02*
X261790160Y-89608680I200000J0D01*
G01*
G37*
D11*
G36*
X259889018Y-96053843D02*
G01*
X259926537Y-96065224D01*
X259961114Y-96083706D01*
X259991421Y-96108579D01*
X260016294Y-96138886D01*
X260034776Y-96173463D01*
X260046157Y-96210982D01*
X260050000Y-96250000D01*
X260050000Y-97750000D01*
X260046157Y-97789018D01*
X260034776Y-97826537D01*
X260016294Y-97861114D01*
X259991421Y-97891421D01*
X259961114Y-97916294D01*
X259926537Y-97934776D01*
X259889018Y-97946157D01*
X259850000Y-97950000D01*
X259350000Y-97950000D01*
X259343888Y-97949398D01*
X259325466Y-97949398D01*
X259305860Y-97948435D01*
X259257029Y-97943625D01*
X259237620Y-97940746D01*
X259189495Y-97931174D01*
X259170452Y-97926404D01*
X259123497Y-97912160D01*
X259105020Y-97905549D01*
X259059687Y-97886772D01*
X259041939Y-97878377D01*
X258998666Y-97855246D01*
X258981838Y-97845160D01*
X258941039Y-97817900D01*
X258925270Y-97806205D01*
X258887341Y-97775077D01*
X258872800Y-97761897D01*
X258838103Y-97727200D01*
X258824923Y-97712659D01*
X258793795Y-97674730D01*
X258782100Y-97658961D01*
X258754840Y-97618162D01*
X258744754Y-97601334D01*
X258721623Y-97558061D01*
X258713228Y-97540313D01*
X258694451Y-97494980D01*
X258687840Y-97476503D01*
X258673596Y-97429548D01*
X258668826Y-97410505D01*
X258659254Y-97362380D01*
X258656375Y-97342971D01*
X258651565Y-97294140D01*
X258650602Y-97274534D01*
X258650602Y-97256112D01*
X258650000Y-97250000D01*
X258650000Y-96750000D01*
X258650602Y-96743888D01*
X258650602Y-96725466D01*
X258651565Y-96705860D01*
X258656375Y-96657029D01*
X258659254Y-96637620D01*
X258668826Y-96589495D01*
X258673596Y-96570452D01*
X258687840Y-96523497D01*
X258694451Y-96505020D01*
X258713228Y-96459687D01*
X258721623Y-96441939D01*
X258744754Y-96398666D01*
X258754840Y-96381838D01*
X258782100Y-96341039D01*
X258793795Y-96325270D01*
X258824923Y-96287341D01*
X258838103Y-96272800D01*
X258872800Y-96238103D01*
X258887341Y-96224923D01*
X258925270Y-96193795D01*
X258941039Y-96182100D01*
X258981838Y-96154840D01*
X258998666Y-96144754D01*
X259041939Y-96121623D01*
X259059687Y-96113228D01*
X259105020Y-96094451D01*
X259123497Y-96087840D01*
X259170452Y-96073596D01*
X259189495Y-96068826D01*
X259237620Y-96059254D01*
X259257029Y-96056375D01*
X259305860Y-96051565D01*
X259325466Y-96050602D01*
X259343888Y-96050602D01*
X259350000Y-96050000D01*
X259850000Y-96050000D01*
X259889018Y-96053843D01*
G37*
G36*
X260656112Y-96050602D02*
G01*
X260674534Y-96050602D01*
X260694140Y-96051565D01*
X260742971Y-96056375D01*
X260762380Y-96059254D01*
X260810505Y-96068826D01*
X260829548Y-96073596D01*
X260876503Y-96087840D01*
X260894980Y-96094451D01*
X260940313Y-96113228D01*
X260958061Y-96121623D01*
X261001334Y-96144754D01*
X261018162Y-96154840D01*
X261058961Y-96182100D01*
X261074730Y-96193795D01*
X261112659Y-96224923D01*
X261127200Y-96238103D01*
X261161897Y-96272800D01*
X261175077Y-96287341D01*
X261206205Y-96325270D01*
X261217900Y-96341039D01*
X261245160Y-96381838D01*
X261255246Y-96398666D01*
X261278377Y-96441939D01*
X261286772Y-96459687D01*
X261305549Y-96505020D01*
X261312160Y-96523497D01*
X261326404Y-96570452D01*
X261331174Y-96589495D01*
X261340746Y-96637620D01*
X261343625Y-96657029D01*
X261348435Y-96705860D01*
X261349398Y-96725466D01*
X261349398Y-96743888D01*
X261350000Y-96750000D01*
X261350000Y-97250000D01*
X261349398Y-97256112D01*
X261349398Y-97274534D01*
X261348435Y-97294140D01*
X261343625Y-97342971D01*
X261340746Y-97362380D01*
X261331174Y-97410505D01*
X261326404Y-97429548D01*
X261312160Y-97476503D01*
X261305549Y-97494980D01*
X261286772Y-97540313D01*
X261278377Y-97558061D01*
X261255246Y-97601334D01*
X261245160Y-97618162D01*
X261217900Y-97658961D01*
X261206205Y-97674730D01*
X261175077Y-97712659D01*
X261161897Y-97727200D01*
X261127200Y-97761897D01*
X261112659Y-97775077D01*
X261074730Y-97806205D01*
X261058961Y-97817900D01*
X261018162Y-97845160D01*
X261001334Y-97855246D01*
X260958061Y-97878377D01*
X260940313Y-97886772D01*
X260894980Y-97905549D01*
X260876503Y-97912160D01*
X260829548Y-97926404D01*
X260810505Y-97931174D01*
X260762380Y-97940746D01*
X260742971Y-97943625D01*
X260694140Y-97948435D01*
X260674534Y-97949398D01*
X260656112Y-97949398D01*
X260650000Y-97950000D01*
X260150000Y-97950000D01*
X260110982Y-97946157D01*
X260073463Y-97934776D01*
X260038886Y-97916294D01*
X260008579Y-97891421D01*
X259983706Y-97861114D01*
X259965224Y-97826537D01*
X259953843Y-97789018D01*
X259950000Y-97750000D01*
X259950000Y-96250000D01*
X259953843Y-96210982D01*
X259965224Y-96173463D01*
X259983706Y-96138886D01*
X260008579Y-96108579D01*
X260038886Y-96083706D01*
X260073463Y-96065224D01*
X260110982Y-96053843D01*
X260150000Y-96050000D01*
X260650000Y-96050000D01*
X260656112Y-96050602D01*
G37*
D10*
X244000000Y-102000000D03*
G36*
G01*
X238625000Y-98225000D02*
X239375000Y-98225000D01*
G75*
G02*
X239675000Y-98525000I0J-300000D01*
G01*
X239675000Y-99125000D01*
G75*
G02*
X239375000Y-99425000I-300000J0D01*
G01*
X238625000Y-99425000D01*
G75*
G02*
X238325000Y-99125000I0J300000D01*
G01*
X238325000Y-98525000D01*
G75*
G02*
X238625000Y-98225000I300000J0D01*
G01*
G37*
G36*
G01*
X238625000Y-96575000D02*
X239375000Y-96575000D01*
G75*
G02*
X239675000Y-96875000I0J-300000D01*
G01*
X239675000Y-97475000D01*
G75*
G02*
X239375000Y-97775000I-300000J0D01*
G01*
X238625000Y-97775000D01*
G75*
G02*
X238325000Y-97475000I0J300000D01*
G01*
X238325000Y-96875000D01*
G75*
G02*
X238625000Y-96575000I300000J0D01*
G01*
G37*
D12*
X241000000Y-108000000D03*
X243000000Y-108000000D03*
X245000000Y-108000000D03*
X247000000Y-108000000D03*
D10*
X238500000Y-88750000D03*
G36*
G01*
X245790160Y-89608680D02*
X247490160Y-89608680D01*
G75*
G02*
X247690160Y-89808680I0J-200000D01*
G01*
X247690160Y-94808680D01*
G75*
G02*
X247490160Y-95008680I-200000J0D01*
G01*
X245790160Y-95008680D01*
G75*
G02*
X245590160Y-94808680I0J200000D01*
G01*
X245590160Y-89808680D01*
G75*
G02*
X245790160Y-89608680I200000J0D01*
G01*
G37*
D13*
X244100160Y-92308680D03*
X241560160Y-92308680D03*
G36*
G01*
X238625000Y-101575000D02*
X239375000Y-101575000D01*
G75*
G02*
X239675000Y-101875000I0J-300000D01*
G01*
X239675000Y-102475000D01*
G75*
G02*
X239375000Y-102775000I-300000J0D01*
G01*
X238625000Y-102775000D01*
G75*
G02*
X238325000Y-102475000I0J300000D01*
G01*
X238325000Y-101875000D01*
G75*
G02*
X238625000Y-101575000I300000J0D01*
G01*
G37*
G36*
G01*
X238625000Y-103225000D02*
X239375000Y-103225000D01*
G75*
G02*
X239675000Y-103525000I0J-300000D01*
G01*
X239675000Y-104125000D01*
G75*
G02*
X239375000Y-104425000I-300000J0D01*
G01*
X238625000Y-104425000D01*
G75*
G02*
X238325000Y-104125000I0J300000D01*
G01*
X238325000Y-103525000D01*
G75*
G02*
X238625000Y-103225000I300000J0D01*
G01*
G37*
D10*
X249500000Y-88750000D03*
D11*
G36*
X244656112Y-96050602D02*
G01*
X244674534Y-96050602D01*
X244694140Y-96051565D01*
X244742971Y-96056375D01*
X244762380Y-96059254D01*
X244810505Y-96068826D01*
X244829548Y-96073596D01*
X244876503Y-96087840D01*
X244894980Y-96094451D01*
X244940313Y-96113228D01*
X244958061Y-96121623D01*
X245001334Y-96144754D01*
X245018162Y-96154840D01*
X245058961Y-96182100D01*
X245074730Y-96193795D01*
X245112659Y-96224923D01*
X245127200Y-96238103D01*
X245161897Y-96272800D01*
X245175077Y-96287341D01*
X245206205Y-96325270D01*
X245217900Y-96341039D01*
X245245160Y-96381838D01*
X245255246Y-96398666D01*
X245278377Y-96441939D01*
X245286772Y-96459687D01*
X245305549Y-96505020D01*
X245312160Y-96523497D01*
X245326404Y-96570452D01*
X245331174Y-96589495D01*
X245340746Y-96637620D01*
X245343625Y-96657029D01*
X245348435Y-96705860D01*
X245349398Y-96725466D01*
X245349398Y-96743888D01*
X245350000Y-96750000D01*
X245350000Y-97250000D01*
X245349398Y-97256112D01*
X245349398Y-97274534D01*
X245348435Y-97294140D01*
X245343625Y-97342971D01*
X245340746Y-97362380D01*
X245331174Y-97410505D01*
X245326404Y-97429548D01*
X245312160Y-97476503D01*
X245305549Y-97494980D01*
X245286772Y-97540313D01*
X245278377Y-97558061D01*
X245255246Y-97601334D01*
X245245160Y-97618162D01*
X245217900Y-97658961D01*
X245206205Y-97674730D01*
X245175077Y-97712659D01*
X245161897Y-97727200D01*
X245127200Y-97761897D01*
X245112659Y-97775077D01*
X245074730Y-97806205D01*
X245058961Y-97817900D01*
X245018162Y-97845160D01*
X245001334Y-97855246D01*
X244958061Y-97878377D01*
X244940313Y-97886772D01*
X244894980Y-97905549D01*
X244876503Y-97912160D01*
X244829548Y-97926404D01*
X244810505Y-97931174D01*
X244762380Y-97940746D01*
X244742971Y-97943625D01*
X244694140Y-97948435D01*
X244674534Y-97949398D01*
X244656112Y-97949398D01*
X244650000Y-97950000D01*
X244150000Y-97950000D01*
X244110982Y-97946157D01*
X244073463Y-97934776D01*
X244038886Y-97916294D01*
X244008579Y-97891421D01*
X243983706Y-97861114D01*
X243965224Y-97826537D01*
X243953843Y-97789018D01*
X243950000Y-97750000D01*
X243950000Y-96250000D01*
X243953843Y-96210982D01*
X243965224Y-96173463D01*
X243983706Y-96138886D01*
X244008579Y-96108579D01*
X244038886Y-96083706D01*
X244073463Y-96065224D01*
X244110982Y-96053843D01*
X244150000Y-96050000D01*
X244650000Y-96050000D01*
X244656112Y-96050602D01*
G37*
G36*
X243889018Y-96053843D02*
G01*
X243926537Y-96065224D01*
X243961114Y-96083706D01*
X243991421Y-96108579D01*
X244016294Y-96138886D01*
X244034776Y-96173463D01*
X244046157Y-96210982D01*
X244050000Y-96250000D01*
X244050000Y-97750000D01*
X244046157Y-97789018D01*
X244034776Y-97826537D01*
X244016294Y-97861114D01*
X243991421Y-97891421D01*
X243961114Y-97916294D01*
X243926537Y-97934776D01*
X243889018Y-97946157D01*
X243850000Y-97950000D01*
X243350000Y-97950000D01*
X243343888Y-97949398D01*
X243325466Y-97949398D01*
X243305860Y-97948435D01*
X243257029Y-97943625D01*
X243237620Y-97940746D01*
X243189495Y-97931174D01*
X243170452Y-97926404D01*
X243123497Y-97912160D01*
X243105020Y-97905549D01*
X243059687Y-97886772D01*
X243041939Y-97878377D01*
X242998666Y-97855246D01*
X242981838Y-97845160D01*
X242941039Y-97817900D01*
X242925270Y-97806205D01*
X242887341Y-97775077D01*
X242872800Y-97761897D01*
X242838103Y-97727200D01*
X242824923Y-97712659D01*
X242793795Y-97674730D01*
X242782100Y-97658961D01*
X242754840Y-97618162D01*
X242744754Y-97601334D01*
X242721623Y-97558061D01*
X242713228Y-97540313D01*
X242694451Y-97494980D01*
X242687840Y-97476503D01*
X242673596Y-97429548D01*
X242668826Y-97410505D01*
X242659254Y-97362380D01*
X242656375Y-97342971D01*
X242651565Y-97294140D01*
X242650602Y-97274534D01*
X242650602Y-97256112D01*
X242650000Y-97250000D01*
X242650000Y-96750000D01*
X242650602Y-96743888D01*
X242650602Y-96725466D01*
X242651565Y-96705860D01*
X242656375Y-96657029D01*
X242659254Y-96637620D01*
X242668826Y-96589495D01*
X242673596Y-96570452D01*
X242687840Y-96523497D01*
X242694451Y-96505020D01*
X242713228Y-96459687D01*
X242721623Y-96441939D01*
X242744754Y-96398666D01*
X242754840Y-96381838D01*
X242782100Y-96341039D01*
X242793795Y-96325270D01*
X242824923Y-96287341D01*
X242838103Y-96272800D01*
X242872800Y-96238103D01*
X242887341Y-96224923D01*
X242925270Y-96193795D01*
X242941039Y-96182100D01*
X242981838Y-96154840D01*
X242998666Y-96144754D01*
X243041939Y-96121623D01*
X243059687Y-96113228D01*
X243105020Y-96094451D01*
X243123497Y-96087840D01*
X243170452Y-96073596D01*
X243189495Y-96068826D01*
X243237620Y-96059254D01*
X243257029Y-96056375D01*
X243305860Y-96051565D01*
X243325466Y-96050602D01*
X243343888Y-96050602D01*
X243350000Y-96050000D01*
X243850000Y-96050000D01*
X243889018Y-96053843D01*
G37*
D10*
X233500000Y-88750000D03*
G36*
G01*
X222625000Y-103225000D02*
X223375000Y-103225000D01*
G75*
G02*
X223675000Y-103525000I0J-300000D01*
G01*
X223675000Y-104125000D01*
G75*
G02*
X223375000Y-104425000I-300000J0D01*
G01*
X222625000Y-104425000D01*
G75*
G02*
X222325000Y-104125000I0J300000D01*
G01*
X222325000Y-103525000D01*
G75*
G02*
X222625000Y-103225000I300000J0D01*
G01*
G37*
G36*
G01*
X222625000Y-101575000D02*
X223375000Y-101575000D01*
G75*
G02*
X223675000Y-101875000I0J-300000D01*
G01*
X223675000Y-102475000D01*
G75*
G02*
X223375000Y-102775000I-300000J0D01*
G01*
X222625000Y-102775000D01*
G75*
G02*
X222325000Y-102475000I0J300000D01*
G01*
X222325000Y-101875000D01*
G75*
G02*
X222625000Y-101575000I300000J0D01*
G01*
G37*
D12*
X231000000Y-108000000D03*
X229000000Y-108000000D03*
X227000000Y-108000000D03*
X225000000Y-108000000D03*
G36*
G01*
X222625000Y-96575000D02*
X223375000Y-96575000D01*
G75*
G02*
X223675000Y-96875000I0J-300000D01*
G01*
X223675000Y-97475000D01*
G75*
G02*
X223375000Y-97775000I-300000J0D01*
G01*
X222625000Y-97775000D01*
G75*
G02*
X222325000Y-97475000I0J300000D01*
G01*
X222325000Y-96875000D01*
G75*
G02*
X222625000Y-96575000I300000J0D01*
G01*
G37*
G36*
G01*
X222625000Y-98225000D02*
X223375000Y-98225000D01*
G75*
G02*
X223675000Y-98525000I0J-300000D01*
G01*
X223675000Y-99125000D01*
G75*
G02*
X223375000Y-99425000I-300000J0D01*
G01*
X222625000Y-99425000D01*
G75*
G02*
X222325000Y-99125000I0J300000D01*
G01*
X222325000Y-98525000D01*
G75*
G02*
X222625000Y-98225000I300000J0D01*
G01*
G37*
D10*
X228000000Y-102000000D03*
X222500000Y-88750000D03*
D13*
X225560160Y-92308680D03*
X228100160Y-92308680D03*
G36*
G01*
X229790160Y-89608680D02*
X231490160Y-89608680D01*
G75*
G02*
X231690160Y-89808680I0J-200000D01*
G01*
X231690160Y-94808680D01*
G75*
G02*
X231490160Y-95008680I-200000J0D01*
G01*
X229790160Y-95008680D01*
G75*
G02*
X229590160Y-94808680I0J200000D01*
G01*
X229590160Y-89808680D01*
G75*
G02*
X229790160Y-89608680I200000J0D01*
G01*
G37*
D11*
G36*
X227889018Y-96053843D02*
G01*
X227926537Y-96065224D01*
X227961114Y-96083706D01*
X227991421Y-96108579D01*
X228016294Y-96138886D01*
X228034776Y-96173463D01*
X228046157Y-96210982D01*
X228050000Y-96250000D01*
X228050000Y-97750000D01*
X228046157Y-97789018D01*
X228034776Y-97826537D01*
X228016294Y-97861114D01*
X227991421Y-97891421D01*
X227961114Y-97916294D01*
X227926537Y-97934776D01*
X227889018Y-97946157D01*
X227850000Y-97950000D01*
X227350000Y-97950000D01*
X227343888Y-97949398D01*
X227325466Y-97949398D01*
X227305860Y-97948435D01*
X227257029Y-97943625D01*
X227237620Y-97940746D01*
X227189495Y-97931174D01*
X227170452Y-97926404D01*
X227123497Y-97912160D01*
X227105020Y-97905549D01*
X227059687Y-97886772D01*
X227041939Y-97878377D01*
X226998666Y-97855246D01*
X226981838Y-97845160D01*
X226941039Y-97817900D01*
X226925270Y-97806205D01*
X226887341Y-97775077D01*
X226872800Y-97761897D01*
X226838103Y-97727200D01*
X226824923Y-97712659D01*
X226793795Y-97674730D01*
X226782100Y-97658961D01*
X226754840Y-97618162D01*
X226744754Y-97601334D01*
X226721623Y-97558061D01*
X226713228Y-97540313D01*
X226694451Y-97494980D01*
X226687840Y-97476503D01*
X226673596Y-97429548D01*
X226668826Y-97410505D01*
X226659254Y-97362380D01*
X226656375Y-97342971D01*
X226651565Y-97294140D01*
X226650602Y-97274534D01*
X226650602Y-97256112D01*
X226650000Y-97250000D01*
X226650000Y-96750000D01*
X226650602Y-96743888D01*
X226650602Y-96725466D01*
X226651565Y-96705860D01*
X226656375Y-96657029D01*
X226659254Y-96637620D01*
X226668826Y-96589495D01*
X226673596Y-96570452D01*
X226687840Y-96523497D01*
X226694451Y-96505020D01*
X226713228Y-96459687D01*
X226721623Y-96441939D01*
X226744754Y-96398666D01*
X226754840Y-96381838D01*
X226782100Y-96341039D01*
X226793795Y-96325270D01*
X226824923Y-96287341D01*
X226838103Y-96272800D01*
X226872800Y-96238103D01*
X226887341Y-96224923D01*
X226925270Y-96193795D01*
X226941039Y-96182100D01*
X226981838Y-96154840D01*
X226998666Y-96144754D01*
X227041939Y-96121623D01*
X227059687Y-96113228D01*
X227105020Y-96094451D01*
X227123497Y-96087840D01*
X227170452Y-96073596D01*
X227189495Y-96068826D01*
X227237620Y-96059254D01*
X227257029Y-96056375D01*
X227305860Y-96051565D01*
X227325466Y-96050602D01*
X227343888Y-96050602D01*
X227350000Y-96050000D01*
X227850000Y-96050000D01*
X227889018Y-96053843D01*
G37*
G36*
X228656112Y-96050602D02*
G01*
X228674534Y-96050602D01*
X228694140Y-96051565D01*
X228742971Y-96056375D01*
X228762380Y-96059254D01*
X228810505Y-96068826D01*
X228829548Y-96073596D01*
X228876503Y-96087840D01*
X228894980Y-96094451D01*
X228940313Y-96113228D01*
X228958061Y-96121623D01*
X229001334Y-96144754D01*
X229018162Y-96154840D01*
X229058961Y-96182100D01*
X229074730Y-96193795D01*
X229112659Y-96224923D01*
X229127200Y-96238103D01*
X229161897Y-96272800D01*
X229175077Y-96287341D01*
X229206205Y-96325270D01*
X229217900Y-96341039D01*
X229245160Y-96381838D01*
X229255246Y-96398666D01*
X229278377Y-96441939D01*
X229286772Y-96459687D01*
X229305549Y-96505020D01*
X229312160Y-96523497D01*
X229326404Y-96570452D01*
X229331174Y-96589495D01*
X229340746Y-96637620D01*
X229343625Y-96657029D01*
X229348435Y-96705860D01*
X229349398Y-96725466D01*
X229349398Y-96743888D01*
X229350000Y-96750000D01*
X229350000Y-97250000D01*
X229349398Y-97256112D01*
X229349398Y-97274534D01*
X229348435Y-97294140D01*
X229343625Y-97342971D01*
X229340746Y-97362380D01*
X229331174Y-97410505D01*
X229326404Y-97429548D01*
X229312160Y-97476503D01*
X229305549Y-97494980D01*
X229286772Y-97540313D01*
X229278377Y-97558061D01*
X229255246Y-97601334D01*
X229245160Y-97618162D01*
X229217900Y-97658961D01*
X229206205Y-97674730D01*
X229175077Y-97712659D01*
X229161897Y-97727200D01*
X229127200Y-97761897D01*
X229112659Y-97775077D01*
X229074730Y-97806205D01*
X229058961Y-97817900D01*
X229018162Y-97845160D01*
X229001334Y-97855246D01*
X228958061Y-97878377D01*
X228940313Y-97886772D01*
X228894980Y-97905549D01*
X228876503Y-97912160D01*
X228829548Y-97926404D01*
X228810505Y-97931174D01*
X228762380Y-97940746D01*
X228742971Y-97943625D01*
X228694140Y-97948435D01*
X228674534Y-97949398D01*
X228656112Y-97949398D01*
X228650000Y-97950000D01*
X228150000Y-97950000D01*
X228110982Y-97946157D01*
X228073463Y-97934776D01*
X228038886Y-97916294D01*
X228008579Y-97891421D01*
X227983706Y-97861114D01*
X227965224Y-97826537D01*
X227953843Y-97789018D01*
X227950000Y-97750000D01*
X227950000Y-96250000D01*
X227953843Y-96210982D01*
X227965224Y-96173463D01*
X227983706Y-96138886D01*
X228008579Y-96108579D01*
X228038886Y-96083706D01*
X228073463Y-96065224D01*
X228110982Y-96053843D01*
X228150000Y-96050000D01*
X228650000Y-96050000D01*
X228656112Y-96050602D01*
G37*
D10*
X217500000Y-88750000D03*
X206500000Y-88750000D03*
X212000000Y-102000000D03*
G36*
G01*
X213790160Y-89608680D02*
X215490160Y-89608680D01*
G75*
G02*
X215690160Y-89808680I0J-200000D01*
G01*
X215690160Y-94808680D01*
G75*
G02*
X215490160Y-95008680I-200000J0D01*
G01*
X213790160Y-95008680D01*
G75*
G02*
X213590160Y-94808680I0J200000D01*
G01*
X213590160Y-89808680D01*
G75*
G02*
X213790160Y-89608680I200000J0D01*
G01*
G37*
D13*
X212100160Y-92308680D03*
X209560160Y-92308680D03*
D11*
G36*
X212656112Y-96050602D02*
G01*
X212674534Y-96050602D01*
X212694140Y-96051565D01*
X212742971Y-96056375D01*
X212762380Y-96059254D01*
X212810505Y-96068826D01*
X212829548Y-96073596D01*
X212876503Y-96087840D01*
X212894980Y-96094451D01*
X212940313Y-96113228D01*
X212958061Y-96121623D01*
X213001334Y-96144754D01*
X213018162Y-96154840D01*
X213058961Y-96182100D01*
X213074730Y-96193795D01*
X213112659Y-96224923D01*
X213127200Y-96238103D01*
X213161897Y-96272800D01*
X213175077Y-96287341D01*
X213206205Y-96325270D01*
X213217900Y-96341039D01*
X213245160Y-96381838D01*
X213255246Y-96398666D01*
X213278377Y-96441939D01*
X213286772Y-96459687D01*
X213305549Y-96505020D01*
X213312160Y-96523497D01*
X213326404Y-96570452D01*
X213331174Y-96589495D01*
X213340746Y-96637620D01*
X213343625Y-96657029D01*
X213348435Y-96705860D01*
X213349398Y-96725466D01*
X213349398Y-96743888D01*
X213350000Y-96750000D01*
X213350000Y-97250000D01*
X213349398Y-97256112D01*
X213349398Y-97274534D01*
X213348435Y-97294140D01*
X213343625Y-97342971D01*
X213340746Y-97362380D01*
X213331174Y-97410505D01*
X213326404Y-97429548D01*
X213312160Y-97476503D01*
X213305549Y-97494980D01*
X213286772Y-97540313D01*
X213278377Y-97558061D01*
X213255246Y-97601334D01*
X213245160Y-97618162D01*
X213217900Y-97658961D01*
X213206205Y-97674730D01*
X213175077Y-97712659D01*
X213161897Y-97727200D01*
X213127200Y-97761897D01*
X213112659Y-97775077D01*
X213074730Y-97806205D01*
X213058961Y-97817900D01*
X213018162Y-97845160D01*
X213001334Y-97855246D01*
X212958061Y-97878377D01*
X212940313Y-97886772D01*
X212894980Y-97905549D01*
X212876503Y-97912160D01*
X212829548Y-97926404D01*
X212810505Y-97931174D01*
X212762380Y-97940746D01*
X212742971Y-97943625D01*
X212694140Y-97948435D01*
X212674534Y-97949398D01*
X212656112Y-97949398D01*
X212650000Y-97950000D01*
X212150000Y-97950000D01*
X212110982Y-97946157D01*
X212073463Y-97934776D01*
X212038886Y-97916294D01*
X212008579Y-97891421D01*
X211983706Y-97861114D01*
X211965224Y-97826537D01*
X211953843Y-97789018D01*
X211950000Y-97750000D01*
X211950000Y-96250000D01*
X211953843Y-96210982D01*
X211965224Y-96173463D01*
X211983706Y-96138886D01*
X212008579Y-96108579D01*
X212038886Y-96083706D01*
X212073463Y-96065224D01*
X212110982Y-96053843D01*
X212150000Y-96050000D01*
X212650000Y-96050000D01*
X212656112Y-96050602D01*
G37*
G36*
X211889018Y-96053843D02*
G01*
X211926537Y-96065224D01*
X211961114Y-96083706D01*
X211991421Y-96108579D01*
X212016294Y-96138886D01*
X212034776Y-96173463D01*
X212046157Y-96210982D01*
X212050000Y-96250000D01*
X212050000Y-97750000D01*
X212046157Y-97789018D01*
X212034776Y-97826537D01*
X212016294Y-97861114D01*
X211991421Y-97891421D01*
X211961114Y-97916294D01*
X211926537Y-97934776D01*
X211889018Y-97946157D01*
X211850000Y-97950000D01*
X211350000Y-97950000D01*
X211343888Y-97949398D01*
X211325466Y-97949398D01*
X211305860Y-97948435D01*
X211257029Y-97943625D01*
X211237620Y-97940746D01*
X211189495Y-97931174D01*
X211170452Y-97926404D01*
X211123497Y-97912160D01*
X211105020Y-97905549D01*
X211059687Y-97886772D01*
X211041939Y-97878377D01*
X210998666Y-97855246D01*
X210981838Y-97845160D01*
X210941039Y-97817900D01*
X210925270Y-97806205D01*
X210887341Y-97775077D01*
X210872800Y-97761897D01*
X210838103Y-97727200D01*
X210824923Y-97712659D01*
X210793795Y-97674730D01*
X210782100Y-97658961D01*
X210754840Y-97618162D01*
X210744754Y-97601334D01*
X210721623Y-97558061D01*
X210713228Y-97540313D01*
X210694451Y-97494980D01*
X210687840Y-97476503D01*
X210673596Y-97429548D01*
X210668826Y-97410505D01*
X210659254Y-97362380D01*
X210656375Y-97342971D01*
X210651565Y-97294140D01*
X210650602Y-97274534D01*
X210650602Y-97256112D01*
X210650000Y-97250000D01*
X210650000Y-96750000D01*
X210650602Y-96743888D01*
X210650602Y-96725466D01*
X210651565Y-96705860D01*
X210656375Y-96657029D01*
X210659254Y-96637620D01*
X210668826Y-96589495D01*
X210673596Y-96570452D01*
X210687840Y-96523497D01*
X210694451Y-96505020D01*
X210713228Y-96459687D01*
X210721623Y-96441939D01*
X210744754Y-96398666D01*
X210754840Y-96381838D01*
X210782100Y-96341039D01*
X210793795Y-96325270D01*
X210824923Y-96287341D01*
X210838103Y-96272800D01*
X210872800Y-96238103D01*
X210887341Y-96224923D01*
X210925270Y-96193795D01*
X210941039Y-96182100D01*
X210981838Y-96154840D01*
X210998666Y-96144754D01*
X211041939Y-96121623D01*
X211059687Y-96113228D01*
X211105020Y-96094451D01*
X211123497Y-96087840D01*
X211170452Y-96073596D01*
X211189495Y-96068826D01*
X211237620Y-96059254D01*
X211257029Y-96056375D01*
X211305860Y-96051565D01*
X211325466Y-96050602D01*
X211343888Y-96050602D01*
X211350000Y-96050000D01*
X211850000Y-96050000D01*
X211889018Y-96053843D01*
G37*
D12*
X209000000Y-108000000D03*
X211000000Y-108000000D03*
X213000000Y-108000000D03*
X215000000Y-108000000D03*
G36*
G01*
X206625000Y-98225000D02*
X207375000Y-98225000D01*
G75*
G02*
X207675000Y-98525000I0J-300000D01*
G01*
X207675000Y-99125000D01*
G75*
G02*
X207375000Y-99425000I-300000J0D01*
G01*
X206625000Y-99425000D01*
G75*
G02*
X206325000Y-99125000I0J300000D01*
G01*
X206325000Y-98525000D01*
G75*
G02*
X206625000Y-98225000I300000J0D01*
G01*
G37*
G36*
G01*
X206625000Y-96575000D02*
X207375000Y-96575000D01*
G75*
G02*
X207675000Y-96875000I0J-300000D01*
G01*
X207675000Y-97475000D01*
G75*
G02*
X207375000Y-97775000I-300000J0D01*
G01*
X206625000Y-97775000D01*
G75*
G02*
X206325000Y-97475000I0J300000D01*
G01*
X206325000Y-96875000D01*
G75*
G02*
X206625000Y-96575000I300000J0D01*
G01*
G37*
G36*
G01*
X206625000Y-101575000D02*
X207375000Y-101575000D01*
G75*
G02*
X207675000Y-101875000I0J-300000D01*
G01*
X207675000Y-102475000D01*
G75*
G02*
X207375000Y-102775000I-300000J0D01*
G01*
X206625000Y-102775000D01*
G75*
G02*
X206325000Y-102475000I0J300000D01*
G01*
X206325000Y-101875000D01*
G75*
G02*
X206625000Y-101575000I300000J0D01*
G01*
G37*
G36*
G01*
X206625000Y-103225000D02*
X207375000Y-103225000D01*
G75*
G02*
X207675000Y-103525000I0J-300000D01*
G01*
X207675000Y-104125000D01*
G75*
G02*
X207375000Y-104425000I-300000J0D01*
G01*
X206625000Y-104425000D01*
G75*
G02*
X206325000Y-104125000I0J300000D01*
G01*
X206325000Y-103525000D01*
G75*
G02*
X206625000Y-103225000I300000J0D01*
G01*
G37*
D11*
G36*
X214114288Y-137670827D02*
G01*
X214114438Y-137672648D01*
X214092831Y-137724812D01*
X214056575Y-137907083D01*
X214056575Y-138092917D01*
X214092831Y-138275188D01*
X214114438Y-138327352D01*
X214114177Y-138329335D01*
X214112329Y-138330100D01*
X214110826Y-138329060D01*
X214102262Y-138313037D01*
X214086966Y-138294400D01*
X214068330Y-138279105D01*
X214047066Y-138267740D01*
X214023991Y-138260740D01*
X214000000Y-138258377D01*
X213976009Y-138260740D01*
X213952934Y-138267740D01*
X213931670Y-138279105D01*
X213913033Y-138294401D01*
X213897738Y-138313037D01*
X213889174Y-138329060D01*
X213887475Y-138330116D01*
X213885712Y-138329173D01*
X213885562Y-138327352D01*
X213907169Y-138275188D01*
X213943425Y-138092917D01*
X213943425Y-137907083D01*
X213907169Y-137724812D01*
X213885562Y-137672648D01*
X213885823Y-137670665D01*
X213887671Y-137669900D01*
X213889174Y-137670940D01*
X213897738Y-137686963D01*
X213913034Y-137705600D01*
X213931670Y-137720895D01*
X213952934Y-137732260D01*
X213976009Y-137739260D01*
X214000000Y-137741623D01*
X214023991Y-137739260D01*
X214047066Y-137732260D01*
X214068330Y-137720895D01*
X214086967Y-137705599D01*
X214102262Y-137686963D01*
X214110826Y-137670940D01*
X214112525Y-137669884D01*
X214114288Y-137670827D01*
G37*
G36*
X294114288Y-137670827D02*
G01*
X294114438Y-137672648D01*
X294092831Y-137724812D01*
X294056575Y-137907083D01*
X294056575Y-138092917D01*
X294092831Y-138275188D01*
X294114438Y-138327352D01*
X294114177Y-138329335D01*
X294112329Y-138330100D01*
X294110826Y-138329060D01*
X294102262Y-138313037D01*
X294086966Y-138294400D01*
X294068330Y-138279105D01*
X294047066Y-138267740D01*
X294023991Y-138260740D01*
X294000000Y-138258377D01*
X293976009Y-138260740D01*
X293952934Y-138267740D01*
X293931670Y-138279105D01*
X293913033Y-138294401D01*
X293897738Y-138313037D01*
X293889174Y-138329060D01*
X293887475Y-138330116D01*
X293885712Y-138329173D01*
X293885562Y-138327352D01*
X293907169Y-138275188D01*
X293943425Y-138092917D01*
X293943425Y-137907083D01*
X293907169Y-137724812D01*
X293885562Y-137672648D01*
X293885823Y-137670665D01*
X293887671Y-137669900D01*
X293889174Y-137670940D01*
X293897738Y-137686963D01*
X293913034Y-137705600D01*
X293931670Y-137720895D01*
X293952934Y-137732260D01*
X293976009Y-137739260D01*
X294000000Y-137741623D01*
X294023991Y-137739260D01*
X294047066Y-137732260D01*
X294068330Y-137720895D01*
X294086967Y-137705599D01*
X294102262Y-137686963D01*
X294110826Y-137670940D01*
X294112525Y-137669884D01*
X294114288Y-137670827D01*
G37*
G36*
X226114288Y-137670827D02*
G01*
X226114438Y-137672648D01*
X226092831Y-137724812D01*
X226056575Y-137907083D01*
X226056575Y-138092917D01*
X226092831Y-138275188D01*
X226114438Y-138327352D01*
X226114177Y-138329335D01*
X226112329Y-138330100D01*
X226110826Y-138329060D01*
X226102262Y-138313037D01*
X226086966Y-138294400D01*
X226068330Y-138279105D01*
X226047066Y-138267740D01*
X226023991Y-138260740D01*
X226000000Y-138258377D01*
X225976009Y-138260740D01*
X225952934Y-138267740D01*
X225931670Y-138279105D01*
X225913033Y-138294401D01*
X225897738Y-138313037D01*
X225889174Y-138329060D01*
X225887475Y-138330116D01*
X225885712Y-138329173D01*
X225885562Y-138327352D01*
X225907169Y-138275188D01*
X225943425Y-138092917D01*
X225943425Y-137907083D01*
X225907169Y-137724812D01*
X225885562Y-137672648D01*
X225885823Y-137670665D01*
X225887671Y-137669900D01*
X225889174Y-137670940D01*
X225897738Y-137686963D01*
X225913034Y-137705600D01*
X225931670Y-137720895D01*
X225952934Y-137732260D01*
X225976009Y-137739260D01*
X226000000Y-137741623D01*
X226023991Y-137739260D01*
X226047066Y-137732260D01*
X226068330Y-137720895D01*
X226086967Y-137705599D01*
X226102262Y-137686963D01*
X226110826Y-137670940D01*
X226112525Y-137669884D01*
X226114288Y-137670827D01*
G37*
G36*
X258114288Y-137670827D02*
G01*
X258114438Y-137672648D01*
X258092831Y-137724812D01*
X258056575Y-137907083D01*
X258056575Y-138092917D01*
X258092831Y-138275188D01*
X258114438Y-138327352D01*
X258114177Y-138329335D01*
X258112329Y-138330100D01*
X258110826Y-138329060D01*
X258102262Y-138313037D01*
X258086966Y-138294400D01*
X258068330Y-138279105D01*
X258047066Y-138267740D01*
X258023991Y-138260740D01*
X258000000Y-138258377D01*
X257976009Y-138260740D01*
X257952934Y-138267740D01*
X257931670Y-138279105D01*
X257913033Y-138294401D01*
X257897738Y-138313037D01*
X257889174Y-138329060D01*
X257887475Y-138330116D01*
X257885712Y-138329173D01*
X257885562Y-138327352D01*
X257907169Y-138275188D01*
X257943425Y-138092917D01*
X257943425Y-137907083D01*
X257907169Y-137724812D01*
X257885562Y-137672648D01*
X257885823Y-137670665D01*
X257887671Y-137669900D01*
X257889174Y-137670940D01*
X257897738Y-137686963D01*
X257913034Y-137705600D01*
X257931670Y-137720895D01*
X257952934Y-137732260D01*
X257976009Y-137739260D01*
X258000000Y-137741623D01*
X258023991Y-137739260D01*
X258047066Y-137732260D01*
X258068330Y-137720895D01*
X258086967Y-137705599D01*
X258102262Y-137686963D01*
X258110826Y-137670940D01*
X258112525Y-137669884D01*
X258114288Y-137670827D01*
G37*
G36*
X244114288Y-137670827D02*
G01*
X244114438Y-137672648D01*
X244092831Y-137724812D01*
X244056575Y-137907083D01*
X244056575Y-138092917D01*
X244092831Y-138275188D01*
X244114438Y-138327352D01*
X244114177Y-138329335D01*
X244112329Y-138330100D01*
X244110826Y-138329060D01*
X244102262Y-138313037D01*
X244086966Y-138294400D01*
X244068330Y-138279105D01*
X244047066Y-138267740D01*
X244023991Y-138260740D01*
X244000000Y-138258377D01*
X243976009Y-138260740D01*
X243952934Y-138267740D01*
X243931670Y-138279105D01*
X243913033Y-138294401D01*
X243897738Y-138313037D01*
X243889174Y-138329060D01*
X243887475Y-138330116D01*
X243885712Y-138329173D01*
X243885562Y-138327352D01*
X243907169Y-138275188D01*
X243943425Y-138092917D01*
X243943425Y-137907083D01*
X243907169Y-137724812D01*
X243885562Y-137672648D01*
X243885823Y-137670665D01*
X243887671Y-137669900D01*
X243889174Y-137670940D01*
X243897738Y-137686963D01*
X243913034Y-137705600D01*
X243931670Y-137720895D01*
X243952934Y-137732260D01*
X243976009Y-137739260D01*
X244000000Y-137741623D01*
X244023991Y-137739260D01*
X244047066Y-137732260D01*
X244068330Y-137720895D01*
X244086967Y-137705599D01*
X244102262Y-137686963D01*
X244110826Y-137670940D01*
X244112525Y-137669884D01*
X244114288Y-137670827D01*
G37*
G36*
X210114288Y-137670827D02*
G01*
X210114438Y-137672648D01*
X210092831Y-137724812D01*
X210056575Y-137907083D01*
X210056575Y-138092917D01*
X210092831Y-138275188D01*
X210114438Y-138327352D01*
X210114177Y-138329335D01*
X210112329Y-138330100D01*
X210110826Y-138329060D01*
X210102262Y-138313037D01*
X210086966Y-138294400D01*
X210068330Y-138279105D01*
X210047066Y-138267740D01*
X210023991Y-138260740D01*
X210000000Y-138258377D01*
X209976009Y-138260740D01*
X209952934Y-138267740D01*
X209931670Y-138279105D01*
X209913033Y-138294401D01*
X209897738Y-138313037D01*
X209889174Y-138329060D01*
X209887475Y-138330116D01*
X209885712Y-138329173D01*
X209885562Y-138327352D01*
X209907169Y-138275188D01*
X209943425Y-138092917D01*
X209943425Y-137907083D01*
X209907169Y-137724812D01*
X209885562Y-137672648D01*
X209885823Y-137670665D01*
X209887671Y-137669900D01*
X209889174Y-137670940D01*
X209897738Y-137686963D01*
X209913034Y-137705600D01*
X209931670Y-137720895D01*
X209952934Y-137732260D01*
X209976009Y-137739260D01*
X210000000Y-137741623D01*
X210023991Y-137739260D01*
X210047066Y-137732260D01*
X210068330Y-137720895D01*
X210086967Y-137705599D01*
X210102262Y-137686963D01*
X210110826Y-137670940D01*
X210112525Y-137669884D01*
X210114288Y-137670827D01*
G37*
G36*
X290114288Y-137670827D02*
G01*
X290114438Y-137672648D01*
X290092831Y-137724812D01*
X290056575Y-137907083D01*
X290056575Y-138092917D01*
X290092831Y-138275188D01*
X290114438Y-138327352D01*
X290114177Y-138329335D01*
X290112329Y-138330100D01*
X290110826Y-138329060D01*
X290102262Y-138313037D01*
X290086966Y-138294400D01*
X290068330Y-138279105D01*
X290047066Y-138267740D01*
X290023991Y-138260740D01*
X290000000Y-138258377D01*
X289976009Y-138260740D01*
X289952934Y-138267740D01*
X289931670Y-138279105D01*
X289913033Y-138294401D01*
X289897738Y-138313037D01*
X289889174Y-138329060D01*
X289887475Y-138330116D01*
X289885712Y-138329173D01*
X289885562Y-138327352D01*
X289907169Y-138275188D01*
X289943425Y-138092917D01*
X289943425Y-137907083D01*
X289907169Y-137724812D01*
X289885562Y-137672648D01*
X289885823Y-137670665D01*
X289887671Y-137669900D01*
X289889174Y-137670940D01*
X289897738Y-137686963D01*
X289913034Y-137705600D01*
X289931670Y-137720895D01*
X289952934Y-137732260D01*
X289976009Y-137739260D01*
X290000000Y-137741623D01*
X290023991Y-137739260D01*
X290047066Y-137732260D01*
X290068330Y-137720895D01*
X290086967Y-137705599D01*
X290102262Y-137686963D01*
X290110826Y-137670940D01*
X290112525Y-137669884D01*
X290114288Y-137670827D01*
G37*
G36*
X276114288Y-137670827D02*
G01*
X276114438Y-137672648D01*
X276092831Y-137724812D01*
X276056575Y-137907083D01*
X276056575Y-138092917D01*
X276092831Y-138275188D01*
X276114438Y-138327352D01*
X276114177Y-138329335D01*
X276112329Y-138330100D01*
X276110826Y-138329060D01*
X276102262Y-138313037D01*
X276086966Y-138294400D01*
X276068330Y-138279105D01*
X276047066Y-138267740D01*
X276023991Y-138260740D01*
X276000000Y-138258377D01*
X275976009Y-138260740D01*
X275952934Y-138267740D01*
X275931670Y-138279105D01*
X275913033Y-138294401D01*
X275897738Y-138313037D01*
X275889174Y-138329060D01*
X275887475Y-138330116D01*
X275885712Y-138329173D01*
X275885562Y-138327352D01*
X275907169Y-138275188D01*
X275943425Y-138092917D01*
X275943425Y-137907083D01*
X275907169Y-137724812D01*
X275885562Y-137672648D01*
X275885823Y-137670665D01*
X275887671Y-137669900D01*
X275889174Y-137670940D01*
X275897738Y-137686963D01*
X275913034Y-137705600D01*
X275931670Y-137720895D01*
X275952934Y-137732260D01*
X275976009Y-137739260D01*
X276000000Y-137741623D01*
X276023991Y-137739260D01*
X276047066Y-137732260D01*
X276068330Y-137720895D01*
X276086967Y-137705599D01*
X276102262Y-137686963D01*
X276110826Y-137670940D01*
X276112525Y-137669884D01*
X276114288Y-137670827D01*
G37*
G36*
X260114288Y-137670827D02*
G01*
X260114438Y-137672648D01*
X260092831Y-137724812D01*
X260056575Y-137907083D01*
X260056575Y-138092917D01*
X260092831Y-138275188D01*
X260114438Y-138327352D01*
X260114177Y-138329335D01*
X260112329Y-138330100D01*
X260110826Y-138329060D01*
X260102262Y-138313037D01*
X260086966Y-138294400D01*
X260068330Y-138279105D01*
X260047066Y-138267740D01*
X260023991Y-138260740D01*
X260000000Y-138258377D01*
X259976009Y-138260740D01*
X259952934Y-138267740D01*
X259931670Y-138279105D01*
X259913033Y-138294401D01*
X259897738Y-138313037D01*
X259889174Y-138329060D01*
X259887475Y-138330116D01*
X259885712Y-138329173D01*
X259885562Y-138327352D01*
X259907169Y-138275188D01*
X259943425Y-138092917D01*
X259943425Y-137907083D01*
X259907169Y-137724812D01*
X259885562Y-137672648D01*
X259885823Y-137670665D01*
X259887671Y-137669900D01*
X259889174Y-137670940D01*
X259897738Y-137686963D01*
X259913034Y-137705600D01*
X259931670Y-137720895D01*
X259952934Y-137732260D01*
X259976009Y-137739260D01*
X260000000Y-137741623D01*
X260023991Y-137739260D01*
X260047066Y-137732260D01*
X260068330Y-137720895D01*
X260086967Y-137705599D01*
X260102262Y-137686963D01*
X260110826Y-137670940D01*
X260112525Y-137669884D01*
X260114288Y-137670827D01*
G37*
G36*
X246114288Y-137670827D02*
G01*
X246114438Y-137672648D01*
X246092831Y-137724812D01*
X246056575Y-137907083D01*
X246056575Y-138092917D01*
X246092831Y-138275188D01*
X246114438Y-138327352D01*
X246114177Y-138329335D01*
X246112329Y-138330100D01*
X246110826Y-138329060D01*
X246102262Y-138313037D01*
X246086966Y-138294400D01*
X246068330Y-138279105D01*
X246047066Y-138267740D01*
X246023991Y-138260740D01*
X246000000Y-138258377D01*
X245976009Y-138260740D01*
X245952934Y-138267740D01*
X245931670Y-138279105D01*
X245913033Y-138294401D01*
X245897738Y-138313037D01*
X245889174Y-138329060D01*
X245887475Y-138330116D01*
X245885712Y-138329173D01*
X245885562Y-138327352D01*
X245907169Y-138275188D01*
X245943425Y-138092917D01*
X245943425Y-137907083D01*
X245907169Y-137724812D01*
X245885562Y-137672648D01*
X245885823Y-137670665D01*
X245887671Y-137669900D01*
X245889174Y-137670940D01*
X245897738Y-137686963D01*
X245913034Y-137705600D01*
X245931670Y-137720895D01*
X245952934Y-137732260D01*
X245976009Y-137739260D01*
X246000000Y-137741623D01*
X246023991Y-137739260D01*
X246047066Y-137732260D01*
X246068330Y-137720895D01*
X246086967Y-137705599D01*
X246102262Y-137686963D01*
X246110826Y-137670940D01*
X246112525Y-137669884D01*
X246114288Y-137670827D01*
G37*
G36*
X212114288Y-137670827D02*
G01*
X212114438Y-137672648D01*
X212092831Y-137724812D01*
X212056575Y-137907083D01*
X212056575Y-138092917D01*
X212092831Y-138275188D01*
X212114438Y-138327352D01*
X212114177Y-138329335D01*
X212112329Y-138330100D01*
X212110826Y-138329060D01*
X212102262Y-138313037D01*
X212086966Y-138294400D01*
X212068330Y-138279105D01*
X212047066Y-138267740D01*
X212023991Y-138260740D01*
X212000000Y-138258377D01*
X211976009Y-138260740D01*
X211952934Y-138267740D01*
X211931670Y-138279105D01*
X211913033Y-138294401D01*
X211897738Y-138313037D01*
X211889174Y-138329060D01*
X211887475Y-138330116D01*
X211885712Y-138329173D01*
X211885562Y-138327352D01*
X211907169Y-138275188D01*
X211943425Y-138092917D01*
X211943425Y-137907083D01*
X211907169Y-137724812D01*
X211885562Y-137672648D01*
X211885823Y-137670665D01*
X211887671Y-137669900D01*
X211889174Y-137670940D01*
X211897738Y-137686963D01*
X211913034Y-137705600D01*
X211931670Y-137720895D01*
X211952934Y-137732260D01*
X211976009Y-137739260D01*
X212000000Y-137741623D01*
X212023991Y-137739260D01*
X212047066Y-137732260D01*
X212068330Y-137720895D01*
X212086967Y-137705599D01*
X212102262Y-137686963D01*
X212110826Y-137670940D01*
X212112525Y-137669884D01*
X212114288Y-137670827D01*
G37*
G36*
X230114288Y-137670827D02*
G01*
X230114438Y-137672648D01*
X230092831Y-137724812D01*
X230056575Y-137907083D01*
X230056575Y-138092917D01*
X230092831Y-138275188D01*
X230114438Y-138327352D01*
X230114177Y-138329335D01*
X230112329Y-138330100D01*
X230110826Y-138329060D01*
X230102262Y-138313037D01*
X230086966Y-138294400D01*
X230068330Y-138279105D01*
X230047066Y-138267740D01*
X230023991Y-138260740D01*
X230000000Y-138258377D01*
X229976009Y-138260740D01*
X229952934Y-138267740D01*
X229931670Y-138279105D01*
X229913033Y-138294401D01*
X229897738Y-138313037D01*
X229889174Y-138329060D01*
X229887475Y-138330116D01*
X229885712Y-138329173D01*
X229885562Y-138327352D01*
X229907169Y-138275188D01*
X229943425Y-138092917D01*
X229943425Y-137907083D01*
X229907169Y-137724812D01*
X229885562Y-137672648D01*
X229885823Y-137670665D01*
X229887671Y-137669900D01*
X229889174Y-137670940D01*
X229897738Y-137686963D01*
X229913034Y-137705600D01*
X229931670Y-137720895D01*
X229952934Y-137732260D01*
X229976009Y-137739260D01*
X230000000Y-137741623D01*
X230023991Y-137739260D01*
X230047066Y-137732260D01*
X230068330Y-137720895D01*
X230086967Y-137705599D01*
X230102262Y-137686963D01*
X230110826Y-137670940D01*
X230112525Y-137669884D01*
X230114288Y-137670827D01*
G37*
G36*
X242114288Y-137670827D02*
G01*
X242114438Y-137672648D01*
X242092831Y-137724812D01*
X242056575Y-137907083D01*
X242056575Y-138092917D01*
X242092831Y-138275188D01*
X242114438Y-138327352D01*
X242114177Y-138329335D01*
X242112329Y-138330100D01*
X242110826Y-138329060D01*
X242102262Y-138313037D01*
X242086966Y-138294400D01*
X242068330Y-138279105D01*
X242047066Y-138267740D01*
X242023991Y-138260740D01*
X242000000Y-138258377D01*
X241976009Y-138260740D01*
X241952934Y-138267740D01*
X241931670Y-138279105D01*
X241913033Y-138294401D01*
X241897738Y-138313037D01*
X241889174Y-138329060D01*
X241887475Y-138330116D01*
X241885712Y-138329173D01*
X241885562Y-138327352D01*
X241907169Y-138275188D01*
X241943425Y-138092917D01*
X241943425Y-137907083D01*
X241907169Y-137724812D01*
X241885562Y-137672648D01*
X241885823Y-137670665D01*
X241887671Y-137669900D01*
X241889174Y-137670940D01*
X241897738Y-137686963D01*
X241913034Y-137705600D01*
X241931670Y-137720895D01*
X241952934Y-137732260D01*
X241976009Y-137739260D01*
X242000000Y-137741623D01*
X242023991Y-137739260D01*
X242047066Y-137732260D01*
X242068330Y-137720895D01*
X242086967Y-137705599D01*
X242102262Y-137686963D01*
X242110826Y-137670940D01*
X242112525Y-137669884D01*
X242114288Y-137670827D01*
G37*
G36*
X228114288Y-137670827D02*
G01*
X228114438Y-137672648D01*
X228092831Y-137724812D01*
X228056575Y-137907083D01*
X228056575Y-138092917D01*
X228092831Y-138275188D01*
X228114438Y-138327352D01*
X228114177Y-138329335D01*
X228112329Y-138330100D01*
X228110826Y-138329060D01*
X228102262Y-138313037D01*
X228086966Y-138294400D01*
X228068330Y-138279105D01*
X228047066Y-138267740D01*
X228023991Y-138260740D01*
X228000000Y-138258377D01*
X227976009Y-138260740D01*
X227952934Y-138267740D01*
X227931670Y-138279105D01*
X227913033Y-138294401D01*
X227897738Y-138313037D01*
X227889174Y-138329060D01*
X227887475Y-138330116D01*
X227885712Y-138329173D01*
X227885562Y-138327352D01*
X227907169Y-138275188D01*
X227943425Y-138092917D01*
X227943425Y-137907083D01*
X227907169Y-137724812D01*
X227885562Y-137672648D01*
X227885823Y-137670665D01*
X227887671Y-137669900D01*
X227889174Y-137670940D01*
X227897738Y-137686963D01*
X227913034Y-137705600D01*
X227931670Y-137720895D01*
X227952934Y-137732260D01*
X227976009Y-137739260D01*
X228000000Y-137741623D01*
X228023991Y-137739260D01*
X228047066Y-137732260D01*
X228068330Y-137720895D01*
X228086967Y-137705599D01*
X228102262Y-137686963D01*
X228110826Y-137670940D01*
X228112525Y-137669884D01*
X228114288Y-137670827D01*
G37*
G36*
X278114288Y-137670827D02*
G01*
X278114438Y-137672648D01*
X278092831Y-137724812D01*
X278056575Y-137907083D01*
X278056575Y-138092917D01*
X278092831Y-138275188D01*
X278114438Y-138327352D01*
X278114177Y-138329335D01*
X278112329Y-138330100D01*
X278110826Y-138329060D01*
X278102262Y-138313037D01*
X278086966Y-138294400D01*
X278068330Y-138279105D01*
X278047066Y-138267740D01*
X278023991Y-138260740D01*
X278000000Y-138258377D01*
X277976009Y-138260740D01*
X277952934Y-138267740D01*
X277931670Y-138279105D01*
X277913033Y-138294401D01*
X277897738Y-138313037D01*
X277889174Y-138329060D01*
X277887475Y-138330116D01*
X277885712Y-138329173D01*
X277885562Y-138327352D01*
X277907169Y-138275188D01*
X277943425Y-138092917D01*
X277943425Y-137907083D01*
X277907169Y-137724812D01*
X277885562Y-137672648D01*
X277885823Y-137670665D01*
X277887671Y-137669900D01*
X277889174Y-137670940D01*
X277897738Y-137686963D01*
X277913034Y-137705600D01*
X277931670Y-137720895D01*
X277952934Y-137732260D01*
X277976009Y-137739260D01*
X278000000Y-137741623D01*
X278023991Y-137739260D01*
X278047066Y-137732260D01*
X278068330Y-137720895D01*
X278086967Y-137705599D01*
X278102262Y-137686963D01*
X278110826Y-137670940D01*
X278112525Y-137669884D01*
X278114288Y-137670827D01*
G37*
G36*
X274114288Y-137670827D02*
G01*
X274114438Y-137672648D01*
X274092831Y-137724812D01*
X274056575Y-137907083D01*
X274056575Y-138092917D01*
X274092831Y-138275188D01*
X274114438Y-138327352D01*
X274114177Y-138329335D01*
X274112329Y-138330100D01*
X274110826Y-138329060D01*
X274102262Y-138313037D01*
X274086966Y-138294400D01*
X274068330Y-138279105D01*
X274047066Y-138267740D01*
X274023991Y-138260740D01*
X274000000Y-138258377D01*
X273976009Y-138260740D01*
X273952934Y-138267740D01*
X273931670Y-138279105D01*
X273913033Y-138294401D01*
X273897738Y-138313037D01*
X273889174Y-138329060D01*
X273887475Y-138330116D01*
X273885712Y-138329173D01*
X273885562Y-138327352D01*
X273907169Y-138275188D01*
X273943425Y-138092917D01*
X273943425Y-137907083D01*
X273907169Y-137724812D01*
X273885562Y-137672648D01*
X273885823Y-137670665D01*
X273887671Y-137669900D01*
X273889174Y-137670940D01*
X273897738Y-137686963D01*
X273913034Y-137705600D01*
X273931670Y-137720895D01*
X273952934Y-137732260D01*
X273976009Y-137739260D01*
X274000000Y-137741623D01*
X274023991Y-137739260D01*
X274047066Y-137732260D01*
X274068330Y-137720895D01*
X274086967Y-137705599D01*
X274102262Y-137686963D01*
X274110826Y-137670940D01*
X274112525Y-137669884D01*
X274114288Y-137670827D01*
G37*
G36*
X292114288Y-137670827D02*
G01*
X292114438Y-137672648D01*
X292092831Y-137724812D01*
X292056575Y-137907083D01*
X292056575Y-138092917D01*
X292092831Y-138275188D01*
X292114438Y-138327352D01*
X292114177Y-138329335D01*
X292112329Y-138330100D01*
X292110826Y-138329060D01*
X292102262Y-138313037D01*
X292086966Y-138294400D01*
X292068330Y-138279105D01*
X292047066Y-138267740D01*
X292023991Y-138260740D01*
X292000000Y-138258377D01*
X291976009Y-138260740D01*
X291952934Y-138267740D01*
X291931670Y-138279105D01*
X291913033Y-138294401D01*
X291897738Y-138313037D01*
X291889174Y-138329060D01*
X291887475Y-138330116D01*
X291885712Y-138329173D01*
X291885562Y-138327352D01*
X291907169Y-138275188D01*
X291943425Y-138092917D01*
X291943425Y-137907083D01*
X291907169Y-137724812D01*
X291885562Y-137672648D01*
X291885823Y-137670665D01*
X291887671Y-137669900D01*
X291889174Y-137670940D01*
X291897738Y-137686963D01*
X291913034Y-137705600D01*
X291931670Y-137720895D01*
X291952934Y-137732260D01*
X291976009Y-137739260D01*
X292000000Y-137741623D01*
X292023991Y-137739260D01*
X292047066Y-137732260D01*
X292068330Y-137720895D01*
X292086967Y-137705599D01*
X292102262Y-137686963D01*
X292110826Y-137670940D01*
X292112525Y-137669884D01*
X292114288Y-137670827D01*
G37*
G36*
X262114288Y-137670827D02*
G01*
X262114438Y-137672648D01*
X262092831Y-137724812D01*
X262056575Y-137907083D01*
X262056575Y-138092917D01*
X262092831Y-138275188D01*
X262114438Y-138327352D01*
X262114177Y-138329335D01*
X262112329Y-138330100D01*
X262110826Y-138329060D01*
X262102262Y-138313037D01*
X262086966Y-138294400D01*
X262068330Y-138279105D01*
X262047066Y-138267740D01*
X262023991Y-138260740D01*
X262000000Y-138258377D01*
X261976009Y-138260740D01*
X261952934Y-138267740D01*
X261931670Y-138279105D01*
X261913033Y-138294401D01*
X261897738Y-138313037D01*
X261889174Y-138329060D01*
X261887475Y-138330116D01*
X261885712Y-138329173D01*
X261885562Y-138327352D01*
X261907169Y-138275188D01*
X261943425Y-138092917D01*
X261943425Y-137907083D01*
X261907169Y-137724812D01*
X261885562Y-137672648D01*
X261885823Y-137670665D01*
X261887671Y-137669900D01*
X261889174Y-137670940D01*
X261897738Y-137686963D01*
X261913034Y-137705600D01*
X261931670Y-137720895D01*
X261952934Y-137732260D01*
X261976009Y-137739260D01*
X262000000Y-137741623D01*
X262023991Y-137739260D01*
X262047066Y-137732260D01*
X262068330Y-137720895D01*
X262086967Y-137705599D01*
X262102262Y-137686963D01*
X262110826Y-137670940D01*
X262112525Y-137669884D01*
X262114288Y-137670827D01*
G37*
G36*
X260114288Y-107670827D02*
G01*
X260114438Y-107672648D01*
X260092831Y-107724812D01*
X260056575Y-107907083D01*
X260056575Y-108092917D01*
X260092831Y-108275188D01*
X260114438Y-108327352D01*
X260114177Y-108329335D01*
X260112329Y-108330100D01*
X260110826Y-108329060D01*
X260102262Y-108313037D01*
X260086966Y-108294400D01*
X260068330Y-108279105D01*
X260047066Y-108267740D01*
X260023991Y-108260740D01*
X260000000Y-108258377D01*
X259976009Y-108260740D01*
X259952934Y-108267740D01*
X259931670Y-108279105D01*
X259913033Y-108294401D01*
X259897738Y-108313037D01*
X259889174Y-108329060D01*
X259887475Y-108330116D01*
X259885712Y-108329173D01*
X259885562Y-108327352D01*
X259907169Y-108275188D01*
X259943425Y-108092917D01*
X259943425Y-107907083D01*
X259907169Y-107724812D01*
X259885562Y-107672648D01*
X259885823Y-107670665D01*
X259887671Y-107669900D01*
X259889174Y-107670940D01*
X259897738Y-107686963D01*
X259913034Y-107705600D01*
X259931670Y-107720895D01*
X259952934Y-107732260D01*
X259976009Y-107739260D01*
X260000000Y-107741623D01*
X260023991Y-107739260D01*
X260047066Y-107732260D01*
X260068330Y-107720895D01*
X260086967Y-107705599D01*
X260102262Y-107686963D01*
X260110826Y-107670940D01*
X260112525Y-107669884D01*
X260114288Y-107670827D01*
G37*
G36*
X274114288Y-107670827D02*
G01*
X274114438Y-107672648D01*
X274092831Y-107724812D01*
X274056575Y-107907083D01*
X274056575Y-108092917D01*
X274092831Y-108275188D01*
X274114438Y-108327352D01*
X274114177Y-108329335D01*
X274112329Y-108330100D01*
X274110826Y-108329060D01*
X274102262Y-108313037D01*
X274086966Y-108294400D01*
X274068330Y-108279105D01*
X274047066Y-108267740D01*
X274023991Y-108260740D01*
X274000000Y-108258377D01*
X273976009Y-108260740D01*
X273952934Y-108267740D01*
X273931670Y-108279105D01*
X273913033Y-108294401D01*
X273897738Y-108313037D01*
X273889174Y-108329060D01*
X273887475Y-108330116D01*
X273885712Y-108329173D01*
X273885562Y-108327352D01*
X273907169Y-108275188D01*
X273943425Y-108092917D01*
X273943425Y-107907083D01*
X273907169Y-107724812D01*
X273885562Y-107672648D01*
X273885823Y-107670665D01*
X273887671Y-107669900D01*
X273889174Y-107670940D01*
X273897738Y-107686963D01*
X273913034Y-107705600D01*
X273931670Y-107720895D01*
X273952934Y-107732260D01*
X273976009Y-107739260D01*
X274000000Y-107741623D01*
X274023991Y-107739260D01*
X274047066Y-107732260D01*
X274068330Y-107720895D01*
X274086967Y-107705599D01*
X274102262Y-107686963D01*
X274110826Y-107670940D01*
X274112525Y-107669884D01*
X274114288Y-107670827D01*
G37*
G36*
X278114288Y-107670827D02*
G01*
X278114438Y-107672648D01*
X278092831Y-107724812D01*
X278056575Y-107907083D01*
X278056575Y-108092917D01*
X278092831Y-108275188D01*
X278114438Y-108327352D01*
X278114177Y-108329335D01*
X278112329Y-108330100D01*
X278110826Y-108329060D01*
X278102262Y-108313037D01*
X278086966Y-108294400D01*
X278068330Y-108279105D01*
X278047066Y-108267740D01*
X278023991Y-108260740D01*
X278000000Y-108258377D01*
X277976009Y-108260740D01*
X277952934Y-108267740D01*
X277931670Y-108279105D01*
X277913033Y-108294401D01*
X277897738Y-108313037D01*
X277889174Y-108329060D01*
X277887475Y-108330116D01*
X277885712Y-108329173D01*
X277885562Y-108327352D01*
X277907169Y-108275188D01*
X277943425Y-108092917D01*
X277943425Y-107907083D01*
X277907169Y-107724812D01*
X277885562Y-107672648D01*
X277885823Y-107670665D01*
X277887671Y-107669900D01*
X277889174Y-107670940D01*
X277897738Y-107686963D01*
X277913034Y-107705600D01*
X277931670Y-107720895D01*
X277952934Y-107732260D01*
X277976009Y-107739260D01*
X278000000Y-107741623D01*
X278023991Y-107739260D01*
X278047066Y-107732260D01*
X278068330Y-107720895D01*
X278086967Y-107705599D01*
X278102262Y-107686963D01*
X278110826Y-107670940D01*
X278112525Y-107669884D01*
X278114288Y-107670827D01*
G37*
G36*
X214114288Y-107670827D02*
G01*
X214114438Y-107672648D01*
X214092831Y-107724812D01*
X214056575Y-107907083D01*
X214056575Y-108092917D01*
X214092831Y-108275188D01*
X214114438Y-108327352D01*
X214114177Y-108329335D01*
X214112329Y-108330100D01*
X214110826Y-108329060D01*
X214102262Y-108313037D01*
X214086966Y-108294400D01*
X214068330Y-108279105D01*
X214047066Y-108267740D01*
X214023991Y-108260740D01*
X214000000Y-108258377D01*
X213976009Y-108260740D01*
X213952934Y-108267740D01*
X213931670Y-108279105D01*
X213913033Y-108294401D01*
X213897738Y-108313037D01*
X213889174Y-108329060D01*
X213887475Y-108330116D01*
X213885712Y-108329173D01*
X213885562Y-108327352D01*
X213907169Y-108275188D01*
X213943425Y-108092917D01*
X213943425Y-107907083D01*
X213907169Y-107724812D01*
X213885562Y-107672648D01*
X213885823Y-107670665D01*
X213887671Y-107669900D01*
X213889174Y-107670940D01*
X213897738Y-107686963D01*
X213913034Y-107705600D01*
X213931670Y-107720895D01*
X213952934Y-107732260D01*
X213976009Y-107739260D01*
X214000000Y-107741623D01*
X214023991Y-107739260D01*
X214047066Y-107732260D01*
X214068330Y-107720895D01*
X214086967Y-107705599D01*
X214102262Y-107686963D01*
X214110826Y-107670940D01*
X214112525Y-107669884D01*
X214114288Y-107670827D01*
G37*
G36*
X290114288Y-107670827D02*
G01*
X290114438Y-107672648D01*
X290092831Y-107724812D01*
X290056575Y-107907083D01*
X290056575Y-108092917D01*
X290092831Y-108275188D01*
X290114438Y-108327352D01*
X290114177Y-108329335D01*
X290112329Y-108330100D01*
X290110826Y-108329060D01*
X290102262Y-108313037D01*
X290086966Y-108294400D01*
X290068330Y-108279105D01*
X290047066Y-108267740D01*
X290023991Y-108260740D01*
X290000000Y-108258377D01*
X289976009Y-108260740D01*
X289952934Y-108267740D01*
X289931670Y-108279105D01*
X289913033Y-108294401D01*
X289897738Y-108313037D01*
X289889174Y-108329060D01*
X289887475Y-108330116D01*
X289885712Y-108329173D01*
X289885562Y-108327352D01*
X289907169Y-108275188D01*
X289943425Y-108092917D01*
X289943425Y-107907083D01*
X289907169Y-107724812D01*
X289885562Y-107672648D01*
X289885823Y-107670665D01*
X289887671Y-107669900D01*
X289889174Y-107670940D01*
X289897738Y-107686963D01*
X289913034Y-107705600D01*
X289931670Y-107720895D01*
X289952934Y-107732260D01*
X289976009Y-107739260D01*
X290000000Y-107741623D01*
X290023991Y-107739260D01*
X290047066Y-107732260D01*
X290068330Y-107720895D01*
X290086967Y-107705599D01*
X290102262Y-107686963D01*
X290110826Y-107670940D01*
X290112525Y-107669884D01*
X290114288Y-107670827D01*
G37*
G36*
X212114288Y-107670827D02*
G01*
X212114438Y-107672648D01*
X212092831Y-107724812D01*
X212056575Y-107907083D01*
X212056575Y-108092917D01*
X212092831Y-108275188D01*
X212114438Y-108327352D01*
X212114177Y-108329335D01*
X212112329Y-108330100D01*
X212110826Y-108329060D01*
X212102262Y-108313037D01*
X212086966Y-108294400D01*
X212068330Y-108279105D01*
X212047066Y-108267740D01*
X212023991Y-108260740D01*
X212000000Y-108258377D01*
X211976009Y-108260740D01*
X211952934Y-108267740D01*
X211931670Y-108279105D01*
X211913033Y-108294401D01*
X211897738Y-108313037D01*
X211889174Y-108329060D01*
X211887475Y-108330116D01*
X211885712Y-108329173D01*
X211885562Y-108327352D01*
X211907169Y-108275188D01*
X211943425Y-108092917D01*
X211943425Y-107907083D01*
X211907169Y-107724812D01*
X211885562Y-107672648D01*
X211885823Y-107670665D01*
X211887671Y-107669900D01*
X211889174Y-107670940D01*
X211897738Y-107686963D01*
X211913034Y-107705600D01*
X211931670Y-107720895D01*
X211952934Y-107732260D01*
X211976009Y-107739260D01*
X212000000Y-107741623D01*
X212023991Y-107739260D01*
X212047066Y-107732260D01*
X212068330Y-107720895D01*
X212086967Y-107705599D01*
X212102262Y-107686963D01*
X212110826Y-107670940D01*
X212112525Y-107669884D01*
X212114288Y-107670827D01*
G37*
G36*
X210114288Y-107670827D02*
G01*
X210114438Y-107672648D01*
X210092831Y-107724812D01*
X210056575Y-107907083D01*
X210056575Y-108092917D01*
X210092831Y-108275188D01*
X210114438Y-108327352D01*
X210114177Y-108329335D01*
X210112329Y-108330100D01*
X210110826Y-108329060D01*
X210102262Y-108313037D01*
X210086966Y-108294400D01*
X210068330Y-108279105D01*
X210047066Y-108267740D01*
X210023991Y-108260740D01*
X210000000Y-108258377D01*
X209976009Y-108260740D01*
X209952934Y-108267740D01*
X209931670Y-108279105D01*
X209913033Y-108294401D01*
X209897738Y-108313037D01*
X209889174Y-108329060D01*
X209887475Y-108330116D01*
X209885712Y-108329173D01*
X209885562Y-108327352D01*
X209907169Y-108275188D01*
X209943425Y-108092917D01*
X209943425Y-107907083D01*
X209907169Y-107724812D01*
X209885562Y-107672648D01*
X209885823Y-107670665D01*
X209887671Y-107669900D01*
X209889174Y-107670940D01*
X209897738Y-107686963D01*
X209913034Y-107705600D01*
X209931670Y-107720895D01*
X209952934Y-107732260D01*
X209976009Y-107739260D01*
X210000000Y-107741623D01*
X210023991Y-107739260D01*
X210047066Y-107732260D01*
X210068330Y-107720895D01*
X210086967Y-107705599D01*
X210102262Y-107686963D01*
X210110826Y-107670940D01*
X210112525Y-107669884D01*
X210114288Y-107670827D01*
G37*
G36*
X242114288Y-107670827D02*
G01*
X242114438Y-107672648D01*
X242092831Y-107724812D01*
X242056575Y-107907083D01*
X242056575Y-108092917D01*
X242092831Y-108275188D01*
X242114438Y-108327352D01*
X242114177Y-108329335D01*
X242112329Y-108330100D01*
X242110826Y-108329060D01*
X242102262Y-108313037D01*
X242086966Y-108294400D01*
X242068330Y-108279105D01*
X242047066Y-108267740D01*
X242023991Y-108260740D01*
X242000000Y-108258377D01*
X241976009Y-108260740D01*
X241952934Y-108267740D01*
X241931670Y-108279105D01*
X241913033Y-108294401D01*
X241897738Y-108313037D01*
X241889174Y-108329060D01*
X241887475Y-108330116D01*
X241885712Y-108329173D01*
X241885562Y-108327352D01*
X241907169Y-108275188D01*
X241943425Y-108092917D01*
X241943425Y-107907083D01*
X241907169Y-107724812D01*
X241885562Y-107672648D01*
X241885823Y-107670665D01*
X241887671Y-107669900D01*
X241889174Y-107670940D01*
X241897738Y-107686963D01*
X241913034Y-107705600D01*
X241931670Y-107720895D01*
X241952934Y-107732260D01*
X241976009Y-107739260D01*
X242000000Y-107741623D01*
X242023991Y-107739260D01*
X242047066Y-107732260D01*
X242068330Y-107720895D01*
X242086967Y-107705599D01*
X242102262Y-107686963D01*
X242110826Y-107670940D01*
X242112525Y-107669884D01*
X242114288Y-107670827D01*
G37*
G36*
X294114288Y-107670827D02*
G01*
X294114438Y-107672648D01*
X294092831Y-107724812D01*
X294056575Y-107907083D01*
X294056575Y-108092917D01*
X294092831Y-108275188D01*
X294114438Y-108327352D01*
X294114177Y-108329335D01*
X294112329Y-108330100D01*
X294110826Y-108329060D01*
X294102262Y-108313037D01*
X294086966Y-108294400D01*
X294068330Y-108279105D01*
X294047066Y-108267740D01*
X294023991Y-108260740D01*
X294000000Y-108258377D01*
X293976009Y-108260740D01*
X293952934Y-108267740D01*
X293931670Y-108279105D01*
X293913033Y-108294401D01*
X293897738Y-108313037D01*
X293889174Y-108329060D01*
X293887475Y-108330116D01*
X293885712Y-108329173D01*
X293885562Y-108327352D01*
X293907169Y-108275188D01*
X293943425Y-108092917D01*
X293943425Y-107907083D01*
X293907169Y-107724812D01*
X293885562Y-107672648D01*
X293885823Y-107670665D01*
X293887671Y-107669900D01*
X293889174Y-107670940D01*
X293897738Y-107686963D01*
X293913034Y-107705600D01*
X293931670Y-107720895D01*
X293952934Y-107732260D01*
X293976009Y-107739260D01*
X294000000Y-107741623D01*
X294023991Y-107739260D01*
X294047066Y-107732260D01*
X294068330Y-107720895D01*
X294086967Y-107705599D01*
X294102262Y-107686963D01*
X294110826Y-107670940D01*
X294112525Y-107669884D01*
X294114288Y-107670827D01*
G37*
G36*
X228114288Y-107670827D02*
G01*
X228114438Y-107672648D01*
X228092831Y-107724812D01*
X228056575Y-107907083D01*
X228056575Y-108092917D01*
X228092831Y-108275188D01*
X228114438Y-108327352D01*
X228114177Y-108329335D01*
X228112329Y-108330100D01*
X228110826Y-108329060D01*
X228102262Y-108313037D01*
X228086966Y-108294400D01*
X228068330Y-108279105D01*
X228047066Y-108267740D01*
X228023991Y-108260740D01*
X228000000Y-108258377D01*
X227976009Y-108260740D01*
X227952934Y-108267740D01*
X227931670Y-108279105D01*
X227913033Y-108294401D01*
X227897738Y-108313037D01*
X227889174Y-108329060D01*
X227887475Y-108330116D01*
X227885712Y-108329173D01*
X227885562Y-108327352D01*
X227907169Y-108275188D01*
X227943425Y-108092917D01*
X227943425Y-107907083D01*
X227907169Y-107724812D01*
X227885562Y-107672648D01*
X227885823Y-107670665D01*
X227887671Y-107669900D01*
X227889174Y-107670940D01*
X227897738Y-107686963D01*
X227913034Y-107705600D01*
X227931670Y-107720895D01*
X227952934Y-107732260D01*
X227976009Y-107739260D01*
X228000000Y-107741623D01*
X228023991Y-107739260D01*
X228047066Y-107732260D01*
X228068330Y-107720895D01*
X228086967Y-107705599D01*
X228102262Y-107686963D01*
X228110826Y-107670940D01*
X228112525Y-107669884D01*
X228114288Y-107670827D01*
G37*
G36*
X246114288Y-107670827D02*
G01*
X246114438Y-107672648D01*
X246092831Y-107724812D01*
X246056575Y-107907083D01*
X246056575Y-108092917D01*
X246092831Y-108275188D01*
X246114438Y-108327352D01*
X246114177Y-108329335D01*
X246112329Y-108330100D01*
X246110826Y-108329060D01*
X246102262Y-108313037D01*
X246086966Y-108294400D01*
X246068330Y-108279105D01*
X246047066Y-108267740D01*
X246023991Y-108260740D01*
X246000000Y-108258377D01*
X245976009Y-108260740D01*
X245952934Y-108267740D01*
X245931670Y-108279105D01*
X245913033Y-108294401D01*
X245897738Y-108313037D01*
X245889174Y-108329060D01*
X245887475Y-108330116D01*
X245885712Y-108329173D01*
X245885562Y-108327352D01*
X245907169Y-108275188D01*
X245943425Y-108092917D01*
X245943425Y-107907083D01*
X245907169Y-107724812D01*
X245885562Y-107672648D01*
X245885823Y-107670665D01*
X245887671Y-107669900D01*
X245889174Y-107670940D01*
X245897738Y-107686963D01*
X245913034Y-107705600D01*
X245931670Y-107720895D01*
X245952934Y-107732260D01*
X245976009Y-107739260D01*
X246000000Y-107741623D01*
X246023991Y-107739260D01*
X246047066Y-107732260D01*
X246068330Y-107720895D01*
X246086967Y-107705599D01*
X246102262Y-107686963D01*
X246110826Y-107670940D01*
X246112525Y-107669884D01*
X246114288Y-107670827D01*
G37*
G36*
X244114288Y-107670827D02*
G01*
X244114438Y-107672648D01*
X244092831Y-107724812D01*
X244056575Y-107907083D01*
X244056575Y-108092917D01*
X244092831Y-108275188D01*
X244114438Y-108327352D01*
X244114177Y-108329335D01*
X244112329Y-108330100D01*
X244110826Y-108329060D01*
X244102262Y-108313037D01*
X244086966Y-108294400D01*
X244068330Y-108279105D01*
X244047066Y-108267740D01*
X244023991Y-108260740D01*
X244000000Y-108258377D01*
X243976009Y-108260740D01*
X243952934Y-108267740D01*
X243931670Y-108279105D01*
X243913033Y-108294401D01*
X243897738Y-108313037D01*
X243889174Y-108329060D01*
X243887475Y-108330116D01*
X243885712Y-108329173D01*
X243885562Y-108327352D01*
X243907169Y-108275188D01*
X243943425Y-108092917D01*
X243943425Y-107907083D01*
X243907169Y-107724812D01*
X243885562Y-107672648D01*
X243885823Y-107670665D01*
X243887671Y-107669900D01*
X243889174Y-107670940D01*
X243897738Y-107686963D01*
X243913034Y-107705600D01*
X243931670Y-107720895D01*
X243952934Y-107732260D01*
X243976009Y-107739260D01*
X244000000Y-107741623D01*
X244023991Y-107739260D01*
X244047066Y-107732260D01*
X244068330Y-107720895D01*
X244086967Y-107705599D01*
X244102262Y-107686963D01*
X244110826Y-107670940D01*
X244112525Y-107669884D01*
X244114288Y-107670827D01*
G37*
G36*
X292114288Y-107670827D02*
G01*
X292114438Y-107672648D01*
X292092831Y-107724812D01*
X292056575Y-107907083D01*
X292056575Y-108092917D01*
X292092831Y-108275188D01*
X292114438Y-108327352D01*
X292114177Y-108329335D01*
X292112329Y-108330100D01*
X292110826Y-108329060D01*
X292102262Y-108313037D01*
X292086966Y-108294400D01*
X292068330Y-108279105D01*
X292047066Y-108267740D01*
X292023991Y-108260740D01*
X292000000Y-108258377D01*
X291976009Y-108260740D01*
X291952934Y-108267740D01*
X291931670Y-108279105D01*
X291913033Y-108294401D01*
X291897738Y-108313037D01*
X291889174Y-108329060D01*
X291887475Y-108330116D01*
X291885712Y-108329173D01*
X291885562Y-108327352D01*
X291907169Y-108275188D01*
X291943425Y-108092917D01*
X291943425Y-107907083D01*
X291907169Y-107724812D01*
X291885562Y-107672648D01*
X291885823Y-107670665D01*
X291887671Y-107669900D01*
X291889174Y-107670940D01*
X291897738Y-107686963D01*
X291913034Y-107705600D01*
X291931670Y-107720895D01*
X291952934Y-107732260D01*
X291976009Y-107739260D01*
X292000000Y-107741623D01*
X292023991Y-107739260D01*
X292047066Y-107732260D01*
X292068330Y-107720895D01*
X292086967Y-107705599D01*
X292102262Y-107686963D01*
X292110826Y-107670940D01*
X292112525Y-107669884D01*
X292114288Y-107670827D01*
G37*
G36*
X226114288Y-107670827D02*
G01*
X226114438Y-107672648D01*
X226092831Y-107724812D01*
X226056575Y-107907083D01*
X226056575Y-108092917D01*
X226092831Y-108275188D01*
X226114438Y-108327352D01*
X226114177Y-108329335D01*
X226112329Y-108330100D01*
X226110826Y-108329060D01*
X226102262Y-108313037D01*
X226086966Y-108294400D01*
X226068330Y-108279105D01*
X226047066Y-108267740D01*
X226023991Y-108260740D01*
X226000000Y-108258377D01*
X225976009Y-108260740D01*
X225952934Y-108267740D01*
X225931670Y-108279105D01*
X225913033Y-108294401D01*
X225897738Y-108313037D01*
X225889174Y-108329060D01*
X225887475Y-108330116D01*
X225885712Y-108329173D01*
X225885562Y-108327352D01*
X225907169Y-108275188D01*
X225943425Y-108092917D01*
X225943425Y-107907083D01*
X225907169Y-107724812D01*
X225885562Y-107672648D01*
X225885823Y-107670665D01*
X225887671Y-107669900D01*
X225889174Y-107670940D01*
X225897738Y-107686963D01*
X225913034Y-107705600D01*
X225931670Y-107720895D01*
X225952934Y-107732260D01*
X225976009Y-107739260D01*
X226000000Y-107741623D01*
X226023991Y-107739260D01*
X226047066Y-107732260D01*
X226068330Y-107720895D01*
X226086967Y-107705599D01*
X226102262Y-107686963D01*
X226110826Y-107670940D01*
X226112525Y-107669884D01*
X226114288Y-107670827D01*
G37*
G36*
X230114288Y-107670827D02*
G01*
X230114438Y-107672648D01*
X230092831Y-107724812D01*
X230056575Y-107907083D01*
X230056575Y-108092917D01*
X230092831Y-108275188D01*
X230114438Y-108327352D01*
X230114177Y-108329335D01*
X230112329Y-108330100D01*
X230110826Y-108329060D01*
X230102262Y-108313037D01*
X230086966Y-108294400D01*
X230068330Y-108279105D01*
X230047066Y-108267740D01*
X230023991Y-108260740D01*
X230000000Y-108258377D01*
X229976009Y-108260740D01*
X229952934Y-108267740D01*
X229931670Y-108279105D01*
X229913033Y-108294401D01*
X229897738Y-108313037D01*
X229889174Y-108329060D01*
X229887475Y-108330116D01*
X229885712Y-108329173D01*
X229885562Y-108327352D01*
X229907169Y-108275188D01*
X229943425Y-108092917D01*
X229943425Y-107907083D01*
X229907169Y-107724812D01*
X229885562Y-107672648D01*
X229885823Y-107670665D01*
X229887671Y-107669900D01*
X229889174Y-107670940D01*
X229897738Y-107686963D01*
X229913034Y-107705600D01*
X229931670Y-107720895D01*
X229952934Y-107732260D01*
X229976009Y-107739260D01*
X230000000Y-107741623D01*
X230023991Y-107739260D01*
X230047066Y-107732260D01*
X230068330Y-107720895D01*
X230086967Y-107705599D01*
X230102262Y-107686963D01*
X230110826Y-107670940D01*
X230112525Y-107669884D01*
X230114288Y-107670827D01*
G37*
G36*
X258114288Y-107670827D02*
G01*
X258114438Y-107672648D01*
X258092831Y-107724812D01*
X258056575Y-107907083D01*
X258056575Y-108092917D01*
X258092831Y-108275188D01*
X258114438Y-108327352D01*
X258114177Y-108329335D01*
X258112329Y-108330100D01*
X258110826Y-108329060D01*
X258102262Y-108313037D01*
X258086966Y-108294400D01*
X258068330Y-108279105D01*
X258047066Y-108267740D01*
X258023991Y-108260740D01*
X258000000Y-108258377D01*
X257976009Y-108260740D01*
X257952934Y-108267740D01*
X257931670Y-108279105D01*
X257913033Y-108294401D01*
X257897738Y-108313037D01*
X257889174Y-108329060D01*
X257887475Y-108330116D01*
X257885712Y-108329173D01*
X257885562Y-108327352D01*
X257907169Y-108275188D01*
X257943425Y-108092917D01*
X257943425Y-107907083D01*
X257907169Y-107724812D01*
X257885562Y-107672648D01*
X257885823Y-107670665D01*
X257887671Y-107669900D01*
X257889174Y-107670940D01*
X257897738Y-107686963D01*
X257913034Y-107705600D01*
X257931670Y-107720895D01*
X257952934Y-107732260D01*
X257976009Y-107739260D01*
X258000000Y-107741623D01*
X258023991Y-107739260D01*
X258047066Y-107732260D01*
X258068330Y-107720895D01*
X258086967Y-107705599D01*
X258102262Y-107686963D01*
X258110826Y-107670940D01*
X258112525Y-107669884D01*
X258114288Y-107670827D01*
G37*
G36*
X276114288Y-107670827D02*
G01*
X276114438Y-107672648D01*
X276092831Y-107724812D01*
X276056575Y-107907083D01*
X276056575Y-108092917D01*
X276092831Y-108275188D01*
X276114438Y-108327352D01*
X276114177Y-108329335D01*
X276112329Y-108330100D01*
X276110826Y-108329060D01*
X276102262Y-108313037D01*
X276086966Y-108294400D01*
X276068330Y-108279105D01*
X276047066Y-108267740D01*
X276023991Y-108260740D01*
X276000000Y-108258377D01*
X275976009Y-108260740D01*
X275952934Y-108267740D01*
X275931670Y-108279105D01*
X275913033Y-108294401D01*
X275897738Y-108313037D01*
X275889174Y-108329060D01*
X275887475Y-108330116D01*
X275885712Y-108329173D01*
X275885562Y-108327352D01*
X275907169Y-108275188D01*
X275943425Y-108092917D01*
X275943425Y-107907083D01*
X275907169Y-107724812D01*
X275885562Y-107672648D01*
X275885823Y-107670665D01*
X275887671Y-107669900D01*
X275889174Y-107670940D01*
X275897738Y-107686963D01*
X275913034Y-107705600D01*
X275931670Y-107720895D01*
X275952934Y-107732260D01*
X275976009Y-107739260D01*
X276000000Y-107741623D01*
X276023991Y-107739260D01*
X276047066Y-107732260D01*
X276068330Y-107720895D01*
X276086967Y-107705599D01*
X276102262Y-107686963D01*
X276110826Y-107670940D01*
X276112525Y-107669884D01*
X276114288Y-107670827D01*
G37*
G36*
X262114288Y-107670827D02*
G01*
X262114438Y-107672648D01*
X262092831Y-107724812D01*
X262056575Y-107907083D01*
X262056575Y-108092917D01*
X262092831Y-108275188D01*
X262114438Y-108327352D01*
X262114177Y-108329335D01*
X262112329Y-108330100D01*
X262110826Y-108329060D01*
X262102262Y-108313037D01*
X262086966Y-108294400D01*
X262068330Y-108279105D01*
X262047066Y-108267740D01*
X262023991Y-108260740D01*
X262000000Y-108258377D01*
X261976009Y-108260740D01*
X261952934Y-108267740D01*
X261931670Y-108279105D01*
X261913033Y-108294401D01*
X261897738Y-108313037D01*
X261889174Y-108329060D01*
X261887475Y-108330116D01*
X261885712Y-108329173D01*
X261885562Y-108327352D01*
X261907169Y-108275188D01*
X261943425Y-108092917D01*
X261943425Y-107907083D01*
X261907169Y-107724812D01*
X261885562Y-107672648D01*
X261885823Y-107670665D01*
X261887671Y-107669900D01*
X261889174Y-107670940D01*
X261897738Y-107686963D01*
X261913034Y-107705600D01*
X261931670Y-107720895D01*
X261952934Y-107732260D01*
X261976009Y-107739260D01*
X262000000Y-107741623D01*
X262023991Y-107739260D01*
X262047066Y-107732260D01*
X262068330Y-107720895D01*
X262086967Y-107705599D01*
X262102262Y-107686963D01*
X262110826Y-107670940D01*
X262112525Y-107669884D01*
X262114288Y-107670827D01*
G37*
G36*
X244114288Y-77670827D02*
G01*
X244114438Y-77672648D01*
X244092831Y-77724812D01*
X244056575Y-77907083D01*
X244056575Y-78092917D01*
X244092831Y-78275188D01*
X244114438Y-78327352D01*
X244114177Y-78329335D01*
X244112329Y-78330100D01*
X244110826Y-78329060D01*
X244102262Y-78313037D01*
X244086966Y-78294400D01*
X244068330Y-78279105D01*
X244047066Y-78267740D01*
X244023991Y-78260740D01*
X244000000Y-78258377D01*
X243976009Y-78260740D01*
X243952934Y-78267740D01*
X243931670Y-78279105D01*
X243913033Y-78294401D01*
X243897738Y-78313037D01*
X243889174Y-78329060D01*
X243887475Y-78330116D01*
X243885712Y-78329173D01*
X243885562Y-78327352D01*
X243907169Y-78275188D01*
X243943425Y-78092917D01*
X243943425Y-77907083D01*
X243907169Y-77724812D01*
X243885562Y-77672648D01*
X243885823Y-77670665D01*
X243887671Y-77669900D01*
X243889174Y-77670940D01*
X243897738Y-77686963D01*
X243913034Y-77705600D01*
X243931670Y-77720895D01*
X243952934Y-77732260D01*
X243976009Y-77739260D01*
X244000000Y-77741623D01*
X244023991Y-77739260D01*
X244047066Y-77732260D01*
X244068330Y-77720895D01*
X244086967Y-77705599D01*
X244102262Y-77686963D01*
X244110826Y-77670940D01*
X244112525Y-77669884D01*
X244114288Y-77670827D01*
G37*
G36*
X228114288Y-77670827D02*
G01*
X228114438Y-77672648D01*
X228092831Y-77724812D01*
X228056575Y-77907083D01*
X228056575Y-78092917D01*
X228092831Y-78275188D01*
X228114438Y-78327352D01*
X228114177Y-78329335D01*
X228112329Y-78330100D01*
X228110826Y-78329060D01*
X228102262Y-78313037D01*
X228086966Y-78294400D01*
X228068330Y-78279105D01*
X228047066Y-78267740D01*
X228023991Y-78260740D01*
X228000000Y-78258377D01*
X227976009Y-78260740D01*
X227952934Y-78267740D01*
X227931670Y-78279105D01*
X227913033Y-78294401D01*
X227897738Y-78313037D01*
X227889174Y-78329060D01*
X227887475Y-78330116D01*
X227885712Y-78329173D01*
X227885562Y-78327352D01*
X227907169Y-78275188D01*
X227943425Y-78092917D01*
X227943425Y-77907083D01*
X227907169Y-77724812D01*
X227885562Y-77672648D01*
X227885823Y-77670665D01*
X227887671Y-77669900D01*
X227889174Y-77670940D01*
X227897738Y-77686963D01*
X227913034Y-77705600D01*
X227931670Y-77720895D01*
X227952934Y-77732260D01*
X227976009Y-77739260D01*
X228000000Y-77741623D01*
X228023991Y-77739260D01*
X228047066Y-77732260D01*
X228068330Y-77720895D01*
X228086967Y-77705599D01*
X228102262Y-77686963D01*
X228110826Y-77670940D01*
X228112525Y-77669884D01*
X228114288Y-77670827D01*
G37*
G36*
X226114288Y-77670827D02*
G01*
X226114438Y-77672648D01*
X226092831Y-77724812D01*
X226056575Y-77907083D01*
X226056575Y-78092917D01*
X226092831Y-78275188D01*
X226114438Y-78327352D01*
X226114177Y-78329335D01*
X226112329Y-78330100D01*
X226110826Y-78329060D01*
X226102262Y-78313037D01*
X226086966Y-78294400D01*
X226068330Y-78279105D01*
X226047066Y-78267740D01*
X226023991Y-78260740D01*
X226000000Y-78258377D01*
X225976009Y-78260740D01*
X225952934Y-78267740D01*
X225931670Y-78279105D01*
X225913033Y-78294401D01*
X225897738Y-78313037D01*
X225889174Y-78329060D01*
X225887475Y-78330116D01*
X225885712Y-78329173D01*
X225885562Y-78327352D01*
X225907169Y-78275188D01*
X225943425Y-78092917D01*
X225943425Y-77907083D01*
X225907169Y-77724812D01*
X225885562Y-77672648D01*
X225885823Y-77670665D01*
X225887671Y-77669900D01*
X225889174Y-77670940D01*
X225897738Y-77686963D01*
X225913034Y-77705600D01*
X225931670Y-77720895D01*
X225952934Y-77732260D01*
X225976009Y-77739260D01*
X226000000Y-77741623D01*
X226023991Y-77739260D01*
X226047066Y-77732260D01*
X226068330Y-77720895D01*
X226086967Y-77705599D01*
X226102262Y-77686963D01*
X226110826Y-77670940D01*
X226112525Y-77669884D01*
X226114288Y-77670827D01*
G37*
G36*
X294114288Y-77670827D02*
G01*
X294114438Y-77672648D01*
X294092831Y-77724812D01*
X294056575Y-77907083D01*
X294056575Y-78092917D01*
X294092831Y-78275188D01*
X294114438Y-78327352D01*
X294114177Y-78329335D01*
X294112329Y-78330100D01*
X294110826Y-78329060D01*
X294102262Y-78313037D01*
X294086966Y-78294400D01*
X294068330Y-78279105D01*
X294047066Y-78267740D01*
X294023991Y-78260740D01*
X294000000Y-78258377D01*
X293976009Y-78260740D01*
X293952934Y-78267740D01*
X293931670Y-78279105D01*
X293913033Y-78294401D01*
X293897738Y-78313037D01*
X293889174Y-78329060D01*
X293887475Y-78330116D01*
X293885712Y-78329173D01*
X293885562Y-78327352D01*
X293907169Y-78275188D01*
X293943425Y-78092917D01*
X293943425Y-77907083D01*
X293907169Y-77724812D01*
X293885562Y-77672648D01*
X293885823Y-77670665D01*
X293887671Y-77669900D01*
X293889174Y-77670940D01*
X293897738Y-77686963D01*
X293913034Y-77705600D01*
X293931670Y-77720895D01*
X293952934Y-77732260D01*
X293976009Y-77739260D01*
X294000000Y-77741623D01*
X294023991Y-77739260D01*
X294047066Y-77732260D01*
X294068330Y-77720895D01*
X294086967Y-77705599D01*
X294102262Y-77686963D01*
X294110826Y-77670940D01*
X294112525Y-77669884D01*
X294114288Y-77670827D01*
G37*
G36*
X230114288Y-77670827D02*
G01*
X230114438Y-77672648D01*
X230092831Y-77724812D01*
X230056575Y-77907083D01*
X230056575Y-78092917D01*
X230092831Y-78275188D01*
X230114438Y-78327352D01*
X230114177Y-78329335D01*
X230112329Y-78330100D01*
X230110826Y-78329060D01*
X230102262Y-78313037D01*
X230086966Y-78294400D01*
X230068330Y-78279105D01*
X230047066Y-78267740D01*
X230023991Y-78260740D01*
X230000000Y-78258377D01*
X229976009Y-78260740D01*
X229952934Y-78267740D01*
X229931670Y-78279105D01*
X229913033Y-78294401D01*
X229897738Y-78313037D01*
X229889174Y-78329060D01*
X229887475Y-78330116D01*
X229885712Y-78329173D01*
X229885562Y-78327352D01*
X229907169Y-78275188D01*
X229943425Y-78092917D01*
X229943425Y-77907083D01*
X229907169Y-77724812D01*
X229885562Y-77672648D01*
X229885823Y-77670665D01*
X229887671Y-77669900D01*
X229889174Y-77670940D01*
X229897738Y-77686963D01*
X229913034Y-77705600D01*
X229931670Y-77720895D01*
X229952934Y-77732260D01*
X229976009Y-77739260D01*
X230000000Y-77741623D01*
X230023991Y-77739260D01*
X230047066Y-77732260D01*
X230068330Y-77720895D01*
X230086967Y-77705599D01*
X230102262Y-77686963D01*
X230110826Y-77670940D01*
X230112525Y-77669884D01*
X230114288Y-77670827D01*
G37*
G36*
X292114288Y-77670827D02*
G01*
X292114438Y-77672648D01*
X292092831Y-77724812D01*
X292056575Y-77907083D01*
X292056575Y-78092917D01*
X292092831Y-78275188D01*
X292114438Y-78327352D01*
X292114177Y-78329335D01*
X292112329Y-78330100D01*
X292110826Y-78329060D01*
X292102262Y-78313037D01*
X292086966Y-78294400D01*
X292068330Y-78279105D01*
X292047066Y-78267740D01*
X292023991Y-78260740D01*
X292000000Y-78258377D01*
X291976009Y-78260740D01*
X291952934Y-78267740D01*
X291931670Y-78279105D01*
X291913033Y-78294401D01*
X291897738Y-78313037D01*
X291889174Y-78329060D01*
X291887475Y-78330116D01*
X291885712Y-78329173D01*
X291885562Y-78327352D01*
X291907169Y-78275188D01*
X291943425Y-78092917D01*
X291943425Y-77907083D01*
X291907169Y-77724812D01*
X291885562Y-77672648D01*
X291885823Y-77670665D01*
X291887671Y-77669900D01*
X291889174Y-77670940D01*
X291897738Y-77686963D01*
X291913034Y-77705600D01*
X291931670Y-77720895D01*
X291952934Y-77732260D01*
X291976009Y-77739260D01*
X292000000Y-77741623D01*
X292023991Y-77739260D01*
X292047066Y-77732260D01*
X292068330Y-77720895D01*
X292086967Y-77705599D01*
X292102262Y-77686963D01*
X292110826Y-77670940D01*
X292112525Y-77669884D01*
X292114288Y-77670827D01*
G37*
G36*
X258114288Y-77670827D02*
G01*
X258114438Y-77672648D01*
X258092831Y-77724812D01*
X258056575Y-77907083D01*
X258056575Y-78092917D01*
X258092831Y-78275188D01*
X258114438Y-78327352D01*
X258114177Y-78329335D01*
X258112329Y-78330100D01*
X258110826Y-78329060D01*
X258102262Y-78313037D01*
X258086966Y-78294400D01*
X258068330Y-78279105D01*
X258047066Y-78267740D01*
X258023991Y-78260740D01*
X258000000Y-78258377D01*
X257976009Y-78260740D01*
X257952934Y-78267740D01*
X257931670Y-78279105D01*
X257913033Y-78294401D01*
X257897738Y-78313037D01*
X257889174Y-78329060D01*
X257887475Y-78330116D01*
X257885712Y-78329173D01*
X257885562Y-78327352D01*
X257907169Y-78275188D01*
X257943425Y-78092917D01*
X257943425Y-77907083D01*
X257907169Y-77724812D01*
X257885562Y-77672648D01*
X257885823Y-77670665D01*
X257887671Y-77669900D01*
X257889174Y-77670940D01*
X257897738Y-77686963D01*
X257913034Y-77705600D01*
X257931670Y-77720895D01*
X257952934Y-77732260D01*
X257976009Y-77739260D01*
X258000000Y-77741623D01*
X258023991Y-77739260D01*
X258047066Y-77732260D01*
X258068330Y-77720895D01*
X258086967Y-77705599D01*
X258102262Y-77686963D01*
X258110826Y-77670940D01*
X258112525Y-77669884D01*
X258114288Y-77670827D01*
G37*
G36*
X274114288Y-77670827D02*
G01*
X274114438Y-77672648D01*
X274092831Y-77724812D01*
X274056575Y-77907083D01*
X274056575Y-78092917D01*
X274092831Y-78275188D01*
X274114438Y-78327352D01*
X274114177Y-78329335D01*
X274112329Y-78330100D01*
X274110826Y-78329060D01*
X274102262Y-78313037D01*
X274086966Y-78294400D01*
X274068330Y-78279105D01*
X274047066Y-78267740D01*
X274023991Y-78260740D01*
X274000000Y-78258377D01*
X273976009Y-78260740D01*
X273952934Y-78267740D01*
X273931670Y-78279105D01*
X273913033Y-78294401D01*
X273897738Y-78313037D01*
X273889174Y-78329060D01*
X273887475Y-78330116D01*
X273885712Y-78329173D01*
X273885562Y-78327352D01*
X273907169Y-78275188D01*
X273943425Y-78092917D01*
X273943425Y-77907083D01*
X273907169Y-77724812D01*
X273885562Y-77672648D01*
X273885823Y-77670665D01*
X273887671Y-77669900D01*
X273889174Y-77670940D01*
X273897738Y-77686963D01*
X273913034Y-77705600D01*
X273931670Y-77720895D01*
X273952934Y-77732260D01*
X273976009Y-77739260D01*
X274000000Y-77741623D01*
X274023991Y-77739260D01*
X274047066Y-77732260D01*
X274068330Y-77720895D01*
X274086967Y-77705599D01*
X274102262Y-77686963D01*
X274110826Y-77670940D01*
X274112525Y-77669884D01*
X274114288Y-77670827D01*
G37*
G36*
X260114288Y-77670827D02*
G01*
X260114438Y-77672648D01*
X260092831Y-77724812D01*
X260056575Y-77907083D01*
X260056575Y-78092917D01*
X260092831Y-78275188D01*
X260114438Y-78327352D01*
X260114177Y-78329335D01*
X260112329Y-78330100D01*
X260110826Y-78329060D01*
X260102262Y-78313037D01*
X260086966Y-78294400D01*
X260068330Y-78279105D01*
X260047066Y-78267740D01*
X260023991Y-78260740D01*
X260000000Y-78258377D01*
X259976009Y-78260740D01*
X259952934Y-78267740D01*
X259931670Y-78279105D01*
X259913033Y-78294401D01*
X259897738Y-78313037D01*
X259889174Y-78329060D01*
X259887475Y-78330116D01*
X259885712Y-78329173D01*
X259885562Y-78327352D01*
X259907169Y-78275188D01*
X259943425Y-78092917D01*
X259943425Y-77907083D01*
X259907169Y-77724812D01*
X259885562Y-77672648D01*
X259885823Y-77670665D01*
X259887671Y-77669900D01*
X259889174Y-77670940D01*
X259897738Y-77686963D01*
X259913034Y-77705600D01*
X259931670Y-77720895D01*
X259952934Y-77732260D01*
X259976009Y-77739260D01*
X260000000Y-77741623D01*
X260023991Y-77739260D01*
X260047066Y-77732260D01*
X260068330Y-77720895D01*
X260086967Y-77705599D01*
X260102262Y-77686963D01*
X260110826Y-77670940D01*
X260112525Y-77669884D01*
X260114288Y-77670827D01*
G37*
G36*
X262114288Y-77670827D02*
G01*
X262114438Y-77672648D01*
X262092831Y-77724812D01*
X262056575Y-77907083D01*
X262056575Y-78092917D01*
X262092831Y-78275188D01*
X262114438Y-78327352D01*
X262114177Y-78329335D01*
X262112329Y-78330100D01*
X262110826Y-78329060D01*
X262102262Y-78313037D01*
X262086966Y-78294400D01*
X262068330Y-78279105D01*
X262047066Y-78267740D01*
X262023991Y-78260740D01*
X262000000Y-78258377D01*
X261976009Y-78260740D01*
X261952934Y-78267740D01*
X261931670Y-78279105D01*
X261913033Y-78294401D01*
X261897738Y-78313037D01*
X261889174Y-78329060D01*
X261887475Y-78330116D01*
X261885712Y-78329173D01*
X261885562Y-78327352D01*
X261907169Y-78275188D01*
X261943425Y-78092917D01*
X261943425Y-77907083D01*
X261907169Y-77724812D01*
X261885562Y-77672648D01*
X261885823Y-77670665D01*
X261887671Y-77669900D01*
X261889174Y-77670940D01*
X261897738Y-77686963D01*
X261913034Y-77705600D01*
X261931670Y-77720895D01*
X261952934Y-77732260D01*
X261976009Y-77739260D01*
X262000000Y-77741623D01*
X262023991Y-77739260D01*
X262047066Y-77732260D01*
X262068330Y-77720895D01*
X262086967Y-77705599D01*
X262102262Y-77686963D01*
X262110826Y-77670940D01*
X262112525Y-77669884D01*
X262114288Y-77670827D01*
G37*
G36*
X278114288Y-77670827D02*
G01*
X278114438Y-77672648D01*
X278092831Y-77724812D01*
X278056575Y-77907083D01*
X278056575Y-78092917D01*
X278092831Y-78275188D01*
X278114438Y-78327352D01*
X278114177Y-78329335D01*
X278112329Y-78330100D01*
X278110826Y-78329060D01*
X278102262Y-78313037D01*
X278086966Y-78294400D01*
X278068330Y-78279105D01*
X278047066Y-78267740D01*
X278023991Y-78260740D01*
X278000000Y-78258377D01*
X277976009Y-78260740D01*
X277952934Y-78267740D01*
X277931670Y-78279105D01*
X277913033Y-78294401D01*
X277897738Y-78313037D01*
X277889174Y-78329060D01*
X277887475Y-78330116D01*
X277885712Y-78329173D01*
X277885562Y-78327352D01*
X277907169Y-78275188D01*
X277943425Y-78092917D01*
X277943425Y-77907083D01*
X277907169Y-77724812D01*
X277885562Y-77672648D01*
X277885823Y-77670665D01*
X277887671Y-77669900D01*
X277889174Y-77670940D01*
X277897738Y-77686963D01*
X277913034Y-77705600D01*
X277931670Y-77720895D01*
X277952934Y-77732260D01*
X277976009Y-77739260D01*
X278000000Y-77741623D01*
X278023991Y-77739260D01*
X278047066Y-77732260D01*
X278068330Y-77720895D01*
X278086967Y-77705599D01*
X278102262Y-77686963D01*
X278110826Y-77670940D01*
X278112525Y-77669884D01*
X278114288Y-77670827D01*
G37*
G36*
X210114288Y-77670827D02*
G01*
X210114438Y-77672648D01*
X210092831Y-77724812D01*
X210056575Y-77907083D01*
X210056575Y-78092917D01*
X210092831Y-78275188D01*
X210114438Y-78327352D01*
X210114177Y-78329335D01*
X210112329Y-78330100D01*
X210110826Y-78329060D01*
X210102262Y-78313037D01*
X210086966Y-78294400D01*
X210068330Y-78279105D01*
X210047066Y-78267740D01*
X210023991Y-78260740D01*
X210000000Y-78258377D01*
X209976009Y-78260740D01*
X209952934Y-78267740D01*
X209931670Y-78279105D01*
X209913033Y-78294401D01*
X209897738Y-78313037D01*
X209889174Y-78329060D01*
X209887475Y-78330116D01*
X209885712Y-78329173D01*
X209885562Y-78327352D01*
X209907169Y-78275188D01*
X209943425Y-78092917D01*
X209943425Y-77907083D01*
X209907169Y-77724812D01*
X209885562Y-77672648D01*
X209885823Y-77670665D01*
X209887671Y-77669900D01*
X209889174Y-77670940D01*
X209897738Y-77686963D01*
X209913034Y-77705600D01*
X209931670Y-77720895D01*
X209952934Y-77732260D01*
X209976009Y-77739260D01*
X210000000Y-77741623D01*
X210023991Y-77739260D01*
X210047066Y-77732260D01*
X210068330Y-77720895D01*
X210086967Y-77705599D01*
X210102262Y-77686963D01*
X210110826Y-77670940D01*
X210112525Y-77669884D01*
X210114288Y-77670827D01*
G37*
G36*
X276114288Y-77670827D02*
G01*
X276114438Y-77672648D01*
X276092831Y-77724812D01*
X276056575Y-77907083D01*
X276056575Y-78092917D01*
X276092831Y-78275188D01*
X276114438Y-78327352D01*
X276114177Y-78329335D01*
X276112329Y-78330100D01*
X276110826Y-78329060D01*
X276102262Y-78313037D01*
X276086966Y-78294400D01*
X276068330Y-78279105D01*
X276047066Y-78267740D01*
X276023991Y-78260740D01*
X276000000Y-78258377D01*
X275976009Y-78260740D01*
X275952934Y-78267740D01*
X275931670Y-78279105D01*
X275913033Y-78294401D01*
X275897738Y-78313037D01*
X275889174Y-78329060D01*
X275887475Y-78330116D01*
X275885712Y-78329173D01*
X275885562Y-78327352D01*
X275907169Y-78275188D01*
X275943425Y-78092917D01*
X275943425Y-77907083D01*
X275907169Y-77724812D01*
X275885562Y-77672648D01*
X275885823Y-77670665D01*
X275887671Y-77669900D01*
X275889174Y-77670940D01*
X275897738Y-77686963D01*
X275913034Y-77705600D01*
X275931670Y-77720895D01*
X275952934Y-77732260D01*
X275976009Y-77739260D01*
X276000000Y-77741623D01*
X276023991Y-77739260D01*
X276047066Y-77732260D01*
X276068330Y-77720895D01*
X276086967Y-77705599D01*
X276102262Y-77686963D01*
X276110826Y-77670940D01*
X276112525Y-77669884D01*
X276114288Y-77670827D01*
G37*
G36*
X212114288Y-77670827D02*
G01*
X212114438Y-77672648D01*
X212092831Y-77724812D01*
X212056575Y-77907083D01*
X212056575Y-78092917D01*
X212092831Y-78275188D01*
X212114438Y-78327352D01*
X212114177Y-78329335D01*
X212112329Y-78330100D01*
X212110826Y-78329060D01*
X212102262Y-78313037D01*
X212086966Y-78294400D01*
X212068330Y-78279105D01*
X212047066Y-78267740D01*
X212023991Y-78260740D01*
X212000000Y-78258377D01*
X211976009Y-78260740D01*
X211952934Y-78267740D01*
X211931670Y-78279105D01*
X211913033Y-78294401D01*
X211897738Y-78313037D01*
X211889174Y-78329060D01*
X211887475Y-78330116D01*
X211885712Y-78329173D01*
X211885562Y-78327352D01*
X211907169Y-78275188D01*
X211943425Y-78092917D01*
X211943425Y-77907083D01*
X211907169Y-77724812D01*
X211885562Y-77672648D01*
X211885823Y-77670665D01*
X211887671Y-77669900D01*
X211889174Y-77670940D01*
X211897738Y-77686963D01*
X211913034Y-77705600D01*
X211931670Y-77720895D01*
X211952934Y-77732260D01*
X211976009Y-77739260D01*
X212000000Y-77741623D01*
X212023991Y-77739260D01*
X212047066Y-77732260D01*
X212068330Y-77720895D01*
X212086967Y-77705599D01*
X212102262Y-77686963D01*
X212110826Y-77670940D01*
X212112525Y-77669884D01*
X212114288Y-77670827D01*
G37*
G36*
X246114288Y-77670827D02*
G01*
X246114438Y-77672648D01*
X246092831Y-77724812D01*
X246056575Y-77907083D01*
X246056575Y-78092917D01*
X246092831Y-78275188D01*
X246114438Y-78327352D01*
X246114177Y-78329335D01*
X246112329Y-78330100D01*
X246110826Y-78329060D01*
X246102262Y-78313037D01*
X246086966Y-78294400D01*
X246068330Y-78279105D01*
X246047066Y-78267740D01*
X246023991Y-78260740D01*
X246000000Y-78258377D01*
X245976009Y-78260740D01*
X245952934Y-78267740D01*
X245931670Y-78279105D01*
X245913033Y-78294401D01*
X245897738Y-78313037D01*
X245889174Y-78329060D01*
X245887475Y-78330116D01*
X245885712Y-78329173D01*
X245885562Y-78327352D01*
X245907169Y-78275188D01*
X245943425Y-78092917D01*
X245943425Y-77907083D01*
X245907169Y-77724812D01*
X245885562Y-77672648D01*
X245885823Y-77670665D01*
X245887671Y-77669900D01*
X245889174Y-77670940D01*
X245897738Y-77686963D01*
X245913034Y-77705600D01*
X245931670Y-77720895D01*
X245952934Y-77732260D01*
X245976009Y-77739260D01*
X246000000Y-77741623D01*
X246023991Y-77739260D01*
X246047066Y-77732260D01*
X246068330Y-77720895D01*
X246086967Y-77705599D01*
X246102262Y-77686963D01*
X246110826Y-77670940D01*
X246112525Y-77669884D01*
X246114288Y-77670827D01*
G37*
G36*
X214114288Y-77670827D02*
G01*
X214114438Y-77672648D01*
X214092831Y-77724812D01*
X214056575Y-77907083D01*
X214056575Y-78092917D01*
X214092831Y-78275188D01*
X214114438Y-78327352D01*
X214114177Y-78329335D01*
X214112329Y-78330100D01*
X214110826Y-78329060D01*
X214102262Y-78313037D01*
X214086966Y-78294400D01*
X214068330Y-78279105D01*
X214047066Y-78267740D01*
X214023991Y-78260740D01*
X214000000Y-78258377D01*
X213976009Y-78260740D01*
X213952934Y-78267740D01*
X213931670Y-78279105D01*
X213913033Y-78294401D01*
X213897738Y-78313037D01*
X213889174Y-78329060D01*
X213887475Y-78330116D01*
X213885712Y-78329173D01*
X213885562Y-78327352D01*
X213907169Y-78275188D01*
X213943425Y-78092917D01*
X213943425Y-77907083D01*
X213907169Y-77724812D01*
X213885562Y-77672648D01*
X213885823Y-77670665D01*
X213887671Y-77669900D01*
X213889174Y-77670940D01*
X213897738Y-77686963D01*
X213913034Y-77705600D01*
X213931670Y-77720895D01*
X213952934Y-77732260D01*
X213976009Y-77739260D01*
X214000000Y-77741623D01*
X214023991Y-77739260D01*
X214047066Y-77732260D01*
X214068330Y-77720895D01*
X214086967Y-77705599D01*
X214102262Y-77686963D01*
X214110826Y-77670940D01*
X214112525Y-77669884D01*
X214114288Y-77670827D01*
G37*
G36*
X242114288Y-77670827D02*
G01*
X242114438Y-77672648D01*
X242092831Y-77724812D01*
X242056575Y-77907083D01*
X242056575Y-78092917D01*
X242092831Y-78275188D01*
X242114438Y-78327352D01*
X242114177Y-78329335D01*
X242112329Y-78330100D01*
X242110826Y-78329060D01*
X242102262Y-78313037D01*
X242086966Y-78294400D01*
X242068330Y-78279105D01*
X242047066Y-78267740D01*
X242023991Y-78260740D01*
X242000000Y-78258377D01*
X241976009Y-78260740D01*
X241952934Y-78267740D01*
X241931670Y-78279105D01*
X241913033Y-78294401D01*
X241897738Y-78313037D01*
X241889174Y-78329060D01*
X241887475Y-78330116D01*
X241885712Y-78329173D01*
X241885562Y-78327352D01*
X241907169Y-78275188D01*
X241943425Y-78092917D01*
X241943425Y-77907083D01*
X241907169Y-77724812D01*
X241885562Y-77672648D01*
X241885823Y-77670665D01*
X241887671Y-77669900D01*
X241889174Y-77670940D01*
X241897738Y-77686963D01*
X241913034Y-77705600D01*
X241931670Y-77720895D01*
X241952934Y-77732260D01*
X241976009Y-77739260D01*
X242000000Y-77741623D01*
X242023991Y-77739260D01*
X242047066Y-77732260D01*
X242068330Y-77720895D01*
X242086967Y-77705599D01*
X242102262Y-77686963D01*
X242110826Y-77670940D01*
X242112525Y-77669884D01*
X242114288Y-77670827D01*
G37*
G36*
X290114288Y-77670827D02*
G01*
X290114438Y-77672648D01*
X290092831Y-77724812D01*
X290056575Y-77907083D01*
X290056575Y-78092917D01*
X290092831Y-78275188D01*
X290114438Y-78327352D01*
X290114177Y-78329335D01*
X290112329Y-78330100D01*
X290110826Y-78329060D01*
X290102262Y-78313037D01*
X290086966Y-78294400D01*
X290068330Y-78279105D01*
X290047066Y-78267740D01*
X290023991Y-78260740D01*
X290000000Y-78258377D01*
X289976009Y-78260740D01*
X289952934Y-78267740D01*
X289931670Y-78279105D01*
X289913033Y-78294401D01*
X289897738Y-78313037D01*
X289889174Y-78329060D01*
X289887475Y-78330116D01*
X289885712Y-78329173D01*
X289885562Y-78327352D01*
X289907169Y-78275188D01*
X289943425Y-78092917D01*
X289943425Y-77907083D01*
X289907169Y-77724812D01*
X289885562Y-77672648D01*
X289885823Y-77670665D01*
X289887671Y-77669900D01*
X289889174Y-77670940D01*
X289897738Y-77686963D01*
X289913034Y-77705600D01*
X289931670Y-77720895D01*
X289952934Y-77732260D01*
X289976009Y-77739260D01*
X290000000Y-77741623D01*
X290023991Y-77739260D01*
X290047066Y-77732260D01*
X290068330Y-77720895D01*
X290086967Y-77705599D01*
X290102262Y-77686963D01*
X290110826Y-77670940D01*
X290112525Y-77669884D01*
X290114288Y-77670827D01*
G37*
M02*
